<svg xmlns="http://www.w3.org/2000/svg" xmlns:xlink="http://www.w3.org/1999/xlink" viewBox="0 0 2040.8836 1000"><defs><style>.cls-1{fill:none;}.cls-2{isolation:isolate;}.cls-3{clip-path:url(#clip-path);}.cls-4{opacity:0.82;fill:url(#linear-gradient);}.cls-5{fill:#fff;}.cls-6{opacity:0.54;fill:url(#linear-gradient-2);}.cls-7{fill:#3f334d;}.cls-8{fill:#5b5168;}.cls-9{fill:#0c155c;}.cls-10{fill:#f7d1ba;}.cls-11{fill:#e18538;}.cls-12{fill:#080e3d;}.cls-13{fill:#101c7a;}.cls-14{fill:#77331b;}.cls-15,.cls-19{opacity:0.14;mix-blend-mode:multiply;}.cls-16{fill:url(#White_Black);}.cls-17{fill:url(#White_Black-2);}.cls-18{opacity:0.88;mix-blend-mode:screen;fill:url(#radial-gradient);}.cls-19{fill:url(#White_Black-3);}.cls-20{mix-blend-mode:darken;}.cls-21{fill:#cbcbc6;}.cls-22{fill:#f4f4f4;}.cls-23{fill:#5d96cf;}</style><clipPath id="clip-path"><rect class="cls-1" x="-0.4118" y="3.1414" width="2041.4118" height="997.4118"/></clipPath><linearGradient id="linear-gradient" x1="263.2489" y1="436.3524" x2="263.2489" y2="573.2403" gradientUnits="userSpaceOnUse"><stop offset="0" stop-color="#fff"/><stop offset="1" stop-color="#e18538"/></linearGradient><linearGradient id="linear-gradient-2" x1="988.5593" y1="670.2524" x2="987.5005" y2="670.2524" gradientTransform="matrix(1, -0.0008, 0.0007, 0.8607, -0.3149, 103.7384)" gradientUnits="userSpaceOnUse"><stop offset="0" stop-color="#101c7a"/><stop offset="1" stop-color="#5d96cf"/></linearGradient><linearGradient id="White_Black" x1="727.2418" y1="658.9875" x2="727.2418" y2="620.9215" gradientUnits="userSpaceOnUse"><stop offset="0" stop-color="#fff"/><stop offset="1" stop-color="#272425"/></linearGradient><linearGradient id="White_Black-2" x1="780.9097" y1="658.9874" x2="780.9097" y2="620.9212" xlink:href="#White_Black"/><radialGradient id="radial-gradient" cx="669.4147" cy="596.4664" r="47.2278" gradientUnits="userSpaceOnUse"><stop offset="0" stop-color="#9dc8e6" stop-opacity="0.54"/><stop offset="0.1925" stop-color="#abd0ea" stop-opacity="0.4602"/><stop offset="0.5802" stop-color="#d1e5f3" stop-opacity="0.2529"/><stop offset="1" stop-color="#fff" stop-opacity="0"/></radialGradient><linearGradient id="White_Black-3" x1="384.8277" y1="812.525" x2="384.8277" y2="748.1751" xlink:href="#White_Black"/></defs><title>Artboard 5ldpi</title><g class="cls-2"><g id="img"><g class="cls-3"><path class="cls-4" d="M517.3725,547.3534c-36.856-1.98-76.652,13.7911-100.47,26.0618-25.7167,13.2486-53.3119-7.77-72.703-25.5393-42.2842-38.7476-109.8113-97.8323-202.7329-97.8323-53.7008,0-98.9207,25.1843-135.6887,44.6317-26.6034,14.0711-64.6064,10.12-83.6864-9.034a374.5119,374.5119,0,0,0-48.5238-41.2832V604.7064H652.93S614.7274,552.5828,517.3725,547.3534Z"/><path class="cls-5" d="M636.377,603.71a2.6911,2.6911,0,0,1,2.69-2.6905h0a2.691,2.691,0,0,1,2.6895,2.6905h0a2.6886,2.6886,0,0,1-2.6895,2.68h0A2.6887,2.6887,0,0,1,636.377,603.71Zm-13.92,0a2.6826,2.6826,0,0,1,2.68-2.6905h0a2.6912,2.6912,0,0,1,2.69,2.6905h0a2.6888,2.6888,0,0,1-2.69,2.68h0A2.68,2.68,0,0,1,622.457,603.71Zm-13.93,0a2.6826,2.6826,0,0,1,2.68-2.6905h0a2.6912,2.6912,0,0,1,2.6905,2.6905h0a2.6888,2.6888,0,0,1-2.6905,2.68h0A2.68,2.68,0,0,1,608.5274,603.71Zm-13.93,0a2.682,2.682,0,0,1,2.68-2.6905h0a2.6909,2.6909,0,0,1,2.6894,2.6905h0a2.6885,2.6885,0,0,1-2.6894,2.68h0A2.68,2.68,0,0,1,594.5977,603.71Zm-13.9307,0a2.6828,2.6828,0,0,1,2.6807-2.6905h0a2.6847,2.6847,0,0,1,2.6894,2.6905h0a2.6823,2.6823,0,0,1-2.6894,2.68h0A2.68,2.68,0,0,1,580.667,603.71Zm-13.93,0a2.6826,2.6826,0,0,1,2.68-2.6905h0a2.6849,2.6849,0,0,1,2.69,2.6905h0a2.6825,2.6825,0,0,1-2.69,2.68h0A2.68,2.68,0,0,1,566.7373,603.71Zm-13.93,0a2.682,2.682,0,0,1,2.68-2.6905h0a2.6841,2.6841,0,0,1,2.6895,2.6905h0a2.6817,2.6817,0,0,1-2.6895,2.68h0A2.68,2.68,0,0,1,552.8076,603.71Zm-13.9306,0a2.6828,2.6828,0,0,1,2.6806-2.6905h0a2.6847,2.6847,0,0,1,2.69,2.6905h0a2.6823,2.6823,0,0,1-2.69,2.68h0A2.68,2.68,0,0,1,538.877,603.71Zm-13.93,0a2.6826,2.6826,0,0,1,2.68-2.6905h0a2.6849,2.6849,0,0,1,2.69,2.6905h0a2.6825,2.6825,0,0,1-2.69,2.68h0A2.68,2.68,0,0,1,524.9473,603.71Zm-13.93,0a2.684,2.684,0,0,1,2.6894-2.6905h0a2.682,2.682,0,0,1,2.68,2.6905h0a2.68,2.68,0,0,1-2.68,2.68h0A2.6817,2.6817,0,0,1,511.0176,603.71Zm-13.9307,0a2.6849,2.6849,0,0,1,2.69-2.6905h0a2.6825,2.6825,0,0,1,2.68,2.6905h0a2.68,2.68,0,0,1-2.68,2.68h0A2.6825,2.6825,0,0,1,497.0869,603.71Zm-13.93,0a2.6849,2.6849,0,0,1,2.69-2.6905h0a2.6826,2.6826,0,0,1,2.68,2.6905h0a2.68,2.68,0,0,1-2.68,2.68h0A2.6825,2.6825,0,0,1,483.1572,603.71Zm-13.93,0a2.684,2.684,0,0,1,2.6894-2.6905h0a2.6828,2.6828,0,0,1,2.6807,2.6905h0a2.68,2.68,0,0,1-2.6807,2.68h0A2.6817,2.6817,0,0,1,469.2276,603.71Zm-13.9307,0a2.6911,2.6911,0,0,1,2.69-2.6905h0a2.6826,2.6826,0,0,1,2.68,2.6905h0a2.68,2.68,0,0,1-2.68,2.68h0A2.6888,2.6888,0,0,1,455.2969,603.71Zm-13.93,0a2.6849,2.6849,0,0,1,2.69-2.6905h0a2.6826,2.6826,0,0,1,2.68,2.6905h0a2.68,2.68,0,0,1-2.68,2.68h0A2.6825,2.6825,0,0,1,441.3672,603.71Zm-13.93,0a2.691,2.691,0,0,1,2.69-2.6905h0a2.6828,2.6828,0,0,1,2.6806,2.6905h0a2.68,2.68,0,0,1-2.6806,2.68h0A2.6886,2.6886,0,0,1,427.4375,603.71Zm-13.9306,0a2.6911,2.6911,0,0,1,2.69-2.6905h0a2.6826,2.6826,0,0,1,2.68,2.6905h0a2.68,2.68,0,0,1-2.68,2.68h0A2.6887,2.6887,0,0,1,413.5069,603.71Zm-13.92,0a2.6828,2.6828,0,0,1,2.6807-2.6905h0a2.6826,2.6826,0,0,1,2.68,2.6905h0a2.68,2.68,0,0,1-2.68,2.68h0A2.68,2.68,0,0,1,399.5869,603.71Zm-13.93,0a2.6826,2.6826,0,0,1,2.68-2.6905h0a2.6828,2.6828,0,0,1,2.6807,2.6905h0a2.68,2.68,0,0,1-2.6807,2.68h0A2.68,2.68,0,0,1,385.6572,603.71Zm-13.93,0a2.682,2.682,0,0,1,2.68-2.6905h0a2.6918,2.6918,0,0,1,2.69,2.6905h0a2.6894,2.6894,0,0,1-2.69,2.68h0A2.68,2.68,0,0,1,371.7276,603.71Zm-13.9307,0a2.6828,2.6828,0,0,1,2.6807-2.6905h0a2.6909,2.6909,0,0,1,2.6894,2.6905h0a2.6886,2.6886,0,0,1-2.6894,2.68h0A2.68,2.68,0,0,1,357.7969,603.71Zm-13.93,0a2.6827,2.6827,0,0,1,2.68-2.6905h0a2.6848,2.6848,0,0,1,2.69,2.6905h0a2.6824,2.6824,0,0,1-2.69,2.68h0A2.68,2.68,0,0,1,343.8672,603.71Zm-13.93,0a2.6827,2.6827,0,0,1,2.68-2.6905h0a2.6845,2.6845,0,0,1,2.69,2.6905h0a2.6821,2.6821,0,0,1-2.69,2.68h0A2.68,2.68,0,0,1,329.937,603.71Zm-13.93,0a2.6823,2.6823,0,0,1,2.68-2.6905h0a2.6849,2.6849,0,0,1,2.69,2.6905h0a2.6825,2.6825,0,0,1-2.69,2.68h0A2.68,2.68,0,0,1,316.0073,603.71Zm-13.93,0a2.6848,2.6848,0,0,1,2.69-2.6905h0a2.6827,2.6827,0,0,1,2.68,2.6905h0a2.68,2.68,0,0,1-2.68,2.68h0A2.6824,2.6824,0,0,1,302.0772,603.71Zm-13.93,0a2.6849,2.6849,0,0,1,2.69-2.6905h0a2.6823,2.6823,0,0,1,2.68,2.6905h0a2.68,2.68,0,0,1-2.68,2.68h0A2.6825,2.6825,0,0,1,288.147,603.71Zm-13.93,0a2.6845,2.6845,0,0,1,2.69-2.6905h0a2.6827,2.6827,0,0,1,2.68,2.6905h0a2.68,2.68,0,0,1-2.68,2.68h0A2.6821,2.6821,0,0,1,274.2173,603.71Zm-13.93,0a2.6848,2.6848,0,0,1,2.69-2.6905h0a2.6827,2.6827,0,0,1,2.68,2.6905h0a2.68,2.68,0,0,1-2.68,2.68h0A2.6824,2.6824,0,0,1,260.2871,603.71Zm-13.93,0a2.6845,2.6845,0,0,1,2.69-2.6905h0a2.6823,2.6823,0,0,1,2.68,2.6905h0a2.68,2.68,0,0,1-2.68,2.68h0A2.6821,2.6821,0,0,1,246.3574,603.71Zm-13.93,0a2.6848,2.6848,0,0,1,2.69-2.6905h0a2.6827,2.6827,0,0,1,2.68,2.6905h0a2.68,2.68,0,0,1-2.68,2.68h0A2.6824,2.6824,0,0,1,232.4273,603.71Zm-13.93,0a2.691,2.691,0,0,1,2.69-2.6905h0a2.6827,2.6827,0,0,1,2.68,2.6905h0a2.68,2.68,0,0,1-2.68,2.68h0A2.6886,2.6886,0,0,1,218.4971,603.71Zm-13.93,0a2.691,2.691,0,0,1,2.69-2.6905h0a2.6823,2.6823,0,0,1,2.68,2.6905h0a2.68,2.68,0,0,1-2.68,2.68h0A2.6887,2.6887,0,0,1,204.5674,603.71Zm-13.93,0a2.6911,2.6911,0,0,1,2.69-2.6905h0a2.6827,2.6827,0,0,1,2.68,2.6905h0a2.68,2.68,0,0,1-2.68,2.68h0A2.6887,2.6887,0,0,1,190.6372,603.71Zm-13.93,0a2.6911,2.6911,0,0,1,2.69-2.6905h0a2.6911,2.6911,0,0,1,2.69,2.6905h0a2.6887,2.6887,0,0,1-2.69,2.68h0A2.6887,2.6887,0,0,1,176.707,603.71Zm-13.93,0a2.691,2.691,0,0,1,2.69-2.6905h0a2.6823,2.6823,0,0,1,2.68,2.6905h0a2.68,2.68,0,0,1-2.68,2.68h0A2.6886,2.6886,0,0,1,162.7774,603.71Zm-13.92,0a2.6823,2.6823,0,0,1,2.68-2.6905h0a2.6845,2.6845,0,0,1,2.69,2.6905h0a2.6821,2.6821,0,0,1-2.69,2.68h0A2.68,2.68,0,0,1,148.8574,603.71Zm-13.93,0a2.6827,2.6827,0,0,1,2.68-2.6905h0a2.6848,2.6848,0,0,1,2.69,2.6905h0a2.6824,2.6824,0,0,1-2.69,2.68h0A2.68,2.68,0,0,1,134.9273,603.71Zm-13.93,0a2.6827,2.6827,0,0,1,2.68-2.6905h0a2.6848,2.6848,0,0,1,2.69,2.6905h0a2.6824,2.6824,0,0,1-2.69,2.68h0A2.68,2.68,0,0,1,120.9971,603.71Zm-13.93,0a2.6823,2.6823,0,0,1,2.68-2.6905h0a2.6845,2.6845,0,0,1,2.69,2.6905h0a2.6821,2.6821,0,0,1-2.69,2.68h0A2.68,2.68,0,0,1,107.0674,603.71Zm-13.93,0a2.6827,2.6827,0,0,1,2.68-2.6905h0a2.6848,2.6848,0,0,1,2.69,2.6905h0a2.6824,2.6824,0,0,1-2.69,2.68h0A2.68,2.68,0,0,1,93.1372,603.71Zm-13.93,0a2.6827,2.6827,0,0,1,2.68-2.6905h0a2.6845,2.6845,0,0,1,2.69,2.6905h0a2.6821,2.6821,0,0,1-2.69,2.68h0A2.68,2.68,0,0,1,79.207,603.71Zm-13.93,0a2.6845,2.6845,0,0,1,2.69-2.6905h0a2.6823,2.6823,0,0,1,2.68,2.6905h0a2.68,2.68,0,0,1-2.68,2.68h0A2.6821,2.6821,0,0,1,65.2774,603.71Zm-13.93,0a2.6827,2.6827,0,0,1,2.68-2.6905h0a2.6848,2.6848,0,0,1,2.69,2.6905h0a2.6824,2.6824,0,0,1-2.69,2.68h0A2.68,2.68,0,0,1,51.3472,603.71Zm-13.93,0a2.6849,2.6849,0,0,1,2.69-2.6905h0a2.6823,2.6823,0,0,1,2.68,2.6905h0a2.68,2.68,0,0,1-2.68,2.68h0A2.6825,2.6825,0,0,1,37.417,603.71Zm-13.93,0a2.6845,2.6845,0,0,1,2.69-2.6905h0a2.6827,2.6827,0,0,1,2.68,2.6905h0a2.68,2.68,0,0,1-2.68,2.68h0A2.6821,2.6821,0,0,1,23.4873,603.71Zm-13.93,0a2.6848,2.6848,0,0,1,2.69-2.6905h0a2.6827,2.6827,0,0,1,2.68,2.6905h0a2.68,2.68,0,0,1-2.68,2.68h0A2.6824,2.6824,0,0,1,9.5571,603.71Zm-13.93,0a2.6845,2.6845,0,0,1,2.69-2.6905h0a2.6823,2.6823,0,0,1,2.68,2.6905h0a2.68,2.68,0,0,1-2.68,2.68h0A2.6821,2.6821,0,0,1-4.3725,603.71Zm-13.93,0a2.6845,2.6845,0,0,1,2.69-2.6905h0a2.6827,2.6827,0,0,1,2.68,2.6905h0a2.68,2.68,0,0,1-2.68,2.68h0A2.6821,2.6821,0,0,1-18.3027,603.71Zm-13.93,0a2.6848,2.6848,0,0,1,2.69-2.6905h0a2.6827,2.6827,0,0,1,2.68,2.6905h0a2.68,2.68,0,0,1-2.68,2.68h0A2.6824,2.6824,0,0,1-32.2329,603.71Zm-13.93,0a2.6911,2.6911,0,0,1,2.69-2.6905h0a2.6823,2.6823,0,0,1,2.68,2.6905h0a2.68,2.68,0,0,1-2.68,2.68h0A2.6887,2.6887,0,0,1-46.1626,603.71Zm-13.93,0a2.6848,2.6848,0,0,1,2.69-2.6905h0a2.6827,2.6827,0,0,1,2.68,2.6905h0a2.68,2.68,0,0,1-2.68,2.68h0A2.6824,2.6824,0,0,1-60.0928,603.71Zm-13.92,0a2.6823,2.6823,0,0,1,2.68-2.6905h0a2.6914,2.6914,0,0,1,2.69,2.6905h0a2.689,2.689,0,0,1-2.69,2.68h0A2.68,2.68,0,0,1-74.0127,603.71Zm-13.93,0a2.6827,2.6827,0,0,1,2.68-2.6905h0a2.6911,2.6911,0,0,1,2.69,2.6905h0a2.6887,2.6887,0,0,1-2.69,2.68h0A2.68,2.68,0,0,1-87.9429,603.71Zm-13.93,0a2.6823,2.6823,0,0,1,2.68-2.6905h0a2.6911,2.6911,0,0,1,2.69,2.6905h0a2.6887,2.6887,0,0,1-2.69,2.68h0A2.68,2.68,0,0,1-101.8725,603.71Z"/><path class="cls-5" d="M652.9971,606.3891a2.6934,2.6934,0,0,1-1.8994-.78,2.6652,2.6652,0,0,1-.78-1.8994,2.6958,2.6958,0,0,1,.78-1.9,2.7814,2.7814,0,0,1,3.8,0,2.68,2.68,0,0,1-1.9,4.58Z"/><path class="cls-6" d="M256.0671,659.3259A193.4275,193.4275,0,0,0,161.58,683.575c-26.6737,14.7414-64.2071,10.649-84.3435-9.0792C56.97,654.64,31.1179,633.9166-.3214,617.36l.0976,126.5973,94.078-.0725,38.6528-.03,285.903-.22S364.4476,659.2424,256.0671,659.3259Z"/><path class="cls-5" d="M13.2373,745.8491a2.9344,2.9344,0,0,1-2.07-5.01,3.03,3.03,0,0,1,4.14,0,2.934,2.934,0,0,1,0,4.15A2.98,2.98,0,0,1,13.2373,745.8491Z"/><path class="cls-5" d="M10.3071,742.9194a2.9275,2.9275,0,0,1,2.93-2.93h0a2.9271,2.9271,0,0,1,2.93,2.93h0a2.9333,2.9333,0,0,1-2.93,2.93h0A2.9337,2.9337,0,0,1,10.3071,742.9194Z"/><path class="cls-5" d="M414.3872,742.9194a2.9275,2.9275,0,0,1,2.93-2.93h0a2.9274,2.9274,0,0,1,2.93,2.93h0a2.9336,2.9336,0,0,1-2.93,2.93h0A2.9337,2.9337,0,0,1,414.3872,742.9194Zm-14.97,0a2.9275,2.9275,0,0,1,2.93-2.93h0a2.9275,2.9275,0,0,1,2.93,2.93h0a2.9337,2.9337,0,0,1-2.93,2.93h0A2.9337,2.9337,0,0,1,399.417,742.9194Zm-14.96,0a2.9275,2.9275,0,0,1,2.93-2.93h0a2.934,2.934,0,0,1,2.93,2.93h0a2.94,2.94,0,0,1-2.93,2.93h0A2.9337,2.9337,0,0,1,384.457,742.9194Zm-14.97,0a2.9274,2.9274,0,0,1,2.93-2.93h0a2.9275,2.9275,0,0,1,2.93,2.93h0a2.9337,2.9337,0,0,1-2.93,2.93h0A2.9336,2.9336,0,0,1,369.4873,742.9194Zm-14.97,0a2.934,2.934,0,0,1,2.93-2.93h0a2.9275,2.9275,0,0,1,2.93,2.93h0a2.9337,2.9337,0,0,1-2.93,2.93h0A2.94,2.94,0,0,1,354.5171,742.9194Zm-14.96,0a2.9275,2.9275,0,0,1,2.93-2.93h0a2.9271,2.9271,0,0,1,2.93,2.93h0a2.9333,2.9333,0,0,1-2.93,2.93h0A2.9337,2.9337,0,0,1,339.5571,742.9194Zm-14.97,0a2.9271,2.9271,0,0,1,2.93-2.93h0a2.9275,2.9275,0,0,1,2.93,2.93h0a2.9337,2.9337,0,0,1-2.93,2.93h0A2.9333,2.9333,0,0,1,324.5874,742.9194Zm-14.96,0a2.927,2.927,0,0,1,2.93-2.93h0a2.9274,2.9274,0,0,1,2.93,2.93h0a2.9336,2.9336,0,0,1-2.93,2.93h0A2.9332,2.9332,0,0,1,309.6275,742.9194Zm-14.97,0a2.9275,2.9275,0,0,1,2.93-2.93h0a2.9274,2.9274,0,0,1,2.93,2.93h0a2.9336,2.9336,0,0,1-2.93,2.93h0A2.9337,2.9337,0,0,1,294.6572,742.9194Zm-14.97,0a2.9362,2.9362,0,0,1,2.94-2.93h0a2.9253,2.9253,0,0,1,2.92,2.93h0a2.9315,2.9315,0,0,1-2.92,2.93h0A2.9425,2.9425,0,0,1,279.687,742.9194Zm-14.96,0a2.9274,2.9274,0,0,1,2.93-2.93h0a2.9274,2.9274,0,0,1,2.93,2.93h0a2.9336,2.9336,0,0,1-2.93,2.93h0A2.9336,2.9336,0,0,1,264.7271,742.9194Zm-14.97,0a2.9274,2.9274,0,0,1,2.93-2.93h0a2.9275,2.9275,0,0,1,2.93,2.93h0a2.9337,2.9337,0,0,1-2.93,2.93h0A2.9336,2.9336,0,0,1,249.7573,742.9194Zm-14.96,0a2.9273,2.9273,0,0,1,2.93-2.93h0a2.9337,2.9337,0,0,1,2.93,2.93h0a2.94,2.94,0,0,1-2.93,2.93h0A2.9335,2.9335,0,0,1,234.7974,742.9194Zm-14.97,0a2.9274,2.9274,0,0,1,2.93-2.93h0a2.927,2.927,0,0,1,2.93,2.93h0a2.9332,2.9332,0,0,1-2.93,2.93h0A2.9336,2.9336,0,0,1,219.8272,742.9194Zm-14.96,0a2.9253,2.9253,0,0,1,2.92-2.93h0a2.9359,2.9359,0,0,1,2.94,2.93h0a2.9421,2.9421,0,0,1-2.94,2.93h0A2.9315,2.9315,0,0,1,204.8672,742.9194Zm-14.97,0a2.9274,2.9274,0,0,1,2.93-2.93h0a2.9274,2.9274,0,0,1,2.93,2.93h0a2.9336,2.9336,0,0,1-2.93,2.93h0A2.9336,2.9336,0,0,1,189.897,742.9194Zm-14.97,0a2.9274,2.9274,0,0,1,2.93-2.93h0a2.9273,2.9273,0,0,1,2.93,2.93h0a2.9335,2.9335,0,0,1-2.93,2.93h0A2.9336,2.9336,0,0,1,174.9273,742.9194Zm-14.96,0a2.9274,2.9274,0,0,1,2.93-2.93h0a2.9275,2.9275,0,0,1,2.93,2.93h0a2.9337,2.9337,0,0,1-2.93,2.93h0A2.9336,2.9336,0,0,1,159.9673,742.9194Zm-14.97,0a2.9274,2.9274,0,0,1,2.93-2.93h0a2.9274,2.9274,0,0,1,2.93,2.93h0a2.9336,2.9336,0,0,1-2.93,2.93h0A2.9336,2.9336,0,0,1,144.9971,742.9194Zm-14.97,0a2.9358,2.9358,0,0,1,2.94-2.93h0a2.9336,2.9336,0,0,1,2.93,2.93h0a2.94,2.94,0,0,1-2.93,2.93h0A2.942,2.942,0,0,1,130.0274,742.9194Zm-14.96,0a2.9274,2.9274,0,0,1,2.93-2.93h0a2.9275,2.9275,0,0,1,2.93,2.93h0a2.9337,2.9337,0,0,1-2.93,2.93h0A2.9336,2.9336,0,0,1,115.0674,742.9194Zm-14.97,0a2.9337,2.9337,0,0,1,2.93-2.93h0a2.9273,2.9273,0,0,1,2.93,2.93h0a2.9335,2.9335,0,0,1-2.93,2.93h0A2.94,2.94,0,0,1,100.0972,742.9194Zm-14.96,0a2.9275,2.9275,0,0,1,2.93-2.93h0a2.9274,2.9274,0,0,1,2.93,2.93h0a2.9336,2.9336,0,0,1-2.93,2.93h0A2.9337,2.9337,0,0,1,85.1372,742.9194Zm-14.97,0a2.9275,2.9275,0,0,1,2.93-2.93h0a2.9275,2.9275,0,0,1,2.93,2.93h0a2.9337,2.9337,0,0,1-2.93,2.93h0A2.9337,2.9337,0,0,1,70.167,742.9194Zm-14.96,0a2.9275,2.9275,0,0,1,2.93-2.93h0a2.934,2.934,0,0,1,2.93,2.93h0a2.94,2.94,0,0,1-2.93,2.93h0A2.9337,2.9337,0,0,1,55.207,742.9194Zm-14.97,0a2.9274,2.9274,0,0,1,2.93-2.93h0a2.9275,2.9275,0,0,1,2.93,2.93h0a2.9337,2.9337,0,0,1-2.93,2.93h0A2.9336,2.9336,0,0,1,40.2373,742.9194Zm-14.97,0a2.934,2.934,0,0,1,2.93-2.93h0a2.9275,2.9275,0,0,1,2.93,2.93h0a2.9337,2.9337,0,0,1-2.93,2.93h0A2.94,2.94,0,0,1,25.2671,742.9194Z"/><path class="cls-5" d="M432.2774,745.8491a2.9345,2.9345,0,0,1-2.07-5.01,3.0431,3.0431,0,0,1,4.15,0,2.9346,2.9346,0,0,1-2.08,5.01Z"/><path class="cls-5" d="M638.4668,440.5991a2.501,2.501,0,0,1,2.5-2.5h0a2.5,2.5,0,0,1,2.5,2.5h0a2.5,2.5,0,0,1-2.5,2.5h0A2.501,2.501,0,0,1,638.4668,440.5991Zm-13,0a2.501,2.501,0,0,1,2.5-2.5h0a2.5,2.5,0,0,1,2.5,2.5h0a2.5,2.5,0,0,1-2.5,2.5h0A2.501,2.501,0,0,1,625.4668,440.5991Zm-13,0a2.501,2.501,0,0,1,2.5-2.5h0a2.5,2.5,0,0,1,2.5,2.5h0a2.5,2.5,0,0,1-2.5,2.5h0A2.501,2.501,0,0,1,612.4668,440.5991Zm-13,0a2.501,2.501,0,0,1,2.5-2.5h0a2.5,2.5,0,0,1,2.5,2.5h0a2.5,2.5,0,0,1-2.5,2.5h0A2.501,2.501,0,0,1,599.4668,440.5991Zm-13,0a2.501,2.501,0,0,1,2.5-2.5h0a2.5,2.5,0,0,1,2.5,2.5h0a2.5,2.5,0,0,1-2.5,2.5h0A2.501,2.501,0,0,1,586.4668,440.5991Z"/><polygon class="cls-5" points="650.659 431.139 660.117 440.597 650.659 450.054 650.659 431.139"/><path class="cls-7" d="M678.1208,412.1805l1.2772,1.8149,1.938-1.3638c1.1473-.8073,2.6282-.7625,3.2337.0979l6.4776,9.2048c.6055.86.1477,2.2695-.9995,3.0768l-1.938,1.3639,1.2772,1.8149,1.938-1.3638a4.4819,4.4819,0,0,0,1.4795-6.1284l-6.4776-9.2048a4.4818,4.4818,0,0,0-6.2681-.6762Z"/><path class="cls-7" d="M688.3892,455.2277a5.75,5.75,0,0,0,1.3932-8.0113l-31.6082-44.9157a1.8037,1.8037,0,0,0-2.513-.437l-27.5726,19.4035,36.1354,50.9662Z"/><path class="cls-8" d="M647.9513,415.1683h52.0622a5.2069,5.2069,0,0,1,5.2069,5.2069v13.5864a5.207,5.207,0,0,1-5.207,5.207H647.9513a5.2069,5.2069,0,0,1-5.2069-5.2069V420.3753a5.207,5.207,0,0,1,5.207-5.207Z" transform="translate(712.524 1224.1877) rotate(-125.1349)"/><rect class="cls-5" x="662.9795" y="431.7387" width="4.3955" height="7.186" transform="translate(635.5911 -359.0858) rotate(54.664)"/><polygon class="cls-9" points="731.641 482.568 747.737 496.359 758.096 446.198 731.641 482.568"/><path class="cls-10" d="M686.5988,407.9695h9.8879a0,0,0,0,1,0,0v7.1175a4.4611,4.4611,0,0,1-4.4611,4.4611h-9.9161a0,0,0,0,1,0,0v-7.0893A4.4894,4.4894,0,0,1,686.5988,407.9695Z" transform="translate(1479.4145 265.2862) rotate(138.3828)"/><path class="cls-11" d="M675.2921,594.3143l-7.24-4.0592-3.36,5.9929,16.3279,9.1551S684.38,599.41,675.2921,594.3143Z"/><path class="cls-12" d="M763.42,470.8175l5.6082-.8358a7.1671,7.1671,0,0,0,6.0323-8.1453L770.793,434.23l-12.6969,1.8924Z"/><path class="cls-12" d="M668.0525,590.2551l31.4124-56.0232,5.5592,3.1171a10.1378,10.1378,0,0,1,3.0933,15.0031l-32.3221,42.2444Z"/><polygon class="cls-12" points="668.053 590.255 690.208 550.741 703.603 558.252 675.795 594.597 668.053 590.255"/><polygon class="cls-12" points="713.531 536.283 698.689 533.445 702.383 483.824 726.495 485.619 713.531 536.283"/><path class="cls-9" d="M742.306,514.8644l-16.6148,10.5648L702.9559,493.803c-6.0974-8.4819-7.3233-19.173-2.956-25.7773l1.7563-2.6558,28.63,24.7143Z"/><polygon class="cls-12" points="709.332 550.093 698.516 549.415 697.562 534.637 714.806 533.524 709.332 550.093"/><path class="cls-13" d="M768.2666,442.9672l-35.1886,52.224-13.9933-10.8033-18.8441-14.5688,40.467-60.9883a10.51,10.51,0,0,1,12.6614-4.3246,10.3742,10.3742,0,0,1,1.8252.8881l4.6864,2.8775A25.2318,25.2318,0,0,1,768.2666,442.9672Z"/><path class="cls-5" d="M768.2666,442.9672l-35.1886,52.224-13.9933-10.8033s19.6826-25.7831,30.7326-45.104c10.7046-18.68,3.9957-33.791,3.5517-34.7777a10.3742,10.3742,0,0,1,1.8252.8881l4.6864,2.8775A25.2318,25.2318,0,0,1,768.2666,442.9672Z"/><path class="cls-11" d="M707.0746,476.8121l-1.44-.8063c-.85-.4664-1.9877-1.1474-3.0861-1.8629a31.6928,31.6928,0,0,1-2.916-2.1054l-1.1965-1.0748s.6758-.092,1.59-.2636a27.8337,27.8337,0,0,0,3.2807-.9554c1.1659-.4056,2.2939-.8516,3.1515-1.2259l1.3973-.6s1.19.1419,3.3037.3232c2.1191.1681,5.1788.3311,8.8728.3416a113.4207,113.4207,0,0,0,12.562-.7067c2.2757-.2587,4.59-.6406,6.8868-1.1317a27.9981,27.9981,0,0,0,6.3156-2.1164c3.65-2.0336,6.6875-5.7542,8.6893-9.6836a40.1612,40.1612,0,0,0,3.9185-11.5615,30.6365,30.6365,0,0,0,.3685-8.5821,13.9987,13.9987,0,0,0-.3806-2.3117c-.1126-.5257-.1727-.806-.1727-.806l1.9725-.6356.2752.8809a16.0265,16.0265,0,0,1,.6485,2.5355,33.2453,33.2453,0,0,1,.402,9.3537,43.7832,43.7832,0,0,1-3.2133,12.9732,27.7924,27.7924,0,0,1-9.7078,12.5713l-1.8951,1.0848a19.9752,19.9752,0,0,1-1.8908.8546c-1.2594.578-2.5223.933-3.78,1.3836-2.5151.7655-5.0076,1.3906-7.427,1.8742a120.707,120.707,0,0,1-13.309,1.876c-3.92.3188-7.2171.42-9.5428.43C708.4219,476.8614,707.0746,476.8121,707.0746,476.8121Z"/><polygon class="cls-11" points="762.74 427.091 757.932 422.503 761.504 416.397 765.019 422.018 762.74 427.091"/><path class="cls-13" d="M705.2245,391.7159l6.1551-6.8632a7.9136,7.9136,0,0,1,11.0975-1.4473l27.3436,21.7305-10.98,13.1356Z"/><path class="cls-13" d="M688.83,403.081l25.1227-20.0242a5.93,5.93,0,0,1,7.0294-.2678h0a5.9305,5.9305,0,0,1-.3431,10.0271l-24.6325,17.8856Z"/><polygon class="cls-10" points="761.451 416.397 753.328 404.463 760.363 392.894 771.591 399.722 761.451 416.397"/><path class="cls-10" d="M771.3707,407.3706l-3.9546-1.5527a18.7371,18.7371,0,0,1-10.5931-24.2888l.33-.84a13.1138,13.1138,0,0,1,16.9994-7.4139l2.128.8355a13.1138,13.1138,0,0,1,7.4139,16.9994l-5.1573,13.1352A5.5281,5.5281,0,0,1,771.3707,407.3706Z"/><path class="cls-14" d="M777.957,376.7013h9.9356a0,0,0,0,1,0,0v7.8925a5.5585,5.5585,0,0,1-5.5585,5.5585h-10.61a0,0,0,0,1,0,0v-7.2184A6.2326,6.2326,0,0,1,777.957,376.7013Z" transform="translate(194.0788 -258.4752) rotate(21.4368)"/><path class="cls-14" d="M779.1718,370.3935H787.96a0,0,0,0,1,0,0v6.9807a4.9163,4.9163,0,0,1-4.9163,4.9163h-9.384a0,0,0,0,1,0,0v-6.3844A5.5126,5.5126,0,0,1,779.1718,370.3935Z" transform="translate(191.5562 -259.3287) rotate(21.4366)"/><path class="cls-14" d="M781.29,388.1124c-9.47-3.7183-15.0768-6.5182-18.3384,7.9979a14.1468,14.1468,0,0,1,10.3405-26.3363l6.8013,2.67C784.8981,376.1987,783.6323,382.1466,781.29,388.1124Z"/><path class="cls-10" d="M781.0483,402.5462l-1.598-.6274,2.0716-5.2764.8327,4.84A.9669.9669,0,0,1,781.0483,402.5462Z"/><path class="cls-14" d="M754.9191,398.59c-3.2433-13.6661.4606-21.7805.4606-21.7805l9.4715-.3791c5.5517,2.18,9.3692,5.4245,7.19,10.9762l-1.6839-.4C765.3423,404.4666,754.9191,398.59,754.9191,398.59Z"/><path class="cls-10" d="M766.4065,396.9486l-2.9859-1.1724a3.2078,3.2078,0,0,1-1.8136-4.1582l.9176-2.3368a3.2076,3.2076,0,0,1,4.1582-1.8135h0a3.2077,3.2077,0,0,1,1.8135,4.1582Z"/><path class="cls-10" d="M783.0811,392.6713l-9.3428-3.6683a3.8772,3.8772,0,0,1-2.1919-5.026h0a3.8771,3.8771,0,0,1,5.0259-2.1919l5.6877,2.2332a3.9267,3.9267,0,0,1,2.22,5.09Z"/><path class="cls-14" d="M770.0334,380.5837h9.092a0,0,0,0,1,0,0v4.5811a4.4025,4.4025,0,0,1-4.4025,4.4025h-4.6895a0,0,0,0,1,0,0v-8.9836A0,0,0,0,1,770.0334,380.5837Z" transform="translate(194.3249 -256.4548) rotate(21.4373)"/><path class="cls-14" d="M757.6414,384.9359h16.0257a0,0,0,0,1,0,0v.42a8.7258,8.7258,0,0,1-8.7258,8.7258h-7.3a0,0,0,0,1,0,0v-9.1455A0,0,0,0,1,757.6414,384.9359Z" transform="translate(195.3217 -252.8808) rotate(21.4367)"/><path class="cls-13" d="M767.5026,434.4984l5.8742,31.585a5.9308,5.9308,0,0,1-3.0661,6.3312h0a5.9306,5.9306,0,0,1-8.6905-5.0137l-1.2832-32.609Z"/><path class="cls-10" d="M757.4662,423.1867h9.8879a0,0,0,0,1,0,0v7.1174a4.4612,4.4612,0,0,1-4.4612,4.4612h-9.9161a0,0,0,0,1,0,0V427.676A4.4893,4.4893,0,0,1,757.4662,423.1867Z" transform="translate(521.8998 1268.6792) rotate(-103.5956)"/><path class="cls-13" d="M680.5811,532.6231l61.7249-17.7587,1.296,4.5047a11.6,11.6,0,0,1-9.5513,14.6968l-55.6548,7.8857Z"/><path class="cls-11" d="M678.8587,540.5117l2.256-7.9874-6.612-1.8675-5.088,18.0146S676.0267,550.5389,678.8587,540.5117Z"/><polygon class="cls-13" points="700.241 469.819 690.473 461.472 715.914 446.198 700.241 469.819"/><g class="cls-15"><path class="cls-16" d="M787.379,667.2457l2.26,1.5734-8.18.878a18.4474,18.4474,0,0,1-5.2753-.1921l-2.8917.31c-6.9409.745-14.7243-.115-17.9031-1.9231H755.38s-.04-.0254-.0952-.0632c-.1115-.0664-.2318-.131-.3307-.2a2.0749,2.0749,0,0,1-.9506-1.1935c-.5746-1.0234-.7728-2.5522.916-4.4974,0,0,.6121-.0936,1.6054-.1685l-3.1962-1.4369.0265-.0106a37.3493,37.3493,0,0,1-5.0532.1566l-25.8245,5.61a23.0687,23.0687,0,0,1-3.97.4289c-.07.0028-.1392.007-.21.0091-.1326.003-.2638.0032-.3965.0043-.3033.0035-.6049.0007-.9066-.0084a19.3314,19.3314,0,0,1-5.6149-.83l-.8023-.2446L688.83,660.71l1.7174-.4985L683.414,658.48c-1.842-.4473-2.0086-1.2182-.3723-1.7217l4.7271-1.4545,7.3921,1.7951c1.63.3957,1.9535,1.0426.89,1.5376l17.2818,3.43,22.6227-4.8853-20.0421-8.2572-25.441-4.1752,9.7618-2.28-.83-.2725c-.5818-.0272-.9679-.0416-.9679-.0416l.481-.1182-1.2433-.4079c-6.3884-2.0959-6.6346-5.12-.5937-7.2918l3.7633-1.3528-1.6951-6.2247-18.1293-1.4259-6.5161.5031-5.0881-4.9245s5.9881-.4563,9.0063,1.8661l-.025-.0292,18.1853.7044-28.5286-13.9088-3.36-1.6382L681.02,605.403s3.36,1.638-5.7264,3.031l.5015-.0769,32.3221,11.5481a6.8,6.8,0,0,1,1.1462.5176h0l7.4621,3.81,17.3245.671c6.9928.2656,11.5033,2.1628,9.5513,4.0175l-1.296,1.2315-9.4038,5.415.1758-.0371,4.8664,1.9743,9.7928-2.2934,6.7634,8.9527a21.7523,21.7523,0,0,1,2.2243.96l4.1131,1.6687.3423-.61.44-3.0557c.1715-1.1915,4.8314-1.9264,8.6905-1.37,1.88.2707,3.0346.79,3.14,1.3517,1.2653.4144,1.9234.9641,1.61,1.54l-3.9442,6.9752c2.3436,2.3921-.2413,4.9788-6.8211,6.7246l3.4989,1.573,3.5768-.3839c2.8419-.305,6.05.0775,7.1661.8543l5.1574,3.5907,0,0,.2221.1546a7.293,7.293,0,0,1,2.99.8409l2.8844,2.0083Z"/><path class="cls-17" d="M781.522,662.4705l-2.0717-1.4424,1.598-.1715c.7012-.0752,1.434.0879,1.3062.2908Z"/></g><rect class="cls-18" x="598.3698" y="525.4215" width="142.0897" height="142.0897"/><path class="cls-19" d="M486.5322,745.1007s-2.4288,2.2516-15.0907.8844l-.3554-.0383-8.8842,17.9469-.6155,1.2445c-.5858,1.2018-2.1319,2.3323-4.5042,3.2919l-3.4083,1.4014L433.72,778.0352c-.3985.1639-.8166.3215-1.2455.4755v14.4285l22.56,1.9785-.0182.144c.099-.7786,2.1745-1.3845,4.6357-1.3532l9.8147.1251-.2846,2.2353c-.0985.7737-2.1609,1.3757-4.6066,1.3446l-9.8427-.1256-22.2583-.2836v5.1288c0,1.5381-.9322,2.9883-2.553,4.2854,2.5339,1.98-.3541,4.2488-6.5795,5.1078a38.0527,38.0527,0,0,1-8.811.1375v1.6178h3.8546a13.9679,13.9679,0,0,1,6.0036,1.0509c.4779.2678.7451.5721.7451.8967v4.8771c0,2.5521-7.1564,4.6214-16,4.6214H406.041c-5.54,0-10.4183-.8115-13.2864-2.0449-1.7294-.7344-2.7277-1.623-2.7277-2.5765v-.2231c0-2.2812,4.0183-4.293,10.1208-5.4792v-2.36h-.5313a26.35,26.35,0,0,1-3.77-.2677c-.2245.0361-.4436.0744-.6775.1066-6.3293.8735-13.6981-.0417-16.459-2.0441a2.2391,2.2391,0,0,1-1.0139-1.3721l-15.1209-6.4623c-3.8245-.2334-6.7148-1.2968-6.7148-2.5749,0-1.449,3.7128-2.6236,8.2927-2.6236a23.6591,23.6591,0,0,1,3.9257.3125,22.9661,22.9661,0,0,1,2.5684.0453l18.2423,1.3522V781.66h-.0025v-1.6864l-30.7944-6.142-1.5014-.2994-1.5014.3136L304.0413,784.543l-.0036-.0014-5.8339,1.4871-15.0806-5.9217s5.8557-1.4927,14.25,1.8033l.23.09L345,766.5443l2.162-.7079a36.7369,36.7369,0,0,1,15.54-.8122l3.9937.6461,40.5386,6.57h.12l29.9689-8.6217,1.141-.3278.5554-.4513,22.3264-17.9559.0206.0023,2.4172-2.241Zm-102.98,56.6567,5.3377,1.8875v-1.8875Z"/><g class="cls-20"><path class="cls-7" d="M471.4415,732.0855l-10.0862,3.4421,2.4288,7.117,22.7481-7.7633S484.1034,727.7643,471.4415,732.0855Z"/></g><path class="cls-7" d="M297.3731,618.535l6.6866-8.2988-5.8558-4.7181-15.0807,18.7168S288.9789,628.953,297.3731,618.535Z"/><path class="cls-7" d="M454.9582,569.6382h10.2335a4.0491,4.0491,0,0,1,4.0491,4.0491v7.4533a0,0,0,0,1,0,0H459.033a4.0748,4.0748,0,0,1-4.0748-4.0748v-7.4276a0,0,0,0,1,0,0Z" transform="translate(-22.7835 19.0645) rotate(-2.3066)"/><path class="cls-7" d="M462.2019,675.4812h-.1049a11.2709,11.2709,0,0,1-11.2758-11.2757,11.1339,11.1339,0,0,1,2.8527-7.4922l3.4082,4.4294a22.41,22.41,0,0,1,4.5043,10.405Z"/><path class="cls-7" d="M429.8028,541.3852a12.5028,12.5028,0,1,1-6.461-16.4588A12.5027,12.5027,0,0,1,429.8028,541.3852Z"/><path class="cls-21" d="M420.9275,642.0894l-13.6928,7.0118-40.5388,20.7647-3.9936,2.0421a13.2419,13.2419,0,0,1-15.54-2.5674L345,667.1033l-47.4153-48.8715,6.4562-8.0178L355.09,644.0263l1.5015.991,1.5014-.9459,30.7944-19.4134,8.4679-5.33,6.5911-4.1589,2.6276,4.1589Z"/><path class="cls-21" d="M455.0343,577.4222l-32.869,9.1109a7.7413,7.7413,0,0,1-9.8028-7.1486h0a7.7412,7.7412,0,0,1,7.4235-8.0466l34.9466-1.4076Z"/><path class="cls-22" d="M432.4743,554.616v78.42H388.89V536.348c0-7.1968,4.7978-13.0566,10.7266-13.0566H406.74c6.8494,0,13.0689,3.2444,17.6891,8.5931A34.6033,34.6033,0,0,1,432.4743,554.616Z"/><path class="cls-7" d="M401.63,540.2591a12.5028,12.5028,0,1,1-6.461-16.4589A12.5028,12.5028,0,0,1,401.63,540.2591Z"/><path class="cls-22" d="M363.1274,567.3439h0a8.0213,8.0213,0,0,1-1.4776-11.0693L378.4947,533.52c3.41-4.606,9.67-5.7136,13.8132-2.4437h0c4.24,3.3463,4.52,9.89.61,14.2592l-18.8434,21.0606A8.0214,8.0214,0,0,1,363.1274,567.3439Z"/><circle class="cls-7" cx="364.1533" cy="563.1625" r="8.2927"/><rect class="cls-7" x="388.8897" y="600.5149" width="43.5846" height="32.5209"/><path class="cls-7" d="M432.4743,620.534c-7.0483,0-12.7621-10.1061-12.7621-22.5726s5.7138-22.5725,12.7621-22.5725Z"/><path class="cls-22" d="M471.0905,732.2354l-9.7442,3.3331L439.02,678.8145l-.5554-1.4265-1.1411-1.0358-29.9689-27.251h-.36a18.1083,18.1083,0,0,1-18.1073-18.1072V619.3278h21.5754A29.3378,29.3378,0,0,1,433.72,630.7835l19.9542,25.93,3.4082,4.4294a22.41,22.41,0,0,1,4.5043,10.405l.6155,3.9335Z"/><polygon class="cls-7" points="414.531 529.936 400.148 523.294 400.148 508.575 414.531 508.575 414.531 529.936"/><path class="cls-22" d="M402.2085,562.93l-31.561,7.3946a7.3573,7.3573,0,0,1-9.0356-7.1633h0a7.3572,7.3572,0,0,1,7.3572-7.3572h33.2394Z"/><path class="cls-7" d="M397.9374,555.8037h11.2748a4.4612,4.4612,0,0,1,4.4612,4.4612v8.2117a0,0,0,0,1,0,0H402.4268a4.4894,4.4894,0,0,1-4.4894-4.4894v-8.1835A0,0,0,0,1,397.9374,555.8037Z"/><polygon class="cls-7" points="455.596 667.329 439.02 678.815 438.464 677.388 437.323 676.352 453.884 664.866 455.596 667.329"/><path class="cls-7" d="M366.6959,669.8659l-3.9936,2.0421a13.2419,13.2419,0,0,1-15.54-2.5674L345,667.1033a11.2725,11.2725,0,0,1,21.6955,2.7626Z"/><polygon class="cls-7" points="358.093 644.071 358.093 662.329 355.09 662.329 355.09 644.026 356.591 645.017 358.093 644.071"/><path class="cls-22" d="M425.1341,497.8074v15.4153a5.7306,5.7306,0,0,1-.7451,2.8342,6.8573,6.8573,0,0,1-6.0036,3.3217h-5.4833c-12.6256,0-22.8751-9.3492-22.8751-20.8658v-.7054a13.5667,13.5667,0,0,1,2.7276-8.1436A16.4262,16.4262,0,0,1,406.041,483.2h3.0932C417.9777,483.2,425.1341,489.7407,425.1341,497.8074Z"/><path class="cls-7" d="M425.1341,497.8074v15.4153a5.7306,5.7306,0,0,1-.7451,2.8342,15.1315,15.1315,0,0,1-5.61-3.219,12.9741,12.9741,0,0,1-4.3584-9.5929c0-7.5022-6.6643-13.5812-14.8752-13.5812h-6.7908A16.4262,16.4262,0,0,1,406.041,483.2h3.0932C417.9777,483.2,425.1341,489.7407,425.1341,497.8074Z"/><rect class="cls-7" x="399.6576" y="498.2178" width="7.4985" height="10.901" rx="3.2716"/><rect class="cls-23" x="419.5397" y="498.2178" width="2.7456" height="6.5724" rx="1.1979"/></g></g></g></svg>