<svg id="arrows" xmlns="http://www.w3.org/2000/svg" viewBox="0 0 553.31 999.9919"><defs><style>.cls-1{fill:#fff;}</style></defs><title>Artboard 6ldpi</title><path class="cls-1" d="M118.0625,802.8432a3.0574,3.0574,0,0,1,3.0561-3.0561h0a3.0574,3.0574,0,0,1,3.0561,3.0561h0a3.0565,3.0565,0,0,1-3.0561,3.0561h0A3.0566,3.0566,0,0,1,118.0625,802.8432Zm-15.8916,0a3.0574,3.0574,0,0,1,3.0561-3.0561h0a3.0574,3.0574,0,0,1,3.0561,3.0561h0a3.0566,3.0566,0,0,1-3.0561,3.0561h0A3.0566,3.0566,0,0,1,102.1709,802.8432Zm-15.8916,0a3.0574,3.0574,0,0,1,3.0561-3.0561h0a3.0574,3.0574,0,0,1,3.0561,3.0561h0a3.0566,3.0566,0,0,1-3.0561,3.0561h0A3.0566,3.0566,0,0,1,86.2793,802.8432Zm-15.8916,0a3.0574,3.0574,0,0,1,3.0561-3.0561h0A3.0574,3.0574,0,0,1,76.5,802.8432h0a3.0566,3.0566,0,0,1-3.0561,3.0561h0A3.0566,3.0566,0,0,1,70.3877,802.8432Zm-15.8916,0a3.0574,3.0574,0,0,1,3.0561-3.0561h0a3.0574,3.0574,0,0,1,3.0561,3.0561h0a3.0566,3.0566,0,0,1-3.0561,3.0561h0A3.0565,3.0565,0,0,1,54.4961,802.8432Z"/><polygon class="cls-1" points="132.959 791.281 144.52 802.842 132.959 814.404 132.959 791.281"/></svg>