<svg id="arrows2" xmlns="http://www.w3.org/2000/svg" xmlns:xlink="http://www.w3.org/1999/xlink" viewBox="0 0 2040.8836 1000"><defs><style>.cls-1{fill:url(#linear-gradient);}.cls-2{fill:url(#linear-gradient-2);}.cls-3{fill:#fff;}</style><linearGradient id="linear-gradient" x1="553.1129" y1="700.1474" x2="610.1129" y2="700.1474" gradientUnits="userSpaceOnUse"><stop offset="0" stop-color="#101c7a"/><stop offset="1" stop-color="#3a66bd"/></linearGradient><linearGradient id="linear-gradient-2" x1="617.3004" y1="700.1489" x2="626.7579" y2="700.1489" xlink:href="#linear-gradient"/></defs><title>Artboard 5ldpi</title><path class="cls-1" d="M605.1129,700.1474a2.5012,2.5012,0,0,1,2.5-2.5h0a2.5011,2.5011,0,0,1,2.5,2.5h0a2.501,2.501,0,0,1-2.5,2.5h0A2.5011,2.5011,0,0,1,605.1129,700.1474Zm-13,0a2.5012,2.5012,0,0,1,2.5-2.5h0a2.5011,2.5011,0,0,1,2.5,2.5h0a2.501,2.501,0,0,1-2.5,2.5h0A2.5011,2.5011,0,0,1,592.1129,700.1474Zm-13,0a2.5012,2.5012,0,0,1,2.5-2.5h0a2.5011,2.5011,0,0,1,2.5,2.5h0a2.501,2.501,0,0,1-2.5,2.5h0A2.5011,2.5011,0,0,1,579.1129,700.1474Zm-13,0a2.5012,2.5012,0,0,1,2.5-2.5h0a2.5011,2.5011,0,0,1,2.5,2.5h0a2.501,2.501,0,0,1-2.5,2.5h0A2.5011,2.5011,0,0,1,566.1129,700.1474Zm-13,0a2.5012,2.5012,0,0,1,2.5-2.5h0a2.5011,2.5011,0,0,1,2.5,2.5h0a2.501,2.501,0,0,1-2.5,2.5h0A2.5011,2.5011,0,0,1,553.1129,700.1474Z"/><polygon class="cls-2" points="617.3 690.691 626.758 700.149 617.3 709.606 617.3 690.691"/><path class="cls-3" d="M141.83,517.5688a2.4945,2.4945,0,0,1,2.5-2.5h0a2.4986,2.4986,0,0,1,2.49,2.5h0a2.4979,2.4979,0,0,1-2.49,2.5h0A2.4938,2.4938,0,0,1,141.83,517.5688Zm-13.01,0a2.5011,2.5011,0,0,1,2.5-2.5h0a2.5033,2.5033,0,0,1,2.51,2.5h0a2.5026,2.5026,0,0,1-2.51,2.5h0A2.5,2.5,0,0,1,128.8194,517.5688Zm-12.99,0a2.4923,2.4923,0,0,1,2.49-2.5h0a2.5008,2.5008,0,0,1,2.5,2.5h0a2.5,2.5,0,0,1-2.5,2.5h0A2.4916,2.4916,0,0,1,115.83,517.5688Zm-13,0a2.4945,2.4945,0,0,1,2.5-2.5h0a2.4986,2.4986,0,0,1,2.49,2.5h0a2.4979,2.4979,0,0,1-2.49,2.5h0A2.4938,2.4938,0,0,1,102.83,517.5688Zm-13.01,0a2.5033,2.5033,0,0,1,2.51-2.5h0a2.5011,2.5011,0,0,1,2.5,2.5h0a2.5,2.5,0,0,1-2.5,2.5h0A2.5026,2.5026,0,0,1,89.8194,517.5688Zm-12.99,0a2.4923,2.4923,0,0,1,2.49-2.5h0a2.5008,2.5008,0,0,1,2.5,2.5h0a2.5,2.5,0,0,1-2.5,2.5h0A2.4916,2.4916,0,0,1,76.83,517.5688Zm-13,0a2.5011,2.5011,0,0,1,2.5-2.5h0a2.4986,2.4986,0,0,1,2.49,2.5h0a2.4979,2.4979,0,0,1-2.49,2.5h0A2.5,2.5,0,0,1,63.83,517.5688Z"/><polygon class="cls-3" points="155.031 508.113 164.489 517.571 155.031 527.029 155.031 508.113"/></svg>