<svg id="arrows" xmlns="http://www.w3.org/2000/svg" xmlns:xlink="http://www.w3.org/1999/xlink" viewBox="0 0 2040.8836 1000"><defs><style>.cls-1{fill:#fff;}.cls-2{fill:url(#linear-gradient);}.cls-3{fill:url(#linear-gradient-2);}.cls-4{fill:url(#linear-gradient-3);}.cls-5{fill:url(#linear-gradient-4);}</style><linearGradient id="linear-gradient" x1="36.0588" y1="796.9649" x2="93.0588" y2="796.9649" gradientUnits="userSpaceOnUse"><stop offset="0" stop-color="#101c7a"/><stop offset="1" stop-color="#3a66bd"/></linearGradient><linearGradient id="linear-gradient-2" x1="100.2463" y1="796.9664" x2="109.7038" y2="796.9664" xlink:href="#linear-gradient"/><linearGradient id="linear-gradient-3" x1="49.0588" y1="407.7992" x2="93.0588" y2="407.7992" xlink:href="#linear-gradient"/><linearGradient id="linear-gradient-4" x1="100.2462" y1="407.8007" x2="109.7038" y2="407.8007" xlink:href="#linear-gradient"/></defs><title>Artboard 5ldpi</title><path class="cls-1" d="M258.3872,700.15a2.501,2.501,0,0,1,2.5-2.5h0a2.501,2.501,0,0,1,2.5,2.5h0a2.5,2.5,0,0,1-2.5,2.5h0A2.5,2.5,0,0,1,258.3872,700.15Zm-13,0a2.501,2.501,0,0,1,2.5-2.5h0a2.501,2.501,0,0,1,2.5,2.5h0a2.5,2.5,0,0,1-2.5,2.5h0A2.5,2.5,0,0,1,245.3872,700.15Zm-13,0a2.501,2.501,0,0,1,2.5-2.5h0a2.501,2.501,0,0,1,2.5,2.5h0a2.5,2.5,0,0,1-2.5,2.5h0A2.5,2.5,0,0,1,232.3872,700.15Zm-13,0a2.501,2.501,0,0,1,2.5-2.5h0a2.501,2.501,0,0,1,2.5,2.5h0a2.5,2.5,0,0,1-2.5,2.5h0A2.5,2.5,0,0,1,219.3872,700.15Zm-13,0a2.501,2.501,0,0,1,2.5-2.5h0a2.501,2.501,0,0,1,2.5,2.5h0a2.5,2.5,0,0,1-2.5,2.5h0A2.5,2.5,0,0,1,206.3872,700.15Z"/><polygon class="cls-1" points="270.573 690.691 280.031 700.149 270.573 709.606 270.573 690.691"/><path class="cls-2" d="M88.0588,796.9649a2.5011,2.5011,0,0,1,2.5-2.5h0a2.501,2.501,0,0,1,2.5,2.5h0a2.501,2.501,0,0,1-2.5,2.5h0A2.5011,2.5011,0,0,1,88.0588,796.9649Zm-13,0a2.5011,2.5011,0,0,1,2.5-2.5h0a2.501,2.501,0,0,1,2.5,2.5h0a2.501,2.501,0,0,1-2.5,2.5h0A2.5011,2.5011,0,0,1,75.0588,796.9649Zm-13,0a2.5011,2.5011,0,0,1,2.5-2.5h0a2.501,2.501,0,0,1,2.5,2.5h0a2.501,2.501,0,0,1-2.5,2.5h0A2.5011,2.5011,0,0,1,62.0588,796.9649Zm-13,0a2.5011,2.5011,0,0,1,2.5-2.5h0a2.501,2.501,0,0,1,2.5,2.5h0a2.501,2.501,0,0,1-2.5,2.5h0A2.5011,2.5011,0,0,1,49.0588,796.9649Zm-13,0a2.5011,2.5011,0,0,1,2.5-2.5h0a2.501,2.501,0,0,1,2.5,2.5h0a2.501,2.501,0,0,1-2.5,2.5h0A2.5011,2.5011,0,0,1,36.0588,796.9649Z"/><polygon class="cls-3" points="100.246 787.509 109.704 796.966 100.246 806.424 100.246 787.509"/><path class="cls-4" d="M88.0588,407.7992a2.501,2.501,0,0,1,2.5-2.5h0a2.5011,2.5011,0,0,1,2.5,2.5h0a2.5011,2.5011,0,0,1-2.5,2.5h0A2.501,2.501,0,0,1,88.0588,407.7992Zm-13,0a2.501,2.501,0,0,1,2.5-2.5h0a2.5011,2.5011,0,0,1,2.5,2.5h0a2.5011,2.5011,0,0,1-2.5,2.5h0A2.501,2.501,0,0,1,75.0588,407.7992Zm-13,0a2.501,2.501,0,0,1,2.5-2.5h0a2.5011,2.5011,0,0,1,2.5,2.5h0a2.5011,2.5011,0,0,1-2.5,2.5h0A2.501,2.501,0,0,1,62.0588,407.7992Zm-13,0a2.501,2.501,0,0,1,2.5-2.5h0a2.5011,2.5011,0,0,1,2.5,2.5h0a2.5011,2.5011,0,0,1-2.5,2.5h0A2.501,2.501,0,0,1,49.0588,407.7992Z"/><polygon class="cls-5" points="100.246 398.343 109.704 407.801 100.246 417.258 100.246 398.343"/></svg>