<svg id="arrows2" xmlns="http://www.w3.org/2000/svg" xmlns:xlink="http://www.w3.org/1999/xlink" viewBox="0 0 553.31 999.9919"><defs><style>.cls-1{fill:url(#linear-gradient);}.cls-2{fill:url(#linear-gradient-2);}</style><linearGradient id="linear-gradient" x1="13.8103" y1="568.3971" x2="65.5896" y2="568.3971" gradientUnits="userSpaceOnUse"><stop offset="0" stop-color="#101c7a"/><stop offset="1" stop-color="#3a66bd"/></linearGradient><linearGradient id="linear-gradient-2" x1="74.0478" y1="568.3988" x2="85.1775" y2="568.3988" xlink:href="#linear-gradient"/></defs><title>Artboard 6ldpi</title><path class="cls-1" d="M59.7056,568.3971a2.9432,2.9432,0,0,1,2.942-2.942h0a2.9432,2.9432,0,0,1,2.942,2.942h0a2.9433,2.9433,0,0,1-2.942,2.942h0A2.9433,2.9433,0,0,1,59.7056,568.3971Zm-15.2984,0a2.9432,2.9432,0,0,1,2.942-2.942h0a2.9433,2.9433,0,0,1,2.942,2.942h0a2.9434,2.9434,0,0,1-2.942,2.942h0A2.9432,2.9432,0,0,1,44.4072,568.3971Zm-15.2985,0a2.9433,2.9433,0,0,1,2.9421-2.942h0a2.9433,2.9433,0,0,1,2.942,2.942h0a2.9434,2.9434,0,0,1-2.942,2.942h0A2.9433,2.9433,0,0,1,29.1087,568.3971Zm-15.2984,0a2.9432,2.9432,0,0,1,2.942-2.942h0a2.9432,2.9432,0,0,1,2.942,2.942h0a2.9433,2.9433,0,0,1-2.942,2.942h0A2.9432,2.9432,0,0,1,13.81,568.3971Z"/><polygon class="cls-2" points="74.048 557.269 85.178 568.399 74.048 579.528 74.048 557.269"/></svg>