<svg xmlns="http://www.w3.org/2000/svg" xmlns:xlink="http://www.w3.org/1999/xlink" viewBox="0 0 553.31 999.9919"><defs><style>.cls-1{fill:none;}.cls-2{isolation:isolate;}.cls-3{clip-path:url(#clip-path);}.cls-4{fill:#fff;}.cls-5{opacity:0.54;fill:url(#linear-gradient);}.cls-6{opacity:0.82;fill:url(#linear-gradient-2);}.cls-7{fill:#3f334d;}.cls-8{fill:#5b5168;}.cls-9{fill:#0c155c;}.cls-10{fill:#f7d1ba;}.cls-11{fill:#e18538;}.cls-12{fill:#080e3d;}.cls-13{fill:#101c7a;}.cls-14{fill:#77331b;}.cls-15,.cls-23{opacity:0.14;mix-blend-mode:multiply;}.cls-16{fill:url(#White_Black);}.cls-17{fill:url(#White_Black-2);}.cls-18{opacity:0.88;mix-blend-mode:screen;fill:url(#radial-gradient);}.cls-19{fill:#cbcbc6;}.cls-20{mix-blend-mode:darken;}.cls-21{fill:#f4f4f4;}.cls-22{fill:#5d96cf;}.cls-23{fill:url(#White_Black-3);}</style><clipPath id="clip-path"><rect class="cls-1" x="1.6976" y="3.1373" width="548.4706" height="993.1765"/></clipPath><linearGradient id="linear-gradient" x1="988.9911" y1="783.376" x2="987.6967" y2="783.376" gradientUnits="userSpaceOnUse"><stop offset="0" stop-color="#101c7a"/><stop offset="1" stop-color="#5d96cf"/></linearGradient><linearGradient id="linear-gradient-2" x1="-124.3453" y1="466.483" x2="-124.3453" y2="651.2295" gradientUnits="userSpaceOnUse"><stop offset="0" stop-color="#fff"/><stop offset="1" stop-color="#e18538"/></linearGradient><linearGradient id="White_Black" x1="403.6481" y1="757.1852" x2="403.6481" y2="713.4828" gradientUnits="userSpaceOnUse"><stop offset="0" stop-color="#fff"/><stop offset="1" stop-color="#272425"/></linearGradient><linearGradient id="White_Black-2" x1="465.2626" y1="757.1852" x2="465.2626" y2="713.4824" xlink:href="#White_Black"/><radialGradient id="radial-gradient" cx="337.2584" cy="685.4065" r="54.2209" gradientUnits="userSpaceOnUse"><stop offset="0" stop-color="#9dc8e6" stop-opacity="0.54"/><stop offset="0.1925" stop-color="#abd0ea" stop-opacity="0.4602"/><stop offset="0.5802" stop-color="#d1e5f3" stop-opacity="0.2529"/><stop offset="1" stop-color="#fff" stop-opacity="0"/></radialGradient><linearGradient id="White_Black-3" x1="228.6952" y1="928.5981" x2="228.6952" y2="856.7275" xlink:href="#White_Black"/></defs><title>Artboard 6ldpi</title><g class="cls-2"><g id="img"><g class="cls-3"><path class="cls-4" d="M271.0158,483.667a2.9432,2.9432,0,0,1,2.942-2.942h0a2.9425,2.9425,0,0,1,2.942,2.942h0a2.9426,2.9426,0,0,1-2.942,2.9421h0A2.9433,2.9433,0,0,1,271.0158,483.667Zm-15.2985,0a2.9433,2.9433,0,0,1,2.942-2.942h0a2.9426,2.9426,0,0,1,2.9421,2.942h0a2.9426,2.9426,0,0,1-2.9421,2.9421h0A2.9433,2.9433,0,0,1,255.7173,483.667Zm-15.2984,0a2.9432,2.9432,0,0,1,2.942-2.942h0a2.9425,2.9425,0,0,1,2.942,2.942h0a2.9425,2.9425,0,0,1-2.942,2.9421h0A2.9433,2.9433,0,0,1,240.4189,483.667Zm-15.2984,0a2.9432,2.9432,0,0,1,2.942-2.942h0a2.9425,2.9425,0,0,1,2.942,2.942h0a2.9426,2.9426,0,0,1-2.942,2.9421h0A2.9433,2.9433,0,0,1,225.1205,483.667Zm-15.2985,0a2.9433,2.9433,0,0,1,2.942-2.942h0a2.9425,2.9425,0,0,1,2.942,2.942h0a2.9425,2.9425,0,0,1-2.942,2.9421h0A2.9433,2.9433,0,0,1,209.822,483.667Z"/><polygon class="cls-4" points="285.363 472.534 296.493 483.664 285.363 494.794 285.363 472.534"/><path class="cls-4" d="M232.93,669.4549a2.9422,2.9422,0,0,1,2.942-2.9421h0a2.9426,2.9426,0,0,1,2.942,2.9421h0a2.9433,2.9433,0,0,1-2.942,2.942h0A2.9429,2.9429,0,0,1,232.93,669.4549Zm-15.7932,0a2.9426,2.9426,0,0,1,2.942-2.9421h0a2.9422,2.9422,0,0,1,2.942,2.9421h0a2.9429,2.9429,0,0,1-2.942,2.942h0A2.9432,2.9432,0,0,1,217.1367,669.4549Zm-15.8041,0a2.9426,2.9426,0,0,1,2.942-2.9421h0a2.9426,2.9426,0,0,1,2.942,2.9421h0a2.9432,2.9432,0,0,1-2.942,2.942h0A2.9433,2.9433,0,0,1,201.3326,669.4549Zm-15.7926,0a2.9422,2.9422,0,0,1,2.942-2.9421h0a2.9426,2.9426,0,0,1,2.942,2.9421h0a2.9432,2.9432,0,0,1-2.942,2.942h0A2.9429,2.9429,0,0,1,185.54,669.4549Zm-15.7932,0a2.9426,2.9426,0,0,1,2.942-2.9421h0a2.9422,2.9422,0,0,1,2.942,2.9421h0a2.9429,2.9429,0,0,1-2.942,2.942h0A2.9433,2.9433,0,0,1,169.7468,669.4549Zm-15.8041,0a2.9426,2.9426,0,0,1,2.942-2.9421h0a2.9426,2.9426,0,0,1,2.942,2.9421h0a2.9432,2.9432,0,0,1-2.942,2.942h0A2.9433,2.9433,0,0,1,153.9427,669.4549Zm-15.7925,0a2.9422,2.9422,0,0,1,2.942-2.9421h0a2.9426,2.9426,0,0,1,2.942,2.9421h0a2.9433,2.9433,0,0,1-2.942,2.942h0A2.9429,2.9429,0,0,1,138.15,669.4549Z"/><path class="cls-5" d="M93.4306,761.6809c-46.8175,0-85.3148,10.8216-115.5273,24.8174-32.6206,15.1111-78.4989,10.88-103.0957-9.3868a411.5654,411.5654,0,0,0-94.7548-58.7127V848.3532H291.8043S225.9184,761.6809,93.4306,761.6809Z"/><path class="cls-4" d="M264.1417,842.5032a3.5787,3.5787,0,0,1,3.582-3.5814h0a3.5785,3.5785,0,0,1,3.5813,3.5814h0a3.586,3.586,0,0,1-3.5813,3.5813h0A3.5862,3.5862,0,0,1,264.1417,842.5032Zm-18.3,0a3.5786,3.5786,0,0,1,3.5819-3.5814h0a3.5787,3.5787,0,0,1,3.582,3.5814h0a3.5862,3.5862,0,0,1-3.582,3.5813h0A3.5862,3.5862,0,0,1,245.8417,842.5032Zm-18.2876,0a3.5786,3.5786,0,0,1,3.5819-3.5814h0a3.5867,3.5867,0,0,1,3.582,3.5814h0a3.5943,3.5943,0,0,1-3.582,3.5813h0A3.5862,3.5862,0,0,1,227.5541,842.5032Zm-18.2995,0a3.5786,3.5786,0,0,1,3.5814-3.5814h0a3.5787,3.5787,0,0,1,3.582,3.5814h0a3.5862,3.5862,0,0,1-3.582,3.5813h0A3.5861,3.5861,0,0,1,209.2546,842.5032Zm-18.3,0a3.5867,3.5867,0,0,1,3.582-3.5814h0a3.5786,3.5786,0,0,1,3.5819,3.5814h0a3.5862,3.5862,0,0,1-3.5819,3.5813h0A3.5943,3.5943,0,0,1,190.9546,842.5032Zm-18.2876,0a3.5787,3.5787,0,0,1,3.582-3.5814h0a3.5781,3.5781,0,0,1,3.5813,3.5814h0a3.5856,3.5856,0,0,1-3.5813,3.5813h0A3.5862,3.5862,0,0,1,172.667,842.5032Zm-18.2994,0a3.5781,3.5781,0,0,1,3.5813-3.5814h0a3.5787,3.5787,0,0,1,3.582,3.5814h0a3.5862,3.5862,0,0,1-3.582,3.5813h0A3.5857,3.5857,0,0,1,154.3676,842.5032Zm-18.2875,0a3.5781,3.5781,0,0,1,3.5813-3.5814h0a3.5786,3.5786,0,0,1,3.5819,3.5814h0a3.5861,3.5861,0,0,1-3.5819,3.5813h0A3.5856,3.5856,0,0,1,136.08,842.5032Zm-18.3,0a3.5787,3.5787,0,0,1,3.582-3.5814h0a3.5785,3.5785,0,0,1,3.5814,3.5814h0a3.5861,3.5861,0,0,1-3.5814,3.5813h0A3.5863,3.5863,0,0,1,117.78,842.5032Zm-18.3,0a3.5894,3.5894,0,0,1,3.5946-3.5814h0a3.576,3.576,0,0,1,3.5693,3.5814h0a3.5835,3.5835,0,0,1-3.5693,3.5813h0A3.5969,3.5969,0,0,1,99.48,842.5032Zm-18.2875,0a3.5786,3.5786,0,0,1,3.5819-3.5814h0a3.5786,3.5786,0,0,1,3.582,3.5814h0a3.5861,3.5861,0,0,1-3.582,3.5813h0A3.5861,3.5861,0,0,1,81.1924,842.5032Zm-18.3,0a3.5785,3.5785,0,0,1,3.5813-3.5814h0a3.5787,3.5787,0,0,1,3.582,3.5814h0a3.5862,3.5862,0,0,1-3.582,3.5813h0A3.586,3.586,0,0,1,62.8929,842.5032Zm-18.2875,0a3.5785,3.5785,0,0,1,3.5814-3.5814h0a3.5862,3.5862,0,0,1,3.5818,3.5814h0a3.5938,3.5938,0,0,1-3.5818,3.5813h0A3.586,3.586,0,0,1,44.6054,842.5032Zm-18.3,0a3.5785,3.5785,0,0,1,3.5818-3.5814h0a3.5781,3.5781,0,0,1,3.5814,3.5814h0a3.5856,3.5856,0,0,1-3.5814,3.5813h0A3.5861,3.5861,0,0,1,26.3054,842.5032Zm-18.2876,0a3.576,3.576,0,0,1,3.5694-3.5814h0a3.5889,3.5889,0,0,1,3.5939,3.5814h0a3.5965,3.5965,0,0,1-3.5939,3.5813h0A3.5835,3.5835,0,0,1,8.0178,842.5032Zm-18.3,0A3.5785,3.5785,0,0,1-6.7,838.9218h0a3.5786,3.5786,0,0,1,3.5819,3.5814h0A3.5861,3.5861,0,0,1-6.7,846.0845h0A3.586,3.586,0,0,1-10.2822,842.5032Zm-18.3,0A3.5786,3.5786,0,0,1-25,838.9218h0a3.5784,3.5784,0,0,1,3.5813,3.5814h0A3.586,3.586,0,0,1-25,846.0845h0A3.5861,3.5861,0,0,1-28.5817,842.5032Zm-18.2876,0a3.5785,3.5785,0,0,1,3.5814-3.5814h0a3.5787,3.5787,0,0,1,3.582,3.5814h0a3.5862,3.5862,0,0,1-3.582,3.5813h0A3.5861,3.5861,0,0,1-46.8693,842.5032Zm-18.3,0a3.5786,3.5786,0,0,1,3.582-3.5814h0a3.5785,3.5785,0,0,1,3.5818,3.5814h0a3.5861,3.5861,0,0,1-3.5818,3.5813h0A3.5861,3.5861,0,0,1-65.1693,842.5032Zm-18.2994,0a3.5887,3.5887,0,0,1,3.5938-3.5814h0a3.5861,3.5861,0,0,1,3.5813,3.5814h0a3.5937,3.5937,0,0,1-3.5813,3.5813h0A3.5963,3.5963,0,0,1-83.4687,842.5032Zm-18.2876,0a3.5785,3.5785,0,0,1,3.5813-3.5814h0a3.5787,3.5787,0,0,1,3.582,3.5814h0a3.5862,3.5862,0,0,1-3.582,3.5813h0A3.586,3.586,0,0,1-101.7563,842.5032Zm-18.3,0a3.5863,3.5863,0,0,1,3.582-3.5814h0a3.5784,3.5784,0,0,1,3.5812,3.5814h0a3.586,3.586,0,0,1-3.5812,3.5813h0A3.5939,3.5939,0,0,1-120.0564,842.5032Zm-18.2876,0a3.5787,3.5787,0,0,1,3.582-3.5814h0a3.5785,3.5785,0,0,1,3.5814,3.5814h0a3.5861,3.5861,0,0,1-3.5814,3.5813h0A3.5863,3.5863,0,0,1-138.344,842.5032Zm-18.3,0a3.5787,3.5787,0,0,1,3.582-3.5814h0a3.5786,3.5786,0,0,1,3.5819,3.5814h0a3.5862,3.5862,0,0,1-3.5819,3.5813h0A3.5862,3.5862,0,0,1-156.644,842.5032Zm-18.2876,0a3.5787,3.5787,0,0,1,3.582-3.5814h0a3.5867,3.5867,0,0,1,3.582,3.5814h0a3.5943,3.5943,0,0,1-3.582,3.5813h0A3.5862,3.5862,0,0,1-174.9316,842.5032Zm-18.2994,0a3.5785,3.5785,0,0,1,3.5813-3.5814h0a3.5787,3.5787,0,0,1,3.582,3.5814h0a3.5862,3.5862,0,0,1-3.582,3.5813h0A3.586,3.586,0,0,1-193.231,842.5032Zm-18.3,0a3.5867,3.5867,0,0,1,3.582-3.5814h0a3.5787,3.5787,0,0,1,3.582,3.5814h0a3.5862,3.5862,0,0,1-3.582,3.5813h0A3.5943,3.5943,0,0,1-211.5311,842.5032Z"/><path class="cls-4" d="M286.0113,846.0845a3.5872,3.5872,0,0,1-2.531-6.1241,3.72,3.72,0,0,1,5.0736,0,3.5873,3.5873,0,0,1-2.5426,6.1241Z"/><path class="cls-4" d="M355.9489,824.6644a2.9434,2.9434,0,0,1,2.942-2.942h0a2.9434,2.9434,0,0,1,2.9421,2.942h0a2.9434,2.9434,0,0,1-2.9421,2.9421h0A2.9434,2.9434,0,0,1,355.9489,824.6644Zm-15.2984,0a2.9434,2.9434,0,0,1,2.942-2.942h0a2.9433,2.9433,0,0,1,2.942,2.942h0a2.9433,2.9433,0,0,1-2.942,2.9421h0A2.9434,2.9434,0,0,1,340.6505,824.6644Zm-15.2984,0a2.9434,2.9434,0,0,1,2.942-2.942h0a2.9434,2.9434,0,0,1,2.942,2.942h0a2.9433,2.9433,0,0,1-2.942,2.9421h0A2.9433,2.9433,0,0,1,325.3521,824.6644Zm-15.2985,0a2.9434,2.9434,0,0,1,2.942-2.942h0a2.9433,2.9433,0,0,1,2.942,2.942h0a2.9433,2.9433,0,0,1-2.942,2.9421h0A2.9434,2.9434,0,0,1,310.0536,824.6644Zm-15.2984,0a2.9434,2.9434,0,0,1,2.942-2.942h0a2.9433,2.9433,0,0,1,2.942,2.942h0a2.9433,2.9433,0,0,1-2.942,2.9421h0A2.9433,2.9433,0,0,1,294.7552,824.6644Z"/><polygon class="cls-4" points="370.291 813.536 381.421 824.666 370.291 835.796 370.291 813.536"/><path class="cls-6" d="M167.4066,616.292C125.0933,613.62,79.4047,634.9048,52.06,651.4655,22.535,669.3461-9.1463,640.9788-31.4086,616.9972-79.9539,564.7027-157.48,484.9609-264.16,484.9609c-61.6523,0-113.568,33.9892-155.78,60.2358-30.5425,18.9906-74.1727,13.6587-96.0779-12.1925a457.3041,457.3041,0,0,0-55.7087-55.7165v216.409H323.0367S279.1769,623.35,167.4066,616.292Z"/><path class="cls-4" d="M304.0322,693.7a3.09,3.09,0,0,1,3.0888-3.0889h0a3.0894,3.0894,0,0,1,3.0877,3.0889h0a3.0867,3.0867,0,0,1-3.0877,3.0763h0A3.0868,3.0868,0,0,1,304.0322,693.7Zm-15.9812,0a3.08,3.08,0,0,1,3.0765-3.0889h0a3.09,3.09,0,0,1,3.0889,3.0889h0a3.0869,3.0869,0,0,1-3.0889,3.0763h0A3.077,3.077,0,0,1,288.051,693.7Zm-15.9921,0a3.08,3.08,0,0,1,3.0763-3.0889h0a3.09,3.09,0,0,1,3.0889,3.0889h0a3.0869,3.0869,0,0,1-3.0889,3.0763h0A3.077,3.077,0,0,1,272.0589,693.7Zm-15.9923,0a3.0791,3.0791,0,0,1,3.0765-3.0889h0a3.0893,3.0893,0,0,1,3.0876,3.0889h0a3.0866,3.0866,0,0,1-3.0876,3.0763h0A3.0763,3.0763,0,0,1,256.0666,693.7Zm-15.9935,0a3.08,3.08,0,0,1,3.0777-3.0889h0a3.0822,3.0822,0,0,1,3.0876,3.0889h0a3.0794,3.0794,0,0,1-3.0876,3.0763h0A3.0774,3.0774,0,0,1,240.0731,693.7Zm-15.9922,0a3.08,3.08,0,0,1,3.0765-3.0889h0a3.0824,3.0824,0,0,1,3.0887,3.0889h0a3.08,3.08,0,0,1-3.0887,3.0763h0A3.077,3.077,0,0,1,224.0809,693.7Zm-15.9923,0a3.0792,3.0792,0,0,1,3.0765-3.0889h0a3.0815,3.0815,0,0,1,3.0877,3.0889h0a3.0787,3.0787,0,0,1-3.0877,3.0763h0A3.0764,3.0764,0,0,1,208.0886,693.7Zm-15.9933,0a3.08,3.08,0,0,1,3.0775-3.0889h0a3.0822,3.0822,0,0,1,3.0877,3.0889h0a3.0794,3.0794,0,0,1-3.0877,3.0763h0A3.0773,3.0773,0,0,1,192.0953,693.7Zm-15.9923,0a3.08,3.08,0,0,1,3.0765-3.0889h0a3.0825,3.0825,0,0,1,3.0888,3.0889h0a3.08,3.08,0,0,1-3.0888,3.0763h0A3.077,3.077,0,0,1,176.103,693.7Zm-15.9923,0a3.0815,3.0815,0,0,1,3.0876-3.0889h0a3.0791,3.0791,0,0,1,3.0765,3.0889h0a3.0763,3.0763,0,0,1-3.0765,3.0763h0A3.0787,3.0787,0,0,1,160.1107,693.7Zm-15.9934,0a3.0825,3.0825,0,0,1,3.0889-3.0889h0a3.08,3.08,0,0,1,3.0763,3.0889h0a3.0769,3.0769,0,0,1-3.0763,3.0763h0A3.08,3.08,0,0,1,144.1173,693.7Zm-15.9923,0a3.0825,3.0825,0,0,1,3.0889-3.0889h0A3.08,3.08,0,0,1,134.29,693.7h0a3.077,3.077,0,0,1-3.0765,3.0763h0A3.08,3.08,0,0,1,128.125,693.7Zm-15.9922,0a3.0815,3.0815,0,0,1,3.0877-3.0889h0a3.08,3.08,0,0,1,3.0776,3.0889h0a3.0773,3.0773,0,0,1-3.0776,3.0763h0A3.0787,3.0787,0,0,1,112.1328,693.7Zm-15.9934,0a3.09,3.09,0,0,1,3.0888-3.0889h0a3.08,3.08,0,0,1,3.0765,3.0889h0a3.0771,3.0771,0,0,1-3.0765,3.0763h0A3.0869,3.0869,0,0,1,96.1394,693.7Zm-15.9923,0a3.0825,3.0825,0,0,1,3.0888-3.0889h0A3.08,3.08,0,0,1,86.3124,693.7h0a3.077,3.077,0,0,1-3.0765,3.0763h0A3.08,3.08,0,0,1,80.1471,693.7Zm-15.9923,0a3.0894,3.0894,0,0,1,3.0878-3.0889h0A3.08,3.08,0,0,1,70.32,693.7h0a3.0773,3.0773,0,0,1-3.0775,3.0763h0A3.0867,3.0867,0,0,1,64.1548,693.7Zm-15.9933,0a3.09,3.09,0,0,1,3.0888-3.0889h0A3.08,3.08,0,0,1,54.3268,693.7h0a3.077,3.077,0,0,1-3.0765,3.0763h0A3.0869,3.0869,0,0,1,48.1615,693.7Zm-15.9811,0a3.08,3.08,0,0,1,3.0776-3.0889h0A3.08,3.08,0,0,1,38.3345,693.7h0a3.077,3.077,0,0,1-3.0765,3.0763h0A3.0773,3.0773,0,0,1,32.18,693.7Zm-15.9923,0a3.08,3.08,0,0,1,3.0765-3.0889h0A3.08,3.08,0,0,1,22.3422,693.7h0a3.0773,3.0773,0,0,1-3.0776,3.0763h0A3.077,3.077,0,0,1,16.1881,693.7Zm-15.9922,0a3.0791,3.0791,0,0,1,3.0764-3.0889h0A3.09,3.09,0,0,1,6.3612,693.7h0a3.0877,3.0877,0,0,1-3.0889,3.0763h0A3.0763,3.0763,0,0,1,.1959,693.7Zm-15.9934,0a3.08,3.08,0,0,1,3.0776-3.0889h0A3.0894,3.0894,0,0,1-9.6322,693.7h0a3.0867,3.0867,0,0,1-3.0877,3.0763h0A3.0773,3.0773,0,0,1-15.7975,693.7Zm-15.9923,0a3.08,3.08,0,0,1,3.0771-3.0889h0A3.0823,3.0823,0,0,1-25.6245,693.7h0a3.08,3.08,0,0,1-3.0882,3.0763h0A3.0772,3.0772,0,0,1-31.79,693.7Zm-15.9928,0a3.08,3.08,0,0,1,3.077-3.0889h0A3.0819,3.0819,0,0,1-41.6174,693.7h0a3.0792,3.0792,0,0,1-3.0882,3.0763h0A3.0771,3.0771,0,0,1-47.7826,693.7Zm-15.9923,0a3.0794,3.0794,0,0,1,3.0765-3.0889h0A3.0825,3.0825,0,0,1-57.6095,693.7h0a3.08,3.08,0,0,1-3.0889,3.0763h0A3.0767,3.0767,0,0,1-63.7749,693.7Zm-15.9928,0a3.0824,3.0824,0,0,1,3.0882-3.0889h0A3.08,3.08,0,0,1-73.6024,693.7h0a3.0772,3.0772,0,0,1-3.0771,3.0763h0A3.08,3.08,0,0,1-79.7677,693.7Zm-15.9928,0a3.0824,3.0824,0,0,1,3.0888-3.0889h0A3.0794,3.0794,0,0,1-89.5953,693.7h0a3.0766,3.0766,0,0,1-3.0764,3.0763h0A3.08,3.08,0,0,1-95.76,693.7Zm-15.9923,0a3.0819,3.0819,0,0,1,3.0882-3.0889h0a3.08,3.08,0,0,1,3.0771,3.0889h0a3.0772,3.0772,0,0,1-3.0771,3.0763h0A3.0792,3.0792,0,0,1-111.7528,693.7Zm-15.9928,0a3.0823,3.0823,0,0,1,3.0883-3.0889h0A3.08,3.08,0,0,1-121.58,693.7h0a3.0771,3.0771,0,0,1-3.0769,3.0763h0A3.08,3.08,0,0,1-127.7456,693.7Zm-15.9923,0a3.0819,3.0819,0,0,1,3.0883-3.0889h0a3.08,3.08,0,0,1,3.0765,3.0889h0a3.0767,3.0767,0,0,1-3.0765,3.0763h0A3.0792,3.0792,0,0,1-143.7379,693.7Zm-15.9928,0a3.0823,3.0823,0,0,1,3.0882-3.0889h0a3.08,3.08,0,0,1,3.0771,3.0889h0a3.0772,3.0772,0,0,1-3.0771,3.0763h0A3.08,3.08,0,0,1-159.7307,693.7Zm-15.9928,0a3.0894,3.0894,0,0,1,3.0882-3.0889h0a3.08,3.08,0,0,1,3.077,3.0889h0a3.0771,3.0771,0,0,1-3.077,3.0763h0A3.0867,3.0867,0,0,1-175.7235,693.7Zm-15.9923,0a3.09,3.09,0,0,1,3.0882-3.0889h0a3.08,3.08,0,0,1,3.0765,3.0889h0a3.0767,3.0767,0,0,1-3.0765,3.0763h0A3.0868,3.0868,0,0,1-191.7158,693.7Zm-15.9929,0a3.09,3.09,0,0,1,3.0884-3.0889h0a3.08,3.08,0,0,1,3.0769,3.0889h0a3.0771,3.0771,0,0,1-3.0769,3.0763h0A3.0868,3.0868,0,0,1-207.7087,693.7Zm-15.9928,0a3.09,3.09,0,0,1,3.0883-3.0889h0a3.09,3.09,0,0,1,3.0888,3.0889h0a3.0869,3.0869,0,0,1-3.0888,3.0763h0A3.0868,3.0868,0,0,1-223.7015,693.7Zm-15.9922,0a3.09,3.09,0,0,1,3.0882-3.0889h0A3.0794,3.0794,0,0,1-233.529,693.7h0a3.0767,3.0767,0,0,1-3.0765,3.0763h0A3.0867,3.0867,0,0,1-239.6937,693.7Zm-15.9811,0a3.0794,3.0794,0,0,1,3.0765-3.0889h0A3.082,3.082,0,0,1-249.51,693.7h0a3.0793,3.0793,0,0,1-3.0883,3.0763h0A3.0767,3.0767,0,0,1-255.6748,693.7Zm-15.9928,0a3.08,3.08,0,0,1,3.077-3.0889h0a3.0823,3.0823,0,0,1,3.0883,3.0889h0a3.08,3.08,0,0,1-3.0883,3.0763h0A3.0771,3.0771,0,0,1-271.6676,693.7Zm-15.9928,0a3.08,3.08,0,0,1,3.077-3.0889h0a3.0823,3.0823,0,0,1,3.0882,3.0889h0a3.08,3.08,0,0,1-3.0882,3.0763h0A3.0771,3.0771,0,0,1-287.66,693.7Zm-15.9923,0a3.0794,3.0794,0,0,1,3.0765-3.0889h0A3.082,3.082,0,0,1-297.488,693.7h0a3.0792,3.0792,0,0,1-3.0882,3.0763h0A3.0767,3.0767,0,0,1-303.6527,693.7Zm-15.9929,0a3.08,3.08,0,0,1,3.0771-3.0889h0A3.0823,3.0823,0,0,1-313.48,693.7h0a3.08,3.08,0,0,1-3.0882,3.0763h0A3.0772,3.0772,0,0,1-319.6456,693.7Zm-15.9928,0a3.08,3.08,0,0,1,3.077-3.0889h0A3.082,3.082,0,0,1-329.473,693.7h0a3.0793,3.0793,0,0,1-3.0884,3.0763h0A3.0771,3.0771,0,0,1-335.6384,693.7Zm-15.9922,0a3.082,3.082,0,0,1,3.0882-3.0889h0a3.0794,3.0794,0,0,1,3.0765,3.0889h0a3.0767,3.0767,0,0,1-3.0765,3.0763h0A3.0792,3.0792,0,0,1-351.6306,693.7Zm-15.9928,0a3.08,3.08,0,0,1,3.077-3.0889h0a3.0823,3.0823,0,0,1,3.0882,3.0889h0a3.08,3.08,0,0,1-3.0882,3.0763h0A3.0771,3.0771,0,0,1-367.6234,693.7Zm-15.9929,0a3.0824,3.0824,0,0,1,3.0888-3.0889h0A3.08,3.08,0,0,1-377.451,693.7h0a3.0767,3.0767,0,0,1-3.0765,3.0763h0A3.08,3.08,0,0,1-383.6163,693.7Zm-15.9923,0a3.082,3.082,0,0,1,3.0883-3.0889h0a3.08,3.08,0,0,1,3.077,3.0889h0a3.0771,3.0771,0,0,1-3.077,3.0763h0A3.0793,3.0793,0,0,1-399.6086,693.7Zm-15.9928,0a3.0823,3.0823,0,0,1,3.0883-3.0889h0a3.08,3.08,0,0,1,3.077,3.0889h0a3.0771,3.0771,0,0,1-3.077,3.0763h0A3.08,3.08,0,0,1-415.6014,693.7Zm-15.9922,0a3.0819,3.0819,0,0,1,3.0882-3.0889h0a3.0794,3.0794,0,0,1,3.0765,3.0889h0a3.0767,3.0767,0,0,1-3.0765,3.0763h0A3.0792,3.0792,0,0,1-431.5936,693.7Zm-15.9928,0a3.0819,3.0819,0,0,1,3.0881-3.0889h0a3.08,3.08,0,0,1,3.0771,3.0889h0a3.0772,3.0772,0,0,1-3.0771,3.0763h0A3.0792,3.0792,0,0,1-447.5864,693.7Zm-15.9929,0a3.0823,3.0823,0,0,1,3.0882-3.0889h0A3.08,3.08,0,0,1-457.414,693.7h0a3.0772,3.0772,0,0,1-3.0771,3.0763h0A3.08,3.08,0,0,1-463.5793,693.7Zm-15.9923,0a3.09,3.09,0,0,1,3.0883-3.0889h0a3.0794,3.0794,0,0,1,3.0764,3.0889h0a3.0766,3.0766,0,0,1-3.0764,3.0763h0A3.0868,3.0868,0,0,1-479.5716,693.7Zm-15.9928,0a3.0823,3.0823,0,0,1,3.0883-3.0889h0a3.08,3.08,0,0,1,3.077,3.0889h0a3.0771,3.0771,0,0,1-3.077,3.0763h0A3.08,3.08,0,0,1-495.5644,693.7Zm-15.9811,0a3.08,3.08,0,0,1,3.0765-3.0889h0A3.09,3.09,0,0,1-505.38,693.7h0a3.0872,3.0872,0,0,1-3.0888,3.0763h0A3.0767,3.0767,0,0,1-511.5455,693.7Zm-15.9928,0a3.08,3.08,0,0,1,3.077-3.0889h0A3.09,3.09,0,0,1-521.373,693.7h0a3.0868,3.0868,0,0,1-3.0883,3.0763h0A3.0771,3.0771,0,0,1-527.5383,693.7Zm-15.9922,0a3.0794,3.0794,0,0,1,3.0764-3.0889h0a3.09,3.09,0,0,1,3.0883,3.0889h0a3.0868,3.0868,0,0,1-3.0883,3.0763h0A3.0766,3.0766,0,0,1-543.53,693.7Z"/><path class="cls-4" d="M323.1132,696.7766a3.0924,3.0924,0,0,1-2.1806-.8957,3.06,3.06,0,0,1-.8958-2.1806,3.0945,3.0945,0,0,1,.8958-2.1818,3.1932,3.1932,0,0,1,4.3624,0,3.0769,3.0769,0,0,1-2.1818,5.2581Z"/><path class="cls-7" d="M347.2537,473.8333l1.4663,2.0837,2.2249-1.5658c1.3172-.9268,3.0174-.8754,3.7126.1124l7.4367,10.5678c.6952.9878.17,2.6055-1.1475,3.5324l-2.225,1.5658,1.4664,2.0837,2.2249-1.5658c2.4523-1.7257,3.2143-4.8819,1.6986-7.0358l-7.4367-10.5678c-1.5157-2.1539-4.744-2.5021-7.1963-.7763Z"/><path class="cls-7" d="M359.0425,523.2546a6.6013,6.6013,0,0,0,1.5995-9.1976l-36.2884-51.5664a2.0709,2.0709,0,0,0-2.8851-.5017l-31.6553,22.2766,41.486,58.5128Z"/><rect class="cls-8" x="306.6389" y="477.2635" width="71.727" height="27.5541" rx="5.207" transform="translate(138.0415 1053.7346) rotate(-125.1349)"/><rect class="cls-4" x="329.8704" y="496.2876" width="5.0463" height="8.25" transform="matrix(0.5784, 0.8158, -0.8158, 0.5784, 548.3708, -60.1693)"/><polygon class="cls-9" points="408.698 554.643 427.178 570.476 439.071 512.888 408.698 554.643"/><path class="cls-10" d="M356.3223,468.9988H368.339a0,0,0,0,1,0,0v8.832a4.4611,4.4611,0,0,1-4.4611,4.4611H351.8329a0,0,0,0,1,0,0v-8.8037A4.4894,4.4894,0,0,1,356.3223,468.9988Z" transform="translate(945.1859 592.0855) rotate(138.3828)"/><path class="cls-11" d="M344.0061,682.9358l-8.3116-4.66-3.8577,6.88,18.7456,10.5107S354.44,688.7863,344.0061,682.9358Z"/><path class="cls-12" d="M445.183,541.1528l6.4386-.96a8.2284,8.2284,0,0,0,6.9255-9.3514l-4.8992-31.6936-14.5769,2.1726Z"/><path class="cls-12" d="M335.6945,678.2756l36.0637-64.3186,6.3824,3.5786a11.639,11.639,0,0,1,3.5513,17.2247l-37.1081,48.5Z"/><polygon class="cls-12" points="335.695 678.276 361.131 632.911 376.509 641.534 344.584 683.26 335.695 678.276"/><polygon class="cls-12" points="387.908 616.312 370.868 613.053 375.108 556.085 402.79 558.146 387.908 616.312"/><path class="cls-9" d="M420.9428,591.7217l-19.075,12.1292-26.1017-36.3092c-7-9.7377-8.4077-22.0119-3.3937-29.5941l2.0164-3.049,32.8693,28.3737Z"/><polygon class="cls-12" points="383.086 632.167 370.668 631.388 369.573 614.422 389.371 613.144 383.086 632.167"/><path class="cls-13" d="M450.7474,509.1787l-40.399,59.9568-16.0653-12.4029-21.6343-16.7261,46.4589-70.0188a12.0661,12.0661,0,0,1,14.5362-4.965,11.9116,11.9116,0,0,1,2.0955,1.02l5.38,3.3036A28.9679,28.9679,0,0,1,450.7474,509.1787Z"/><path class="cls-4" d="M450.7474,509.1787l-40.399,59.9568-16.0653-12.4029s22.597-29.6009,35.2832-51.7826c12.29-21.4455,4.5874-38.7945,4.0776-39.9273a11.9116,11.9116,0,0,1,2.0955,1.02l5.38,3.3036A28.9679,28.9679,0,0,1,450.7474,509.1787Z"/><path class="cls-11" d="M380.4947,548.035l-1.6534-.9257c-.9758-.5355-2.282-1.3173-3.543-2.1387a36.4034,36.4034,0,0,1-3.3478-2.4172l-1.3736-1.2339s.7758-.1056,1.8249-.3027a31.9443,31.9443,0,0,0,3.7665-1.0968c1.3385-.4657,2.6335-.9777,3.6181-1.4074l1.6042-.6884s1.3659.1629,3.7929.371c2.4329.193,5.9456.38,10.1866.3922a130.2194,130.2194,0,0,0,14.4221-.8113c2.6126-.297,5.2695-.7355,7.9065-1.2993a32.1462,32.1462,0,0,0,7.2508-2.43c4.1907-2.3347,7.6777-6.6062,9.9759-11.1174a46.1061,46.1061,0,0,0,4.4987-13.2735,35.1728,35.1728,0,0,0,.4231-9.8528,16.0643,16.0643,0,0,0-.437-2.654c-.1292-.6036-.1982-.9254-.1982-.9254l2.2645-.73.316,1.0114a18.3921,18.3921,0,0,1,.7445,2.9109,38.168,38.168,0,0,1,.4615,10.7387,50.2649,50.2649,0,0,1-3.6891,14.8942,31.9077,31.9077,0,0,1-11.1452,14.4327l-2.1757,1.2454a22.9283,22.9283,0,0,1-2.1708.9812c-1.4459.6636-2.8958,1.0711-4.34,1.5884-2.8875.8789-5.7491,1.5965-8.5267,2.1518a138.5842,138.5842,0,0,1-15.28,2.1537c-4.501.366-8.2857.4825-10.9558.4935C382.0415,548.0916,380.4947,548.035,380.4947,548.035Z"/><polygon class="cls-11" points="444.403 490.951 438.883 485.685 442.983 478.674 447.018 485.128 444.403 490.951"/><path class="cls-13" d="M378.3706,450.3385l7.0665-7.8794a9.0854,9.0854,0,0,1,12.7407-1.6616L429.57,465.7456l-12.606,15.0806Z"/><path class="cls-13" d="M359.5489,463.3865l28.8427-22.9892a6.8084,6.8084,0,0,1,8.07-.3075h0a6.8086,6.8086,0,0,1-.3939,11.5118l-28.28,20.534Z"/><polygon class="cls-10" points="442.923 478.674 433.597 464.973 441.673 451.691 454.564 459.53 442.923 478.674"/><path class="cls-10" d="M454.3112,468.3112l-4.54-1.7826a21.5114,21.5114,0,0,1-12.1616-27.8852l.3786-.9644a15.0556,15.0556,0,0,1,19.5165-8.5117l2.4431.9592a15.0556,15.0556,0,0,1,8.5117,19.5165l-5.921,15.08A6.3465,6.3465,0,0,1,454.3112,468.3112Z"/><path class="cls-14" d="M460.95,433.1007h12.33a0,0,0,0,1,0,0v9.8842a5.5585,5.5585,0,0,1-5.5585,5.5585H454.7172a0,0,0,0,1,0,0v-9.21A6.2326,6.2326,0,0,1,460.95,433.1007Z" transform="translate(193.208 -139.0841) rotate(21.4368)"/><path class="cls-14" d="M462.4511,425.8589h10.9052a0,0,0,0,1,0,0v8.7423a4.9163,4.9163,0,0,1-4.9163,4.9163H456.9385a0,0,0,0,1,0,0v-8.146A5.5126,5.5126,0,0,1,462.4511,425.8589Z" transform="translate(190.3124 -140.0656) rotate(21.4366)"/><path class="cls-14" d="M465.6992,446.2015c-10.8722-4.2689-17.3092-7.4834-21.0538,9.1821a16.2415,16.2415,0,1,1,11.8717-30.2359l7.8083,3.0658C469.8416,432.5237,468.3883,439.3523,465.6992,446.2015Z"/><path class="cls-10" d="M465.4217,462.7725l-1.8346-.72,2.3784-6.0577.9559,5.5566A1.11,1.11,0,0,1,465.4217,462.7725Z"/><path class="cls-14" d="M435.4235,458.23c-3.7235-15.69.5289-25.0056.5289-25.0056l10.8739-.4352c6.3738,2.5024,10.7565,6.2277,8.2541,12.6014l-1.9333-.4588C447.39,464.9772,435.4235,458.23,435.4235,458.23Z"/><path class="cls-10" d="M448.6119,456.346,445.1839,455a3.6829,3.6829,0,0,1-2.0822-4.774l1.0535-2.6828a3.6825,3.6825,0,0,1,4.7739-2.082h0a3.6826,3.6826,0,0,1,2.082,4.7739Z"/><path class="cls-10" d="M467.7555,451.4354l-10.7262-4.2115a4.4512,4.4512,0,0,1-2.5164-5.77h0a4.4511,4.4511,0,0,1,5.77-2.5164l6.53,2.5638a4.5083,4.5083,0,0,1,2.5488,5.844Z"/><path class="cls-14" d="M452.7758,437.558h10.4382a0,0,0,0,1,0,0v5.9113a4.4025,4.4025,0,0,1-4.4025,4.4025h-6.0357a0,0,0,0,1,0,0V437.558A0,0,0,0,1,452.7758,437.558Z" transform="translate(193.4892 -136.7612) rotate(21.4373)"/><path class="cls-14" d="M438.5489,442.5545h18.3987a0,0,0,0,1,0,0v3.33a7.17,7.17,0,0,1-7.17,7.17H438.5489a0,0,0,0,1,0,0v-10.5A0,0,0,0,1,438.5489,442.5545Z" transform="translate(194.6351 -132.6618) rotate(21.4367)"/><path class="cls-13" d="M449.87,499.4559l6.744,36.2618a6.8091,6.8091,0,0,1-3.52,7.2687h0a6.8088,6.8088,0,0,1-9.9773-5.7561l-1.4732-37.4375Z"/><path class="cls-10" d="M437.6831,486.4692H449.7a0,0,0,0,1,0,0v8.8319a4.4612,4.4612,0,0,1-4.4612,4.4612h-12.045a0,0,0,0,1,0,0v-8.8037A4.4894,4.4894,0,0,1,437.6831,486.4692Z" transform="translate(65.9182 1038.1082) rotate(-103.5956)"/><path class="cls-13" d="M350.0783,612.11l70.8645-20.3883,1.4879,5.1717a13.3175,13.3175,0,0,1-10.9656,16.873L347.57,622.82Z"/><path class="cls-11" d="M348.1008,621.1666l2.59-9.17-7.5911-2.144-5.8414,20.6821S344.85,632.6786,348.1008,621.1666Z"/><polygon class="cls-13" points="372.649 540.007 361.434 530.423 390.642 512.888 372.649 540.007"/><g class="cls-15"><path class="cls-16" d="M472.69,766.6663l2.5946,1.8063-9.3911,1.008a21.1794,21.1794,0,0,1-6.0564-.2205c-1.399.15-2.7305.293-3.32.3562-7.9687.8553-16.9046-.132-20.5541-2.2078h-.0108s-.0457-.0292-.1093-.0726c-.128-.0762-.2661-.15-.38-.2295a2.3822,2.3822,0,0,1-1.0914-1.37c-.66-1.175-.8872-2.93,1.0516-5.1633,0,0,.7028-.1075,1.8432-.1935l-3.67-1.65.03-.0121a42.8957,42.8957,0,0,1-5.8014.18l-29.6484,6.441a26.485,26.485,0,0,1-4.5577.4924c-.08.0032-.16.008-.24.01-.1522.0035-.3029.0037-.4552.005-.3482.004-.6945.0008-1.0409-.01a22.1927,22.1927,0,0,1-6.4463-.9523l-.9211-.2808-24.9672-5.44,1.9717-.5723-8.19-1.989c-2.1147-.5135-2.306-1.3985-.4274-1.9766l5.4271-1.67,8.4866,2.0609c1.8708.4543,2.2428,1.197,1.022,1.7653L387.68,760.72l25.9724-5.6087-23.01-9.48-29.2081-4.7934,11.2072-2.618-.9534-.3128c-.668-.0312-1.1112-.0478-1.1112-.0478l.5522-.1357-1.4274-.4683c-7.3344-2.4062-7.617-5.8783-.6816-8.3715l4.32-1.5531-1.9461-7.1464-20.8137-1.637-7.481.5776-5.8415-5.6537s6.8748-.5239,10.34,2.1424l-.0287-.0335,20.878.8087-32.7528-15.9683-3.8579-1.8808,18.7456-2.8732s3.857,1.88-6.5743,3.48l.5757-.0883,37.1081,13.258a7.8111,7.8111,0,0,1,1.3159.5942h.0006l8.567,4.3744,19.89.77c8.0283.3049,13.2067,2.483,10.9656,4.6124l-1.4879,1.4138-10.7962,6.2168.2018-.0426,5.587,2.2667,11.2428-2.633,7.7649,10.2783a25.0048,25.0048,0,0,1,2.5537,1.1021l4.7221,1.9158.393-.7.505-3.5081c.1969-1.3679,5.5468-2.2117,9.9773-1.5735,2.158.3108,3.4839.9069,3.6051,1.5519,1.4526.4758,2.2082,1.1069,1.8478,1.768l-4.5282,8.008c2.6906,2.7463-.2771,5.7161-7.8312,7.72l4.017,1.8059,4.1065-.4408c3.2627-.35,6.946.089,8.2271.9808l5.9211,4.1224,0,0,.255.1775a8.3748,8.3748,0,0,1,3.4332.9654l3.3115,2.3057Z"/><path class="cls-17" d="M465.9656,761.184l-2.3785-1.656,1.8346-.1969c.805-.0863,1.6464.1009,1.5.3339Z"/></g><rect class="cls-18" x="255.6939" y="603.842" width="163.129" height="163.129"/><path class="cls-7" d="M131.02,711.936l7.4681-9.2686-6.54-5.2695-16.8432,20.9042S121.6444,723.5716,131.02,711.936Z"/><path class="cls-19" d="M269.0142,738.2433l-15.2933,7.8313-45.2765,23.1915-4.46,2.2808a14.79,14.79,0,0,1-17.3561-2.8674l-2.4147-2.4988-52.9568-54.5833,7.2107-8.9548,57.0149,37.764,1.6769,1.1068,1.6769-1.0565,34.3934-21.6822,9.4576-5.9532,7.3613-4.645,2.9347,4.645Z"/><path class="cls-7" d="M278.9267,625.77a13.9641,13.9641,0,1,1-7.2161-18.3824A13.964,13.964,0,0,1,278.9267,625.77Z"/><g class="cls-20"><path class="cls-7" d="M325.4318,838.7574l-11.265,3.8445,2.7127,7.9487,25.4067-8.6706S339.5736,833.9313,325.4318,838.7574Z"/></g><path class="cls-19" d="M307.1071,666.0183l-36.7105,10.1758A8.6463,8.6463,0,0,1,259.448,668.21h0a8.6462,8.6462,0,0,1,8.2912-8.9871l39.0309-1.572Z"/><path class="cls-7" d="M307.0221,657.3246h11.9027a4.0491,4.0491,0,0,1,4.0491,4.0491v8.7976a0,0,0,0,1,0,0H311.0967a4.0747,4.0747,0,0,1-4.0747-4.0747v-8.7721A0,0,0,0,1,307.0221,657.3246Z" transform="matrix(0.9992, -0.0402, 0.0402, 0.9992, -26.4589, 13.2157)"/><path class="cls-21" d="M281.91,640.5467v87.5849H233.232V620.1437c0-8.038,5.3585-14.5826,11.98-14.5826h7.9567c7.65,0,14.5963,3.6236,19.7565,9.5974C278.4644,621.5054,281.91,630.5319,281.91,640.5467Z"/><path class="cls-7" d="M247.4615,624.5118a13.9641,13.9641,0,1,1-7.2162-18.3824A13.964,13.964,0,0,1,247.4615,624.5118Z"/><path class="cls-21" d="M204.4588,654.7621h0a8.9588,8.9588,0,0,1-1.65-12.3629l18.8136-25.4143c3.8081-5.1443,10.8-6.3813,15.4275-2.7293h0c4.7354,3.7374,5.0482,11.0455.6818,15.9257l-21.0456,23.5221A8.959,8.959,0,0,1,204.4588,654.7621Z"/><circle class="cls-7" cx="205.6045" cy="650.0921" r="9.2619"/><rect class="cls-7" x="233.232" y="691.8099" width="48.6785" height="36.3217"/><path class="cls-7" d="M281.91,714.1687c-7.872,0-14.2536-11.2872-14.2536-25.2107s6.3816-25.2106,14.2536-25.2106Z"/><path class="cls-21" d="M325.04,838.9249l-10.883,3.7227-24.9358-63.387-.62-1.5932-1.2745-1.1569-33.4714-30.4359h-.4021a20.2246,20.2246,0,0,1-20.2235-20.2234v-13.03h24.0969a32.7669,32.7669,0,0,1,25.9753,12.7946l22.2862,28.96,3.8066,4.947a25.0286,25.0286,0,0,1,5.0307,11.6211l.6874,4.3932Z"/><polygon class="cls-7" points="261.87 612.982 245.806 605.564 245.806 589.125 261.87 589.125 261.87 612.982"/><path class="cls-21" d="M248.1074,649.8319l-35.25,8.2588a8.2171,8.2171,0,0,1-10.0915-8h0a8.217,8.217,0,0,1,8.217-8.217h37.1242Z"/><path class="cls-7" d="M243.3371,641.8732H256.451a4.4612,4.4612,0,0,1,4.4612,4.4612v9.6928a0,0,0,0,1,0,0H247.8265a4.4894,4.4894,0,0,1-4.4894-4.4894v-9.6646A0,0,0,0,1,243.3371,641.8732Z"/><path class="cls-7" d="M315.1123,775.5377h-.1171a12.5882,12.5882,0,0,1-12.5936-12.5935,12.435,12.435,0,0,1,3.186-8.3678l3.8066,4.947a25.0286,25.0286,0,0,1,5.0307,11.6211Z"/><polygon class="cls-7" points="307.734 766.432 289.221 779.261 288.601 777.667 287.326 776.51 305.823 763.682 307.734 766.432"/><path class="cls-7" d="M208.4444,769.2661l-4.46,2.2808a14.79,14.79,0,0,1-17.3561-2.8674l-2.4147-2.4988a12.59,12.59,0,0,1,24.2312,3.0854Z"/><polygon class="cls-7" points="198.836 740.457 198.836 760.848 195.482 760.848 195.482 740.407 197.159 741.513 198.836 740.457"/><path class="cls-21" d="M273.7123,577.0987v17.217a6.4,6.4,0,0,1-.8322,3.1654,7.6587,7.6587,0,0,1-6.7052,3.71h-6.1241c-14.1012,0-25.5486-10.4419-25.5486-23.3044v-.7879a15.1537,15.1537,0,0,1,3.0463-9.0954,18.3463,18.3463,0,0,1,14.8392-7.2189h3.4548C265.72,560.7844,273.7123,568.0893,273.7123,577.0987Z"/><path class="cls-7" d="M273.7123,577.0987v17.217a6.4,6.4,0,0,1-.8322,3.1654,16.9,16.9,0,0,1-6.2656-3.5952,14.4906,14.4906,0,0,1-4.8678-10.714c0-8.3791-7.4432-15.1686-16.6137-15.1686h-7.5845a18.3463,18.3463,0,0,1,14.8392-7.2189h3.4548C265.72,560.7844,273.7123,568.0893,273.7123,577.0987Z"/><rect class="cls-7" x="245.2584" y="577.5571" width="8.3749" height="12.1751" rx="2.6857"/><rect class="cls-22" x="267.4641" y="577.5571" width="3.0665" height="7.3406" rx="0.9834"/><path class="cls-23" d="M342.2862,853.2937s-2.7126,2.5148-16.8544.9879l-.3969-.0428-9.9226,20.0443-.6874,1.39c-.6542,1.3422-2.381,2.6048-5.0306,3.6765l-3.8067,1.5652-22.2861,9.1625c-.4451.183-.9121.3591-1.3911.5311v16.1148l25.1967,2.21-.02.1608c.1106-.87,2.4287-1.5462,5.1775-1.5113l10.9618.14-.3179,2.4964c-.11.8642-2.4134,1.5365-5.145,1.5018l-10.993-.14-24.86-.3168v5.7282c0,1.7179-1.0411,3.3375-2.8514,4.7862,2.83,2.2111-.3955,4.7454-7.3484,5.7049a42.5094,42.5094,0,0,1-9.8408.1535v1.8069h4.3051a15.6,15.6,0,0,1,6.7052,1.1736c.5338.2992.8322.639.8322,1.0016v5.4471c0,2.85-7.9927,5.1615-17.87,5.1615h-3.4546c-6.1869,0-11.6358-.9063-14.8392-2.2839-1.9314-.82-3.0464-1.8127-3.0464-2.8776v-.2492c0-2.5478,4.4879-4.7948,11.3036-6.1195v-2.6362h-.5934a29.4292,29.4292,0,0,1-4.21-.299c-.2507.04-.4954.0831-.7567.1191-7.0689.9756-15.299-.0466-18.3825-2.2831a2.5,2.5,0,0,1-1.1324-1.5324l-16.8881-7.2176c-4.2716-.2606-7.5-1.4483-7.5-2.8758,0-1.6184,4.1467-2.93,9.2618-2.93a26.43,26.43,0,0,1,4.3845.349,25.6959,25.6959,0,0,1,2.8686.0506l20.3744,1.51V894.1254h-.0028v-1.8835l-34.3934-6.86-1.6769-.3344-1.6768.35-57.015,11.9478-.004-.0016-6.5157,1.6609-16.8431-6.6137s6.54-1.6672,15.9153,2.0141l.2565.1007,52.9371-17.2627,2.4147-.7906c4.5276-1.4748,11.57-1.8462,17.3562-.9071l4.46.7216,45.2764,7.3374h.134l33.4714-9.6294,1.2744-.3661.62-.504,24.9358-20.0545.0229.0026,2.7-2.5029ZM227.27,916.5721l5.9616,2.108v-2.108Z"/></g></g></g></svg>