<svg id="bcg" xmlns="http://www.w3.org/2000/svg" xmlns:xlink="http://www.w3.org/1999/xlink" viewBox="0 0 2040.8836 1000"><defs><style>.cls-1{fill:url(#linear-gradient);}</style><linearGradient id="linear-gradient" x1="1207.7226" y1="1097.7395" x2="1975.7226" y2="-613.3194" gradientUnits="userSpaceOnUse"><stop offset="0" stop-color="#101c7a"/><stop offset="1" stop-color="#3a66bd"/></linearGradient></defs><title>Artboard 5ldpi</title><path class="cls-1" d="M2043.1914.0041H1127.8465c-5.4866,7.288-11.2172,16.3528-16.3271,23.8662-11.7523,17.2806-29.0472,31.64-46.8637,45.1152C999.225,118.4711,919.74,161.3191,875.2863,225.9773c-50.4116,73.3243-5.3786,158.2262,37.7942,226.1519,44.4571,69.9461,82.597,148.601,64.8678,228.5663-16.0168,72.2414-75.626,133.4171-142.7812,182.8343-51.9718,38.2443-109.371,71.2138-162.66,108.1944-15.0393,10.4365-28.491,20.2438-36.5148,28.5937h507.1538c32.9645-27.6975,58.15-67.9586,88.2689-91.5615,41.579-32.5831,96.9471-52.341,153.9992-60.43,82.0968-11.6406,164.05-4.5407,236.4623,28.9016,56.5475,26.1161,117.2579,48.8372,182.9537,53.4489a350.5637,350.5637,0,0,0,148.0679-21.843,298.3362,298.3362,0,0,0,62.2281-32.3327,276.7507,276.7507,0,0,0,28.0654-22.4672Z"/></svg>