<svg id="bcg" xmlns="http://www.w3.org/2000/svg" viewBox="0 0 305.5946 294.3529"><defs><style>.cls-1,.cls-2{fill:#e49b6c;}.cls-2{opacity:0.46;}</style></defs><title>Artboard 13 copy 2ldpi</title><path class="cls-1" d="M166.4965,195.6111S142.3052,185,121.93,157.0786c-.5833-.8,4.4321-3.5328,4.4321-3.5328s-7.0788-.2228-7.5282-.8943a138.07,138.07,0,0,1-14.71-28.8113c-.4135-1.1113,5.08-1.71,5.08-1.71s-6.9331-3.5723-7.2442-4.54a158.0854,158.0854,0,0,1-6.4336-30.0523c-.1329-1.1406,5.9257-1.794,5.9257-1.794s-6.4773-3.6371-6.5567-4.637a205.6316,205.6316,0,0,1,.9154-40.17,176.9961,176.9961,0,0,1,35.1139,27.3681c.2721.2712-1.9014,5.8348-2.1559,6.1261l5.4843-2.723a152.5542,152.5542,0,0,1,23.417,31.63c.3332.6081-2.4164,5.0522-2.4164,5.0522-.21-.3982,4.7153-.6571,4.7153-.6571a104.06,104.06,0,0,1,7.1208,17.5257c.3281,1.0387-2.8,7.3191-2.8,7.3191s4.2373-2.4042,4.469-1.5082C173.6265,149.8982,174.01,171.4762,166.4965,195.6111Z"/><path class="cls-2" d="M174.4271,230.8571c-4.4693-30.4023-12.5464-59.86-25.5868-87.7251-7.5119-16.0523-16.0734-31.5677-24.3924-47.2047-.2786,1.42-.55,2.8429-.841,4.2588,6.9037,12.9276,13.925,25.7973,20.3274,38.9886,14.23,29.3189,23.1087,60.1474,27.8424,92.3467,2.1588,14.6855,3.7484,29.4783,4.9766,44.3311l2.7227.0637C178.2345,260.8212,176.6218,245.7855,174.4271,230.8571Z"/></svg>