<svg id="bcg" xmlns="http://www.w3.org/2000/svg" viewBox="0 0 305.5946 294.3529"><defs><style>.cls-1{fill:#e49b6c;opacity:0.46;}</style></defs><title>Artboard 13 copyldpi</title><path class="cls-1" d="M41.5677,105.0513s-7.4495-18.0075,7.83-22.6117a19.2768,19.2768,0,0,1,12.9753.8994c2.5163,1.0537,5.8545,2.5271,9.6861,4.4022,1.6735.819-.3648,5.0672,1.4694,6.0385,1.9636,1.0394,7.8093-1.1873,9.8922.0235a135.3662,135.3662,0,0,1,20.3734,14.3009c1.4717,1.2724-1.1654,4.6362.2242,5.9931,0,0,7.6018,1.5467,9.2156,3.4487,9.35,11.0175,15.0251,24.3546,11.4433,39.7344,0,0-16.1675,11.3305-32.2733-12.0841-.6336-.9209,3.3308-7.253,2.6989-8.2842-.9566-1.56-6.5083,2.1087-7.4561.28a114.1111,114.1111,0,0,1-4.9864-11.138A118.3108,118.3108,0,0,0,73.19,108.3422c-1.33-2.0056,2.3592-3.2572.8446-5.0785-.86-1.0343-6.87-2.7427-7.7784-3.6554C58.68,91.9942,49.6022,89.4166,41.5677,105.0513Z"/><path class="cls-1" d="M168.5986,250.7352c-4.9252-12.4337-11.9472-23.9509-17.7046-36.0044-5.4188-11.3448-10.3865-22.8985-15.7931-34.2491-6.1171-12.8421-12.89-25.315-21.2271-36.6281-.36,1.07-.7161,2.1421-1.0878,3.2078a226.3512,226.3512,0,0,1,19.9245,34.7431c10.5278,22.0894,22.3844,44.1124,31.9645,66.58a119.08,119.08,0,0,1,7.6342,27.3188l2.8194.0661A116.65,116.65,0,0,0,168.5986,250.7352Z"/></svg>