<svg id="img" xmlns="http://www.w3.org/2000/svg" viewBox="0 0 2040.8836 1000"><defs><style>.cls-1{fill:#303b64;}.cls-2{fill:#505d91;}.cls-3{fill:#84a6d4;}.cls-4{opacity:0.52;}.cls-5{fill:#3d4b85;}.cls-6{fill:#f8f7f3;}.cls-7{fill:#e49b6c;}.cls-8{fill:#fff;}.cls-9{fill:#a0a2c7;}.cls-10{fill:#f2efe8;}.cls-11{opacity:0.57;}.cls-12{fill:#a49f92;}.cls-13{opacity:0.66;}.cls-14{fill:#151e37;}.cls-15{fill:#ddd6c4;}.cls-16{fill:#a9642a;}.cls-17{fill:#ecedf3;}.cls-18{fill:#f9f9fb;}.cls-19{opacity:0.54;}</style></defs><title>Artboard 5 copyldpi</title><path class="cls-1" d="M1156.752,665.4829a30.5728,30.5728,0,0,1-13.9977-25.7489V626.7031a6.3381,6.3381,0,0,1,9.5028-5.4913l8.17,4.7088-3.5567,6.1713-6.9934-4.03V639.734a23.4735,23.4735,0,0,0,10.748,19.7711Z"/><path class="cls-1" d="M1156.4444,617.2412l.0589,61.0781c.896,4.4717,12.9995,8.0137,27.8067,8.0137s26.9106-3.542,27.8066-8.0137l.0589-61.0781Z"/><ellipse class="cls-2" cx="1184.31" cy="617.2412" rx="27.8656" ry="8.5452"/><path class="cls-1" d="M1210.79,616.9526c0,4.3253-11.8555,7.8315-26.48,7.8315s-26.48-3.5062-26.48-7.8315,11.8555-7.8318,26.48-7.8318S1210.79,612.6271,1210.79,616.9526Z"/><rect class="cls-1" x="1812.229" y="171.7795" width="231.9488" height="411.6832"/><rect class="cls-2" x="1828.7909" y="189.9075" width="215.0922" height="369.6892"/><rect class="cls-1" x="1828.7909" y="402.371" width="215.0922" height="11.01"/><rect class="cls-1" x="1828.7909" y="379.5491" width="215.0922" height="11.0093"/><rect class="cls-1" x="1828.7909" y="356.7269" width="215.0922" height="11.0096"/><rect class="cls-1" x="1828.7909" y="333.905" width="215.0922" height="11.0093"/><rect class="cls-1" x="1828.7909" y="311.0825" width="215.0922" height="11.01"/><rect class="cls-1" x="1828.7909" y="288.2606" width="215.0922" height="11.0093"/><rect class="cls-1" x="1828.7909" y="265.4384" width="215.0922" height="11.0096"/><rect class="cls-1" x="1828.7909" y="242.6165" width="215.0922" height="11.0093"/><rect class="cls-1" x="1828.7909" y="219.794" width="215.0922" height="11.01"/><rect class="cls-1" x="1828.7909" y="196.9721" width="215.0922" height="11.0096"/><rect class="cls-3" x="1828.7909" y="412.3085" width="215.0922" height="1.0724"/><rect class="cls-3" x="1828.7909" y="389.486" width="215.0922" height="1.0724"/><rect class="cls-3" x="1828.7909" y="366.6641" width="215.0922" height="1.0724"/><rect class="cls-3" x="1828.7909" y="343.8419" width="215.0922" height="1.0724"/><rect class="cls-3" x="1828.7909" y="321.02" width="215.0922" height="1.0724"/><rect class="cls-3" x="1828.7909" y="298.1974" width="215.0922" height="1.0724"/><rect class="cls-3" x="1828.7909" y="275.3756" width="215.0922" height="1.0724"/><rect class="cls-3" x="1828.7909" y="252.5534" width="215.0922" height="1.0724"/><rect class="cls-3" x="1828.7909" y="229.7315" width="215.0922" height="1.0724"/><rect class="cls-3" x="1828.7909" y="206.9089" width="215.0922" height="1.0728"/><rect class="cls-1" x="1792.1176" y="559.0921" width="251.7655" height="32.5621"/><rect class="cls-3" x="1792.1176" y="559.1013" width="251.7655" height="3.0163"/><polygon class="cls-1" points="1828.791 536.787 1828.791 569.632 2043.883 569.632 2043.883 480.024 2032.728 480.024 2032.728 504.015 2016.539 504.015 2016.539 464.778 2011.089 464.778 2011.089 445.183 2006.095 452.216 2006.221 499.593 2000.625 499.593 2000.514 471.921 1978.678 471.921 1978.678 483.209 1974.589 483.209 1974.589 464.035 1970.353 457.157 1965.867 464.778 1965.867 479.089 1938.47 478.625 1938.47 464.778 1927.637 464.778 1927.637 516.673 1900.581 517.181 1900.84 484.45 1885.87 484.45 1885.87 498.239 1876.453 498.239 1876.453 484.45 1872.94 484.45 1872.94 472.907 1870.833 472.907 1870.833 484.45 1866.583 484.45 1866.38 527.995 1857.475 527.995 1857.272 510.434 1847.023 521.515 1847.023 543.509 1840.194 543.509 1840.194 536.787 1828.791 536.787"/><g class="cls-4"><rect class="cls-1" x="1357.7285" y="119.7502" width="220.481" height="149.029"/><rect class="cls-5" x="1370.4146" y="131.3959" width="195.1091" height="125.7377"/><polygon class="cls-1" points="1521.838 228.623 1521.838 228.623 1441.563 175.554 1521.838 175.554 1521.838 228.623"/><polygon class="cls-1" points="1412.876 167.73 1412.876 167.73 1493.152 220.799 1412.876 220.799 1412.876 167.73"/></g><rect class="cls-6" x="1552.4706" y="261.0707" width="175.0588" height="207.7285" rx="2.8581"/><path class="cls-7" d="M1727.5294,272.76V256.5507a6.0657,6.0657,0,0,0-6.0657-6.0657H1558.5365a6.0657,6.0657,0,0,0-6.0659,6.0657V272.76Z"/><path class="cls-8" d="M1567.6455,263.1178a1.91,1.91,0,1,1-1.91-1.9094A1.91,1.91,0,0,1,1567.6455,263.1178Z"/><path class="cls-8" d="M1576.2156,263.1178a1.91,1.91,0,1,1-1.91-1.9094A1.91,1.91,0,0,1,1576.2156,263.1178Z"/><path class="cls-8" d="M1584.7854,263.1178a1.91,1.91,0,1,1-1.91-1.9094A1.91,1.91,0,0,1,1584.7854,263.1178Z"/><path class="cls-9" d="M1602.9247,382.4933a15.6153,15.6153,0,1,1-15.6153-15.6155A15.6153,15.6153,0,0,1,1602.9247,382.4933Z"/><path class="cls-9" d="M1602.9247,425.1125a15.6153,15.6153,0,1,1-15.6153-15.6153A15.6153,15.6153,0,0,1,1602.9247,425.1125Z"/><rect class="cls-9" x="1621.1508" y="372.4005" width="86.8643" height="3.2372"/><rect class="cls-9" x="1621.1508" y="385.159" width="47.9882" height="3.2375"/><rect class="cls-9" x="1621.1508" y="415.4373" width="86.8643" height="3.2375"/><rect class="cls-9" x="1621.1508" y="428.1963" width="47.9882" height="3.2372"/><path class="cls-7" d="M1381.0925,474.5258l45.4621-8.5739,52.9151,5.9831,68.126,99.6282-.8057,75.3745c-63.1281,36.5613-147.5623,42.09-223.1218,36.335-2.23-.17-4.4661-.3517-6.7019-.5319l-.0092-.0936-37.2435-83.749,37.2025-75.5924A90.1456,90.1456,0,0,1,1381.0925,474.5258Z"/><path class="cls-10" d="M1396.8205,394.5141c-.3748-7.51,3.1547-14.7948,3.2361-22.117.0572-5.159-3.4532-10.3368-3.1543-15.6259.6694-11.8284,5.5759-22.9489,10.4065-33.7678l1.9708.9572c11.7-11.2284,29.688-14.7188,45.3316-10.4455s28.8358,15.6193,37.1632,29.5346c11.8406,19.7891,18.0674,30.4071,9.7238,51.9071a87.4138,87.4138,0,0,1-13.3381,22.7373c-3.6416,18.0936-12.2243,65.0458-9.8127,94.9465H1425.5s2.8764-33.937.2584-56.5534c-3.0655.8186-5.7853.81-7.77-.7574-2.924-2.3092-4.5958-5.6651-6.6806-8.7538-5.3454-7.9208-13.2658-14.5725-15.066-23.9577C1394.8151,415.1881,1397.1987,402.07,1396.8205,394.5141Z"/><g class="cls-11"><path class="cls-12" d="M1425.7581,456.0872c2.618,22.6164-.2584,56.5534-.2584,56.5534h16.5861c-8.2032-12.6206,4.6636-45.5974,2.046-68.2138-3.0655.8183-6.5224,6.4815-8.508,4.9135Z"/></g><g class="cls-13"><path class="cls-12" d="M1396.8206,394.5142c-.375-7.5106,3.1546-14.7949,3.236-22.117.0572-5.159-3.4532-10.3369-3.1543-15.626.6693-11.8285,5.5759-22.9488,10.4065-33.7677l1.9709.9571c9.301-8.9263,22.5692-12.8785,35.4815-12.0113-10.44.8084-20.5788,4.7835-28.11,12.0113l6.4811,5.4376c-4.8306,10.819-18.189,15.5445-18.8583,27.373-.299,5.2891,2.0224,14.155,1.9652,19.314-.0815,7.3221-6.0233,18.4322-2.9285,25.2856.3105.6877,2.6824,2.7639,3.6606,5.6256.8149,2.3836.4685,4.9383.2307,7.8166-.3566,4.3144-1.6973,5.3377-3.5893,7.8053-5.8147,7.5835,9.7205,16.037,15.066,23.9577.7619,1.129.5286,9.7172-.691,8.7537-2.924-2.3091-4.5958-5.6651-6.68-8.7537-5.3455-7.9207-13.2659-14.5725-15.066-23.9577C1394.8151,415.1881,1397.1987,402.07,1396.8206,394.5142Z"/></g><path class="cls-14" d="M1417.4337,303.57c.7353-.4489,1.4817-.879,2.2443-1.2815,10.6571-5.6271,25.6881-7.0572,37.5984-6.8058a79.1164,79.1164,0,0,1,36.8565,10.158c5.9776,3.35,12.0618,8.1124,15.0075,14.4771,2.8221,6.0978-.2938,11.5019,1.6574,17.6627,1.2319,3.8885,5.0621,6.484,6.1682,10.17,1.1021,3.6718.2249,9.1132-.0033,12.9047a112.5065,112.5065,0,0,1-31.944,71.792c-.3631.3652,1.2189-5.4978,1.3221-5.8357a83.9918,83.9918,0,0,0,2.2682-8.35,71.4908,71.4908,0,0,0,1.03-20.3744c-.2761-2.9449-.7755-5.98-2.4194-8.44s-4.71-4.1871-7.5713-3.437c-2.0438.5359-3.5789,2.165-5.2593,3.4481a15.6141,15.6141,0,0,1-12.2394,2.7743,4.7315,4.7315,0,0,1-2.3376-.8094c-1.1628-.9591-1.14-2.7154-1.0158-4.2177q1.0527-12.7829,2.1061-25.5658c.5978-7.2581,6.1464-22.5114-6.748-21.6935-6.4213.4077-12.0072,3.4356-18.1875,4.7363-4.9058,1.0324-10.109,1.5311-15.1365,2.2741-14.66,2.1669-37.3.4-44.862-15.038a20.5388,20.5388,0,0,1,.4648-18.6539c3.9556,5.1229,11.9029,3.82,18.07,1.8577a68.5182,68.5182,0,0,0,12.3213-4.9006C1410.5155,308.3955,1413.8441,305.7616,1417.4337,303.57Z"/><path class="cls-3" d="M1376.4333,313.4649c3.9559,5.1229,11.9029,3.82,18.07,1.8577a68.5182,68.5182,0,0,0,12.3213-4.9006c3.6906-2.0269,7.0188-4.6607,10.6088-6.8516.7357-.4489,1.4817-.879,2.2443-1.2819,10.6571-5.6267,25.6881-7.0568,37.5984-6.8054a79.1194,79.1194,0,0,1,36.8565,10.1576,43.3242,43.3242,0,0,1,10.6715,8.1364,46.4966,46.4966,0,0,0-8.8286-6.2935,79.1194,79.1194,0,0,0-36.8565-10.1576c-11.91-.2514-26.9413,1.1787-37.5984,6.8054-.7626.4029-1.5086.833-2.2443,1.2819-3.59,2.1909-6.9182,4.8247-10.6088,6.8516a68.5182,68.5182,0,0,1-12.3213,4.9006c-6.1674,1.9623-14.1144,3.2652-18.07-1.8577a20.5388,20.5388,0,0,0-.4648,18.6539,22.363,22.363,0,0,0,3.3415,4.9684,22.6322,22.6322,0,0,1-5.1844-6.8113A20.5388,20.5388,0,0,1,1376.4333,313.4649Z"/><polygon class="cls-8" points="1441.901 512.641 1426.555 462.307 1417.483 464.018 1407.884 544.835 1441.901 512.641"/><path class="cls-10" d="M1480.201,465.9519l48.3443,9.1488a71.78,71.78,0,0,1,52.8234,42.7088l53.9969,128.4379a27.6029,27.6029,0,0,1-25.4456,38.3009L1416.795,674.9l-8.9112-27.3442,21.2608,7.2264,120.8808-10.2436a12.7435,12.7435,0,0,0,9.2443-20.1731l-80.9223-111.7249S1463.8305,472.7179,1480.201,465.9519Z"/><path class="cls-12" d="M1416.795,665.6855c47.2272,19.9361,193.125,9.648,193.125,9.648a27.5714,27.5714,0,0,0,27.1916-23.01,27.5971,27.5971,0,0,1-27.1916,32.2241L1416.795,674.9l-8.9112-27.3445,3.3769,1.1477S1412.6812,663.9491,1416.795,665.6855Z"/><path class="cls-7" d="M1480.2,465.9519l48.3451,9.1488a71.78,71.78,0,0,1,52.8234,42.7081l37.2976,79.2671c-29.1572-3.0375-59.3966,27.29-80.1822,10.9339l-60.1367-95.3692S1463.8305,472.7179,1480.2,465.9519Z"/><polygon class="cls-8" points="1480.627 462.81 1441.901 512.641 1469.236 548.48 1494.034 465.952 1480.627 462.81"/><path class="cls-14" d="M1398.3715,410.2156c2.0943-7.4858,6.93-1.0025,15.2832-1.7644,4.8317-.4408,14.2968-6.7406,18.1658-3.8126a22.4014,22.4014,0,0,1,4.1244,4.6659,6.3242,6.3242,0,0,0,2.4628,1.9612,8.11,8.11,0,0,0,8.4213-1.3582c2.318-1.8975,5.5305-4.8067,6.696-7.2039,1.9236-3.9582,1.5414-7.8084,2.0567-11.9943.4331-3.52,1.7463-6.9621,2.3305-10.5595q1.9737-12.1526,3.9479-24.3048l1.9929,3.3489c-.6668-2.276,1.6774-4.6567,4.0466-4.55s4.3393,2.0957,5.082,4.3478a13.9253,13.9253,0,0,1,.0247,7.0347c-1.43,7.2164-4.2505,14.6834-4.1052,22.1055.1227,6.3212-2.0085,17.43.3836,23.204,2.5307,6.107,9.9023,9.3818,5.068,17.3859-4.4731,7.4069-15.355,13.72-22.7321,17.6243-9.92,5.25-19.5558,11.4374-30.8111,12.9571a16.9869,16.9869,0,0,1-2.4805,0c-1.2337-.0265-7.4921-3.0662-8.404-3.8973-7.8448-7.1516-9.4449-13.2059-11.5819-22.5077C1395.8394,422.0006,1395.5766,420.2071,1398.3715,410.2156Z"/><path class="cls-15" d="M1433.8826,421.6062l-12.2858.0907h-10.75l-8.7537-.0907,4.5608,10.3048a7.6085,7.6085,0,0,0,6.9573,4.5291h0l1.2668-4.6073,4.2619.3457,2.1823,4.2616h1.8968a7.608,7.608,0,0,0,7.164-5.0466Z"/><path class="cls-16" d="M1554.462,612.83a23.1084,23.1084,0,0,1-15.9779-4.82l-6.6208-49.9381Z"/><path class="cls-17" d="M1434.4364,670.8386h117.4389a0,0,0,0,1,0,0V686.333a0,0,0,0,1,0,0H1434.4365a.7079.7079,0,0,1-.7079-.7079V671.5464A.7078.7078,0,0,1,1434.4364,670.8386Z" transform="translate(2985.6039 1357.1716) rotate(-180)"/><path class="cls-18" d="M1238.8031,686.333h221.4662a10.1337,10.1337,0,0,0,9.4529-13.7853l-51.7769-134.0336a10.1339,10.1339,0,0,0-9.453-6.4822H1187.0254a10.1338,10.1338,0,0,0-9.4526,13.7856L1229.35,679.8508A10.1338,10.1338,0,0,0,1238.8031,686.333Z"/><path class="cls-17" d="M1308.4875,609.183a15.16,15.16,0,1,0,15.16-15.16A15.1595,15.1595,0,0,0,1308.4875,609.183Z"/><g class="cls-19"><path class="cls-17" d="M1238.8031,686.333a10.1345,10.1345,0,0,1-9.453-6.4822l-51.7773-134.0333a10.1338,10.1338,0,0,1,9.4526-13.7856h56.0875c1.5753,6.4472,2.6873,13.0857,4.4373,19.4783a93.9951,93.9951,0,0,0,24.599,41.9492c14.7336,14.4962,33.7343,23.6473,51.5521,34.1238s35.4478,23.3042,44.4319,41.919a59.9516,59.9516,0,0,1,5.1742,16.8308Z"/></g></svg>