<svg id="bcg" xmlns="http://www.w3.org/2000/svg" xmlns:xlink="http://www.w3.org/1999/xlink" viewBox="0 0 2040.8836 1000"><defs><style>.cls-1{fill:url(#linear-gradient);}.cls-2{fill:#303b64;}</style><linearGradient id="linear-gradient" x1="723.0822" y1="416.1732" x2="2044.4759" y2="416.1732" gradientUnits="userSpaceOnUse"><stop offset="0" stop-color="#101c7a"/><stop offset="1" stop-color="#3a66bd"/></linearGradient></defs><title>Artboard 5 copyldpi</title><path class="cls-1" d="M723.0822-1.2593c.9856,2.0944,2.0581,4.146,3.2477,6.1328,30.3225,77.3038,98.099,139.3075,178.2027,161.6483,36.1376,10.0789,74.2067,12.542,109.7658,24.5028,59.6322,20.0586,109.3535,67.6909,131.9519,126.4081,33.7791,87.7693,9.5168,195.1095,63.163,272.3533,54.7221,78.7929,165.811,91.004,261.4657,83.7183s197.4638-25.4794,283.3084,17.3408c56.1665,28.0168,97.7334,79.0068,152.0926,110.3868,41.6463,24.0411,90.23,34.4849,138.1959,32.0218V-1.2593Z"/><path class="cls-2" d="M1146.25,317.4327c33.7791,80.4424,9.5168,152.2174,63.163,223.0129,54.7221,72.2151,165.811,83.4073,261.4657,76.7294s197.4638-23.3523,283.3084,15.8932c56.1665,25.6781,97.7334,72.4113,152.0926,101.1718,41.6463,22.0339,90.23,31.6062,138.1959,29.3486v69.6651c-47.9655,2.4631-96.55-7.9807-138.1959-32.0218-54.3592-31.38-95.9261-82.37-152.0926-110.3868-85.8446-42.82-187.6542-24.6268-283.3084-17.3408s-206.7436-4.9254-261.4657-83.7183c-53.6462-77.2438-29.3839-184.584-63.163-272.3533Z"/></svg>