<svg id="img" xmlns="http://www.w3.org/2000/svg" xmlns:xlink="http://www.w3.org/1999/xlink" viewBox="0 0 553.31 999.9919"><defs><style>.cls-1{fill:none;}.cls-2{fill:#a49f92;}.cls-3{fill:#303b64;}.cls-4{fill:#505d91;}.cls-5{clip-path:url(#clip-path);}.cls-6{fill:#84a6d4;}.cls-7{fill:#e49b6c;}.cls-8{fill:#f2efe8;}.cls-9{opacity:0.57;}.cls-10{opacity:0.66;}.cls-11{fill:#151e37;}.cls-12{fill:#fff;}.cls-13{fill:#ddd6c4;}.cls-14{fill:#a9642a;}.cls-15{fill:#ecedf3;}.cls-16{fill:#f9f9fb;}.cls-17{opacity:0.54;}</style><clipPath id="clip-path"><rect class="cls-1" x="75.8153" y="451.3726" width="476.4706" height="470.1176"/></clipPath></defs><title>Artboard 6 copyldpi</title><path class="cls-2" d="M296.9464,846.158c37.7315,15.9277,154.2945,7.7081,154.2945,7.7081a22.0276,22.0276,0,0,0,21.7243-18.3833,22.0483,22.0483,0,0,1-21.7243,25.7451L296.9464,853.52l-7.1194-21.8466,2.6979.917S293.66,844.7707,296.9464,846.158Z"/><path class="cls-3" d="M531.7761,864.152A30.92,30.92,0,0,0,545.9329,838.11V824.9314a6.41,6.41,0,0,0-9.6108-5.5538l-8.2633,4.7623,3.5971,6.2415,7.0729-4.0756V838.11a23.74,23.74,0,0,1-10.87,19.9959Z"/><path class="cls-3" d="M532.0872,815.3619l-.06,61.7724c-.9061,4.5225-13.1472,8.1048-28.1227,8.1048s-27.2166-3.5823-28.1227-8.1048l-.06-61.7724Z"/><ellipse class="cls-4" cx="503.9049" cy="815.3619" rx="28.1823" ry="8.6423"/><path class="cls-3" d="M477.1235,815.07c0,4.3744,11.99,7.92,26.7814,7.92s26.7814-3.5461,26.7814-7.92-11.99-7.9208-26.7814-7.9208S477.1235,810.6953,477.1235,815.07Z"/><g class="cls-5"><path class="cls-6" d="M369.3078,551.7151c3.4379,4.452,10.344,3.32,15.7036,1.6144a59.5385,59.5385,0,0,0,10.7075-4.2588c3.2073-1.7614,6.1-4.05,9.2194-5.9542.6393-.39,1.2876-.7639,1.95-1.114,9.2613-4.89,22.3237-6.1325,32.674-5.9141a68.7574,68.7574,0,0,1,32.0293,8.8273,37.6476,37.6476,0,0,1,9.2738,7.0707,40.4061,40.4061,0,0,0-7.6722-5.4692,68.758,68.758,0,0,0-32.0293-8.8273c-10.35-.2184-23.4127,1.0244-32.674,5.9142-.6628.35-1.3111.7238-1.95,1.114-3.12,1.9039-6.0121,4.1928-9.2193,5.9541a59.535,59.535,0,0,1-10.7076,4.2588c-5.36,1.7053-12.2657,2.8376-15.7035-1.6143a17.8485,17.8485,0,0,0-.404,16.2106,19.4376,19.4376,0,0,0,2.9039,4.3178,19.6677,19.6677,0,0,1-4.5054-5.9193A17.8487,17.8487,0,0,1,369.3078,551.7151Z"/><path class="cls-7" d="M373.3568,691.6813l39.5078-7.451,45.9846,5.2,59.2034,86.58-.7,65.5025c-54.86,31.7727-128.2356,36.5773-193.8989,31.576-1.9375-.1477-3.8811-.3056-5.8241-.4622l-.008-.0814-32.3656-72.78,32.33-65.6918A78.3388,78.3388,0,0,1,373.3568,691.6813Z"/><path class="cls-8" d="M387.0249,622.149c-.3258-6.5268,2.7415-12.857,2.8123-19.22.05-4.4833-3.001-8.983-2.7412-13.5794.5817-10.2792,4.8456-19.9431,9.0435-29.3451l1.7127.8319c10.1677-9.7578,25.8-12.7911,39.3943-9.0775s25.0591,13.5736,32.2958,25.6664c10.29,17.1972,15.7011,26.4246,8.45,45.1086a75.9663,75.9663,0,0,1-11.5912,19.7594c-3.1646,15.7238-10.6233,56.5265-8.5275,82.511h-45.926s2.5-29.4922.2245-49.1464c-2.664.7114-5.0275.7043-6.7527-.6582-2.541-2.0068-3.9939-4.9231-5.8056-7.6073-4.6453-6.8834-11.5284-12.6639-13.0927-20.82C385.2821,640.1153,387.3535,628.715,387.0249,622.149Z"/><g class="cls-9"><path class="cls-2" d="M412.1724,675.6577c2.2751,19.6542-.2245,49.1464-.2245,49.1464h14.4137c-7.1287-10.9676,4.0528-39.6253,1.778-59.28-2.664.7111-5.6681,5.6326-7.3936,4.27Z"/></g><g class="cls-10"><path class="cls-2" d="M387.0249,622.1491c-.3258-6.5269,2.7414-12.8571,2.8123-19.22.05-4.4833-3.001-8.983-2.7412-13.5794.5816-10.2792,4.8456-19.9431,9.0435-29.345l1.7127.8317c8.0829-7.7571,19.6133-11.1917,30.8345-10.4381a39.5651,39.5651,0,0,0-24.4284,10.4381l5.6323,4.7255c-4.198,9.4019-15.8068,13.5086-16.3885,23.7878-.26,4.5964,1.7575,12.3011,1.7078,16.7844-.0708,6.3632-5.2343,16.0181-2.5449,21.9739.27.5976,2.3311,2.4019,3.1812,4.8887.7081,2.0714.4071,4.2916.2,6.7929-.31,3.7494-1.4749,4.6386-3.1191,6.783-5.0532,6.59,8.4474,13.9366,13.0927,20.82.6622.9811.4594,8.4445-.6,7.6072-2.5411-2.0066-3.994-4.9231-5.8056-7.6072-4.6454-6.8833-11.5285-12.6639-13.0928-20.82C385.2821,640.1153,387.3535,628.7149,387.0249,622.1491Z"/></g><path class="cls-11" d="M404.9383,543.1165c.639-.39,1.2876-.7639,1.95-1.1137,9.2613-4.89,22.3237-6.1328,32.674-5.9144a68.7554,68.7554,0,0,1,32.0293,8.8276c5.1948,2.911,10.482,7.05,13.0419,12.581,2.4526,5.2991-.2553,9.9954,1.44,15.3493,1.07,3.3793,4.3991,5.6349,5.36,8.8379.9578,3.1909.1954,7.92-.0028,11.2145a97.773,97.773,0,0,1-27.76,62.3892c-.3155.3174,1.0593-4.7777,1.149-5.0714a72.9886,72.9886,0,0,0,1.9711-7.2566,62.1291,62.1291,0,0,0,.8953-17.7058,15.65,15.65,0,0,0-2.1025-7.3344c-1.4283-2.137-4.0935-3.6386-6.58-2.9868-1.7761.4657-3.11,1.8815-4.57,2.9964a13.5684,13.5684,0,0,1-10.6363,2.411,4.1114,4.1114,0,0,1-2.0314-.7034c-1.0106-.8334-.99-2.36-.8828-3.6653q.9149-11.1085,1.83-22.2173c.5195-6.3075,5.3415-19.563-5.8641-18.8522-5.58.3542-10.4346,2.9855-15.8055,4.1159-4.2633.8972-8.785,1.33-13.154,1.9763-12.74,1.883-32.4143.3472-38.9863-13.0685a17.8488,17.8488,0,0,1,.4039-16.2107c3.4375,4.452,10.344,3.32,15.7036,1.6144a59.5385,59.5385,0,0,0,10.7075-4.2588C398.9262,547.31,401.8188,545.0208,404.9383,543.1165Z"/><polygon class="cls-12" points="426.201 724.804 412.865 681.063 404.981 682.55 396.639 752.782 426.201 724.804"/><path class="cls-8" d="M459.4847,684.23l42.0126,7.9507a62.3789,62.3789,0,0,1,45.9049,37.115l46.9247,111.6159a23.9878,23.9878,0,0,1-22.1129,33.2846l-167.8308-8.3847-7.744-23.7628,18.4762,6.28L520.164,839.427a11.0744,11.0744,0,0,0,8.0336-17.531l-70.3237-97.0919S445.2583,690.11,459.4847,684.23Z"/><path class="cls-7" d="M459.4841,684.23l42.0132,7.9507a62.3779,62.3779,0,0,1,45.9049,37.1144l32.4126,68.8852c-25.3384-2.64-51.6172,23.7154-69.68,9.5019l-52.26-82.8784S445.2583,690.11,459.4841,684.23Z"/><polygon class="cls-12" points="459.855 681.5 426.201 724.804 449.956 755.95 471.506 684.23 459.855 681.5"/><path class="cls-11" d="M388.3727,635.7941c1.82-6.5054,6.0227-.8713,13.2815-1.5333,4.1989-.3831,12.4243-5.8578,15.7866-3.3133a19.4649,19.4649,0,0,1,3.5842,4.0548,5.4963,5.4963,0,0,0,2.14,1.7043,7.0475,7.0475,0,0,0,7.3183-1.18c2.0144-1.6489,4.8062-4.1771,5.819-6.26,1.6717-3.44,1.34-6.7857,1.7873-10.4234.3764-3.0586,1.5176-6.05,2.0253-9.1764q1.7152-10.5609,3.4308-21.1216l1.7319,2.91c-.5795-1.9779,1.4577-4.0467,3.5166-3.9545a5.2573,5.2573,0,0,1,4.4164,3.7783,12.1021,12.1021,0,0,1,.0214,6.1134c-1.2427,6.2713-3.6937,12.76-3.5675,19.21.1066,5.4933-1.7454,15.1473.3334,20.1648,2.1992,5.3072,8.6054,8.1531,4.4042,15.1089-3.8872,6.4368-13.3439,11.923-19.7548,15.316-8.62,4.5621-16.9945,9.9394-26.7756,11.26a14.7582,14.7582,0,0,1-2.1557,0c-1.0721-.0231-6.5108-2.6646-7.3033-3.3869-6.8174-6.2149-8.2078-11.4762-10.0649-19.56C386.1722,646.0355,385.9439,644.4769,388.3727,635.7941Z"/><path class="cls-13" d="M419.2329,645.6928l-10.6768.0788h-9.3423l-7.6073-.0788,3.9635,8.9551a6.6118,6.6118,0,0,0,6.0461,3.9359h0l1.1009-4.0038,3.7036.3,1.8966,3.7034h1.6483a6.6116,6.6116,0,0,0,6.2258-4.3856Z"/><path class="cls-14" d="M524.02,811.8711a20.0824,20.0824,0,0,1-13.8852-4.1889l-5.7536-43.3976Z"/><path class="cls-15" d="M419.8068,862.2824H521.7716a0,0,0,0,1,0,0v13.465a0,0,0,0,1,0,0H419.8069a.7079.7079,0,0,1-.7079-.7079V862.99A.7078.7078,0,0,1,419.8068,862.2824Z" transform="translate(940.8706 1738.0298) rotate(-180)"/><path class="cls-16" d="M249.7035,875.7474h192.46a8.8064,8.8064,0,0,0,8.2149-11.98L405.3828,747.2889a8.8064,8.8064,0,0,0-8.2148-5.6332H204.7073a8.8065,8.8065,0,0,0-8.2145,11.98l44.9958,116.4785A8.8065,8.8065,0,0,0,249.7035,875.7474Z"/><path class="cls-15" d="M310.2611,808.702a13.1744,13.1744,0,1,0,13.1748-13.1748A13.174,13.174,0,0,0,310.2611,808.702Z"/><g class="cls-17"><path class="cls-15" d="M249.7035,875.7474a8.8072,8.8072,0,0,1-8.2149-5.6332L196.4928,753.6357a8.8065,8.8065,0,0,1,8.2145-11.98h48.7415c1.369,5.6027,2.3354,11.3718,3.8562,16.9272a81.6837,81.6837,0,0,0,21.3772,36.4549c12.8039,12.5976,29.316,20.55,44.8,29.6545s30.805,20.252,38.6125,36.4287a52.1,52.1,0,0,1,4.4964,14.6264Z"/></g></g></svg>