<svg id="bcg" xmlns="http://www.w3.org/2000/svg" viewBox="0 0 305.5946 294.3529"><defs><style>.cls-1{fill:#e49b6c;opacity:0.46;}</style></defs><title>Artboard 13 copy 3ldpi</title><path class="cls-1" d="M180.7322,27.3881s-14.7536,9.7866-22.3139,40.13c-.6715,2.6951,1.1665,8.7421,1.1665,8.7421s-3.5253,2.938-3.7607,4.5541A186.8925,186.8925,0,0,0,154.17,113.5c.078,2.5162,7.04,6.1628,7.2077,8.8157.1571,2.4937-6.4858,3.9862-6.2446,6.6036q.7788,8.4348,2.1854,17.7455s6.0917,35.3724,15.061,35.72c1.2806.05,2.6208-.6152,4.01-2.2,4.5047-5.1391,6.0248-21.6063,5.9438-39.8611-.01-2.2968-3.0334-5.6048-3.0334-5.6048s2.7015-8.4375,2.52-11.9468c-.6646-12.8155-1.8914-25.0369-3.2166-33.4564-.3251-2.0625-9.5318-1.8087-.9849-5.4556,2.4569-1.0483-1.1021-4.4533-1.6172-5.2972C176.0013,78.563,170.4871,55.4264,180.7322,27.3881Z"/><path class="cls-1" d="M190.48,250.31c-5.1575-47.0334-28.3355-93.1073-21.5272-140.6767.2236-1.5643-2.8-1.6248-3.022-.0712-6.8152,47.6186,16.367,93.62,21.5277,140.677.9458,8.6274,1.6076,17.2835,2.1447,25.9485l3.0216.0709C192.0878,267.5939,191.426,258.9378,190.48,250.31Z"/></svg>