<svg id="bcg" xmlns="http://www.w3.org/2000/svg" viewBox="0 0 305.5946 294.3529"><defs><style>.cls-1,.cls-2{fill:#e49b6c;}.cls-2{opacity:0.46;}</style></defs><title>Artboard 13ldpi</title><path class="cls-1" d="M135.6029,198.5508a166.2087,166.2087,0,0,0-14.5383-29.3782c-.6476-1.04-5-.1911-5.69-1.2445-.58-.8834,2.508-3.6684,1.8979-4.5559-6.0484-8.8023-13.6011-17.7195-22.6679-24.7191-.9672-.7467-6.9235,1.218-7.2884,2.3844,0,0,2.0311-6.12.8449-6.8523-10.6581-6.5737-23.1261-10.3065-37.4161-8.55-2.0012.2457.6425,4.2043-1.43,4.6731,0,0-5.0284-4.1317-6.4708-3.7042,0,0-14.105-.5141-36.5852,25.9173,0,0,15.9692-2.8862,31.133-1.5055,1.8832.1714,8.5745-2.7533,10.4005-2.4365,2.0679.3584-.7417,3.9818,1.1655,4.5644,6.1961,1.8931,11.2971,5.073,13.702,10.2213a70.1367,70.1367,0,0,0,8.9348,14.6715c1.204,1.4806,4.5044-3.3256,5.8811-1.9824.3853.3755-1.2373,6.98-.8367,7.3614a116.5843,116.5843,0,0,0,15.3376,12.4813c1.09.7291,4.7667-4.4632,5.8882-3.789.773.465-1.0179,6.8118-.2323,7.2452C110.0318,206.1928,123.9079,208.8477,135.6029,198.5508Z"/><path class="cls-2" d="M150.9517,234.0424c-8.2866-26.1162-24.2166-46.9489-45.4635-63.9854q-1.7093-1.371-3.4892-2.7881c-.3185.728-.6319,1.4584-.9569,2.1837,4.8631,4.052,9.343,8.1112,13.2856,11.8024,21.4524,20.0856,33.5556,45.2486,39.0834,73.8892,1.2966,6.7171,2.2859,13.4737,3.0937,20.2549l2.7659.065C157.6477,261.4351,155.233,247.5369,150.9517,234.0424Z"/></svg>