<svg id="bcg" xmlns="http://www.w3.org/2000/svg" xmlns:xlink="http://www.w3.org/1999/xlink" viewBox="0 0 553.31 999.9919"><defs><style>.cls-1{fill:none;}.cls-2{clip-path:url(#clip-path);}.cls-3{fill:url(#linear-gradient);}.cls-4{clip-path:url(#clip-path-2);}.cls-5{fill:#303b64;}</style><clipPath id="clip-path"><rect class="cls-1" x="1.0079" y="558.1095" width="551.2941" height="441.8824"/></clipPath><linearGradient id="linear-gradient" x1="194.1366" y1="1080.1242" x2="614.903" y2="322.4282" gradientUnits="userSpaceOnUse"><stop offset="0" stop-color="#101c7a"/><stop offset="1" stop-color="#3a66bd"/></linearGradient><clipPath id="clip-path-2"><rect class="cls-1" x="0.2859" y="522.6667" width="552" height="374.8235"/></clipPath></defs><title>Artboard 6 copyldpi</title><g class="cls-2"><path class="cls-3" d="M566.42,527.5213c-50.4009,298.7733-399.6107,170.436-576,311.1764v178.1765l577.4118-1.4118Z"/></g><g class="cls-4"><path class="cls-5" d="M575.1447,525.7239c-29.1977,69.5324-8.226,131.5728-54.5965,192.7666-47.3,62.4209-143.3227,72.0952-226.0041,66.3229S123.8614,764.6283,49.66,798.5511c-48.549,22.1955-84.4783,62.5905-131.465,87.45-35.998,19.0455-77.9929,27.32-119.453,25.3681v60.2168c41.46,2.129,83.455-6.8983,119.453-27.6789,46.9867-27.124,82.916-71.1985,131.465-95.4155,74.2018-37.0127,162.2034-21.2868,244.8845-14.9889s178.7038-4.2575,226.0041-72.364c46.37-66.7676,25.3988-159.55,54.5965-235.4152Z"/></g></svg>