<svg id="bcg" xmlns="http://www.w3.org/2000/svg" viewBox="0 0 305.5946 294.3529"><defs><style>.cls-1,.cls-2{fill:#e49b6c;}.cls-1{opacity:0.46;}</style></defs><title>Artboard 13 copy 5ldpi</title><path class="cls-1" d="M41.2616,105.0513s-7.45-18.0075,7.83-22.6117a19.2771,19.2771,0,0,1,12.9754.8994c2.5162,1.0537,5.8545,2.5271,9.6861,4.4022,1.6734.819-.3649,5.0672,1.4693,6.0385,1.9636,1.0394,7.8093-1.1873,9.8922.0235a135.3662,135.3662,0,0,1,20.3734,14.3009c1.4718,1.2724-1.1654,4.6362.2242,5.9931,0,0,7.6018,1.5467,9.2157,3.4487,9.35,11.0175,15.0251,24.3546,11.4433,39.7344,0,0-16.1675,11.3305-32.2733-12.0841-.6337-.9209,3.3308-7.253,2.6988-8.2842-.9566-1.56-6.5083,2.1087-7.456.28a114.1342,114.1342,0,0,1-4.9865-11.138,118.3047,118.3047,0,0,0-9.47-17.7121c-1.33-2.0056,2.3591-3.2572.8445-5.0785-.86-1.0343-6.87-2.7427-7.7783-3.6554C58.374,91.9942,49.296,89.4166,41.2616,105.0513Z"/><path class="cls-1" d="M183.7659,27.3881s-14.7536,9.7866-22.3139,40.13c-.6715,2.6951,1.1665,8.7421,1.1665,8.7421s-3.5254,2.938-3.7607,4.5541A186.873,186.873,0,0,0,157.2041,113.5c.078,2.5162,7.04,6.1628,7.2077,8.8157.157,2.4937-6.4858,3.9862-6.2446,6.6036q.7788,8.4348,2.1854,17.7455s6.0916,35.3724,15.061,35.72c1.2806.05,2.6208-.6152,4.01-2.2,4.5047-5.1391,6.0248-21.6063,5.9437-39.8611-.01-2.2968-3.0334-5.6048-3.0334-5.6048s2.7016-8.4375,2.52-11.9468c-.6647-12.8155-1.8914-25.0369-3.2167-33.4564-.325-2.0625-9.5317-1.8087-.9849-5.4556,2.457-1.0483-1.1021-4.4533-1.6172-5.2972C179.0349,78.563,173.5208,55.4264,183.7659,27.3881Z"/><path class="cls-2" d="M168.1023,195.6111S143.9109,185,123.5361,157.0786c-.5832-.8,4.4322-3.5328,4.4322-3.5328s-7.0788-.2228-7.5282-.8943A138.065,138.065,0,0,1,105.73,123.84c-.4136-1.1113,5.08-1.71,5.08-1.71s-6.9331-3.5723-7.2441-4.54A158.093,158.093,0,0,1,97.132,87.5375c-.1328-1.1406,5.9258-1.794,5.9258-1.794s-6.4773-3.6371-6.5567-4.637a205.6238,205.6238,0,0,1,.9154-40.17A176.9941,176.9941,0,0,1,132.53,68.3049c.2722.2712-1.9013,5.8348-2.1558,6.1261l5.4842-2.723a152.547,152.547,0,0,1,23.417,31.63c.3332.6081-2.4164,5.0522-2.4164,5.0522-.21-.3982,4.7153-.6571,4.7153-.6571a104.0435,104.0435,0,0,1,7.1208,17.5257c.3281,1.0387-2.8,7.3191-2.8,7.3191s4.2373-2.4042,4.469-1.5082C175.2323,149.8982,175.6156,171.4762,168.1023,195.6111Z"/><path class="cls-1" d="M176.0329,230.8571c-4.4693-30.4023-12.5464-59.86-25.5868-87.7251-7.5119-16.0523-16.0734-31.5677-24.3924-47.2047-.2787,1.42-.55,2.8429-.8411,4.2588,6.9038,12.9276,13.9251,25.7973,20.3274,38.9886,14.23,29.3189,23.1088,60.1474,27.8425,92.3467,2.1588,14.6855,3.7484,29.4783,4.9765,44.3311l2.7227.0637C179.84,260.8212,178.2275,245.7855,176.0329,230.8571Z"/><path class="cls-2" d="M186.6838,183.8377a191.7705,191.7705,0,0,1-8.7165-37.8144c-.2354-1.8965,5.9267-2.399,5.9267-2.399s-6.8558-7.4339-6.95-9.4892c-.6381-13.903.7706-28.6164,6.5686-41.1121.9211-1.9858,7.5919,1.0527,7.5919,1.0527s-2.9274-9.235-2.0686-10.39c7.362-9.9034,18.6929-17.4174,35.6474-20.402,2.4841-.4374,7.45,4.2128,7.45,4.2128s1.2434-5.7183,4.3364-5.7329c0,0,56.6456,3.1983,64.633,40.7329a124.2865,124.2865,0,0,0-21.1886-2.27c-1.7569-.0348-10.6237-4.78-10.6237-4.78-1.8529.0609,1.499,4.9881-.3785,5.1724-9.6452.9478-19.2785,3.709-25.414,10.1167-.9914,1.0347-7.94,2.5071-8.7339,3.74,0,0,4.7862,1.8086,4.2765,2.9979A29.251,29.251,0,0,0,236.9573,130.4a95.0345,95.0345,0,0,1-1.46,22.4127c-.3168,1.6639-6.4432,3.4742-6.8908,5.1677,0,0,4.7078,3.5121,4.0523,5.302C227.0328,178.6424,214.4605,191.9481,186.6838,183.8377Z"/><path class="cls-2" d="M138.1593,198.5508a166.2087,166.2087,0,0,0-14.5383-29.3782c-.6477-1.04-5-.1911-5.69-1.2445-.5794-.8834,2.5081-3.6684,1.898-4.5559-6.0484-8.8023-13.6012-17.7195-22.6679-24.7191-.9672-.7467-6.9236,1.218-7.2885,2.3844,0,0,2.0312-6.12.8449-6.8523-10.658-6.5737-23.1261-10.3065-37.4161-8.55-2.0011.2457.6425,4.2043-1.43,4.6731,0,0-5.0284-4.1317-6.4708-3.7042,0,0-14.105-.5141-36.5852,25.9173,0,0,15.9692-2.8862,31.1331-1.5055,1.8832.1714,8.5744-2.7533,10.4-2.4365,2.0679.3584-.7416,3.9818,1.1655,4.5644,6.1962,1.8931,11.2971,5.073,13.702,10.2213a70.1371,70.1371,0,0,0,8.9349,14.6715c1.2039,1.4806,4.5044-3.3256,5.8811-1.9824.3853.3755-1.2374,6.98-.8367,7.3614A116.5831,116.5831,0,0,0,94.533,195.8969c1.09.7291,4.7668-4.4632,5.8883-3.789.773.465-1.018,6.8118-.2324,7.2452C112.5882,206.1928,126.4642,208.8477,138.1593,198.5508Z"/><path class="cls-1" d="M153.5081,234.0424c-8.2866-26.1162-24.2166-46.9489-45.4635-63.9854q-1.7094-1.371-3.4892-2.7881c-.3186.728-.632,1.4584-.957,2.1837,4.8632,4.052,9.3431,8.1112,13.2857,11.8024,21.4523,20.0856,33.5556,45.2486,39.0833,73.8892,1.2967,6.7171,2.286,13.4737,3.0937,20.2549l2.766.065C160.2041,261.4351,157.7894,247.5369,153.5081,234.0424Z"/><path class="cls-1" d="M198.1653,269.9077c-1.86-17.368-6.5247-34.32-8.1476-51.705-.833-8.9268-.8772-18.0252,1.1014-26.8184,2.0039-8.9066,6.3577-17.0287,8.6824-25.8375,3.8974-14.768,3.4521-30.2912,7.235-45.0728,9.081-35.4821,47.3434-43.7578,77.4387-28.8464,1.5657.7754,3.0091-1.5453,1.4338-2.3258-21.5716-10.688-51.34-11.72-69.2188,6.7887-9.8261,10.1722-12.9515,24.0769-14.8,37.6276-1.3372,9.7951-1.95,19.7074-4.2953,29.3407-2.2958,9.4306-6.94,18.0715-9.0916,27.5375-3.8817,17.0713-.6139,34.6563,2.5125,51.5525,2.1054,11.38,3.71,22.7166,4.7548,34.1129l3.002.07Q198.5046,273.1174,198.1653,269.9077Z"/><path class="cls-1" d="M168.2924,250.7352c-4.9251-12.4337-11.9471-23.9509-17.7046-36.0044-5.4188-11.3448-10.3865-22.8985-15.793-34.2491-6.1172-12.8421-12.89-25.315-21.2272-36.6281-.36,1.07-.7161,2.1421-1.0878,3.2078a226.343,226.343,0,0,1,19.9245,34.7431c10.5279,22.0894,22.3844,44.1124,31.9645,66.58a119.0848,119.0848,0,0,1,7.6343,27.3188l2.8194.0661A116.6507,116.6507,0,0,0,168.2924,250.7352Z"/><path class="cls-1" d="M193.5134,250.31c-5.1575-47.0334-28.3356-93.1073-21.5272-140.6767.2236-1.5643-2.8-1.6248-3.022-.0712-6.8152,47.6186,16.367,93.62,21.5276,140.677.9459,8.6274,1.6077,17.2835,2.1448,25.9485l3.0216.0709C195.1215,267.5939,194.46,258.9378,193.5134,250.31Z"/></svg>