<svg id="bcg" xmlns="http://www.w3.org/2000/svg" viewBox="0 0 305.5946 294.3529"><defs><style>.cls-1,.cls-2{fill:#e49b6c;}.cls-2{opacity:0.46;}</style></defs><title>Artboard 13 copy 4ldpi</title><path class="cls-1" d="M184.4367,183.8377a191.7746,191.7746,0,0,1-8.7166-37.8144c-.2354-1.8965,5.9268-2.399,5.9268-2.399s-6.8558-7.4339-6.95-9.4892c-.6381-13.903.7706-28.6164,6.5686-41.1121.9211-1.9858,7.5919,1.0527,7.5919,1.0527s-2.9274-9.235-2.0686-10.39c7.362-9.9034,18.6929-17.4174,35.6473-20.402,2.4842-.4374,7.45,4.2128,7.45,4.2128s1.2435-5.7183,4.3365-5.7329c0,0,56.6455,3.1983,64.633,40.7329a124.2869,124.2869,0,0,0-21.1887-2.27c-1.7568-.0348-10.6236-4.78-10.6236-4.78-1.8529.0609,1.499,4.9881-.3785,5.1724-9.6452.9478-19.2785,3.709-25.4141,10.1167-.9913,1.0347-7.94,2.5071-8.7339,3.74,0,0,4.7862,1.8086,4.2765,2.9979A29.2525,29.2525,0,0,0,234.71,130.4a95.0345,95.0345,0,0,1-1.46,22.4127c-.3168,1.6639-6.4432,3.4742-6.8908,5.1677,0,0,4.7078,3.5121,4.0523,5.302C224.7856,178.6424,212.2133,191.9481,184.4367,183.8377Z"/><path class="cls-2" d="M195.9181,269.9077c-1.86-17.368-6.5246-34.32-8.1476-51.705-.8329-8.9268-.8772-18.0252,1.1014-26.8184,2.0039-8.9066,6.3578-17.0287,8.6825-25.8375,3.8973-14.768,3.4521-30.2912,7.2349-45.0728,9.0811-35.4821,47.3435-43.7578,77.4388-28.8464,1.5657.7754,3.0091-1.5453,1.4338-2.3258-21.5716-10.688-51.34-11.72-69.2188,6.7887-9.8261,10.1722-12.9515,24.0769-14.8,37.6276-1.3371,9.7951-1.95,19.7074-4.2952,29.3407-2.2958,9.4306-6.94,18.0715-9.0916,27.5375-3.8817,17.0713-.6139,34.6563,2.5125,51.5525,2.1053,11.38,3.71,22.7166,4.7548,34.1129l3.002.07Q196.2575,273.1174,195.9181,269.9077Z"/></svg>