<svg id="bcg" xmlns="http://www.w3.org/2000/svg" xmlns:xlink="http://www.w3.org/1999/xlink" viewBox="0 0 2040.8836 1000"><defs><style>.cls-1{fill:#e18538;}.cls-2{fill-rule:evenodd;fill:url(#linear-gradient);}</style><linearGradient id="linear-gradient" x1="1339.8922" y1="1124.7199" x2="1919.9397" y2="310.0943" gradientUnits="userSpaceOnUse"><stop offset="0" stop-color="#101c7a"/><stop offset="1" stop-color="#3a66bd"/></linearGradient></defs><title>Artboard 5ldpi</title><polygon class="cls-1" points="1037.554 971.853 1035.89 970.189 1021.619 984.46 1021.619 954.446 1019.265 954.446 1019.265 984.46 1004.993 970.189 1003.329 971.853 1020.442 988.966 1037.554 971.853"/><path class="cls-2" d="M2040.729,1000.4763H916.1272l-97.4212.2534c42.5425-96.3481,207.6277-106.7968,247.343-127.974,47.0713-25.0991,63.37-79.1573,87.7557-89.22,46.3148-19.1121,100.62,6.4483,154.4719-15.7741s109.4222-81.9227,163.0886-104.0679,116.935,10.1774,165.08-9.69,82.16-81.54,134.8982-102.7661c103.6028-41.6962,162.9016,21.0181,269.386-85.7243Z"/></svg>