<svg xmlns="http://www.w3.org/2000/svg" xmlns:xlink="http://www.w3.org/1999/xlink" viewBox="0 0 553.31 999.9919"><defs><style>.cls-1{mask:url(#mask);filter:url(#luminosity-noclip-4);}.cls-18,.cls-2,.cls-20,.cls-28,.cls-35,.cls-4,.cls-6{mix-blend-mode:multiply;}.cls-2{fill:url(#Áåçûìÿííûé_ãðàäèåíò_28);}.cls-3{mask:url(#mask-2);filter:url(#luminosity-noclip-5);}.cls-4{fill:url(#Áåçûìÿííûé_ãðàäèåíò_28-2);}.cls-5{mask:url(#mask-3);filter:url(#luminosity-noclip-6);}.cls-6{fill:url(#Áåçûìÿííûé_ãðàäèåíò_28-3);}.cls-7{fill:none;}.cls-8{isolation:isolate;}.cls-9{clip-path:url(#clip-path);}.cls-10{fill:url(#linear-gradient);}.cls-11{fill:url(#linear-gradient-2);}.cls-12{fill:url(#linear-gradient-3);}.cls-13{fill:url(#linear-gradient-4);}.cls-14{fill:#e1e4ee;}.cls-15{fill:#7d88c7;}.cls-16{fill:#e18538;}.cls-17{mask:url(#mask-4);}.cls-18{fill:url(#Áåçûìÿííûé_ãðàäèåíò_19);}.cls-19{mask:url(#mask-5);}.cls-20{fill:url(#Áåçûìÿííûé_ãðàäèåíò_19-2);}.cls-21{fill:url(#linear-gradient-5);}.cls-22{fill:url(#linear-gradient-6);}.cls-23{fill:url(#linear-gradient-7);}.cls-24,.cls-28{fill:#c9cee3;}.cls-25{fill:#fff;}.cls-26{fill:#a0a2c7;}.cls-27{fill:#e49b6c;}.cls-29{fill:#474762;}.cls-30{fill:#f0c691;}.cls-31{fill:#6064a1;}.cls-32{fill:#363636;}.cls-33{fill:#f0ca66;}.cls-34{mask:url(#mask-6);}.cls-35{fill:url(#Áåçûìÿííûé_ãðàäèåíò_19-3);}.cls-36{fill:#a9642a;}.cls-37{fill:url(#linear-gradient-8);}.cls-38{fill:url(#linear-gradient-9);}.cls-39{fill:url(#linear-gradient-10);}.cls-40{fill:#080e7a;}.cls-41{filter:url(#luminosity-noclip-3);}.cls-42{filter:url(#luminosity-noclip-2);}.cls-43{filter:url(#luminosity-noclip);}</style><filter id="luminosity-noclip" x="111.3551" y="-7434.8432" width="182.6653" height="32766" filterUnits="userSpaceOnUse" color-interpolation-filters="sRGB"><feFlood flood-color="#fff" result="bg"/><feBlend in="SourceGraphic" in2="bg"/></filter><mask id="mask" x="111.3551" y="-7434.8432" width="182.6653" height="32766" maskUnits="userSpaceOnUse"><g class="cls-43"/></mask><linearGradient id="Áåçûìÿííûé_ãðàäèåíò_28" x1="202.6878" y1="914.0814" x2="202.6878" y2="805.7703" gradientUnits="userSpaceOnUse"><stop offset="0" stop-color="#fff"/><stop offset="0.016" stop-color="#f3f3f3"/><stop offset="0.0908" stop-color="#c1c1c1"/><stop offset="0.1709" stop-color="#939393"/><stop offset="0.2546" stop-color="#6b6b6b"/><stop offset="0.3429" stop-color="#4a4a4a"/><stop offset="0.437" stop-color="#2f2f2f"/><stop offset="0.539" stop-color="#1a1a1a"/><stop offset="0.6529" stop-color="#0b0b0b"/><stop offset="0.7881" stop-color="#030303"/><stop offset="1"/></linearGradient><filter id="luminosity-noclip-2" x="151.5649" y="-7434.8432" width="151.6995" height="32766" filterUnits="userSpaceOnUse" color-interpolation-filters="sRGB"><feFlood flood-color="#fff" result="bg"/><feBlend in="SourceGraphic" in2="bg"/></filter><mask id="mask-2" x="151.5649" y="-7434.8432" width="151.6995" height="32766" maskUnits="userSpaceOnUse"><g class="cls-42"/></mask><linearGradient id="Áåçûìÿííûé_ãðàäèåíò_28-2" x1="227.4146" y1="637.9917" x2="227.4146" y2="543.9698" xlink:href="#Áåçûìÿííûé_ãðàäèåíò_28"/><filter id="luminosity-noclip-3" x="552.8611" y="-7434.8432" width="84.6664" height="32766" filterUnits="userSpaceOnUse" color-interpolation-filters="sRGB"><feFlood flood-color="#fff" result="bg"/><feBlend in="SourceGraphic" in2="bg"/></filter><mask id="mask-3" x="552.8611" y="-7434.8432" width="84.6664" height="32766" maskUnits="userSpaceOnUse"><g class="cls-41"/></mask><linearGradient id="Áåçûìÿííûé_ãðàäèåíò_28-3" x1="595.1944" y1="925.4043" x2="595.1944" y2="875.2015" xlink:href="#Áåçûìÿííûé_ãðàäèåíò_28"/><clipPath id="clip-path"><rect class="cls-7" x="1.5015" y="368.8432" width="552" height="606.6667"/></clipPath><linearGradient id="linear-gradient" x1="319.9823" y1="720.1913" x2="314.8955" y2="711.0352" gradientUnits="userSpaceOnUse"><stop offset="0" stop-color="#dfe6fd"/><stop offset="1" stop-color="#7d88c7"/></linearGradient><linearGradient id="linear-gradient-2" x1="412.1215" y1="663.685" x2="407.4505" y2="655.2771" xlink:href="#linear-gradient"/><linearGradient id="linear-gradient-3" x1="411.9674" y1="736.2022" x2="245.604" y2="436.748" xlink:href="#linear-gradient"/><linearGradient id="linear-gradient-4" x1="469.6338" y1="648.8998" x2="457.2088" y2="648.8998" gradientUnits="userSpaceOnUse"><stop offset="0" stop-color="#fff"/><stop offset="1" stop-color="#e1e4ee"/></linearGradient><filter id="luminosity-noclip-4" x="111.3551" y="805.7703" width="182.6653" height="108.311" filterUnits="userSpaceOnUse" color-interpolation-filters="sRGB"><feFlood flood-color="#fff" result="bg"/><feBlend in="SourceGraphic" in2="bg"/></filter><mask id="mask-4" x="111.3551" y="805.7703" width="182.6653" height="108.311" maskUnits="userSpaceOnUse"><g class="cls-1"><path class="cls-2" d="M117.4271,871.25,183.48,909.3255a35.6041,35.6041,0,0,0,35.5548,0l68.9135-39.7239a12.115,12.115,0,0,0,0-21l-66.0532-38.075a35.6034,35.6034,0,0,0-35.5547,0L117.4271,850.25A12.1149,12.1149,0,0,0,117.4271,871.25Z"/></g></mask><linearGradient id="Áåçûìÿííûé_ãðàäèåíò_19" x1="202.6878" y1="914.0814" x2="202.6878" y2="805.7703" gradientUnits="userSpaceOnUse"><stop offset="0" stop-color="#e1e4ee"/><stop offset="0.2262" stop-color="#d4d8e8"/><stop offset="0.5274" stop-color="#ccd0e4"/><stop offset="1" stop-color="#c9cee3"/></linearGradient><filter id="luminosity-noclip-5" x="151.5649" y="543.9698" width="151.6995" height="94.0219" filterUnits="userSpaceOnUse" color-interpolation-filters="sRGB"><feFlood flood-color="#fff" result="bg"/><feBlend in="SourceGraphic" in2="bg"/></filter><mask id="mask-5" x="151.5649" y="543.9698" width="151.6995" height="94.0219" maskUnits="userSpaceOnUse"><g class="cls-3"><path class="cls-4" d="M156.7877,600.708l60.4994,34.8738a18.0347,18.0347,0,0,0,18.0129,0l62.6687-36.1242a10.5787,10.5787,0,0,0,0-18.33L237.6878,546.38a18.0347,18.0347,0,0,0-18.0129,0l-62.8872,36.25A10.4333,10.4333,0,0,0,156.7877,600.708Z"/></g></mask><linearGradient id="Áåçûìÿííûé_ãðàäèåíò_19-2" x1="227.4146" y1="637.9917" x2="227.4146" y2="543.9698" xlink:href="#Áåçûìÿííûé_ãðàäèåíò_19"/><linearGradient id="linear-gradient-5" x1="86.1152" y1="852.1324" x2="326.2426" y2="852.1324" xlink:href="#linear-gradient"/><linearGradient id="linear-gradient-6" x1="86.1154" y1="852.1324" x2="326.2428" y2="852.1324" xlink:href="#linear-gradient"/><linearGradient id="linear-gradient-7" x1="111.238" y1="815.489" x2="295.6797" y2="815.489" xlink:href="#linear-gradient-4"/><filter id="luminosity-noclip-6" x="552.8611" y="875.2015" width="84.6664" height="50.2028" filterUnits="userSpaceOnUse" color-interpolation-filters="sRGB"><feFlood flood-color="#fff" result="bg"/><feBlend in="SourceGraphic" in2="bg"/></filter><mask id="mask-6" x="552.8611" y="875.2015" width="84.6664" height="50.2028" maskUnits="userSpaceOnUse"><g class="cls-5"><path class="cls-6" d="M555.6755,905.5519,586.2916,923.2a16.5023,16.5023,0,0,0,16.48,0l31.9418-18.4122a5.6154,5.6154,0,0,0,0-9.7338l-30.616-17.648a16.5025,16.5025,0,0,0-16.48,0l-31.9418,18.4122A5.6154,5.6154,0,0,0,555.6755,905.5519Z"/></g></mask><linearGradient id="Áåçûìÿííûé_ãðàäèåíò_19-3" x1="595.1944" y1="925.4043" x2="595.1944" y2="875.2015" xlink:href="#Áåçûìÿííûé_ãðàäèåíò_19"/><linearGradient id="linear-gradient-8" x1="131.1516" y1="580.4026" x2="328.2895" y2="580.4026" xlink:href="#linear-gradient"/><linearGradient id="linear-gradient-9" x1="131.1518" y1="580.4026" x2="328.2896" y2="580.4026" xlink:href="#linear-gradient"/><linearGradient id="linear-gradient-10" x1="151.7768" y1="550.3194" x2="303.1982" y2="550.3194" xlink:href="#linear-gradient-4"/></defs><title>Artboard 6ldpi</title><g class="cls-8"><g id="image"><g class="cls-9"><path class="cls-10" d="M319.0107,719.5528a11.86,11.86,0,0,1,.4756-1.3646A11.86,11.86,0,0,0,319.0107,719.5528Z"/><path class="cls-11" d="M439.4271,647.3456a34.9661,34.9661,0,0,0-7.4051,3.1962l-48.162,27.762,48.162-27.762A34.9712,34.9712,0,0,1,439.4271,647.3456Z"/><path class="cls-12" d="M449.4994,645.8662a34.9731,34.9731,0,0,0-17.4774,4.6756l-48.162,27.762-59.3379,34.2043a11.7637,11.7637,0,0,0-5.5114,7.0447c-.0429.1518-.0843.304-.1211.4573a11.8716,11.8716,0,0,0,5.6325,13.1439l11.5652,6.6666,113.4121-65.3743Z"/><path class="cls-13" d="M459.2607,647.2577a34.9565,34.9565,0,0,1,7.7161,3.2841A34.9565,34.9565,0,0,0,459.2607,647.2577Z"/><path class="cls-14" d="M574.4767,712.5081l-107.5-61.9663a35.0827,35.0827,0,0,0-17.4774-4.6756v28.58l113.4121,65.3743,11.5652-6.6666a11.8045,11.8045,0,0,0,5.9695-10.3229c0-.2723-.0109-.5445-.0293-.8162A11.7842,11.7842,0,0,0,574.4767,712.5081Z"/><path class="cls-15" d="M466.9768,795.12,568.8811,736.38,466.9768,677.6389a35.0027,35.0027,0,0,0-34.9548,0L330.1178,736.38,432.022,795.12A35.0027,35.0027,0,0,0,466.9768,795.12Z"/><path class="cls-16" d="M271.1309,866.9473a9.6158,9.6158,0,0,1-9.58-9.5949v-8.9841h2.7358v8.9841a6.8438,6.8438,0,0,0,10.266,5.9268l139.55-80.5688a12.3458,12.3458,0,0,1,18.5189,10.6919v15.5735h-2.7358V793.4023a9.61,9.61,0,0,0-14.4152-8.3226l-139.55,80.5689A9.5582,9.5582,0,0,1,271.1309,866.9473Z"/><path class="cls-16" d="M285.1564,836.1749a.5208.5208,0,0,1-.2606-.972l12.4517-7.1775a16.6855,16.6855,0,0,0,8.3352-14.4139V752.9537a5.2081,5.2081,0,0,0-7.8125-4.5022l-5.6869,3.2781a.5208.5208,0,1,1-.52-.9025l5.6869-3.2781a6.25,6.25,0,0,1,9.3744,5.4047v60.6578a17.73,17.73,0,0,1-8.8567,15.3163l-12.4517,7.1775A.5179.5179,0,0,1,285.1564,836.1749Z"/><g class="cls-17"><path class="cls-18" d="M117.4271,871.25,183.48,909.3255a35.6041,35.6041,0,0,0,35.5548,0l68.9135-39.7239a12.115,12.115,0,0,0,0-21l-66.0532-38.075a35.6034,35.6034,0,0,0-35.5547,0L117.4271,850.25A12.1149,12.1149,0,0,0,117.4271,871.25Z"/></g><g class="cls-19"><path class="cls-20" d="M156.7877,600.708l60.4994,34.8738a18.0347,18.0347,0,0,0,18.0129,0l62.6687-36.1242a10.5787,10.5787,0,0,0,0-18.33L237.6878,546.38a18.0347,18.0347,0,0,0-18.0129,0l-62.8872,36.25A10.4333,10.4333,0,0,0,156.7877,600.708Z"/></g><path class="cls-21" d="M215.7675,885.483l75.7081-43.64a8.3138,8.3138,0,0,0,4.2041-7.27V815.489l-92.2209,53.159v20.1278A24.631,24.631,0,0,0,215.7675,885.483Z"/><path class="cls-22" d="M115.4421,841.8425l75.7081,43.64a24.6307,24.6307,0,0,0,12.3086,3.2928V868.648L111.238,815.489v19.0834A8.314,8.314,0,0,0,115.4421,841.8425Z"/><path class="cls-23" d="M115.4421,822.7591,191.15,866.4a24.6516,24.6516,0,0,0,24.6173,0l75.7081-43.64a8.3881,8.3881,0,0,0,0-14.54l-75.7081-43.64a24.6516,24.6516,0,0,0-24.6173,0l-75.7081,43.64A8.3881,8.3881,0,0,0,115.4421,822.7591Z"/><path class="cls-24" d="M295.5525,714.6956a19.4169,19.4169,0,0,0-7.1181-7.1068L203.51,658.6357a6.59,6.59,0,0,0-6.6423,0l-3.893,2.244,97.9693,56.4724v83.9885l3.893-2.244a6.5679,6.5679,0,0,0,3.3211-5.7432v-68.95A19.3794,19.3794,0,0,0,295.5525,714.6956Z"/><path class="cls-14" d="M199.617,660.88l84.9245,48.9531a19.41,19.41,0,0,1,9.7236,16.8148v68.95a6.6423,6.6423,0,0,1-9.9634,5.7432l-84.9245-48.9531a19.4107,19.4107,0,0,1-9.7235-16.8149v-68.95A6.6422,6.6422,0,0,1,199.617,660.88Z"/><path class="cls-25" d="M204.8624,669.1044,275.2356,709.67a10.5252,10.5252,0,0,1,5.2725,9.1176v68.4773a3.8676,3.8676,0,0,1-5.8013,3.3441l-70.3732-40.5653a10.5252,10.5252,0,0,1-5.2725-9.1177V672.4485A3.8676,3.8676,0,0,1,204.8624,669.1044Z"/><ellipse class="cls-16" cx="287.1602" cy="756.5559" rx="3.9483" ry="6.6283" transform="translate(-340.5466 245.8486) rotate(-30.083)"/><path class="cls-24" d="M194.3716,688.2405c-1.0981-.6326-1.9882-.2567-1.9882.84v23.1771a4.1144,4.1144,0,0,0,1.9882,3.13c1.0979.6326,1.988.2568,1.988-.84V691.3709A4.115,4.115,0,0,0,194.3716,688.2405Z"/><polygon class="cls-26" points="247.802 757.195 247.802 722.562 253.454 725.82 253.454 760.453 247.802 757.195"/><polygon class="cls-26" points="238.437 749.711 238.437 726.796 244.089 730.054 244.089 752.969 238.437 749.711"/><polygon class="cls-26" points="229.071 744.313 229.071 729.293 234.723 732.551 234.723 747.571 229.071 744.313"/><polygon class="cls-26" points="219.705 738.914 219.705 729.288 225.358 732.546 225.358 742.172 219.705 738.914"/><polygon class="cls-26" points="210.34 733.516 210.34 729.354 215.992 732.612 215.992 736.774 210.34 733.516"/><path class="cls-27" d="M206.9357,675.036l31.28,18.0308a7.1515,7.1515,0,0,1,3.5825,6.1952v19.2646a2.4472,2.4472,0,0,1-3.6709,2.116l-31.28-18.0308a7.1513,7.1513,0,0,1-3.5825-6.1952V677.152A2.4473,2.4473,0,0,1,206.9357,675.036Z"/><path class="cls-24" d="M203.4588,706.7754c0-.6718.4094-.9805.9141-.69l11.9083,6.8643a2.1829,2.1829,0,0,1,.9135,1.7431c0,.6718-.4093.9805-.914.69l-11.9083-6.8643A2.1833,2.1833,0,0,1,203.4588,706.7754Z"/><path class="cls-14" d="M209.8937,715.3255c0-.6718.4094-.9805.9141-.69L222.716,721.5a2.1833,2.1833,0,0,1,.9136,1.7431c0,.6718-.4094.9805-.9141.69l-11.9082-6.8643A2.183,2.183,0,0,1,209.8937,715.3255Z"/><path class="cls-14" d="M245.784,701.417c0-1.8627,1.1351-2.7188,2.5345-1.9121l26.06,15.0215a6.0538,6.0538,0,0,1,2.5331,4.8333c0,1.8627-1.1351,2.7188-2.5345,1.9121l-26.06-15.0215A6.0536,6.0536,0,0,1,245.784,701.417Z"/><path class="cls-14" d="M218.6957,715.5584c0-.6718.4094-.9805.9141-.69l3.27,1.8848a2.1833,2.1833,0,0,1,.9136,1.7431c0,.6718-.4094.9805-.9141.69l-3.27-1.8848A2.1833,2.1833,0,0,1,218.6957,715.5584Z"/><path class="cls-14" d="M203.4588,711.5334c0-.6718.4094-.9805.9141-.69l3.27,1.8848a2.1833,2.1833,0,0,1,.9136,1.7431c0,.6718-.4094.98-.9141.69l-3.27-1.8848A2.1833,2.1833,0,0,1,203.4588,711.5334Z"/><ellipse class="cls-28" cx="254.9182" cy="809.5419" rx="17.3836" ry="9.6548"/><rect class="cls-29" x="246.6397" y="766.0779" width="13.3239" height="15.1287"/><path class="cls-29" d="M261.941,811.7862l-5.9491,3.4293a1.9667,1.9667,0,0,1-2.6763-.716l-.4575-.791a1.96,1.96,0,0,1,.7172-2.6721l5.9491-3.4292a1.9667,1.9667,0,0,1,2.6763.716l.4574.791A1.96,1.96,0,0,1,261.941,811.7862Z"/><rect class="cls-29" x="256.2408" y="767.9164" width="7.4458" height="20.0846"/><ellipse class="cls-29" cx="259.9637" cy="788.001" rx="3.7229" ry="3.717"/><path class="cls-29" d="M256.2587,788.363h7.41l-1.9262,21.5986a1.5924,1.5924,0,0,1-1.5871,1.45h0a1.5925,1.5925,0,0,1-1.5844-1.422Z"/><ellipse class="cls-29" cx="259.9637" cy="788.001" rx="3.7229" ry="3.717"/><path class="cls-29" d="M247.8666,807.214l5.9491-3.4293a1.9667,1.9667,0,0,1,2.6763.716l.4574.791a1.96,1.96,0,0,1-.7171,2.6721l-5.9491,3.4292a1.9667,1.9667,0,0,1-2.6763-.716l-.4574-.791A1.96,1.96,0,0,1,247.8666,807.214Z"/><rect class="cls-29" x="246.3868" y="764.516" width="7.4458" height="20.0846"/><ellipse class="cls-29" cx="250.1097" cy="784.6006" rx="3.7229" ry="3.717"/><path class="cls-29" d="M246.5383,785.6493l7.2784-1.3862L255.978,805.84a1.5912,1.5912,0,0,1-1.2869,1.721h0a1.5936,1.5936,0,0,1-1.8232-1.1Z"/><ellipse class="cls-29" cx="250.1097" cy="784.6006" rx="3.717" ry="3.7229" transform="translate(-534.7715 1033.8283) rotate(-89.9356)"/><path class="cls-30" d="M232.6355,723.4372l1.872,2.5846-.072,4.1132s-4.1481-5.5573-4.0219-5.5593S232.6355,723.4372,232.6355,723.4372Z"/><polygon class="cls-29" points="240.262 739.845 243.49 735.431 251.319 741.14 248.091 745.553 240.262 739.845"/><ellipse class="cls-29" cx="241.8764" cy="737.6381" rx="2.7368" ry="2.7325"/><polygon class="cls-29" points="243.922 735.823 239.517 739.022 231.147 726.408 234.018 724.323 243.922 735.823"/><path class="cls-29" d="M244.09,736.0309a2.7353,2.7353,0,1,1-3.8231-.6026A2.73,2.73,0,0,1,244.09,736.0309Z"/><path class="cls-30" d="M231.143,725.1876a2.02,2.02,0,1,1,1.9741-2.0681A2.0219,2.0219,0,0,1,231.143,725.1876Z"/><ellipse class="cls-30" cx="255.261" cy="730.444" rx="6.5407" ry="6.5303"/><path class="cls-31" d="M246.3861,769.7362s-1.0369-22.5354-1.0257-27.1638,5.3161-3.3642,9.29-3.3546a10.5591,10.5591,0,0,1,9.8868,8.1182c1.057,4.3366-.8685,28.063-.8685,28.063Z"/><path class="cls-14" d="M250.4537,740.1276c0-3.7,10.3851-2.5933,8.827.8953L251.3894,759.62Z"/><path class="cls-30" d="M252.0521,734.7448l.091,6.24c.0131.8985,1.2469,1.6089,2.7559,1.587s2.7216-.768,2.7085-1.6665l-.0911-6.24Z"/><path class="cls-31" d="M258.7052,723.1588a7.4445,7.4445,0,0,0-1.12-.4092c-4.71-1.3024-7.47,5.1546-3.303,7.7042l1.8413,1.1266a2.1169,2.1169,0,1,1,2.3331,3.5264l.6855,1.0361a7.21,7.21,0,0,0,3.0247-3.0389A7.29,7.29,0,0,0,258.7052,723.1588Z"/><path class="cls-30" d="M263.2973,771.2572l-.0279-3.1894,2.4435-3.3124s.16,6.9289.0563,6.8576S263.2973,771.2572,263.2973,771.2572Z"/><path class="cls-29" d="M261.3226,744.9072h2.2721a1.6,1.6,0,0,1,1.6,1.6v8.08a0,0,0,0,1,0,0h-5.4727a0,0,0,0,1,0,0v-8.08a1.6,1.6,0,0,1,1.6-1.6Z" transform="matrix(0.9485, -0.3167, 0.3167, 0.9485, -223.906, 121.6908)"/><ellipse class="cls-29" cx="263.9957" cy="754.3368" rx="2.7368" ry="2.7325"/><polygon class="cls-29" points="261.275 754.634 266.722 754.572 266.233 769.696 262.684 769.736 261.275 754.634"/><ellipse class="cls-29" cx="263.9957" cy="754.3368" rx="2.7368" ry="2.7325"/><circle class="cls-30" cx="264.398" cy="772.3674" r="2.0201" transform="translate(-508.8587 1034.1531) rotate(-89.8063)"/><path class="cls-29" d="M218.2014,836.7936l5.1321-3.7829a1.82,1.82,0,0,0,.3831-2.54l-.5046-.6824a1.8266,1.8266,0,0,0-2.5443-.3824l-5.1321,3.7828a1.82,1.82,0,0,0-.3831,2.54l.5046.6824A1.8268,1.8268,0,0,0,218.2014,836.7936Z"/><path class="cls-29" d="M221.9278,813.8712l-6.8611-.5225.2558,20.135a1.4783,1.4783,0,0,0,1.367,1.4543h0a1.4792,1.4792,0,0,0,1.5676-1.205Z"/><path class="cls-29" d="M221.97,813.5372a3.4572,3.4572,0,1,0-3.71,3.1792A3.4535,3.4535,0,0,0,221.97,813.5372Z"/><path class="cls-32" d="M192.7218,815.3578l5.6342-2.9869a1.82,1.82,0,0,0,.7537-2.4562l-.3984-.7491a1.8263,1.8263,0,0,0-2.46-.7525L190.6169,811.4a1.82,1.82,0,0,0-.7536,2.4562l.3984.7492A1.8261,1.8261,0,0,0,192.7218,815.3578Z"/><path class="cls-29" d="M186.5257,793.5472l-6.1192,3.1419,10.7782,17.02a1.4809,1.4809,0,0,0,1.9273.5243h0a1.4762,1.4762,0,0,0,.7036-1.8461Z"/><ellipse class="cls-29" cx="183.312" cy="794.8192" rx="3.4572" ry="3.4517"/><path class="cls-28" d="M125.7635,820.4033l61.7437,35.591a7.6918,7.6918,0,0,0,7.6814,0l23.6233-13.6172a2.6173,2.6173,0,0,0,0-4.537l-61.7438-35.591a7.6923,7.6923,0,0,0-7.6814,0l-23.6232,13.6172A2.6173,2.6173,0,0,0,125.7635,820.4033Z"/><path class="cls-14" d="M195.1886,846.2761l23.6233-13.6172a2.5942,2.5942,0,0,0,1.3118-2.2685v-5.9546l-28.7758,16.5873v6.28A7.6857,7.6857,0,0,0,195.1886,846.2761Z"/><path class="cls-14" d="M125.7635,810.6851l61.7437,35.591a7.6857,7.6857,0,0,0,3.8407,1.0275v-6.28L124.4517,802.462v5.9546A2.594,2.594,0,0,0,125.7635,810.6851Z"/><path class="cls-25" d="M125.7635,804.7305l61.7437,35.591a7.6918,7.6918,0,0,0,7.6814,0l23.6233-13.6172a2.6173,2.6173,0,0,0,0-4.537l-61.7438-35.591a7.6918,7.6918,0,0,0-7.6814,0l-23.6232,13.6172A2.6173,2.6173,0,0,0,125.7635,804.7305Z"/><polygon class="cls-29" points="220.947 815.735 216.098 810.814 204.493 822.188 211.463 825.031 220.947 815.735"/><ellipse class="cls-29" cx="218.5227" cy="813.2747" rx="3.4517" ry="3.4572" transform="translate(-595.1633 1030.2611) rotate(-89.8918)"/><polygon class="cls-29" points="185.737 797.28 180.887 792.359 169.282 803.732 176.252 806.575 185.737 797.28"/><path class="cls-29" d="M185.7365,797.28a3.4544,3.4544,0,1,0-4.889-.04A3.4477,3.4477,0,0,0,185.7365,797.28Z"/><path class="cls-29" d="M211.4628,825.0307h0V814.248H195.3547v3.909A9.5271,9.5271,0,0,0,211.4628,825.0307Z"/><polygon class="cls-30" points="191.386 811.7 195.298 813.169 197.905 806.252 193.993 804.782 191.386 811.7"/><path class="cls-30" d="M191.386,811.7a2.09,2.09,0,1,0,2.692-1.218A2.0856,2.0856,0,0,0,191.386,811.7Z"/><polygon class="cls-30" points="195.305 813.149 191.277 812.113 190.123 821.731 191.694 822.136 195.305 813.149"/><path class="cls-30" d="M195.3658,812.9551a2.09,2.09,0,1,0-2.5453,1.5A2.0863,2.0863,0,0,0,195.3658,812.9551Z"/><path class="cls-30" d="M190.4452,819.6425a1.7775,1.7775,0,1,0,2.2852,1.0542A1.7765,1.7765,0,0,0,190.4452,819.6425Z"/><path class="cls-15" d="M200.5621,801.9731l-3.1985,7.259a2.59,2.59,0,0,1-4.6454-2.04l3.1986-7.2591Z"/><ellipse class="cls-30" cx="206.3068" cy="787.0475" rx="6.0739" ry="6.0642"/><path class="cls-15" d="M205.754,823.4047a4.3267,4.3267,0,0,0,6.667-3.6331V803.1649c0-4.2982-4.92-6.9078-8.61-6.9078s-8.4563,1.9956-8.4563,6.14v14.3293Z"/><path class="cls-30" d="M207.5764,792.3215l-1.4684,5.6069c-.2113.8073-1.4818,1.1748-2.8377.8208s-2.2836-1.2952-2.0722-2.1025l1.4684-5.6069Z"/><path class="cls-29" d="M205.9149,780.2583a6.6188,6.6188,0,0,1,3.011.7213,6.6208,6.6208,0,0,1,.6729,5.0487,1.9008,1.9008,0,0,0-1.9379,3.1783,6.6461,6.6461,0,0,1-7.4869,1.0114,6.6266,6.6266,0,0,1,5.7409-9.96Z"/><rect class="cls-30" x="208.5295" y="810.6005" width="4.1797" height="7.391" transform="translate(525.0117 1594.4215) rotate(172.5523)"/><path class="cls-30" d="M209.0276,818.231a2.09,2.09,0,1,0,1.8009-2.34A2.0892,2.0892,0,0,0,209.0276,818.231Z"/><polygon class="cls-30" points="213.168 817.659 209.13 818.656 213.362 830.939 214.937 830.55 213.168 817.659"/><path class="cls-30" d="M213.1286,817.459a2.09,2.09,0,1,0-1.5269,2.5267A2.09,2.09,0,0,0,213.1286,817.459Z"/><circle class="cls-30" cx="213.9868" cy="830.1245" r="1.78"/><path class="cls-15" d="M212.2089,805.3637l.7865,7.8915a2.5909,2.5909,0,0,1-5.05.5017l-.7865-7.8915Z"/><path class="cls-29" d="M178.4808,801.0082h0V790.2254H162.3727v3.909A9.5271,9.5271,0,0,0,178.4808,801.0082Z"/><polygon class="cls-30" points="158.404 787.677 162.316 789.147 164.923 782.229 161.011 780.76 158.404 787.677"/><circle class="cls-30" cx="160.36" cy="788.412" r="2.0866" transform="translate(-628.3583 947.2584) rotate(-89.89)"/><polygon class="cls-30" points="162.323 789.127 158.295 788.091 157.141 797.709 158.712 798.113 162.323 789.127"/><path class="cls-30" d="M162.3838,788.9326a2.09,2.09,0,1,0-2.5453,1.5A2.0863,2.0863,0,0,0,162.3838,788.9326Z"/><path class="cls-30" d="M157.4632,795.62a1.7775,1.7775,0,1,0,2.2852,1.0541A1.7765,1.7765,0,0,0,157.4632,795.62Z"/><path class="cls-33" d="M167.58,777.9505l-3.1986,7.2591a2.59,2.59,0,0,1-4.6453-2.04l3.1985-7.259Z"/><ellipse class="cls-30" cx="173.3248" cy="763.025" rx="6.0739" ry="6.0642"/><path class="cls-33" d="M177.6373,809.077s1.8017-25.6365,1.8017-29.9347-4.92-6.9077-8.61-6.9077-8.4563,1.9956-8.4563,6.14-4.1031,19.6245-4.1031,19.6245-.52,2.9534,5.3157,7.0156S177.6373,809.077,177.6373,809.077Z"/><path class="cls-30" d="M174.5944,768.2989l-1.4684,5.607c-.2114.8072-1.4818,1.1747-2.8377.8208s-2.2836-1.2953-2.0722-2.1025l1.4684-5.607Z"/><path class="cls-29" d="M172.9329,756.2357a6.6189,6.6189,0,0,1,3.011.7214,6.6208,6.6208,0,0,1,.6729,5.0487,1.9008,1.9008,0,0,0-1.9379,3.1783,6.6461,6.6461,0,0,1-7.4869,1.0114,6.6267,6.6267,0,0,1,5.7409-9.96Z"/><rect class="cls-30" x="175.5475" y="786.5779" width="4.1797" height="7.391" transform="translate(456.2094 1550.8553) rotate(172.5525)"/><path class="cls-30" d="M176.0456,794.2085a2.09,2.09,0,1,0,1.8009-2.34A2.0893,2.0893,0,0,0,176.0456,794.2085Z"/><polygon class="cls-30" points="180.186 793.636 176.148 794.634 180.38 806.917 181.955 806.528 180.186 793.636"/><path class="cls-30" d="M180.1466,793.4365a2.09,2.09,0,1,0-1.5269,2.5266A2.09,2.09,0,0,0,180.1466,793.4365Z"/><path class="cls-30" d="M179.6707,804.9255a1.7787,1.7787,0,1,0,2.5125-.1555A1.7751,1.7751,0,0,0,179.6707,804.9255Z"/><path class="cls-33" d="M179.2269,781.3412l.7865,7.8914a2.5909,2.5909,0,0,1-5.05.5017l-.7864-7.8914Z"/><path class="cls-29" d="M174.6789,765.1841s5.1433,4.9975.7024,10.7261-13.4469,2.57-13.7178-2.1413,5.5792-5.0983,4.8746-9.1167S174.6789,765.1841,174.6789,765.1841Z"/><path class="cls-16" d="M554.0654,901.3576a10.03,10.03,0,0,1-5.4415-1.6239L467.27,847.4165a13.4667,13.4667,0,0,1,.2144-22.7888l48.1048-29.4568a6.3924,6.3924,0,0,0-.1633-10.9743l-16.69-9.636a10.3489,10.3489,0,0,0-15.515,8.5436l-.1978,4.8842-2.7336-.1107.1978-4.8842a13.0849,13.0849,0,0,1,19.6165-10.8024l16.69,9.6363a9.128,9.128,0,0,1,.2278,15.6743l-48.1048,29.4567a10.7312,10.7312,0,0,0-.167,18.1571l81.3543,52.3172a7.3445,7.3445,0,0,0,11.3169-6.1774v-2.6159h2.7358v2.6159a9.9466,9.9466,0,0,1-5.2506,8.8481A10.0814,10.0814,0,0,1,554.0654,901.3576Z"/><path class="cls-16" d="M545.7625,755.7264h-2.7358V722.1886a27.5433,27.5433,0,0,1,14.7589-24.44l24.5065-12.8913a22.4534,22.4534,0,0,0,12.0314-19.9233v-7.9213h2.7358v7.9213a25.1819,25.1819,0,0,1-13.4935,22.3445L559.0593,700.17a24.8145,24.8145,0,0,0-13.2968,22.0187Z"/><g class="cls-34"><path class="cls-35" d="M555.6755,905.5519,586.2916,923.2a16.5023,16.5023,0,0,0,16.48,0l31.9418-18.4122a5.6154,5.6154,0,0,0,0-9.7338l-30.616-17.648a16.5025,16.5025,0,0,0-16.48,0l-31.9418,18.4122A5.6154,5.6154,0,0,0,555.6755,905.5519Z"/></g><rect class="cls-36" x="472.9361" y="736.4824" width="2.7358" height="70.2622"/><rect class="cls-36" x="389.8151" y="710.4218" width="2.7358" height="70.2622"/><rect class="cls-36" x="400.5237" y="712.2896" width="2.7358" height="70.2622"/><rect class="cls-36" x="372.0889" y="708.3255" width="2.7358" height="70.2622"/><rect class="cls-36" x="509.3005" y="716.4725" width="2.7358" height="58.2018"/><rect class="cls-36" x="516.8263" y="712.2896" width="2.7358" height="62.0981"/><path class="cls-14" d="M437.3125,759.5923l-74.959-43.2087a8.2314,8.2314,0,0,1-4.1625-7.1982V690.2908l91.3084,52.633v19.9287A24.3874,24.3874,0,0,1,437.3125,759.5923Z"/><path class="cls-14" d="M536.6454,716.3836l-74.9591,43.2087a24.3868,24.3868,0,0,1-12.1869,3.26V742.9238l91.3085-52.633v18.8946A8.2316,8.2316,0,0,1,536.6454,716.3836Z"/><path class="cls-25" d="M536.6454,697.489l-74.9591,43.2087a24.4076,24.4076,0,0,1-24.3738,0l-74.959-43.2087a8.3052,8.3052,0,0,1,0-14.3964l74.959-43.2087a24.4076,24.4076,0,0,1,24.3738,0l74.9591,43.2087A8.3052,8.3052,0,0,1,536.6454,697.489Z"/><path class="cls-28" d="M536.6454,697.489l-74.9591,43.2087a24.4076,24.4076,0,0,1-24.3738,0l-74.959-43.2087a8.3052,8.3052,0,0,1,0-14.3964l74.959-43.2087a24.4076,24.4076,0,0,1,24.3738,0l74.9591,43.2087A8.3052,8.3052,0,0,1,536.6454,697.489Z"/><path class="cls-14" d="M437.3125,728.8705l-74.959-43.2087a8.2314,8.2314,0,0,1-4.1625-7.1982V659.569l91.3084,52.633v19.9287A24.3874,24.3874,0,0,1,437.3125,728.8705Z"/><path class="cls-14" d="M536.6454,685.6618l-74.9591,43.2087a24.3868,24.3868,0,0,1-12.1869,3.26V712.202l91.3085-52.633v18.8946A8.2316,8.2316,0,0,1,536.6454,685.6618Z"/><path class="cls-25" d="M536.6454,666.7672l-74.9591,43.2087a24.4076,24.4076,0,0,1-24.3738,0l-74.959-43.2087a8.3052,8.3052,0,0,1,0-14.3964l74.959-43.2087a24.4076,24.4076,0,0,1,24.3738,0l74.9591,43.2087A8.3052,8.3052,0,0,1,536.6454,666.7672Z"/><path class="cls-28" d="M536.6454,666.7672l-74.9591,43.2087a24.4076,24.4076,0,0,1-24.3738,0l-74.959-43.2087a8.3052,8.3052,0,0,1,0-14.3964l74.959-43.2087a24.4076,24.4076,0,0,1,24.3738,0l74.9591,43.2087A8.3052,8.3052,0,0,1,536.6454,666.7672Z"/><path class="cls-14" d="M437.3125,698.1487,362.3535,654.94a8.2314,8.2314,0,0,1-4.1625-7.1981V628.8471L449.4994,681.48v19.9287A24.3874,24.3874,0,0,1,437.3125,698.1487Z"/><path class="cls-14" d="M536.6454,654.94l-74.9591,43.2087a24.3868,24.3868,0,0,1-12.1869,3.26V681.48l91.3085-52.6331v18.8947A8.2318,8.2318,0,0,1,536.6454,654.94Z"/><path class="cls-25" d="M536.6454,636.0453l-74.9591,43.2088a24.4076,24.4076,0,0,1-24.3738,0l-74.959-43.2088a8.3051,8.3051,0,0,1,0-14.3963l74.959-43.2087a24.4076,24.4076,0,0,1,24.3738,0l74.9591,43.2087A8.3051,8.3051,0,0,1,536.6454,636.0453Z"/><ellipse class="cls-33" cx="426.7477" cy="683.3133" rx="4.4855" ry="6.1354" transform="translate(-285.3408 306.5367) rotate(-30.1301)"/><ellipse class="cls-33" cx="412.2804" cy="674.9738" rx="4.4855" ry="6.1354" transform="translate(-283.1093 298.1477) rotate(-30.1301)"/><ellipse class="cls-33" cx="397.813" cy="666.6344" rx="4.4855" ry="6.1354" transform="translate(-280.8806 289.7636) rotate(-30.1305)"/><ellipse class="cls-33" cx="426.7477" cy="713.7937" rx="4.4855" ry="6.1354" transform="translate(-300.6429 310.6586) rotate(-30.1304)"/><ellipse class="cls-33" cx="412.2804" cy="705.4542" rx="4.4855" ry="6.1354" transform="translate(-298.4108 302.2685) rotate(-30.1303)"/><ellipse class="cls-33" cx="426.7477" cy="744.3373" rx="4.4855" ry="6.1354" transform="translate(-315.9728 314.7818) rotate(-30.1301)"/><ellipse class="cls-33" cx="397.813" cy="727.6584" rx="4.4855" ry="6.1354" transform="translate(-311.5129 298.0089) rotate(-30.1305)"/><path class="cls-29" d="M449.6439,548.4111c-14.7261,0-26.6642,7.71-26.6642,17.2214V596.55c0,9.5113,11.9381,17.2215,26.6642,17.2215s26.6639-7.71,26.6639-17.2215V565.6325C476.3078,556.1213,464.37,548.4111,449.6439,548.4111Z"/><path class="cls-33" d="M428.5043,563.7694c0-15.6687-42.938-26.4764-43.8213-73.9246-.807-43.3474,33.4891-60.1712,64.9609-60.1712s65.7678,18.2233,65.7678,60.1712-43.331,56.4131-43.331,73.9246S428.5043,579.438,428.5043,563.7694Z"/><path class="cls-16" d="M393.6274,668.5006a9.0919,9.0919,0,0,1-4.559-1.237,8.9957,8.9957,0,0,1-4.5435-7.8671V620.9354a32.84,32.84,0,0,1,16.4051-28.37l25.4523-14.6714a.7317.7317,0,1,1,.7309,1.2679l-25.4523,14.6714a31.3727,31.3727,0,0,0-15.6725,27.1019v38.4611A7.6391,7.6391,0,0,0,397.4475,666a.7317.7317,0,1,1,.7309,1.2679A9.0934,9.0934,0,0,1,393.6274,668.5006Z"/><path class="cls-16" d="M422.42,685.7289a9.092,9.092,0,0,1-4.5591-1.237,8.9958,8.9958,0,0,1-4.5435-7.8671V638.1637a32.84,32.84,0,0,1,16.4053-28.37l23.197-13.3716a.7318.7318,0,0,1,.7309,1.268l-23.1971,13.3715a31.3726,31.3726,0,0,0-15.6726,27.1019v38.4611a7.6392,7.6392,0,0,0,11.4593,6.6039.7318.7318,0,0,1,.7309,1.268A9.0952,9.0952,0,0,1,422.42,685.7289Z"/><path class="cls-16" d="M413.7766,750.3244a16.4291,16.4291,0,0,1-8.213-2.2l-8.1161-4.6784a9.4736,9.4736,0,0,1,0-16.4211.7317.7317,0,1,1,.7309,1.2679,8.01,8.01,0,0,0,0,13.8852l8.1161,4.6784a14.9644,14.9644,0,0,0,15.3465-.2285l4.7226-2.9131a.7318.7318,0,1,1,.7683,1.2457l-4.7225,2.913A16.4307,16.4307,0,0,1,413.7766,750.3244Z"/><path class="cls-16" d="M415.0683,719.2228a13.9844,13.9844,0,0,1-6.5117-1.6148,6.1232,6.1232,0,0,1-.2118-10.73l3.57-2.058a.7318.7318,0,0,1,.7309,1.268l-3.57,2.058a4.66,4.66,0,0,0,.1612,8.1661,12.4735,12.4735,0,0,0,12.089-.2379l5.0564-2.9147a.7318.7318,0,0,1,.7309,1.268l-5.0564,2.9146A13.9748,13.9748,0,0,1,415.0683,719.2228Z"/><path class="cls-16" d="M345.6558,755.7264H342.92V712.2307a40.6748,40.6748,0,0,0-20.3894-35.1991l-68.0318-39.0189a35.9462,35.9462,0,0,1-18.02-31.1075V584.1988h2.7358v22.7064A33.2039,33.2039,0,0,0,255.86,635.64l68.0318,39.019a43.4167,43.4167,0,0,1,21.7643,37.5722Z"/><path class="cls-37" d="M237.5925,607.7825l62.1543-35.8276a6.8254,6.8254,0,0,0,3.4514-5.9685v-15.667l-75.7107,43.642v16.5244A20.2211,20.2211,0,0,0,237.5925,607.7825Z"/><path class="cls-38" d="M155.2282,571.9549l62.1542,35.8276a20.2212,20.2212,0,0,0,10.1051,2.7033V593.9614l-75.7107-43.642v15.667A6.8252,6.8252,0,0,0,155.2282,571.9549Z"/><path class="cls-39" d="M155.2282,556.288l62.1542,35.8276a20.2382,20.2382,0,0,0,20.21,0l62.1542-35.8276a6.8863,6.8863,0,0,0,0-11.9371l-62.1542-35.8276a20.2377,20.2377,0,0,0-20.21,0l-62.1542,35.8276A6.8864,6.8864,0,0,0,155.2282,556.288Z"/><polygon class="cls-27" points="199.856 463.958 199.856 511.45 282.573 559.131 282.573 511.639 199.856 463.958"/><polygon class="cls-26" points="267.966 509.144 267.966 521.493 255.2 513.742 255.2 501.786 267.966 509.144"/><polygon class="cls-26" points="249.69 505.367 249.69 517.716 241.345 512.513 241.345 500.557 249.69 505.367"/><polygon class="cls-14" points="261.237 532.36 247.508 527.97 237.728 516.439 229.769 520.051 222.492 494.173 208.263 494.173 208.263 493.302 223.153 493.302 230.334 518.838 237.967 515.374 248.012 527.217 261.503 531.531 261.237 532.36"/><path class="cls-14" d="M259.69,532.7077c.6033,1.3252,1.8444,2.0581,2.7721,1.6371s1.1907-1.8366.5874-3.1617-1.8444-2.0581-2.7721-1.637S259.0869,531.3826,259.69,532.7077Z"/><path class="cls-14" d="M246.08,528.3556c.6033,1.3251,1.8444,2.0581,2.7721,1.6371s1.1907-1.8366.5874-3.1617-1.8444-2.0581-2.7722-1.637S245.4765,527.0305,246.08,528.3556Z"/><path class="cls-14" d="M236.1674,516.6688c.6033,1.3251,1.8444,2.0581,2.7721,1.6371s1.1907-1.8366.5874-3.1617-1.8445-2.0581-2.7722-1.637S235.5641,515.3437,236.1674,516.6688Z"/><path class="cls-14" d="M228.372,520.2065c.6033,1.3252,1.8444,2.0581,2.7721,1.6371s1.1907-1.8366.5874-3.1617-1.8444-2.0581-2.7721-1.637S227.7687,518.8814,228.372,520.2065Z"/><ellipse class="cls-14" cx="222.8222" cy="493.7376" rx="5.8517" ry="8.3631" transform="translate(-184.9623 137.1729) rotate(-24.5442)"/><path class="cls-14" d="M206.5828,494.5c.6033,1.3251,1.8444,2.0581,2.7721,1.637s1.1907-1.8365.5874-3.1616-1.8444-2.0581-2.7721-1.637S205.98,493.1748,206.5828,494.5Z"/><polygon class="cls-30" points="196.178 496.163 194.205 492.117 187.028 495.605 189.001 499.651 196.178 496.163"/><path class="cls-30" d="M196.1778,496.1634a2.2507,2.2507,0,1,0-3.0126-1.0384A2.2484,2.2484,0,0,0,196.1778,496.1634Z"/><polygon class="cls-30" points="193.432 492.735 197.191 495.178 203.773 482.809 202.307 481.856 193.432 492.735"/><path class="cls-30" d="M193.303,492.9125a2.2525,2.2525,0,1,0,3.1182-.6576A2.2479,2.2479,0,0,0,193.303,492.9125Z"/><circle class="cls-30" cx="202.6704" cy="482.9172" r="1.9163" transform="translate(-280.5049 684.9717) rotate(-89.9269)"/><rect class="cls-29" x="182.0712" y="517.3118" width="13.342" height="15.1492" transform="translate(377.4844 1049.7728) rotate(180)"/><path class="cls-40" d="M181.77,496.99l7.8941-3.3178a2.7885,2.7885,0,0,1,2.1232,5.0357l-7.8941,3.3178Z"/><path class="cls-29" d="M182.105,560.4378l5.9571-3.4339a1.9628,1.9628,0,0,0,.7181-2.6757l-.458-.7921a1.9693,1.9693,0,0,0-2.68-.7169l-5.9571,3.4339a1.9627,1.9627,0,0,0-.7181,2.6756l.458.7921A1.97,1.97,0,0,0,182.105,560.4378Z"/><rect class="cls-30" x="181.5693" y="515.1641" width="7.4559" height="20.1119" transform="translate(370.5945 1050.44) rotate(180)"/><ellipse class="cls-30" cx="185.2972" cy="535.2759" rx="3.7279" ry="3.722"/><path class="cls-30" d="M188.8735,536.326l-7.2883-1.388-2.1643,21.6057a1.5935,1.5935,0,0,0,1.2887,1.7233h0a1.5958,1.5958,0,0,0,1.8257-1.1019Z"/><ellipse class="cls-30" cx="185.2972" cy="535.2759" rx="3.7279" ry="3.722"/><path class="cls-29" d="M188.7462,564.675l5.9572-3.4339a1.9627,1.9627,0,0,0,.718-2.6756l-.458-.7921a1.9693,1.9693,0,0,0-2.68-.717l-5.9572,3.4339a1.9629,1.9629,0,0,0-.7181,2.6757l.4581.7921A1.9693,1.9693,0,0,0,188.7462,564.675Z"/><rect class="cls-30" x="188.2105" y="519.4013" width="7.4559" height="20.1119" transform="translate(383.8769 1058.9145) rotate(180)"/><ellipse class="cls-30" cx="191.9385" cy="539.5132" rx="3.7279" ry="3.722"/><path class="cls-30" d="M195.5148,540.5633l-7.2884-1.388-2.1642,21.6056a1.5932,1.5932,0,0,0,1.2886,1.7233h0a1.5957,1.5957,0,0,0,1.8257-1.1018Z"/><path class="cls-30" d="M195.6,540.2106a3.7278,3.7278,0,1,0-4.3605,2.9587A3.7224,3.7224,0,0,0,195.6,540.2106Z"/><ellipse class="cls-30" cx="186.3185" cy="481.6389" rx="6.6189" ry="6.6084"/><path class="cls-15" d="M196.4464,499.602c-.7664-5.5511-5.3053-7.4487-9.2843-7.4487s-8.2424,3.96-8.8528,8.3876c-.9195,6.6686,3.059,8.6338,2.6381,16.8424-.59,11.5092-2.7765,24.5827-2.7765,24.5827l23.7111,5.4984S199.705,523.2063,196.4464,499.602Z"/><path class="cls-30" d="M189.0236,487.0778l.0289,6.2492c.0042.9-1.2174,1.6347-2.7286,1.6417s-2.74-.7167-2.7437-1.6165l-.0289-6.2491Z"/><polygon class="cls-30" points="197.033 512.455 201.138 510.598 197.844 503.338 193.738 505.196 197.033 512.455"/><path class="cls-30" d="M197.0328,512.4548a2.253,2.253,0,1,0,1.1226-2.978A2.255,2.255,0,0,0,197.0328,512.4548Z"/><polygon class="cls-30" points="200.541 509.809 197.991 513.493 210.194 520.403 211.189 518.966 200.541 509.809"/><path class="cls-30" d="M200.3668,509.6753a2.2511,2.2511,0,1,0,.5725,3.13A2.2559,2.2559,0,0,0,200.3668,509.6753Z"/><path class="cls-30" d="M208.1967,519.3a1.9194,1.9194,0,1,0,1.9194-1.9163A1.9179,1.9179,0,0,0,208.1967,519.3Z"/><path class="cls-15" d="M196.2713,498.1837l3.2912,7.8948a2.7929,2.7929,0,0,1-5.0522,2.0995l-3.2913-7.8948Z"/><path class="cls-31" d="M185.8914,474.24a7.2126,7.2126,0,0,1,3.2812.7861,7.2141,7.2141,0,0,1,.7332,5.5017,2.0714,2.0714,0,0,0-2.1117,3.4635,7.2425,7.2425,0,0,1-8.1587,1.1022,7.2213,7.2213,0,0,1,6.256-10.8535Z"/><ellipse class="cls-29" cx="180.3172" cy="485.0029" rx="2.9723" ry="2.9676"/><ellipse class="cls-31" cx="178.8773" cy="488.8127" rx="3.8159" ry="3.8098"/><ellipse class="cls-31" cx="177.6996" cy="493.3197" rx="5.2981" ry="5.2897"/><path class="cls-29" d="M215.4006,587.9989l5.9572-3.4339a1.9628,1.9628,0,0,0,.718-2.6757l-.458-.792a1.9693,1.9693,0,0,0-2.68-.717l-5.9572,3.4339a1.9628,1.9628,0,0,0-.7181,2.6757l.458.7921A1.9694,1.9694,0,0,0,215.4006,587.9989Z"/><path class="cls-29" d="M209.5718,583.0036l5.9572-3.4339a1.963,1.963,0,0,0,.7181-2.6757l-.4581-.7921a1.9693,1.9693,0,0,0-2.68-.7169l-5.9572,3.4339a1.9629,1.9629,0,0,0-.7181,2.6757l.4581.792A1.9693,1.9693,0,0,0,209.5718,583.0036Z"/><rect class="cls-29" x="208.7256" y="540.6357" width="13.342" height="15.1492" transform="translate(430.7932 1096.4205) rotate(180)"/><rect class="cls-30" x="203.2666" y="523.1602" width="4.5067" height="7.9703" transform="translate(282.8367 1087.6298) rotate(-166.5547)"/><path class="cls-30" d="M202.3989,530.4967a2.2534,2.2534,0,1,0,2.7164-1.6642A2.25,2.25,0,0,0,202.3989,530.4967Z"/><polygon class="cls-30" points="206.795 530.556 202.518 531.903 208.826 549.044 210.494 548.519 206.795 530.556"/><path class="cls-30" d="M206.74,530.3437a2.2532,2.2532,0,1,0-1.4712,2.8227A2.2543,2.2543,0,0,0,206.74,530.3437Z"/><path class="cls-30" d="M207.9267,546.95a1.9182,1.9182,0,1,0,2.6932-.3377A1.9144,1.9144,0,0,0,207.9267,546.95Z"/><path class="cls-25" d="M210.26,521.8272l-1.7979,5.2279a2.7933,2.7933,0,0,1-5.2445-1.56l1.7978-5.2279Z"/><rect class="cls-29" x="214.8649" y="542.7252" width="7.4558" height="20.1119" transform="translate(437.1857 1105.5623) rotate(180)"/><ellipse class="cls-29" cx="218.5928" cy="562.8371" rx="3.7279" ry="3.722"/><rect class="cls-29" x="204.9975" y="538.1543" width="7.4559" height="20.1119" transform="translate(417.4509 1096.4205) rotate(180)"/><ellipse class="cls-29" cx="208.7255" cy="558.2662" rx="3.7279" ry="3.722"/><path class="cls-29" d="M212.4355,558.6287h-7.42l1.9289,21.6279a1.5946,1.5946,0,0,0,1.5892,1.4517h0a1.5945,1.5945,0,0,0,1.5865-1.4239Z"/><ellipse class="cls-29" cx="208.7255" cy="558.2662" rx="3.7279" ry="3.722"/><path class="cls-29" d="M222.1691,563.8872l-7.2884-1.3881-2.1641,21.6057a1.5932,1.5932,0,0,0,1.2886,1.7233h0a1.5958,1.5958,0,0,0,1.8257-1.1019Z"/><ellipse class="cls-29" cx="218.5928" cy="562.8371" rx="3.7279" ry="3.722"/><ellipse class="cls-30" cx="211.0255" cy="507.0627" rx="6.5495" ry="6.5391"/><path class="cls-25" d="M223.1007,547.0927V522.9259c0-4.6347-5.3053-7.4487-9.2842-7.4487s-9.1185,2.1519-9.1185,6.6211v20.5252Z"/><path class="cls-30" d="M213.3043,510.7444l1.3724,6.0972c.1976.8778-.8374,1.8576-2.3118,2.1884s-2.83-.1126-3.0274-.99l-1.3724-6.0971Z"/><path class="cls-31" d="M213.4548,506.2714s7.0972-6.0668,3.4282-7.926-4.8929,2.1567-4.8929,2.1567Z"/><path class="cls-15" d="M209.4825,500.05a7.1364,7.1364,0,0,1,3.2468.7779,7.1387,7.1387,0,0,1,.7255,5.444,2.05,2.05,0,0,0-2.09,3.4271,7.1668,7.1668,0,0,1-8.0732,1.0907,7.1456,7.1456,0,0,1,6.19-10.74Z"/><path class="cls-14" d="M213.5931,549.86l1.0926.6987a2.7813,2.7813,0,0,0,3.8385-.84l14.8388-23.1332a2.7717,2.7717,0,0,0-.8414-3.8324l-1.0927-.6987a2.7813,2.7813,0,0,0-3.8385.84l-14.8387,23.1333A2.7715,2.7715,0,0,0,213.5931,549.86Z"/><ellipse class="cls-15" cx="215.846" cy="547.5483" rx="2.6201" ry="2.6159"/><rect class="cls-30" x="218.6363" y="527.9103" width="4.5071" height="7.9697" transform="translate(485.0347 1043.6883) rotate(175.2535)"/><circle class="cls-30" cx="221.2206" cy="535.8662" r="2.2536"/><polygon class="cls-30" points="223.376 535.209 219.234 536.928 225.75 549.333 227.365 548.662 223.376 535.209"/><circle class="cls-30" cx="221.2206" cy="535.8662" r="2.2536"/><circle class="cls-30" cx="226.2829" cy="548.363" r="1.9194"/><path class="cls-25" d="M223.0573,522.3549l.4449,8.54a2.7938,2.7938,0,0,1-5.465.2837l-.4449-8.54Z"/><polygon class="cls-25" points="338.163 741.017 351.533 748.724 351.533 764.755 338.163 757.07 338.163 741.017"/><polygon class="cls-25" points="428.095 792.857 434.605 796.469 435.468 815.38 422.099 807.695 428.095 792.857"/><polygon class="cls-25" points="367.754 758.047 410.265 782.552 382.998 789.369 367.754 779.304 367.754 758.047"/><polygon class="cls-25" points="469.493 793.67 489.031 782.408 483.042 808.291 470.561 810.304 469.493 793.67"/><polygon class="cls-25" points="506.679 772.235 550.972 746.703 546.625 760.877 514.973 778.588 506.679 774.388 506.679 772.235"/></g></g></g></svg>