<svg xmlns="http://www.w3.org/2000/svg" xmlns:xlink="http://www.w3.org/1999/xlink" viewBox="0 0 2040.8836 1000"><defs><style>.cls-1{mask:url(#mask);filter:url(#luminosity-noclip-5);}.cls-19,.cls-2,.cls-21,.cls-29,.cls-36,.cls-4,.cls-43,.cls-44,.cls-6,.cls-8{mix-blend-mode:multiply;}.cls-2{fill:url(#Áåçûìÿííûé_ãðàäèåíò_28);}.cls-3{mask:url(#mask-2);filter:url(#luminosity-noclip-6);}.cls-4{fill:url(#Áåçûìÿííûé_ãðàäèåíò_28-2);}.cls-5{mask:url(#mask-3);filter:url(#luminosity-noclip-7);}.cls-6{fill:url(#Áåçûìÿííûé_ãðàäèåíò_28-3);}.cls-7{mask:url(#mask-4);filter:url(#luminosity-noclip-8);}.cls-8{fill:url(#Áåçûìÿííûé_ãðàäèåíò_28-4);}.cls-9{isolation:isolate;}.cls-10{fill:url(#linear-gradient);}.cls-11{fill:url(#linear-gradient-2);}.cls-12{fill:url(#linear-gradient-3);}.cls-13{fill:url(#linear-gradient-4);}.cls-14{fill:url(#linear-gradient-5);}.cls-15{fill:#e1e4ee;}.cls-16{fill:#7d88c7;}.cls-17{fill:#e18538;}.cls-18{mask:url(#mask-5);}.cls-19{fill:url(#Áåçûìÿííûé_ãðàäèåíò_19);}.cls-20{mask:url(#mask-6);}.cls-21{fill:url(#Áåçûìÿííûé_ãðàäèåíò_19-2);}.cls-22{fill:url(#linear-gradient-6);}.cls-23{fill:url(#linear-gradient-7);}.cls-24{fill:url(#linear-gradient-8);}.cls-25,.cls-29{fill:#c9cee3;}.cls-26{fill:#fff;}.cls-27{fill:#a0a2c7;}.cls-28{fill:#e49b6c;}.cls-30{fill:#474762;}.cls-31{fill:#f0c691;}.cls-32{fill:#6064a1;}.cls-33{fill:#363636;}.cls-34{fill:#f0ca66;}.cls-35{mask:url(#mask-7);}.cls-36{fill:url(#Áåçûìÿííûé_ãðàäèåíò_19-3);}.cls-37{fill:url(#linear-gradient-9);}.cls-38{fill:url(#linear-gradient-11);}.cls-39{fill:url(#linear-gradient-12);}.cls-40{fill:#c7cce1;}.cls-41{fill:#95a2e7;}.cls-42{mask:url(#mask-8);}.cls-43{fill:url(#Áåçûìÿííûé_ãðàäèåíò_19-4);}.cls-44{fill:#acacac;}.cls-45{fill:#c86f6e;}.cls-46{fill:#a9642a;}.cls-47{fill:url(#linear-gradient-13);}.cls-48{fill:url(#linear-gradient-14);}.cls-49{fill:url(#linear-gradient-15);}.cls-50{fill:#080e7a;}.cls-51{filter:url(#luminosity-noclip-4);}.cls-52{filter:url(#luminosity-noclip-3);}.cls-53{filter:url(#luminosity-noclip-2);}.cls-54{filter:url(#luminosity-noclip);}</style><filter id="luminosity-noclip" x="1132.9736" y="-7434.8473" width="203.5412" height="32766" filterUnits="userSpaceOnUse" color-interpolation-filters="sRGB"><feFlood flood-color="#fff" result="bg"/><feBlend in="SourceGraphic" in2="bg"/></filter><mask id="mask" x="1132.9736" y="-7434.8473" width="203.5412" height="32766" maskUnits="userSpaceOnUse"><g class="cls-54"/></mask><linearGradient id="Áåçûìÿííûé_ãðàäèåíò_28" x1="1234.7442" y1="875.1249" x2="1234.7442" y2="754.4356" gradientUnits="userSpaceOnUse"><stop offset="0" stop-color="#fff"/><stop offset="0.016" stop-color="#f3f3f3"/><stop offset="0.0908" stop-color="#c1c1c1"/><stop offset="0.1709" stop-color="#939393"/><stop offset="0.2546" stop-color="#6b6b6b"/><stop offset="0.3429" stop-color="#4a4a4a"/><stop offset="0.437" stop-color="#2f2f2f"/><stop offset="0.539" stop-color="#1a1a1a"/><stop offset="0.6529" stop-color="#0b0b0b"/><stop offset="0.7881" stop-color="#030303"/><stop offset="1"/></linearGradient><filter id="luminosity-noclip-2" x="1177.7787" y="-7434.8473" width="169.0364" height="32766" filterUnits="userSpaceOnUse" color-interpolation-filters="sRGB"><feFlood flood-color="#fff" result="bg"/><feBlend in="SourceGraphic" in2="bg"/></filter><mask id="mask-2" x="1177.7787" y="-7434.8473" width="169.0364" height="32766" maskUnits="userSpaceOnUse"><g class="cls-53"/></mask><linearGradient id="Áåçûìÿííûé_ãðàäèåíò_28-2" x1="1262.2969" y1="567.4824" x2="1262.2969" y2="462.7152" xlink:href="#Áåçûìÿííûé_ãðàäèåíò_28"/><filter id="luminosity-noclip-3" x="1656.2763" y="-7434.8473" width="302.4491" height="32766" filterUnits="userSpaceOnUse" color-interpolation-filters="sRGB"><feFlood flood-color="#fff" result="bg"/><feBlend in="SourceGraphic" in2="bg"/></filter><mask id="mask-3" x="1656.2763" y="-7434.8473" width="302.4491" height="32766" maskUnits="userSpaceOnUse"><g class="cls-52"/></mask><linearGradient id="Áåçûìÿííûé_ãðàäèåíò_28-3" x1="1807.5009" y1="701.3551" x2="1807.5009" y2="533.3218" xlink:href="#Áåçûìÿííûé_ãðàäèåíò_28"/><filter id="luminosity-noclip-4" x="1624.937" y="-7434.8473" width="94.3425" height="32766" filterUnits="userSpaceOnUse" color-interpolation-filters="sRGB"><feFlood flood-color="#fff" result="bg"/><feBlend in="SourceGraphic" in2="bg"/></filter><mask id="mask-4" x="1624.937" y="-7434.8473" width="94.3425" height="32766" maskUnits="userSpaceOnUse"><g class="cls-51"/></mask><linearGradient id="Áåçûìÿííûé_ãðàäèåíò_28-4" x1="1672.1083" y1="887.7419" x2="1672.1083" y2="831.8017" xlink:href="#Áåçûìÿííûé_ãðàäèåíò_28"/><linearGradient id="linear-gradient" x1="1365.4436" y1="659.0762" x2="1359.7755" y2="648.8736" gradientUnits="userSpaceOnUse"><stop offset="0" stop-color="#dfe6fd"/><stop offset="1" stop-color="#7d88c7"/></linearGradient><linearGradient id="linear-gradient-2" x1="1468.113" y1="596.1121" x2="1462.9081" y2="586.7433" xlink:href="#linear-gradient"/><linearGradient id="linear-gradient-3" x1="1467.9413" y1="676.9169" x2="1282.5651" y2="343.2396" xlink:href="#linear-gradient"/><linearGradient id="linear-gradient-4" x1="1532.198" y1="579.6371" x2="1518.3531" y2="579.6371" gradientUnits="userSpaceOnUse"><stop offset="0" stop-color="#fff"/><stop offset="1" stop-color="#e1e4ee"/></linearGradient><linearGradient id="linear-gradient-5" x1="1655.6859" y1="661.5629" x2="1655.6333" y2="661.5629" xlink:href="#linear-gradient-4"/><filter id="luminosity-noclip-5" x="1132.9736" y="754.4356" width="203.5412" height="120.6893" filterUnits="userSpaceOnUse" color-interpolation-filters="sRGB"><feFlood flood-color="#fff" result="bg"/><feBlend in="SourceGraphic" in2="bg"/></filter><mask id="mask-5" x="1132.9736" y="754.4356" width="203.5412" height="120.6893" maskUnits="userSpaceOnUse"><g class="cls-1"><path class="cls-2" d="M1139.74,827.399l73.602,42.4265a39.6725,39.6725,0,0,0,39.6181,0l76.7893-44.2637a13.5,13.5,0,0,0,0-23.4l-73.602-42.4265a39.6729,39.6729,0,0,0-39.6181,0L1139.74,803.9986A13.5,13.5,0,0,0,1139.74,827.399Z"/></g></mask><linearGradient id="Áåçûìÿííûé_ãðàäèåíò_19" x1="1234.7442" y1="875.1249" x2="1234.7442" y2="754.4356" gradientUnits="userSpaceOnUse"><stop offset="0" stop-color="#e1e4ee"/><stop offset="0.2262" stop-color="#d4d8e8"/><stop offset="0.5274" stop-color="#ccd0e4"/><stop offset="1" stop-color="#c9cee3"/></linearGradient><filter id="luminosity-noclip-6" x="1177.7787" y="462.7152" width="169.0364" height="104.7672" filterUnits="userSpaceOnUse" color-interpolation-filters="sRGB"><feFlood flood-color="#fff" result="bg"/><feBlend in="SourceGraphic" in2="bg"/></filter><mask id="mask-6" x="1177.7787" y="462.7152" width="169.0364" height="104.7672" maskUnits="userSpaceOnUse"><g class="cls-3"><path class="cls-4" d="M1183.5984,525.9378l67.4136,38.8592a20.0954,20.0954,0,0,0,20.0715,0l69.8308-40.2526a11.7876,11.7876,0,0,0,0-20.4249l-67.17-38.7189a20.0954,20.0954,0,0,0-20.0715,0l-70.0743,40.3929A11.6257,11.6257,0,0,0,1183.5984,525.9378Z"/></g></mask><linearGradient id="Áåçûìÿííûé_ãðàäèåíò_19-2" x1="1262.2969" y1="567.4824" x2="1262.2969" y2="462.7152" xlink:href="#Áåçûìÿííûé_ãðàäèåíò_19"/><linearGradient id="linear-gradient-6" x1="1104.8491" y1="806.0961" x2="1372.4194" y2="806.0961" xlink:href="#linear-gradient"/><linearGradient id="linear-gradient-7" x1="1104.8493" y1="806.0961" x2="1372.4196" y2="806.0961" xlink:href="#linear-gradient"/><linearGradient id="linear-gradient-8" x1="1132.8431" y1="765.265" x2="1338.3636" y2="765.265" xlink:href="#linear-gradient-4"/><filter id="luminosity-noclip-7" x="1656.2763" y="533.3218" width="302.4491" height="168.0333" filterUnits="userSpaceOnUse" color-interpolation-filters="sRGB"><feFlood flood-color="#fff" result="bg"/><feBlend in="SourceGraphic" in2="bg"/></filter><mask id="mask-7" x="1656.2763" y="533.3218" width="302.4491" height="168.0333" maskUnits="userSpaceOnUse"><g class="cls-5"><path class="cls-6" d="M1660.12,624.4117l123.3439,71.0992a43.7341,43.7341,0,0,0,43.682,0l127.7368-73.6315a7.6772,7.6772,0,0,0,0-13.3026L1837,540.6259a54.6806,54.6806,0,0,0-54.6053,0L1660.12,611.109A7.6773,7.6773,0,0,0,1660.12,624.4117Z"/></g></mask><linearGradient id="Áåçûìÿííûé_ãðàäèåíò_19-3" x1="1807.5009" y1="701.3551" x2="1807.5009" y2="533.3218" xlink:href="#Áåçûìÿííûé_ãðàäèåíò_19"/><linearGradient id="linear-gradient-9" x1="1678.0956" y1="629.3292" x2="1983.8656" y2="629.3292" xlink:href="#linear-gradient"/><linearGradient id="linear-gradient-11" x1="1656.2763" y1="569.2411" x2="1958.7254" y2="569.2411" xlink:href="#linear-gradient-4"/><linearGradient id="linear-gradient-12" x1="1690.6489" y1="517.7404" x2="1633.1127" y2="517.7404" gradientUnits="userSpaceOnUse"><stop offset="0" stop-color="#7d88c7"/><stop offset="1" stop-color="#dfe6fd"/></linearGradient><filter id="luminosity-noclip-8" x="1624.937" y="831.8017" width="94.3425" height="55.9402" filterUnits="userSpaceOnUse" color-interpolation-filters="sRGB"><feFlood flood-color="#fff" result="bg"/><feBlend in="SourceGraphic" in2="bg"/></filter><mask id="mask-8" x="1624.937" y="831.8017" width="94.3425" height="55.9402" maskUnits="userSpaceOnUse"><g class="cls-7"><path class="cls-8" d="M1628.0731,865.6207l34.1149,19.6649a18.3888,18.3888,0,0,0,18.3632,0l35.5923-20.5165a6.257,6.257,0,0,0,0-10.8462l-34.1149-19.6649a18.3885,18.3885,0,0,0-18.3633,0l-35.5922,20.5165A6.257,6.257,0,0,0,1628.0731,865.6207Z"/></g></mask><linearGradient id="Áåçûìÿííûé_ãðàäèåíò_19-4" x1="1672.1083" y1="887.7419" x2="1672.1083" y2="831.8017" xlink:href="#Áåçûìÿííûé_ãðàäèåíò_19"/><linearGradient id="linear-gradient-13" x1="1155.0325" y1="503.3117" x2="1374.7002" y2="503.3117" xlink:href="#linear-gradient"/><linearGradient id="linear-gradient-14" x1="1155.0327" y1="503.3117" x2="1374.7004" y2="503.3117" xlink:href="#linear-gradient"/><linearGradient id="linear-gradient-15" x1="1178.0148" y1="469.7905" x2="1346.7414" y2="469.7905" xlink:href="#linear-gradient-4"/></defs><title>Artboard 5ldpi</title><g class="cls-9"><g id="image"><path class="cls-10" d="M1364.361,658.3646a13.2113,13.2113,0,0,1,.53-1.52A13.2113,13.2113,0,0,0,1364.361,658.3646Z"/><path class="cls-11" d="M1498.5392,577.9053a38.9629,38.9629,0,0,0-8.2514,3.5615l-53.6661,30.9348,53.6661-30.9348A38.9732,38.9732,0,0,1,1498.5392,577.9053Z"/><path class="cls-12" d="M1509.7626,576.2569a38.9688,38.9688,0,0,0-19.4748,5.21l-53.6661,30.9348-66.1194,38.1133a13.1091,13.1091,0,0,0-6.1413,7.85c-.0477.1693-.0939.3388-.1349.51a13.2284,13.2284,0,0,0,6.2762,14.6461l12.8869,7.4285,126.3734-72.8456Z"/><path class="cls-13" d="M1520.64,577.8074a38.9484,38.9484,0,0,1,8.5979,3.6594A38.9484,38.9484,0,0,0,1520.64,577.8074Z"/><path class="cls-14" d="M1655.642,661.1082c.02.3027.0327.6061.0327.9094h0C1655.6747,661.7143,1655.6624,661.4109,1655.642,661.1082Z"/><path class="cls-15" d="M1649.0229,650.5149l-119.7855-69.0481a39.0918,39.0918,0,0,0-19.4748-5.21v31.8463l126.3734,72.8456,12.8869-7.4285a13.1536,13.1536,0,0,0,6.6518-11.5027c0-.3033-.0123-.6067-.0327-.9094A13.131,13.131,0,0,0,1649.0229,650.5149Z"/><path class="cls-16" d="M1529.2374,742.5684l113.55-65.4538-113.55-65.454a39.0034,39.0034,0,0,0-38.95,0l-113.55,65.454,113.55,65.4538A39.0029,39.0029,0,0,0,1529.2374,742.5684Z"/><path class="cls-17" d="M1311.0093,822.6042a10.7147,10.7147,0,0,1-10.6746-10.6915V801.9018h3.0485v10.0109a7.6259,7.6259,0,0,0,11.4392,6.6042L1470.3205,728.74a13.7568,13.7568,0,0,1,20.6354,11.9137v17.3534h-3.0485V740.654a10.7082,10.7082,0,0,0-16.0626-9.2736L1316.3466,821.157A10.65,10.65,0,0,1,1311.0093,822.6042Z"/><path class="cls-17" d="M1685.1808,557.1652l-14.9879-9.1488a20.165,20.165,0,0,1-9.6122-17.3311l.2508-25.06,1.5243.0153-.2508,25.06a18.6331,18.6331,0,0,0,8.882,16.0148l14.9879,9.1488Z"/><path class="cls-17" d="M1326.6377,788.315a.58.58,0,0,1-.29-1.0832l13.8748-7.9978a18.5925,18.5925,0,0,0,9.2878-16.0611v-67.59a5.8032,5.8032,0,0,0-8.7053-5.0167l-6.337,3.6527a.58.58,0,0,1-.58-1.0056l6.3369-3.6527a6.964,6.964,0,0,1,10.4457,6.0223v67.59a19.756,19.756,0,0,1-9.8689,17.0667l-13.8747,7.9978A.5783.5783,0,0,1,1326.6377,788.315Z"/><path class="cls-17" d="M1684.29,814.5185l-.8329-1.2767,14.4279-9.4125a21.362,21.362,0,0,0,9.6056-18.01V751.7891h1.5243V785.82a22.8818,22.8818,0,0,1-10.2971,19.2864Z"/><g class="cls-18"><path class="cls-19" d="M1139.74,827.399l73.602,42.4265a39.6725,39.6725,0,0,0,39.6181,0l76.7893-44.2637a13.5,13.5,0,0,0,0-23.4l-73.602-42.4265a39.6729,39.6729,0,0,0-39.6181,0L1139.74,803.9986A13.5,13.5,0,0,0,1139.74,827.399Z"/></g><g class="cls-20"><path class="cls-21" d="M1183.5984,525.9378l67.4136,38.8592a20.0954,20.0954,0,0,0,20.0715,0l69.8308-40.2526a11.7876,11.7876,0,0,0,0-20.4249l-67.17-38.7189a20.0954,20.0954,0,0,0-20.0715,0l-70.0743,40.3929A11.6257,11.6257,0,0,0,1183.5984,525.9378Z"/></g><path class="cls-22" d="M1249.3187,843.2582l84.36-48.628a9.2638,9.2638,0,0,0,4.6845-8.1009V765.2649l-102.76,59.2343v22.4281A27.4455,27.4455,0,0,0,1249.3187,843.2582Z"/><path class="cls-23" d="M1137.5277,794.63l84.36,48.628a27.4456,27.4456,0,0,0,13.7154,3.6691V824.4992l-102.76-59.2343v21.2644A9.2637,9.2637,0,0,0,1137.5277,794.63Z"/><path class="cls-24" d="M1137.5276,773.3659l84.36,48.6279a27.4682,27.4682,0,0,0,27.4307,0l84.36-48.6279a9.3468,9.3468,0,0,0,0-16.2019l-84.36-48.6279a27.4687,27.4687,0,0,0-27.4307,0l-84.36,48.6279A9.3468,9.3468,0,0,0,1137.5276,773.3659Z"/><path class="cls-25" d="M1338.2219,652.9524a21.6371,21.6371,0,0,0-7.9315-7.919l-94.63-54.5477a7.3423,7.3423,0,0,0-7.4013,0l-4.3379,2.5,109.1656,62.9264V749.5l4.3378-2.5a7.3184,7.3184,0,0,0,3.7007-6.3995V663.77A21.5936,21.5936,0,0,0,1338.2219,652.9524Z"/><path class="cls-15" d="M1231.3225,592.9861l94.63,54.5477a21.6289,21.6289,0,0,1,10.8347,18.7366V743.1a7.4014,7.4014,0,0,1-11.1021,6.4l-94.63-54.5477a21.6289,21.6289,0,0,1-10.8348-18.7366v-76.83A7.4013,7.4013,0,0,1,1231.3225,592.9861Z"/><path class="cls-26" d="M1237.1673,602.1508l78.4158,45.2013a11.7279,11.7279,0,0,1,5.8751,10.16v76.3032a4.31,4.31,0,0,1-6.4643,3.7263L1236.5781,692.34a11.728,11.728,0,0,1-5.875-10.16V605.877A4.31,4.31,0,0,1,1237.1673,602.1508Z"/><ellipse class="cls-17" cx="1328.8705" cy="699.5966" rx="4.3996" ry="7.3858" transform="translate(-171.677 760.3383) rotate(-30.083)"/><path class="cls-25" d="M1225.4775,623.4739c-1.2235-.7049-2.2153-.2861-2.2153.9355v25.8258a4.585,4.585,0,0,0,2.2153,3.4882c1.2235.7049,2.2153.2861,2.2153-.9355V626.9621A4.585,4.585,0,0,0,1225.4775,623.4739Z"/><polygon class="cls-27" points="1285.014 700.309 1285.014 661.718 1291.312 665.348 1291.312 703.939 1285.014 700.309"/><polygon class="cls-27" points="1274.579 691.97 1274.579 666.436 1280.877 670.066 1280.877 695.6 1274.579 691.97"/><polygon class="cls-27" points="1264.143 685.954 1264.143 669.218 1270.441 672.848 1270.441 689.585 1264.143 685.954"/><polygon class="cls-27" points="1253.707 679.939 1253.707 669.213 1260.005 672.843 1260.005 683.569 1253.707 679.939"/><polygon class="cls-27" points="1243.271 673.923 1243.271 669.286 1249.569 672.916 1249.569 677.554 1243.271 673.923"/><path class="cls-28" d="M1239.4775,608.76l34.8549,20.0914a7.9692,7.9692,0,0,1,3.992,6.9033v21.4662a2.727,2.727,0,0,1-4.0905,2.3579l-34.8548-20.0915a7.9687,7.9687,0,0,1-3.992-6.9032V611.1182A2.7269,2.7269,0,0,1,1239.4775,608.76Z"/><path class="cls-25" d="M1235.6034,644.127c0-.7485.4561-1.0925,1.0185-.7684l13.2692,7.6488a2.4328,2.4328,0,0,1,1.018,1.9423c0,.7486-.4562,1.0926-1.0186.7684l-13.2692-7.6488A2.4326,2.4326,0,0,1,1235.6034,644.127Z"/><path class="cls-15" d="M1242.7736,653.6543c0-.7486.4562-1.0926,1.0185-.7684l13.2692,7.6488a2.4324,2.4324,0,0,1,1.018,1.9423c0,.7485-.4562,1.0925-1.0185.7684l-13.2692-7.6488A2.4327,2.4327,0,0,1,1242.7736,653.6543Z"/><path class="cls-15" d="M1282.7656,638.1562c.0005-2.0755,1.2649-3.0294,2.8242-2.1306l29.0378,16.7383a6.7453,6.7453,0,0,1,2.8226,5.3856c0,2.0756-1.2648,3.0295-2.8242,2.1306l-29.0377-16.7382A6.7457,6.7457,0,0,1,1282.7656,638.1562Z"/><path class="cls-15" d="M1252.5816,653.9138c0-.7485.4562-1.0926,1.0185-.7684l3.6435,2.1a2.433,2.433,0,0,1,1.018,1.9423c0,.7486-.4562,1.0926-1.0186.7684l-3.6434-2.1A2.4327,2.4327,0,0,1,1252.5816,653.9138Z"/><path class="cls-15" d="M1235.6034,649.4288c0-.7486.4561-1.0926,1.0185-.7684l3.6435,2.1a2.4327,2.4327,0,0,1,1.0179,1.9423c0,.7485-.4561,1.0926-1.0185.7684l-3.6435-2.1A2.4329,2.4329,0,0,1,1235.6034,649.4288Z"/><ellipse class="cls-29" cx="1292.9437" cy="758.6382" rx="19.3703" ry="10.7582"/><rect class="cls-30" x="1283.7191" y="710.2069" width="14.8466" height="16.8577"/><path class="cls-30" d="M1300.7691,761.139l-6.629,3.8211a2.1914,2.1914,0,0,1-2.9821-.7977l-.51-.8815a2.1841,2.1841,0,0,1,.799-2.9774l6.629-3.8211a2.1915,2.1915,0,0,1,2.9822.7978l.51.8814A2.1842,2.1842,0,0,1,1300.7691,761.139Z"/><rect class="cls-30" x="1294.4175" y="712.2555" width="8.2967" height="22.38"/><ellipse class="cls-30" cx="1298.5659" cy="734.6355" rx="4.1484" ry="4.1417"/><path class="cls-30" d="M1294.4374,735.0389h8.2566l-2.1464,24.0669a1.7745,1.7745,0,0,1-1.7685,1.6155h0a1.7744,1.7744,0,0,1-1.7654-1.5845Z"/><ellipse class="cls-30" cx="1298.5659" cy="734.6355" rx="4.1484" ry="4.1418"/><path class="cls-30" d="M1285.0862,756.0442l6.629-3.8211a2.1914,2.1914,0,0,1,2.9822.7978l.51.8814a2.1841,2.1841,0,0,1-.7991,2.9774l-6.629,3.8211a2.1914,2.1914,0,0,1-2.9821-.7977l-.51-.8815A2.1841,2.1841,0,0,1,1285.0862,756.0442Z"/><rect class="cls-30" x="1283.4373" y="708.4665" width="8.2967" height="22.38"/><ellipse class="cls-30" cx="1287.5857" cy="730.8465" rx="4.1484" ry="4.1417"/><path class="cls-30" d="M1283.6061,732.015l8.11-1.5446,2.4083,24.0423a1.7731,1.7731,0,0,1-1.434,1.9176h0a1.7756,1.7756,0,0,1-2.0315-1.2261Z"/><ellipse class="cls-30" cx="1287.5857" cy="730.8465" rx="4.1417" ry="4.1483" transform="translate(555.2926 2017.6099) rotate(-89.9356)"/><path class="cls-31" d="M1268.1145,662.693l2.0859,2.88-.08,4.5833s-4.6222-6.1924-4.4816-6.1947S1268.1145,662.693,1268.1145,662.693Z"/><polygon class="cls-30" points="1276.613 680.976 1280.21 676.058 1288.933 682.418 1285.336 687.336 1276.613 680.976"/><ellipse class="cls-30" cx="1278.4114" cy="678.5169" rx="3.0496" ry="3.0447"/><polygon class="cls-30" points="1280.691 676.495 1275.782 680.059 1266.456 666.003 1269.655 663.68 1280.691 676.495"/><path class="cls-30" d="M1280.8777,676.726a3.0479,3.0479,0,1,1-4.26-.6715A3.0415,3.0415,0,0,1,1280.8777,676.726Z"/><path class="cls-31" d="M1266.4514,664.6435a2.251,2.251,0,1,1,2.2-2.3044A2.2529,2.2529,0,0,1,1266.4514,664.6435Z"/><ellipse class="cls-31" cx="1293.3257" cy="670.5006" rx="7.2882" ry="7.2766"/><path class="cls-32" d="M1283.4366,714.2833s-1.1555-25.1108-1.143-30.2682,5.9237-3.7487,10.3514-3.738a11.7658,11.7658,0,0,1,11.0167,9.046c1.1778,4.8322-.9677,31.27-.9677,31.27Z"/><path class="cls-15" d="M1287.969,681.2909c0-4.1231,11.5719-2.89,9.8358.9976l-8.7932,20.7221Z"/><path class="cls-31" d="M1289.75,675.2929l.1015,6.9533c.0146,1.0011,1.3894,1.7928,3.0709,1.7683s3.0326-.8558,3.018-1.8569l-.1015-6.9532Z"/><path class="cls-32" d="M1297.1636,662.3828a8.2864,8.2864,0,0,0-1.2481-.4559c-5.2483-1.4513-8.3239,5.7436-3.6805,8.5846l2.0518,1.2553a2.3589,2.3589,0,1,1,2.6,3.9295l.7638,1.1545a8.0335,8.0335,0,0,0,3.37-3.3862A8.1237,8.1237,0,0,0,1297.1636,662.3828Z"/><path class="cls-31" d="M1302.2805,715.9781l-.0311-3.5539,2.7227-3.691s.1787,7.7208.0627,7.6414S1302.2805,715.9781,1302.2805,715.9781Z"/><path class="cls-30" d="M1299.8972,686.6167h2.8976a1.6,1.6,0,0,1,1.6,1.6v9.1861a0,0,0,0,1,0,0h-6.0982a0,0,0,0,1,0,0V688.217A1.6,1.6,0,0,1,1299.8972,686.6167Z" transform="translate(-152.1624 447.6897) rotate(-18.4608)"/><ellipse class="cls-30" cx="1303.0587" cy="697.124" rx="3.0496" ry="3.0447"/><polygon class="cls-30" points="1300.027 697.455 1306.097 697.386 1305.552 714.238 1301.597 714.283 1300.027 697.455"/><ellipse class="cls-30" cx="1303.0586" cy="697.124" rx="3.0496" ry="3.0447"/><circle class="cls-31" cx="1303.5069" cy="717.2152" r="2.251" transform="translate(581.8898 2018.2903) rotate(-89.8063)"/><path class="cls-30" d="M1252.0308,789.0043l5.7186-4.2152a2.0279,2.0279,0,0,0,.4269-2.8306l-.5623-.76a2.0355,2.0355,0,0,0-2.8351-.4261l-5.7186,4.2152a2.0279,2.0279,0,0,0-.4269,2.83l.5623.76A2.0354,2.0354,0,0,0,1252.0308,789.0043Z"/><path class="cls-30" d="M1256.183,763.4622l-7.6451-.5822.2849,22.4361a1.6474,1.6474,0,0,0,1.5233,1.6206h0a1.6482,1.6482,0,0,0,1.7467-1.3427Z"/><path class="cls-30" d="M1256.23,763.09a3.8523,3.8523,0,1,0-4.1342,3.5426A3.8481,3.8481,0,0,0,1256.23,763.09Z"/><path class="cls-33" d="M1223.6393,765.1188l6.2781-3.3283a2.0283,2.0283,0,0,0,.84-2.7369l-.444-.8348a2.0349,2.0349,0,0,0-2.7413-.8384l-6.2781,3.3283a2.0284,2.0284,0,0,0-.84,2.7369l.444.8348A2.0349,2.0349,0,0,0,1223.6393,765.1188Z"/><path class="cls-30" d="M1216.735,740.8155l-6.8185,3.501,12.01,18.9652a1.65,1.65,0,0,0,2.1476.5842h0a1.645,1.645,0,0,0,.7839-2.0571Z"/><ellipse class="cls-30" cx="1213.154" cy="742.2329" rx="3.8523" ry="3.8462"/><path class="cls-29" d="M1149.0286,770.7409l68.8,39.6585a8.5713,8.5713,0,0,0,8.5593,0l26.323-15.1734a2.9164,2.9164,0,0,0,0-5.0555l-68.8-39.6585a8.5708,8.5708,0,0,0-8.5593,0l-26.323,15.1734A2.9164,2.9164,0,0,0,1149.0286,770.7409Z"/><path class="cls-15" d="M1226.388,799.5706l26.323-15.1735a2.89,2.89,0,0,0,1.4617-2.5277v-6.6352l-32.0644,18.483v6.9982A8.5642,8.5642,0,0,0,1226.388,799.5706Z"/><path class="cls-15" d="M1149.0286,759.912l68.8,39.6586a8.5638,8.5638,0,0,0,4.28,1.1448v-6.9982l-74.5414-42.9681v6.6352A2.89,2.89,0,0,0,1149.0286,759.912Z"/><path class="cls-26" d="M1149.0286,753.2769l68.8,39.6585a8.5708,8.5708,0,0,0,8.5593,0l26.323-15.1734a2.9164,2.9164,0,0,0,0-5.0555l-68.8-39.6585a8.5708,8.5708,0,0,0-8.5593,0l-26.323,15.1734A2.9164,2.9164,0,0,0,1149.0286,753.2769Z"/><polygon class="cls-30" points="1255.09 765.539 1249.687 760.056 1236.756 772.729 1244.522 775.897 1255.09 765.539"/><ellipse class="cls-30" cx="1252.3888" cy="762.7976" rx="3.8462" ry="3.8523" transform="translate(487.2273 2013.7436) rotate(-89.8918)"/><polygon class="cls-30" points="1215.856 744.975 1210.452 739.491 1197.521 752.165 1205.287 755.332 1215.856 744.975"/><path class="cls-30" d="M1215.8556,744.9748a3.8492,3.8492,0,1,0-5.4478-.0445A3.8419,3.8419,0,0,0,1215.8556,744.9748Z"/><path class="cls-30" d="M1244.5221,775.8971h0v-12.015H1226.573v4.3557A10.616,10.616,0,0,0,1244.5221,775.8971Z"/><polygon class="cls-31" points="1222.151 761.043 1226.51 762.68 1229.415 754.972 1225.056 753.335 1222.151 761.043"/><path class="cls-31" d="M1222.1507,761.0425a2.3283,2.3283,0,1,0,3-1.3572A2.324,2.324,0,0,0,1222.1507,761.0425Z"/><polygon class="cls-31" points="1226.518 762.658 1222.03 761.503 1220.743 772.221 1222.494 772.671 1226.518 762.658"/><path class="cls-31" d="M1226.5854,762.4415a2.3285,2.3285,0,1,0-2.8362,1.6714A2.3248,2.3248,0,0,0,1226.5854,762.4415Z"/><path class="cls-31" d="M1221.1025,769.8932a1.9806,1.9806,0,1,0,2.5463,1.1746A1.9795,1.9795,0,0,0,1221.1025,769.8932Z"/><path class="cls-16" d="M1232.3755,750.2044l-3.564,8.0886a2.886,2.886,0,0,1-5.1762-2.2735l3.564-8.0887Z"/><ellipse class="cls-31" cx="1238.7768" cy="733.573" rx="6.7681" ry="6.7573"/><path class="cls-16" d="M1238.1608,774.0853a4.8212,4.8212,0,0,0,7.4289-4.0483V751.5323c0-4.7893-5.4823-7.6971-9.594-7.6971s-9.4227,2.2236-9.4227,6.8419V766.644Z"/><path class="cls-31" d="M1240.1915,739.45l-1.6362,6.2478c-.2355.8995-1.6512,1.3089-3.162.9145s-2.5446-1.4432-2.309-2.3427l1.6361-6.2478Z"/><path class="cls-30" d="M1238.34,726.0079a4.8739,4.8739,0,0,1,4.1049,6.4294,2.1181,2.1181,0,0,0-2.1594,3.5416,5.8413,5.8413,0,1,1-1.9455-9.971Z"/><rect class="cls-31" x="1241.2535" y="759.8177" width="4.6574" height="8.2357" transform="matrix(-0.9916, 0.1296, -0.1296, -0.9916, 2575.6951, 1360.2318)"/><path class="cls-31" d="M1241.8085,768.32a2.3287,2.3287,0,1,0,2.0068-2.6072A2.3282,2.3282,0,0,0,1241.8085,768.32Z"/><polygon class="cls-31" points="1246.422 767.683 1241.922 768.794 1246.638 782.481 1248.393 782.048 1246.422 767.683"/><path class="cls-31" d="M1246.3782,767.46a2.3285,2.3285,0,1,0-1.7014,2.8154A2.329,2.329,0,0,0,1246.3782,767.46Z"/><circle class="cls-31" cx="1247.3345" cy="781.5731" r="1.9834"/><path class="cls-16" d="M1245.3535,753.9825l.8763,8.7933a2.887,2.887,0,0,1-5.6272.559l-.8763-8.7933Z"/><path class="cls-30" d="M1207.7707,749.1292h0v-12.015h-17.949V741.47A10.6159,10.6159,0,0,0,1207.7707,749.1292Z"/><polygon class="cls-31" points="1185.399 734.275 1189.758 735.912 1192.664 728.204 1188.304 726.567 1185.399 734.275"/><circle class="cls-31" cx="1187.5789" cy="735.0934" r="2.325" transform="translate(450.2076 1921.2593) rotate(-89.89)"/><polygon class="cls-31" points="1189.767 735.89 1185.278 734.735 1183.992 745.453 1185.742 745.903 1189.767 735.89"/><path class="cls-31" d="M1189.834,735.6735a2.3285,2.3285,0,1,0-2.8361,1.6714A2.3248,2.3248,0,0,0,1189.834,735.6735Z"/><path class="cls-31" d="M1184.3512,743.1252a1.9806,1.9806,0,1,0,2.5463,1.1746A1.9793,1.9793,0,0,0,1184.3512,743.1252Z"/><path class="cls-34" d="M1195.6242,723.4364l-3.5641,8.0886a2.886,2.886,0,0,1-5.1762-2.2735l3.5641-8.0886Z"/><ellipse class="cls-31" cx="1202.0255" cy="706.8051" rx="6.7681" ry="6.7573"/><path class="cls-34" d="M1206.8308,758.12s2.0076-28.5664,2.0076-33.3558-5.4823-7.6972-9.594-7.6972-9.4227,2.2236-9.4227,6.842-4.5721,21.8672-4.5721,21.8672-.58,3.291,5.9232,7.8174S1206.8308,758.12,1206.8308,758.12Z"/><path class="cls-31" d="M1203.44,712.6818l-1.6361,6.2477c-.2356.8995-1.6512,1.309-3.1621.9146s-2.5445-1.4433-2.309-2.3428l1.6362-6.2477Z"/><path class="cls-30" d="M1201.5888,699.24a4.874,4.874,0,0,1,4.1048,6.4295,2.1181,2.1181,0,0,0-2.1593,3.5415,5.8413,5.8413,0,1,1-1.9455-9.971Z"/><rect class="cls-31" x="1204.5021" y="733.0498" width="4.6574" height="8.2357" transform="translate(2499.0308 1311.6901) rotate(172.5525)"/><path class="cls-31" d="M1205.0572,741.5524a2.3287,2.3287,0,1,0,2.0067-2.6072A2.328,2.328,0,0,0,1205.0572,741.5524Z"/><polygon class="cls-31" points="1209.67 740.915 1205.171 742.026 1209.887 755.713 1211.642 755.28 1209.67 740.915"/><path class="cls-31" d="M1209.6268,740.6922a2.3285,2.3285,0,1,0-1.7013,2.8154A2.329,2.329,0,0,0,1209.6268,740.6922Z"/><path class="cls-31" d="M1209.0966,753.4942a1.982,1.982,0,1,0,2.8-.1733A1.978,1.978,0,0,0,1209.0966,753.4942Z"/><path class="cls-34" d="M1208.6021,727.2146l.8763,8.7933a2.887,2.887,0,0,1-5.6272.559l-.8763-8.7933Z"/><path class="cls-30" d="M1203.5343,709.2109s5.7311,5.5687.7827,11.952-14.9837,2.8632-15.2855-2.3861,6.2168-5.6809,5.4316-10.1586S1203.5343,709.2109,1203.5343,709.2109Z"/><path class="cls-17" d="M1626.2789,860.947a11.1753,11.1753,0,0,1-6.0633-1.8095l-90.652-58.2962a15.0059,15.0059,0,0,1,.2389-25.3933l53.6025-32.8232a7.1229,7.1229,0,0,0-.182-12.2285l-18.5976-10.7373a11.5316,11.5316,0,0,0-17.2881,9.52l-.22,5.4424-3.046-.1233.22-5.4424a14.58,14.58,0,0,1,21.8584-12.037l18.5977,10.7377a10.1712,10.1712,0,0,1,.2539,17.4656l-53.6025,32.8231a11.9576,11.9576,0,0,0-.1862,20.2322l90.652,58.2962a8.1837,8.1837,0,0,0,12.61-6.8833v-2.9149h3.0485V849.69a11.0833,11.0833,0,0,1-5.8507,9.8593A11.2336,11.2336,0,0,1,1626.2789,860.947Z"/><path class="cls-17" d="M1617.0272,698.6724h-3.0485V661.3017a30.6911,30.6911,0,0,1,16.4455-27.233l27.3073-14.3646a25.0194,25.0194,0,0,0,13.4064-22.2v-8.8265h3.0485v8.8265a28.06,28.06,0,0,1-15.0356,24.8981l-27.3073,14.3646a27.65,27.65,0,0,0-14.8163,24.5351Z"/><g class="cls-35"><path class="cls-36" d="M1660.12,624.4117l123.3439,71.0992a43.7341,43.7341,0,0,0,43.682,0l127.7368-73.6315a7.6772,7.6772,0,0,0,0-13.3026L1837,540.6259a54.6806,54.6806,0,0,0-54.6053,0L1660.12,611.109A7.6773,7.6773,0,0,0,1660.12,624.4117Z"/></g><path class="cls-37" d="M1827.6848,684.0179l124.1467-71.5621a13.6328,13.6328,0,0,0,6.8939-11.9215V569.241l-151.2245,87.1706v33.0058A40.3914,40.3914,0,0,0,1827.6848,684.0179Z"/><path class="cls-37" d="M1663.17,612.4558l124.1467,71.5621a40.3909,40.3909,0,0,0,20.1839,5.3995V656.4116L1656.2763,569.241v31.2933A13.6331,13.6331,0,0,0,1663.17,612.4558Z"/><path class="cls-38" d="M1663.17,581.1626l124.1468,71.5621a40.4237,40.4237,0,0,0,40.3678,0l124.1467-71.5621a13.7548,13.7548,0,0,0,0-23.8431l-124.1468-71.562a40.4235,40.4235,0,0,0-40.3677,0L1663.17,557.32A13.7549,13.7549,0,0,0,1663.17,581.1626Z"/><rect class="cls-30" x="1735.8992" y="482.0307" width="15.8608" height="18.0092"/><path class="cls-30" d="M1754.1139,536.4421l-7.0818,4.0821a2.3411,2.3411,0,0,1-3.1859-.8523l-.5445-.9416a2.3333,2.3333,0,0,1,.8537-3.1808l7.0818-4.0822a2.3411,2.3411,0,0,1,3.1858.8523l.5446.9416A2.3335,2.3335,0,0,1,1754.1139,536.4421Z"/><polygon class="cls-30" points="1756.192 508.128 1747.328 508.128 1747.328 484.219 1756.192 488.435 1756.192 508.128"/><ellipse class="cls-30" cx="1751.7602" cy="508.128" rx="4.4317" ry="4.4247"/><path class="cls-30" d="M1747.35,508.5589h8.8206l-2.293,25.7111a1.8957,1.8957,0,0,1-1.8893,1.7258h0a1.8957,1.8957,0,0,1-1.886-1.6928Z"/><ellipse class="cls-30" cx="1751.7602" cy="508.128" rx="4.4317" ry="4.4247"/><path class="cls-30" d="M1737.36,530.9992l7.0819-4.0821a2.341,2.341,0,0,1,3.1858.8522l.5446.9417a2.3334,2.3334,0,0,1-.8537,3.1808l-7.0818,4.0822a2.3412,2.3412,0,0,1-3.1859-.8523l-.5445-.9417A2.3333,2.3333,0,0,1,1737.36,530.9992Z"/><rect class="cls-30" x="1735.5982" y="480.1713" width="8.8635" height="23.9088"/><ellipse class="cls-30" cx="1740.0299" cy="504.0802" rx="4.4318" ry="4.4247"/><path class="cls-30" d="M1735.7785,505.3285l8.6643-1.65,2.5728,25.6847a1.8941,1.8941,0,0,1-1.5319,2.0486h0a1.8969,1.8969,0,0,1-2.17-1.31Z"/><ellipse class="cls-30" cx="1740.0299" cy="504.0802" rx="4.4317" ry="4.4247"/><path class="cls-29" d="M1676.735,541.4212l53.2433,30.6911a9.6786,9.6786,0,0,0,9.6653,0l40.0491-23.0856a3.5612,3.5612,0,0,0,0-6.1732l-52.8763-30.3008Z"/><path class="cls-39" d="M1781.4755,520.743h-8.0171l-43.48-25.0632-24.8378-14.3173a9.6786,9.6786,0,0,0-9.6653,0L1661.511,500.94h-7.87v7.1171a3.53,3.53,0,0,0,1.785,3.0866l74.5522,42.9743a9.6786,9.6786,0,0,0,9.6653,0l40.0491-23.0856a3.53,3.53,0,0,0,1.7823-3.1727Z"/><path class="cls-26" d="M1655.4261,504.0271l74.5522,42.9742a9.6786,9.6786,0,0,0,9.6653,0l40.0491-23.0856a3.5612,3.5612,0,0,0,0-6.1732l-74.5522-42.9742a9.6786,9.6786,0,0,0-9.6653,0l-40.0491,23.0855A3.5613,3.5613,0,0,0,1655.4261,504.0271Z"/><path class="cls-28" d="M1667.051,507.3537l50.0215,28.834a8.0747,8.0747,0,0,0,8.0635,0l36.1815-20.8562a3.1521,3.1521,0,0,0,0-5.4639l-50.0215-28.8339a8.0745,8.0745,0,0,0-8.0634,0L1667.051,501.89A3.152,3.152,0,0,0,1667.051,507.3537Z"/><polygon class="cls-27" points="1693.348 492.818 1713.126 504.219 1728.249 495.502 1708.471 484.101 1693.348 492.818"/><polygon class="cls-27" points="1705.534 516.505 1721.112 525.484 1733.022 518.619 1717.445 509.64 1705.534 516.505"/><polygon class="cls-31" points="1728.847 478.706 1723.866 476.735 1727.361 467.927 1732.343 469.898 1728.847 478.706"/><ellipse class="cls-31" cx="1726.3561" cy="477.7207" rx="2.679" ry="2.6748" transform="translate(-0.6405 2.3206) rotate(-0.077)"/><polygon class="cls-31" points="1724.132 476.23 1728.249 479.613 1716.552 491.482 1714.946 490.163 1724.132 476.23"/><ellipse class="cls-31" cx="1726.3561" cy="477.7207" rx="2.679" ry="2.6748"/><circle class="cls-31" cx="1716.2806" cy="490.195" r="2.2817"/><path class="cls-15" d="M1728.9333,461.7168l-3.4558,9.5625c-.4975,1.3767.469,2.9862,2.1589,3.5949s3.463-.0138,3.96-1.39l3.4557-9.5625Z"/><ellipse class="cls-31" cx="1727.066" cy="450.0049" rx="7.786" ry="7.7736"/><path class="cls-26" d="M1735.0526,487.9163s-5.4553-15.65-6.9125-20.9645,3.7411-10.2033,8.3034-11.45,11.1317-.39,12.5369,4.734l9.3024,33.9247Z"/><path class="cls-31" d="M1727.7318,455.8948l5.32,5.1943c.7659.7478,2.405.3146,3.6611-.9678s1.6534-2.928.8875-3.6759l-5.32-5.1943Z"/><rect class="cls-31" x="1745.5075" y="475.8027" width="5.358" height="9.4743" transform="translate(-32.7347 140.8424) rotate(-4.5708)"/><ellipse class="cls-31" cx="1748.5652" cy="485.2618" rx="2.679" ry="2.6747"/><polygon class="cls-31" points="1745.91 484.905 1751.1 486.126 1745.852 501.931 1743.828 501.455 1745.91 484.905"/><ellipse class="cls-31" cx="1748.5652" cy="485.2618" rx="2.679" ry="2.6747"/><path class="cls-31" d="M1746.7329,499.3684a2.28,2.28,0,1,1-3.2227-.1633A2.2754,2.2754,0,0,1,1746.7329,499.3684Z"/><path class="cls-15" d="M1745.9726,463.1011a3.2475,3.2475,0,0,0-2.861,3.672l1.8174,13.0961c.1622,1.4546,1.7411,2.4728,3.5265,2.2743s3.1013-1.5387,2.939-2.9933l-1.8412-13.2681a3.2506,3.2506,0,0,0-3.5807-2.781Z"/><path class="cls-30" d="M1723.6937,442.3079c-3.5711,1.5046-5.31,4.9485-6.144,8.092a2.6929,2.6929,0,0,0,3.3512,3.274l8.1291-2.3366a2.5225,2.5225,0,1,1,4.9772.7863l1.4623.2311a8.5631,8.5631,0,0,0-.2443-5.0941A8.7029,8.7029,0,0,0,1723.6937,442.3079Z"/><path class="cls-29" d="M1793.8629,493.2531l132.63,76.4517a8.2422,8.2422,0,0,0,8.2307,0l8.5105-4.9057a2.8046,2.8046,0,0,0,0-4.8615l-132.6295-76.4517a8.2424,8.2424,0,0,0-8.2308,0l-8.51,4.9057A2.8045,2.8045,0,0,0,1793.8629,493.2531Z"/><path class="cls-32" d="M1865.1109,541.8554l25.3128-14.5911a2.78,2.78,0,0,0,1.4056-2.4307v-6.3805l-30.8338,17.7735v6.73A8.2351,8.2351,0,0,0,1865.1109,541.8554Z"/><path class="cls-32" d="M1831.5674,527.2643l25.3128,14.5911a8.235,8.235,0,0,0,4.1153,1.1009v-6.73l-30.8337-17.7735v6.3805A2.78,2.78,0,0,0,1831.5674,527.2643Z"/><path class="cls-16" d="M1831.5674,520.8838l25.3128,14.5911a8.2422,8.2422,0,0,0,8.2307,0l25.3128-14.5911a2.8046,2.8046,0,0,0,0-4.8615l-25.3128-14.591a8.2422,8.2422,0,0,0-8.2307,0l-25.3128,14.591A2.8045,2.8045,0,0,0,1831.5674,520.8838Z"/><path class="cls-16" d="M1942.4142,429.4842a20.7239,20.7239,0,0,0-7.5967-7.5846l-134.8814-77.75a7.0323,7.0323,0,0,0-7.0888,0l-4.1547,2.3949,148.8032,85.7747V556.204l4.1547-2.395a7.0092,7.0092,0,0,0,3.5444-6.1293V439.845A20.6823,20.6823,0,0,0,1942.4142,429.4842Z"/><path class="cls-32" d="M1795.7815,346.5447l134.8814,77.75A20.7154,20.7154,0,0,1,1941.04,442.24V550.0746a7.0888,7.0888,0,0,1-10.6332,6.1293l-134.8815-77.75a20.7157,20.7157,0,0,1-10.3773-17.9454V352.674A7.0888,7.0888,0,0,1,1795.7815,346.5447Z"/><path class="cls-26" d="M1801.1244,355.4067,1925.29,426.9794a18.2662,18.2662,0,0,1,9.15,15.8236v99.1343a6.2507,6.2507,0,0,1-9.376,5.4046l-124.1652-71.5727a18.2662,18.2662,0,0,1-9.15-15.8236V360.8113A6.2507,6.2507,0,0,1,1801.1244,355.4067Z"/><path class="cls-28" d="M1806.9065,380.1957l74.9,43.1749c4.6564,2.6841,6.3157,6.0664,6.3157,10.0041v59.801a3.7706,3.7706,0,0,1-5.6559,3.26l-74.9-43.175a11.0185,11.0185,0,0,1-5.52-9.5452v-59.801C1802.0466,381.0168,1803.8306,378.4226,1806.9065,380.1957Z"/><path class="cls-15" d="M1895.534,431.9434l33.1157,19.0889a7.5713,7.5713,0,0,1,3.7928,6.5589v20.3951a2.5909,2.5909,0,0,1-3.8863,2.24l-33.1158-19.089a7.5712,7.5712,0,0,1-3.7928-6.5588V434.1836A2.5909,2.5909,0,0,1,1895.534,431.9434Z"/><path class="cls-15" d="M1895.534,506.6075l15.4108,8.8833a7.5713,7.5713,0,0,1,3.7928,6.5589v10.358a2.5909,2.5909,0,0,1-3.8863,2.24l-15.4109-8.8833a7.5713,7.5713,0,0,1-3.7928-6.5589v-10.358A2.5909,2.5909,0,0,1,1895.534,506.6075Z"/><polygon class="cls-26" points="1879.502 470.667 1861.157 464.801 1848.09 449.394 1837.456 454.22 1827.732 419.643 1808.719 419.643 1808.719 418.48 1828.615 418.48 1838.211 452.6 1848.409 447.971 1861.831 463.795 1879.858 469.56 1879.502 470.667"/><path class="cls-26" d="M1877.4357,471.1322c.8061,1.7707,2.4645,2.75,3.704,2.1874s1.591-2.4539.7849-4.2245-2.4645-2.75-3.704-2.1874S1876.63,469.3616,1877.4357,471.1322Z"/><path class="cls-26" d="M1859.25,465.317c.8061,1.7707,2.4645,2.75,3.704,2.1874s1.591-2.4539.7849-4.2245-2.4645-2.75-3.704-2.1874S1858.4436,463.5465,1859.25,465.317Z"/><ellipse class="cls-26" cx="1848.2494" cy="448.6828" rx="2.4647" ry="3.5226" transform="translate(-19.3717 808.3125) rotate(-24.5447)"/><path class="cls-17" d="M1846.8451,449.32c.5044,1.1078,1.5419,1.72,2.3175,1.3685s.9954-1.5353.491-2.6431-1.5419-1.7205-2.3174-1.3686S1846.3408,448.2123,1846.8451,449.32Z"/><path class="cls-26" d="M1835.5889,454.4284c.8061,1.7706,2.4645,2.75,3.704,2.1874s1.591-2.454.7849-4.2246-2.4645-2.75-3.704-2.1874S1834.7828,452.6578,1835.5889,454.4284Z"/><ellipse class="cls-26" cx="1828.1734" cy="419.0611" rx="7.8189" ry="11.1746" transform="translate(-8.8821 797.2905) rotate(-24.5445)"/><ellipse class="cls-27" cx="1828.1734" cy="419.0611" rx="6.7817" ry="9.6924" transform="translate(-8.8829 797.2865) rotate(-24.5444)"/><path class="cls-26" d="M1826.7127,419.724c.5246,1.1524,1.6039,1.79,2.4106,1.4236s1.0355-1.5971.5108-2.7494-1.6039-1.79-2.4106-1.4236S1826.1881,418.5717,1826.7127,419.724Z"/><path class="cls-26" d="M1833.1751,416.1241c.5246,1.1524,1.6039,1.79,2.4107,1.4236s1.0354-1.597.5107-2.7494-1.6039-1.79-2.4106-1.4236S1832.6505,414.9718,1833.1751,416.1241Z"/><ellipse class="cls-26" cx="1824.8897" cy="426.697" rx="2.0592" ry="2.943" transform="translate(-12.3535 796.6028) rotate(-24.5441)"/><path class="cls-26" d="M1806.4747,420.08c.8061,1.7706,2.4644,2.75,3.704,2.1874s1.591-2.4539.7849-4.2246-2.4645-2.75-3.7041-2.1874S1805.6686,418.3091,1806.4747,420.08Z"/><path class="cls-25" d="M1891.8531,465.5454c0-.7112.4334-1.038.9677-.73l12.6071,7.2672a2.3113,2.3113,0,0,1,.9672,1.8454c0,.7112-.4334,1.038-.9677.73l-12.6071-7.2671A2.3116,2.3116,0,0,1,1891.8531,465.5454Z"/><path class="cls-15" d="M1898.6656,474.5973c0-.7112.4334-1.0381.9677-.73l12.6071,7.2672a2.3114,2.3114,0,0,1,.9672,1.8454c0,.7112-.4334,1.038-.9677.73l-12.6072-7.2671A2.3112,2.3112,0,0,1,1898.6656,474.5973Z"/><path class="cls-15" d="M1892.1185,479.9458c0-1.972,1.2018-2.8783,2.6833-2.0243l34.9569,20.15a6.4086,6.4086,0,0,1,2.6818,5.1169c0,1.972-1.2017,2.8783-2.6832,2.0243l-34.957-20.15A6.4092,6.4092,0,0,1,1892.1185,479.9458Z"/><path class="cls-15" d="M1847.2746,396.3474c0-1.972,1.2017-2.8784,2.6833-2.0243l79.8008,46a6.4086,6.4086,0,0,1,2.6818,5.1169c0,1.972-1.2017,2.8783-2.6832,2.0243l-79.8009-46A6.4088,6.4088,0,0,1,1847.2746,396.3474Z"/><path class="cls-15" d="M1801.4449,369.93c.0005-1.972,1.2018-2.8783,2.6833-2.0243l36.566,21.0778a6.4088,6.4088,0,0,1,2.6818,5.1169c0,1.972-1.2017,2.8784-2.6832,2.0243l-36.566-21.0777A6.409,6.409,0,0,1,1801.4449,369.93Z"/><path class="cls-15" d="M1892.1185,490.7128c0-1.9721,1.2018-2.8784,2.6833-2.0244l34.9569,20.15a6.4086,6.4086,0,0,1,2.6818,5.1169c0,1.972-1.2017,2.8783-2.6832,2.0243L1894.8,495.83A6.4091,6.4091,0,0,1,1892.1185,490.7128Z"/><path class="cls-15" d="M1907.9842,474.8439c0-.7112.4334-1.0381.9677-.73l3.4617,1.9954a2.3116,2.3116,0,0,1,.9672,1.8454c0,.7112-.4335,1.0381-.9678.73l-3.4616-1.9954A2.3113,2.3113,0,0,1,1907.9842,474.8439Z"/><path class="cls-25" d="M1858.2064,393.85c0-.7112.4334-1.0381.9678-.73l12.6071,7.2672a2.3116,2.3116,0,0,1,.9672,1.8454c0,.7112-.4334,1.038-.9678.73l-12.6071-7.2671A2.3116,2.3116,0,0,1,1858.2064,393.85Z"/><path class="cls-15" d="M1874.3375,403.1484c0-.7112.4334-1.0381.9677-.73l3.4617,1.9954a2.3116,2.3116,0,0,1,.9672,1.8454c0,.7112-.4334,1.0381-.9677.73l-3.4617-1.9954A2.3116,2.3116,0,0,1,1874.3375,403.1484Z"/><path class="cls-26" d="M1849.9579,398.0124c0-.7112.4334-1.038.9677-.73l6.3033,3.6334a2.3112,2.3112,0,0,1,.9671,1.8454c0,.7112-.4334,1.038-.9677.73l-6.3032-3.6334A2.311,2.311,0,0,1,1849.9579,398.0124Z"/><path class="cls-15" d="M1925.2234,433.1193c0-.7112.4334-1.038.9677-.73l3.4617,1.9954a2.3116,2.3116,0,0,1,.9672,1.8454c0,.7112-.4334,1.038-.9678.73l-3.4616-1.9954A2.3113,2.3113,0,0,1,1925.2234,433.1193Z"/><path class="cls-15" d="M1891.8531,470.5826c0-.7112.4334-1.038.9677-.73l3.4617,1.9954a2.3116,2.3116,0,0,1,.9672,1.8454c0,.7112-.4334,1.038-.9678.73l-3.4616-1.9954A2.3116,2.3116,0,0,1,1891.8531,470.5826Z"/><path class="cls-15" d="M1917.3808,520.0028c0-.7112.4334-1.0381.9677-.73l12.6071,7.2671a2.311,2.311,0,0,1,.9672,1.8454c0,.7112-.4334,1.0381-.9677.73l-12.6071-7.2671A2.3116,2.3116,0,0,1,1917.3808,520.0028Z"/><path class="cls-15" d="M1917.3808,529.8427c0-.7112.4334-1.038.9677-.73l12.6071,7.2672a2.311,2.311,0,0,1,.9672,1.8454c0,.7112-.4334,1.038-.9677.73l-12.6071-7.2671A2.3116,2.3116,0,0,1,1917.3808,529.8427Z"/><path class="cls-25" d="M1917.3808,534.88c0-.7112.4334-1.038.9677-.73l7.6283,4.3972a2.3107,2.3107,0,0,1,.9672,1.8454c0,.7112-.4334,1.038-.9677.73l-7.6283-4.3972A2.3116,2.3116,0,0,1,1917.3808,534.88Z"/><path class="cls-15" d="M1924.1933,529.0546c0-.7111.4334-1.038.9677-.73l5.4618,3.1484a2.311,2.311,0,0,1,.9672,1.8454c0,.7112-.4334,1.038-.9677.73l-5.4618-3.1483A2.3115,2.3115,0,0,1,1924.1933,529.0546Z"/><path class="cls-25" d="M1917.3808,525.04c0-.7112.4334-1.0381.9677-.73l3.4617,1.9954a2.3116,2.3116,0,0,1,.9672,1.8454c0,.7112-.4334,1.0381-.9677.73l-3.4617-1.9954A2.3116,2.3116,0,0,1,1917.3808,525.04Z"/><path class="cls-15" d="M1822.7144,465.1491l15.4109,8.8833a7.5713,7.5713,0,0,1,3.7928,6.5588v10.3581a2.5909,2.5909,0,0,1-3.8864,2.24l-15.4108-8.8833a7.5713,7.5713,0,0,1-3.7928-6.5589v-10.358A2.5909,2.5909,0,0,1,1822.7144,465.1491Z"/><path class="cls-25" d="M1844.5613,478.5444c0-.7113.4334-1.0381.9677-.73l12.6071,7.2671a2.3116,2.3116,0,0,1,.9672,1.8454c0,.7112-.4334,1.0381-.9677.73l-12.6071-7.2671A2.3116,2.3116,0,0,1,1844.5613,478.5444Z"/><path class="cls-15" d="M1844.5613,488.3843c0-.7112.4334-1.0381.9677-.73l12.6071,7.2672a2.3116,2.3116,0,0,1,.9672,1.8454c0,.7112-.4334,1.038-.9677.73l-12.6071-7.2671A2.3116,2.3116,0,0,1,1844.5613,488.3843Z"/><path class="cls-15" d="M1844.5613,493.4215c0-.7112.4334-1.038.9677-.73l7.6283,4.3972a2.311,2.311,0,0,1,.9672,1.8453c0,.7112-.4334,1.0381-.9677.73l-7.6283-4.3972A2.3116,2.3116,0,0,1,1844.5613,493.4215Z"/><path class="cls-25" d="M1851.3738,487.5962c0-.7112.4334-1.038.9677-.73l5.4618,3.1484a2.3113,2.3113,0,0,1,.9672,1.8454c0,.7112-.4334,1.038-.9677.73l-5.4618-3.1484A2.3109,2.3109,0,0,1,1851.3738,487.5962Z"/><path class="cls-15" d="M1844.5613,483.5816c0-.7112.4334-1.0381.9677-.73l3.4617,1.9954a2.3116,2.3116,0,0,1,.9672,1.8454c0,.7112-.4334,1.0381-.9678.73l-3.4616-1.9954A2.3116,2.3116,0,0,1,1844.5613,483.5816Z"/><path class="cls-15" d="M1898.6656,503.3506c0-.7112.4334-1.0381.9677-.73l12.6071,7.2671a2.3116,2.3116,0,0,1,.9672,1.8454c0,.7112-.4334,1.0381-.9677.73l-12.6072-7.2671A2.3112,2.3112,0,0,1,1898.6656,503.3506Z"/><path class="cls-15" d="M1891.8531,499.3359c0-.7112.4334-1.0381.9677-.73l3.4617,1.9954a2.3116,2.3116,0,0,1,.9672,1.8454c0,.7112-.4334,1.0381-.9678.73l-3.4616-1.9954A2.3116,2.3116,0,0,1,1891.8531,499.3359Z"/><polygon class="cls-26" points="1878.331 456.404 1878.331 435.103 1881.807 437.107 1881.807 458.408 1878.331 456.404"/><polygon class="cls-26" points="1872.57 451.801 1872.57 437.707 1876.047 439.711 1876.047 453.805 1872.57 451.801"/><polygon class="cls-26" points="1866.81 448.481 1866.81 439.242 1870.286 441.246 1870.286 450.484 1866.81 448.481"/><polygon class="cls-26" points="1861.05 445.16 1861.05 439.24 1864.526 441.244 1864.526 447.164 1861.05 445.16"/><polygon class="cls-26" points="1855.289 441.84 1855.289 439.28 1858.766 441.284 1858.766 443.844 1855.289 441.84"/><path class="cls-40" d="M1793.6471,634.1842l34.9435-20.1746a4.2931,4.2931,0,0,0,0-7.436l-58.8058-33.9516a10.5934,10.5934,0,0,0-10.5933,0l-34.9435,20.1747a4.2932,4.2932,0,0,0,0,7.436l58.8058,33.9515A10.5929,10.5929,0,0,0,1793.6471,634.1842Z"/><path class="cls-41" d="M1793.6471,632.54l34.9435-20.1747a4.2931,4.2931,0,0,0,0-7.436l-58.8058-33.9515a10.5934,10.5934,0,0,0-10.5933,0l-34.9435,20.1746a4.2933,4.2933,0,0,0,0,7.4361l58.8058,33.9515A10.5934,10.5934,0,0,0,1793.6471,632.54Z"/><ellipse class="cls-16" cx="1763.3003" cy="593.8581" rx="22.8615" ry="14.124"/><g class="cls-42"><path class="cls-43" d="M1628.0731,865.6207l34.1149,19.6649a18.3888,18.3888,0,0,0,18.3632,0l35.5923-20.5165a6.257,6.257,0,0,0,0-10.8462l-34.1149-19.6649a18.3885,18.3885,0,0,0-18.3633,0l-35.5922,20.5165A6.257,6.257,0,0,0,1628.0731,865.6207Z"/></g><path class="cls-15" d="M1605.8069,811.7143l4.1028-7.095,44.5027-25.6528,52.4587-30.2389a9.8739,9.8739,0,0,0,4.9464-8.5536V677.9462l4.0274-6.9647-6.3186-3.6422a3.6245,3.6245,0,0,0-3.6538,0l-103.3424,59.57a9.8742,9.8742,0,0,0-4.9464,8.5536v69.408a3.6137,3.6137,0,0,0,1.9047,3.2009Z"/><path class="cls-25" d="M1712.1912,670.9815l-103.3424,59.57a9.8739,9.8739,0,0,0-4.9463,8.5536v69.408a3.6538,3.6538,0,0,0,5.4807,3.1592l103.3424-59.57a9.8739,9.8739,0,0,0,4.9464-8.5536v-69.408A3.6538,3.6538,0,0,0,1712.1912,670.9815Z"/><path class="cls-16" d="M1700.3489,681.2615l-78.2347,45.0969a8.2375,8.2375,0,0,0-4.1266,7.136v64.8443a3.234,3.234,0,0,0,4.8509,2.7962l78.2348-45.0969a8.2377,8.2377,0,0,0,4.1265-7.136V684.0576A3.2339,3.2339,0,0,0,1700.3489,681.2615Z"/><path class="cls-28" d="M1665.6928,753.61c0-1.9571-1.1926-2.8566-2.6629-2.0091l-34.6927,19.998a6.3605,6.3605,0,0,0-2.6615,5.0782c0,1.9571,1.1927,2.8565,2.663,2.009l34.6926-19.9979A6.36,6.36,0,0,0,1665.6928,753.61Z"/><path class="cls-28" d="M1690.7637,713.9173l-12.45,7.1764a11.5246,11.5246,0,0,0-5.7731,9.9834v15.7661a3.9437,3.9437,0,0,0,5.9155,3.41l12.45-7.1764a11.5244,11.5244,0,0,0,5.7731-9.9833V717.3272A3.9436,3.9436,0,0,0,1690.7637,713.9173Z"/><path class="cls-28" d="M1652.2967,719.5948c0-1.0825-.66-1.58-1.4729-1.1112l-19.19,11.0614a3.5185,3.5185,0,0,0-1.4722,2.809c0,1.0825.66,1.58,1.473,1.1112l19.19-11.0614A3.5181,3.5181,0,0,0,1652.2967,719.5948Z"/><path class="cls-28" d="M1652.2967,734.5724c0-1.0825-.66-1.58-1.4729-1.1112l-19.19,11.0614a3.5183,3.5183,0,0,0-1.4722,2.809c0,1.0825.66,1.58,1.473,1.1112l19.19-11.0615A3.5179,3.5179,0,0,0,1652.2967,734.5724Z"/><path class="cls-28" d="M1652.2967,742.24c0-1.0826-.66-1.58-1.4729-1.1113l-11.6112,6.6931a3.5183,3.5183,0,0,0-1.4722,2.8089c0,1.0825.66,1.58,1.473,1.1113l11.6112-6.6931A3.5179,3.5179,0,0,0,1652.2967,742.24Z"/><path class="cls-28" d="M1641.9273,733.3729c0-1.0825-.66-1.58-1.473-1.1112l-8.3135,4.7922a3.5183,3.5183,0,0,0-1.4722,2.8089c0,1.0825.66,1.58,1.473,1.1112l8.3136-4.7922A3.5182,3.5182,0,0,0,1641.9273,733.3729Z"/><path class="cls-28" d="M1652.2967,727.2621c0-1.0825-.66-1.58-1.4729-1.1112l-5.2691,3.0372a3.5183,3.5183,0,0,0-1.4722,2.8089c0,1.0826.66,1.58,1.473,1.1113l5.2691-3.0373A3.5179,3.5179,0,0,0,1652.2967,727.2621Z"/><ellipse class="cls-28" cx="1684.61" cy="706.382" rx="9.9347" ry="6.6292" transform="translate(-6.0767 1398.0937) rotate(-45)"/><path class="cls-15" d="M1681.29,869.621l35.5923-20.5165a6.2014,6.2014,0,0,0,3.136-5.4231V829.4462l-47.91,27.6168v15.0143A18.3732,18.3732,0,0,0,1681.29,869.621Z"/><path class="cls-15" d="M1628.8117,849.9561l34.115,19.6649a18.3732,18.3732,0,0,0,9.1816,2.4563V857.063l-46.4326-26.7652V844.533A6.2019,6.2019,0,0,0,1628.8117,849.9561Z"/><path class="cls-26" d="M1628.8117,835.7209l34.115,19.6649a18.3883,18.3883,0,0,0,18.3632,0l35.5923-20.5165a6.257,6.257,0,0,0,0-10.8462l-34.115-19.6649a18.3883,18.3883,0,0,0-18.3632,0l-35.5923,20.5165A6.257,6.257,0,0,0,1628.8117,835.7209Z"/><ellipse class="cls-29" cx="1669.5446" cy="824.4674" rx="13.691" ry="7.6039"/><path class="cls-30" d="M1667.164,828.9648l-4.6942-2.7059a2.201,2.201,0,0,1-.8052-3h0a2.2083,2.2083,0,0,1,3.005-.8039l4.6943,2.7059a2.2009,2.2009,0,0,1,.8052,3h0A2.2084,2.2084,0,0,1,1667.164,828.9648Z"/><path class="cls-30" d="M1673.9628,824.773l-4.6942-2.7059a2.2009,2.2009,0,0,1-.8052-3h0a2.2082,2.2082,0,0,1,3.005-.8039l4.6943,2.7059a2.2008,2.2008,0,0,1,.8051,3h0A2.2082,2.2082,0,0,1,1673.9628,824.773Z"/><path class="cls-31" d="M1677.113,751.7645a2.0634,2.0634,0,0,0,4.1267,0c0-1.1378-1.5987-2.0108-2.7383-2.0108S1677.113,750.6268,1677.113,751.7645Z"/><path class="cls-31" d="M1652.7126,757.1679a2.063,2.063,0,0,0,3.9172,1.296,2.6669,2.6669,0,0,0-1.6246-2.964C1653.9235,755.142,1653.0711,756.0879,1652.7126,757.1679Z"/><path class="cls-30" d="M1655.1,758.093l1.5326-.6336,5.7088,12.1626,4.3962,3.3064,7.5375-.5775,2.944-20.9429,2.3362,1.3375c1.2484.7147.8063,2.1906.402,3.57l-.3878,21.9546.5383,15.9885-1.4652,4.4064-1.7094,23.3125a2.0753,2.0753,0,0,1-1.9157,1.9165l-1.0144.0761a2.0757,2.0757,0,0,1-2.2316-2.0016l-.6028-18.847-1.1318,22.6846a2.0756,2.0756,0,0,1-2.0736,1.9559h0a2.0816,2.0816,0,0,1-2.0714-1.9222l-1.8712-28.3264-.4781-1.5091-.5554-16.9542-4.384-6.4174-2.5055-6.15-2.0809-5.1074A2.2787,2.2787,0,0,1,1655.1,758.093Z"/><path class="cls-44" d="M1678.6425,798.6645s-9.0076,3.3777-14.6219-1.1516l.229,3.4667S1675.4411,803.2482,1678.6425,798.6645Z"/><path class="cls-26" d="M1674.275,772.3509a1.7587,1.7587,0,0,1,0,2.4675c-1.1233,1.4331-4.4931,1.62-5.7413.4985s0-3.52,0-3.52Z"/><ellipse class="cls-31" cx="1671.1686" cy="768.3522" rx="3.8002" ry="5.296"/><path class="cls-45" d="M1669.0238,768.3522c0,3.4608,1.8728,3.8914,3.9283,3.4444,2.7417-.5963,3.2972-1.99,3.2972-5.4505s-6.1814-5.64-8.55-3.29C1665.709,765.0312,1669.0238,764.8914,1669.0238,768.3522Z"/><rect class="cls-46" x="1535.8777" y="677.2291" width="3.0485" height="78.2921"/><rect class="cls-46" x="1443.2572" y="648.1901" width="3.0485" height="78.2921"/><rect class="cls-46" x="1455.1897" y="650.2714" width="3.0485" height="78.2921"/><rect class="cls-46" x="1423.5052" y="645.8542" width="3.0485" height="78.2921"/><rect class="cls-46" x="1576.3981" y="654.9324" width="3.0485" height="64.8534"/><rect class="cls-46" x="1584.7839" y="650.2714" width="3.0485" height="69.195"/><path class="cls-15" d="M1496.183,702.98l-83.5258-48.1468a9.1723,9.1723,0,0,1-4.6382-8.0208V625.7584l101.7437,58.6483v22.2062A27.1741,27.1741,0,0,1,1496.183,702.98Z"/><path class="cls-15" d="M1606.868,654.8333,1523.3423,702.98a27.174,27.174,0,0,1-13.58,3.6328V684.4067l101.7436-58.6483v21.0541A9.1724,9.1724,0,0,1,1606.868,654.8333Z"/><path class="cls-26" d="M1606.8681,633.7793l-83.5258,48.1468a27.1964,27.1964,0,0,1-27.1593,0l-83.5258-48.1468a9.2543,9.2543,0,0,1,0-16.0416l83.5258-48.1468a27.1969,27.1969,0,0,1,27.1593,0l83.5258,48.1468A9.2543,9.2543,0,0,1,1606.8681,633.7793Z"/><path class="cls-29" d="M1606.8681,633.7793l-83.5258,48.1468a27.1964,27.1964,0,0,1-27.1593,0l-83.5258-48.1468a9.2543,9.2543,0,0,1,0-16.0416l83.5258-48.1468a27.1969,27.1969,0,0,1,27.1593,0l83.5258,48.1468A9.2543,9.2543,0,0,1,1606.8681,633.7793Z"/><path class="cls-15" d="M1496.183,668.7473,1412.6572,620.6a9.1722,9.1722,0,0,1-4.6382-8.0208v-21.054l101.7437,58.6483V672.38A27.1741,27.1741,0,0,1,1496.183,668.7473Z"/><path class="cls-15" d="M1606.868,620.6l-83.5257,48.1469a27.174,27.174,0,0,1-13.58,3.6328V650.1739l101.7436-58.6483V612.58A9.1723,9.1723,0,0,1,1606.868,620.6Z"/><path class="cls-26" d="M1606.8681,599.5465l-83.5258,48.1468a27.1969,27.1969,0,0,1-27.1593,0l-83.5258-48.1468a9.2544,9.2544,0,0,1,0-16.0417l83.5258-48.1468a27.1969,27.1969,0,0,1,27.1593,0l83.5258,48.1468A9.2544,9.2544,0,0,1,1606.8681,599.5465Z"/><path class="cls-29" d="M1606.8681,599.5465l-83.5258,48.1468a27.1969,27.1969,0,0,1-27.1593,0l-83.5258-48.1468a9.2544,9.2544,0,0,1,0-16.0417l83.5258-48.1468a27.1969,27.1969,0,0,1,27.1593,0l83.5258,48.1468A9.2544,9.2544,0,0,1,1606.8681,599.5465Z"/><path class="cls-15" d="M1496.183,634.5144l-83.5258-48.1468a9.1723,9.1723,0,0,1-4.6382-8.0208v-21.054l101.7437,58.6482v22.2062A27.1741,27.1741,0,0,1,1496.183,634.5144Z"/><path class="cls-15" d="M1606.868,586.3676l-83.5257,48.1468a27.174,27.174,0,0,1-13.58,3.6328V615.941l101.7436-58.6482v21.054A9.1724,9.1724,0,0,1,1606.868,586.3676Z"/><path class="cls-26" d="M1606.8681,565.3136l-83.5258,48.1469a27.1969,27.1969,0,0,1-27.1593,0l-83.5258-48.1469a9.2543,9.2543,0,0,1,0-16.0416l83.5258-48.1468a27.1969,27.1969,0,0,1,27.1593,0l83.5258,48.1468A9.2543,9.2543,0,0,1,1606.8681,565.3136Z"/><ellipse class="cls-34" cx="1484.4107" cy="617.9835" rx="4.9982" ry="6.8366" transform="translate(-109.6442 828.6203) rotate(-30.1301)"/><ellipse class="cls-34" cx="1468.29" cy="608.691" rx="4.9982" ry="6.8366" transform="translate(-107.1578 819.2723) rotate(-30.1301)"/><ellipse class="cls-34" cx="1452.1693" cy="599.3985" rx="4.9982" ry="6.8366" transform="translate(-104.6699 809.9356) rotate(-30.1305)"/><ellipse class="cls-34" cx="1484.4107" cy="651.9474" rx="4.9982" ry="6.8366" transform="translate(-126.6919 833.2172) rotate(-30.1304)"/><ellipse class="cls-34" cx="1468.29" cy="642.6549" rx="4.9982" ry="6.8366" transform="translate(-124.2059 823.8668) rotate(-30.1303)"/><ellipse class="cls-34" cx="1484.4107" cy="685.9816" rx="4.9982" ry="6.8366" transform="translate(-143.7769 837.8077) rotate(-30.1301)"/><ellipse class="cls-34" cx="1452.1693" cy="667.3967" rx="4.9982" ry="6.8366" transform="translate(-138.8031 819.1232) rotate(-30.1305)"/><path class="cls-30" d="M1509.9236,467.6641c-16.409,0-29.7115,8.5914-29.7115,19.19v34.4511c0,10.5982,13.3025,19.19,29.7115,19.19s29.7112-8.5914,29.7112-19.19V486.8537C1539.6348,476.2555,1526.3327,467.6641,1509.9236,467.6641Z"/><path class="cls-34" d="M1486.3681,484.7776c0-17.4594-47.8452-29.5022-48.8294-82.3731-.8992-48.3013,37.3164-67.0478,72.3849-67.0478s73.2841,20.3059,73.2841,67.0478-48.2831,62.86-48.2831,82.3731S1486.3681,502.2369,1486.3681,484.7776Z"/><path class="cls-17" d="M1447.5053,601.478a10.1326,10.1326,0,0,1-5.08-1.3783,10.0239,10.0239,0,0,1-5.0627-8.7663V548.4768a36.5932,36.5932,0,0,1,18.28-31.612l28.3611-16.3481a.8154.8154,0,0,1,.8144,1.4128l-28.3611,16.3481a34.958,34.958,0,0,0-17.4637,30.1992v42.8566a8.5123,8.5123,0,0,0,12.7688,7.3587.8154.8154,0,1,1,.8144,1.4128A10.1335,10.1335,0,0,1,1447.5053,601.478Z"/><path class="cls-17" d="M1479.5881,620.6752a10.132,10.132,0,0,1-5.08-1.3783,10.0239,10.0239,0,0,1-5.0627-8.7662V567.674a36.5933,36.5933,0,0,1,18.28-31.612l25.8482-14.9a.8154.8154,0,0,1,.8144,1.4128l-25.8482,14.9a34.9579,34.9579,0,0,0-17.4638,30.1991v42.8567a8.5124,8.5124,0,0,0,12.769,7.3586.8154.8154,0,0,1,.8144,1.4129A10.1342,10.1342,0,0,1,1479.5881,620.6752Z"/><path class="cls-17" d="M1469.9573,692.6531a18.3071,18.3071,0,0,1-9.1516-2.452l-9.0437-5.213a10.5563,10.5563,0,0,1,0-18.2978.8154.8154,0,1,1,.8144,1.4128,8.9254,8.9254,0,0,0,0,15.4721l9.0437,5.2131a16.6748,16.6748,0,0,0,17.1-.2547l5.2622-3.246a.8154.8154,0,1,1,.8561,1.388l-5.2622,3.246A18.3077,18.3077,0,0,1,1469.9573,692.6531Z"/><path class="cls-17" d="M1471.3966,657.997a15.5839,15.5839,0,0,1-7.2559-1.7994,6.8229,6.8229,0,0,1-.236-11.956l3.9782-2.2932a.8154.8154,0,0,1,.8144,1.4129l-3.9782,2.2932a5.1922,5.1922,0,0,0,.18,9.0994,13.8992,13.8992,0,0,0,13.4706-.2652l5.6343-3.2477a.8154.8154,0,0,1,.8144,1.4128l-5.6343,3.2478A15.572,15.572,0,0,1,1471.3966,657.997Z"/><path class="cls-17" d="M1394.0512,698.6724h-3.0485V650.2058a45.3233,45.3233,0,0,0-22.72-39.2218l-75.8069-43.4782a40.0547,40.0547,0,0,1-20.0788-34.6627V507.5418h3.0485v25.3013a36.9986,36.9986,0,0,0,18.5469,32.0183L1369.8,608.34a48.3787,48.3787,0,0,1,24.2515,41.8662Z"/><path class="cls-47" d="M1273.638,533.8208l69.2575-39.9222a7.6053,7.6053,0,0,0,3.8459-6.6506V469.7905l-84.3633,48.63V536.833A22.5328,22.5328,0,0,0,1273.638,533.8208Z"/><path class="cls-48" d="M1181.8607,493.8986l69.2574,39.9222a22.5332,22.5332,0,0,0,11.26,3.0122V518.42l-84.3633-48.63V487.248A7.6053,7.6053,0,0,0,1181.8607,493.8986Z"/><path class="cls-49" d="M1181.8607,476.4412l69.2574,39.9221a22.5509,22.5509,0,0,0,22.52,0l69.2575-39.9221a7.6734,7.6734,0,0,0,0-13.3013l-69.2575-39.9222a22.5509,22.5509,0,0,0-22.52,0L1181.8607,463.14A7.6734,7.6734,0,0,0,1181.8607,476.4412Z"/><polygon class="cls-28" points="1231.589 373.56 1231.589 426.479 1323.76 479.61 1323.76 426.69 1231.589 373.56"/><polygon class="cls-27" points="1307.483 423.91 1307.483 437.67 1293.258 429.032 1293.258 415.71 1307.483 423.91"/><polygon class="cls-27" points="1287.118 419.701 1287.118 433.461 1277.819 427.663 1277.819 414.341 1287.118 419.701"/><polygon class="cls-15" points="1299.984 449.778 1284.686 444.887 1273.788 432.038 1264.921 436.062 1256.811 407.227 1240.956 407.227 1240.956 406.257 1257.548 406.257 1265.55 434.711 1274.055 430.851 1285.248 444.048 1300.281 448.855 1299.984 449.778"/><path class="cls-15" d="M1298.2611,450.1661c.6722,1.4765,2.0552,2.2932,3.0889,1.8241s1.3268-2.0464.6545-3.523-2.0552-2.2933-3.0889-1.8241S1297.5888,448.69,1298.2611,450.1661Z"/><path class="cls-15" d="M1283.0952,445.3166c.6722,1.4765,2.0552,2.2933,3.0889,1.8241s1.3268-2.0464.6545-3.523-2.0551-2.2932-3.0889-1.8241S1282.423,443.84,1283.0952,445.3166Z"/><path class="cls-15" d="M1272.05,432.2941c.6722,1.4766,2.0552,2.2933,3.0889,1.8242s1.3267-2.0464.6545-3.523-2.0552-2.2933-3.0889-1.8241S1271.3777,430.8176,1272.05,432.2941Z"/><path class="cls-15" d="M1263.3637,436.2362c.6722,1.4765,2.0552,2.2932,3.0889,1.8241s1.3268-2.0464.6545-3.523-2.0552-2.2933-3.0889-1.8241S1262.6915,434.76,1263.3637,436.2362Z"/><ellipse class="cls-15" cx="1257.1797" cy="406.7422" rx="6.5204" ry="9.3189" transform="translate(-55.3613 558.9794) rotate(-24.5442)"/><path class="cls-15" d="M1239.0844,407.5917c.6722,1.4765,2.0552,2.2932,3.0889,1.8241s1.3267-2.0464.6545-3.523-2.0552-2.2932-3.0889-1.8241S1238.4121,406.1151,1239.0844,407.5917Z"/><polygon class="cls-31" points="1227.49 409.445 1225.292 404.937 1217.295 408.823 1219.493 413.332 1227.49 409.445"/><path class="cls-31" d="M1227.49,409.4452a2.5079,2.5079,0,1,0-3.3569-1.157A2.5052,2.5052,0,0,0,1227.49,409.4452Z"/><polygon class="cls-31" points="1224.43 405.625 1228.619 408.348 1235.954 394.565 1234.32 393.503 1224.43 405.625"/><path class="cls-31" d="M1224.2869,405.8229a2.51,2.51,0,1,0,3.4746-.7329A2.5047,2.5047,0,0,0,1224.2869,405.8229Z"/><circle class="cls-31" cx="1234.7248" cy="394.6853" r="2.1353" transform="translate(838.4655 1628.9058) rotate(-89.9269)"/><rect class="cls-30" x="1211.7715" y="433.0106" width="14.8667" height="16.8805" transform="translate(2438.4097 882.9017) rotate(180)"/><path class="cls-50" d="M1211.4363,410.3663l8.7963-3.6971a3.1073,3.1073,0,0,1,2.3658,5.6112l-8.7963,3.697Z"/><path class="cls-30" d="M1211.8091,481.0652l6.6379-3.8263a2.1871,2.1871,0,0,0,.8-2.9815l-.51-.8826a2.1944,2.1944,0,0,0-2.9862-.7989l-6.638,3.8264a2.187,2.187,0,0,0-.8,2.9814l.51.8826A2.1944,2.1944,0,0,0,1211.8091,481.0652Z"/><rect class="cls-31" x="1211.2122" y="430.6174" width="8.308" height="22.4103" transform="translate(2430.7323 883.6452) rotate(180)"/><ellipse class="cls-31" cx="1215.3661" cy="453.0278" rx="4.154" ry="4.1474"/><path class="cls-31" d="M1219.3512,454.1979l-8.1213-1.5467-2.4116,24.0749a1.7756,1.7756,0,0,0,1.4359,1.92h0a1.7781,1.7781,0,0,0,2.0343-1.2279Z"/><ellipse class="cls-31" cx="1215.3661" cy="453.0278" rx="4.154" ry="4.1474"/><path class="cls-30" d="M1219.2093,485.7868l6.6379-3.8264a2.187,2.187,0,0,0,.8-2.9814l-.51-.8827a2.1943,2.1943,0,0,0-2.9862-.7988l-6.638,3.8263a2.187,2.187,0,0,0-.8,2.9814l.51.8827A2.1945,2.1945,0,0,0,1219.2093,485.7868Z"/><rect class="cls-31" x="1218.6124" y="435.3389" width="8.308" height="22.4103" transform="translate(2445.5327 893.0882) rotate(180)"/><ellipse class="cls-31" cx="1222.7664" cy="457.7493" rx="4.154" ry="4.1474"/><path class="cls-31" d="M1226.7514,458.9194l-8.1214-1.5467-2.4115,24.0749a1.7756,1.7756,0,0,0,1.4359,1.92h0a1.7781,1.7781,0,0,0,2.0343-1.2278Z"/><path class="cls-31" d="M1226.8468,458.5264a4.1538,4.1538,0,1,0-4.8588,3.2968A4.1477,4.1477,0,0,0,1226.8468,458.5264Z"/><ellipse class="cls-31" cx="1216.5041" cy="393.2608" rx="7.3754" ry="7.3636"/><path class="cls-16" d="M1227.7894,413.2769c-.8539-6.1855-5.9116-8.3-10.3453-8.3s-9.1843,4.4127-9.8645,9.3461c-1.0246,7.4308,3.4086,9.6206,2.94,18.7673-.6576,12.8245-3.0939,27.3921-3.0939,27.3921l26.421,6.1268S1231.4205,439.5787,1227.7894,413.2769Z"/><path class="cls-31" d="M1219.5184,399.3213l.0322,6.9634c.0047,1.0025-1.3565,1.8215-3.04,1.8293s-3.0527-.7986-3.0573-1.8012l-.0323-6.9633Z"/><polygon class="cls-31" points="1228.443 427.599 1233.017 425.529 1229.347 417.44 1224.772 419.51 1228.443 427.599"/><path class="cls-31" d="M1228.4429,427.5985a2.51,2.51,0,1,0,1.2509-3.3183A2.5127,2.5127,0,0,0,1228.4429,427.5985Z"/><polygon class="cls-31" points="1232.352 424.65 1229.511 428.755 1243.108 436.455 1244.217 434.854 1232.352 424.65"/><path class="cls-31" d="M1232.1579,424.5014a2.5084,2.5084,0,1,0,.638,3.4879A2.5136,2.5136,0,0,0,1232.1579,424.5014Z"/><path class="cls-31" d="M1240.8827,435.2256a2.1387,2.1387,0,1,0,2.1387-2.1353A2.1371,2.1371,0,0,0,1240.8827,435.2256Z"/><path class="cls-16" d="M1227.5943,411.6964l3.6674,8.7972a3.1121,3.1121,0,0,1-5.63,2.3394l-3.6674-8.7971Z"/><path class="cls-32" d="M1216.0283,385.0168a5.3112,5.3112,0,0,1,4.4731,7.0064,2.3081,2.3081,0,0,0-2.3531,3.8593,6.3655,6.3655,0,1,1-2.12-10.8657Z"/><ellipse class="cls-30" cx="1209.8169" cy="397.0094" rx="3.312" ry="3.3068"/><ellipse class="cls-32" cx="1208.2125" cy="401.2545" rx="4.252" ry="4.2452"/><ellipse class="cls-32" cx="1206.9002" cy="406.2766" rx="5.9036" ry="5.8942"/><path class="cls-30" d="M1248.91,511.7762l6.638-3.8263a2.1872,2.1872,0,0,0,.8-2.9815l-.51-.8826a2.1944,2.1944,0,0,0-2.9862-.7989l-6.638,3.8263a2.187,2.187,0,0,0-.8,2.9815l.51.8826A2.1944,2.1944,0,0,0,1248.91,511.7762Z"/><path class="cls-30" d="M1242.4149,506.21l6.638-3.8263a2.1873,2.1873,0,0,0,.8-2.9815l-.51-.8826a2.1945,2.1945,0,0,0-2.9863-.7989l-6.6379,3.8263a2.1872,2.1872,0,0,0-.8,2.9815l.51.8826A2.1944,2.1944,0,0,0,1242.4149,506.21Z"/><rect class="cls-30" x="1241.472" y="459" width="14.8667" height="16.8805" transform="translate(2497.8108 934.8806) rotate(180)"/><rect class="cls-31" x="1235.3891" y="439.5274" width="5.0218" height="8.8812" transform="translate(2338.6419 1163.6008) rotate(-166.5547)"/><path class="cls-31" d="M1234.4223,447.7023a2.5109,2.5109,0,1,0,3.0268-1.8543A2.5069,2.5069,0,0,0,1234.4223,447.7023Z"/><polygon class="cls-31" points="1239.321 447.768 1234.555 449.27 1241.584 468.37 1243.443 467.784 1239.321 447.768"/><path class="cls-31" d="M1239.2591,447.5319a2.5107,2.5107,0,1,0-1.6393,3.1452A2.5118,2.5118,0,0,0,1239.2591,447.5319Z"/><path class="cls-31" d="M1240.5818,466.0356a2.1374,2.1374,0,1,0,3.0011-.3764A2.133,2.133,0,0,0,1240.5818,466.0356Z"/><path class="cls-26" d="M1243.1821,438.0421l-2.0033,5.8253a3.1125,3.1125,0,0,1-5.8439-1.7383l2.0033-5.8254Z"/><rect class="cls-30" x="1248.313" y="461.3284" width="8.3079" height="22.4103" transform="translate(2504.9339 945.0671) rotate(180)"/><ellipse class="cls-30" cx="1252.4669" cy="483.7387" rx="4.154" ry="4.1474"/><rect class="cls-30" x="1237.3179" y="456.2351" width="8.308" height="22.4103" transform="translate(2482.9437 934.8806) rotate(180)"/><ellipse class="cls-30" cx="1241.4719" cy="478.6455" rx="4.154" ry="4.1474"/><path class="cls-30" d="M1245.6059,479.0494h-8.2677l2.1493,24.1a1.7766,1.7766,0,0,0,1.7708,1.6176h0a1.7767,1.7767,0,0,0,1.7678-1.5866Z"/><ellipse class="cls-30" cx="1241.4719" cy="478.6455" rx="4.154" ry="4.1474"/><path class="cls-30" d="M1256.4519,484.9089l-8.1213-1.5467-2.4115,24.0749a1.7754,1.7754,0,0,0,1.4359,1.92h0a1.7781,1.7781,0,0,0,2.0343-1.2278Z"/><ellipse class="cls-30" cx="1252.4669" cy="483.7387" rx="4.154" ry="4.1474"/><ellipse class="cls-31" cx="1244.0347" cy="421.5901" rx="7.298" ry="7.2864"/><path class="cls-26" d="M1257.49,466.1951V439.2663c0-5.1644-5.9116-8.3-10.3453-8.3s-10.1606,2.3977-10.1606,7.3777v22.871Z"/><path class="cls-31" d="M1246.574,425.6927l1.5292,6.794c.22.9781-.9331,2.07-2.576,2.4385s-3.1532-.1255-3.3733-1.1037l-1.5293-6.794Z"/><path class="cls-32" d="M1246.7417,420.7085s7.9083-6.76,3.82-8.8318-5.452,2.4032-5.452,2.4032Z"/><path class="cls-16" d="M1242.3154,413.7755a5.2556,5.2556,0,0,1,4.4263,6.933,2.2839,2.2839,0,0,0-2.3285,3.8188,6.2987,6.2987,0,1,1-2.0978-10.7518Z"/><path class="cls-15" d="M1246.8958,469.2781l1.2175.7784a3.0991,3.0991,0,0,0,4.2772-.936l16.5346-25.777a3.0884,3.0884,0,0,0-.9376-4.27l-1.2175-.7785a3.0991,3.0991,0,0,0-4.2772.936l-16.5346,25.7771A3.0884,3.0884,0,0,0,1246.8958,469.2781Z"/><ellipse class="cls-16" cx="1249.4062" cy="466.7027" rx="2.9196" ry="2.9149"/><rect class="cls-31" x="1252.5154" y="444.8203" width="5.0221" height="8.8805" transform="translate(2542.9237 793.1313) rotate(175.2535)"/><ellipse class="cls-31" cx="1255.395" cy="453.6855" rx="2.5111" ry="2.5071"/><polygon class="cls-31" points="1257.796 452.953 1253.182 454.869 1260.442 468.691 1262.242 467.944 1257.796 452.953"/><ellipse class="cls-31" cx="1255.395" cy="453.6855" rx="2.5111" ry="2.5071"/><circle class="cls-31" cx="1261.0358" cy="467.6105" r="2.1387"/><path class="cls-26" d="M1257.4416,438.63l.4957,9.5158a3.1131,3.1131,0,0,1-6.09.3162l-.4957-9.5158Z"/><polygon class="cls-26" points="1385.702 682.282 1400.6 690.869 1400.6 708.733 1385.702 700.17 1385.702 682.282"/><polygon class="cls-26" points="1485.912 740.046 1493.166 744.072 1494.128 765.144 1479.231 756.58 1485.912 740.046"/><polygon class="cls-26" points="1418.675 701.258 1466.044 728.563 1435.661 736.16 1418.675 724.945 1418.675 701.258"/><polygon class="cls-26" points="1532.042 740.952 1553.812 728.403 1547.138 757.244 1533.232 759.487 1532.042 740.952"/><polygon class="cls-26" points="1573.477 717.067 1622.832 688.618 1617.988 704.412 1582.719 724.146 1573.477 719.466 1573.477 717.067"/></g></g></svg>