<svg xmlns="http://www.w3.org/2000/svg" xmlns:xlink="http://www.w3.org/1999/xlink" viewBox="0 0 2040.8836 1000"><defs><style>.cls-1{mask:url(#mask);filter:url(#luminosity-noclip-11);}.cls-10,.cls-12,.cls-14,.cls-17,.cls-19,.cls-2,.cls-21,.cls-28,.cls-30,.cls-39,.cls-4,.cls-42,.cls-44,.cls-54,.cls-56,.cls-58,.cls-6,.cls-60,.cls-71,.cls-76,.cls-8{mix-blend-mode:multiply;}.cls-2{fill:url(#åçûìßííûé_ãðàäèåíò_339);}.cls-3{mask:url(#mask-2);filter:url(#luminosity-noclip-16);}.cls-4{fill:url(#åçûìßííûé_ãðàäèåíò_339-2);}.cls-5{mask:url(#mask-3);filter:url(#luminosity-noclip-17);}.cls-6{fill:url(#åçûìßííûé_ãðàäèåíò_339-3);}.cls-7{mask:url(#mask-4);filter:url(#luminosity-noclip-18);}.cls-8{fill:url(#åçûìßííûé_ãðàäèåíò_339-4);}.cls-9{mask:url(#mask-5);filter:url(#luminosity-noclip-19);}.cls-10{fill:url(#åçûìßííûé_ãðàäèåíò_339-5);}.cls-11{mask:url(#mask-6);filter:url(#luminosity-noclip-20);}.cls-12{fill:url(#åçûìßííûé_ãðàäèåíò_339-6);}.cls-13{mask:url(#mask-7);filter:url(#luminosity-noclip-12);}.cls-14{fill:url(#åçûìßííûé_ãðàäèåíò_339-7);}.cls-15{fill:url(#åçûìßííûé_ãðàäèåíò_60);}.cls-16{mask:url(#mask-8);filter:url(#luminosity-noclip-13);}.cls-17{fill:url(#åçûìßííûé_ãðàäèåíò_339-8);}.cls-18{mask:url(#mask-9);filter:url(#luminosity-noclip-14);}.cls-19{fill:url(#åçûìßííûé_ãðàäèåíò_339-9);}.cls-20{mask:url(#mask-10);filter:url(#luminosity-noclip-15);}.cls-21{fill:url(#åçûìßííûé_ãðàäèåíò_339-10);}.cls-22{isolation:isolate;}.cls-23{fill:#a0a2c7;}.cls-24{opacity:0.2;}.cls-25{fill:#8992f5;}.cls-26{fill:none;stroke:#8992f5;stroke-miterlimit:10;stroke-width:1.2293px;}.cls-27{mask:url(#mask-11);}.cls-28{fill:url(#åçûìßííûé_ãðàäèåíò_26);}.cls-29{mask:url(#mask-12);}.cls-30{fill:url(#åçûìßííûé_ãðàäèåíò_26-2);}.cls-31{fill:#001370;}.cls-32{fill:#020c82;}.cls-33{fill:#f5d5d5;}.cls-34{fill:url(#linear-gradient);}.cls-35{fill:#ffad6f;}.cls-36{fill:url(#åçûìßííûé_ãðàäèåíò_29);}.cls-37{fill:url(#åçûìßííûé_ãðàäèåíò_29-2);}.cls-38{fill:#fff;}.cls-39{fill:#bcc0e5;}.cls-40{fill:#dcdefa;}.cls-41{fill:#e6e7f5;}.cls-42,.cls-67{fill:#d0d3f5;}.cls-43{mask:url(#mask-13);}.cls-44{fill:url(#åçûìßííûé_ãðàäèåíò_26-3);}.cls-45{fill:url(#åçûìßííûé_ãðàäèåíò_15);}.cls-46{fill:url(#îâûé_îáðàçåö_ãðàäèåíòà_1);}.cls-47{fill:url(#åçûìßííûé_ãðàäèåíò_15-2);}.cls-48{fill:url(#îâûé_îáðàçåö_ãðàäèåíòà_1-2);}.cls-49{fill:#5d96cf;}.cls-50{fill:url(#åçûìßííûé_ãðàäèåíò_15-3);}.cls-51{fill:url(#linear-gradient-2);}.cls-52{fill:url(#linear-gradient-3);}.cls-53{mask:url(#mask-14);}.cls-54{fill:url(#åçûìßííûé_ãðàäèåíò_26-4);}.cls-55{mask:url(#mask-15);}.cls-56{fill:url(#åçûìßííûé_ãðàäèåíò_26-5);}.cls-57{mask:url(#mask-16);}.cls-58{fill:url(#åçûìßííûé_ãðàäèåíò_26-6);}.cls-59{mask:url(#mask-17);}.cls-60{fill:url(#åçûìßííûé_ãðàäèåíò_26-7);}.cls-61{fill:url(#åçûìßííûé_ãðàäèåíò_15-4);}.cls-62{fill:url(#îâûé_îáðàçåö_ãðàäèåíòà_1-3);}.cls-63{fill:url(#åçûìßííûé_ãðàäèåíò_111);}.cls-64{fill:#5795d1;}.cls-65{fill:url(#åçûìßííûé_ãðàäèåíò_15-5);}.cls-66{fill:url(#åçûìßííûé_ãðàäèåíò_16);}.cls-68{mask:url(#mask-18);}.cls-69{fill:url(#åçûìßííûé_ãðàäèåíò_107);}.cls-70{mask:url(#mask-19);}.cls-71{fill:url(#åçûìßííûé_ãðàäèåíò_26-8);}.cls-72{fill:url(#linear-gradient-4);}.cls-73{fill:url(#linear-gradient-5);}.cls-74{fill:url(#åçûìßííûé_ãðàäèåíò_8_êîïèß_10);}.cls-75{mask:url(#mask-20);}.cls-76{fill:url(#åçûìßííûé_ãðàäèåíò_26-9);}.cls-77{fill:url(#åçûìßííûé_ãðàäèåíò_8_êîïèß_10-2);}.cls-78{fill:url(#åçûìßííûé_ãðàäèåíò_8_êîïèß_10-3);}.cls-79{fill:url(#linear-gradient-6);}.cls-80{fill:url(#åçûìßííûé_ãðàäèåíò_8_êîïèß_10-4);}.cls-81{fill:url(#åçûìßííûé_ãðàäèåíò_8_êîïèß_10-5);}.cls-82{fill:url(#åçûìßííûé_ãðàäèåíò_3);}.cls-83{fill:url(#åçûìßííûé_ãðàäèåíò_3-2);}.cls-84{fill:url(#åçûìßííûé_ãðàäèåíò_8_êîïèß_10-6);}.cls-85{fill:url(#åçûìßííûé_ãðàäèåíò_8_êîïèß_10-7);}.cls-86{fill:url(#linear-gradient-7);}.cls-87{fill:url(#linear-gradient-8);}.cls-88{fill:url(#linear-gradient-9);}.cls-89{fill:url(#linear-gradient-10);}.cls-90{fill:url(#linear-gradient-11);}.cls-91{mask:url(#mask-21);}.cls-92{fill:url(#linear-gradient-12);}.cls-93{fill:url(#linear-gradient-13);}.cls-94{filter:url(#luminosity-noclip-10);}.cls-95{filter:url(#luminosity-noclip-9);}.cls-96{filter:url(#luminosity-noclip-8);}.cls-97{filter:url(#luminosity-noclip-7);}.cls-98{filter:url(#luminosity-noclip-6);}.cls-99{filter:url(#luminosity-noclip-5);}.cls-100{filter:url(#luminosity-noclip-4);}.cls-101{filter:url(#luminosity-noclip-3);}.cls-102{filter:url(#luminosity-noclip-2);}.cls-103{filter:url(#luminosity-noclip);}</style><filter id="luminosity-noclip" x="1390.4235" y="-7434.8473" width="221.5997" height="32766" filterUnits="userSpaceOnUse" color-interpolation-filters="sRGB"><feFlood flood-color="#fff" result="bg"/><feBlend in="SourceGraphic" in2="bg"/></filter><mask id="mask" x="1390.4235" y="-7434.8473" width="221.5997" height="32766" maskUnits="userSpaceOnUse"><g class="cls-103"/></mask><linearGradient id="åçûìßííûé_ãðàäèåíò_339" x1="1390.4235" y1="657.2676" x2="1612.0232" y2="657.2676" gradientUnits="userSpaceOnUse"><stop offset="0" stop-color="#fff"/><stop offset="1"/></linearGradient><filter id="luminosity-noclip-2" x="1238.0928" y="-7434.8473" width="37.7858" height="32766" filterUnits="userSpaceOnUse" color-interpolation-filters="sRGB"><feFlood flood-color="#fff" result="bg"/><feBlend in="SourceGraphic" in2="bg"/></filter><mask id="mask-2" x="1238.0928" y="-7434.8473" width="37.7858" height="32766" maskUnits="userSpaceOnUse"><g class="cls-102"/></mask><linearGradient id="åçûìßííûé_ãðàäèåíò_339-2" x1="1238.0928" y1="677.3103" x2="1275.8786" y2="677.3103" xlink:href="#åçûìßííûé_ãðàäèåíò_339"/><filter id="luminosity-noclip-3" x="1741.7153" y="-7434.8473" width="191.5881" height="32766" filterUnits="userSpaceOnUse" color-interpolation-filters="sRGB"><feFlood flood-color="#fff" result="bg"/><feBlend in="SourceGraphic" in2="bg"/></filter><mask id="mask-3" x="1741.7153" y="-7434.8473" width="191.5881" height="32766" maskUnits="userSpaceOnUse"><g class="cls-101"/></mask><linearGradient id="åçûìßííûé_ãðàäèåíò_339-3" x1="1741.7153" y1="693.4255" x2="1933.3034" y2="693.4255" xlink:href="#åçûìßííûé_ãðàäèåíò_339"/><filter id="luminosity-noclip-4" x="1662.9657" y="-7434.8473" width="63.1343" height="32766" filterUnits="userSpaceOnUse" color-interpolation-filters="sRGB"><feFlood flood-color="#fff" result="bg"/><feBlend in="SourceGraphic" in2="bg"/></filter><mask id="mask-4" x="1662.9657" y="-7434.8473" width="63.1343" height="32766" maskUnits="userSpaceOnUse"><g class="cls-100"/></mask><linearGradient id="åçûìßííûé_ãðàäèåíò_339-4" x1="1704.8237" y1="606.7595" x2="1692.6796" y2="588.0106" xlink:href="#åçûìßííûé_ãðàäèåíò_339"/><filter id="luminosity-noclip-5" x="1794.6519" y="-7434.8473" width="85.7149" height="32766" filterUnits="userSpaceOnUse" color-interpolation-filters="sRGB"><feFlood flood-color="#fff" result="bg"/><feBlend in="SourceGraphic" in2="bg"/></filter><mask id="mask-5" x="1794.6519" y="-7434.8473" width="85.7149" height="32766" maskUnits="userSpaceOnUse"><g class="cls-99"/></mask><linearGradient id="åçûìßííûé_ãðàäèåíò_339-5" x1="1794.6519" y1="666.3848" x2="1880.3668" y2="666.3848" xlink:href="#åçûìßííûé_ãðàäèåíò_339"/><filter id="luminosity-noclip-6" x="1750.1932" y="-7434.8473" width="85.7149" height="32766" filterUnits="userSpaceOnUse" color-interpolation-filters="sRGB"><feFlood flood-color="#fff" result="bg"/><feBlend in="SourceGraphic" in2="bg"/></filter><mask id="mask-6" x="1750.1932" y="-7434.8473" width="85.7149" height="32766" maskUnits="userSpaceOnUse"><g class="cls-98"/></mask><linearGradient id="åçûìßííûé_ãðàäèåíò_339-6" x1="1750.1932" y1="682.9623" x2="1835.9081" y2="682.9623" xlink:href="#åçûìßííûé_ãðàäèåíò_339"/><filter id="luminosity-noclip-7" x="1034.2405" y="-7434.8473" width="675.2742" height="32766" filterUnits="userSpaceOnUse" color-interpolation-filters="sRGB"><feFlood flood-color="#fff" result="bg"/><feBlend in="SourceGraphic" in2="bg"/></filter><mask id="mask-7" x="1034.2405" y="-7434.8473" width="675.2742" height="32766" maskUnits="userSpaceOnUse"><g class="cls-97"/></mask><linearGradient id="åçûìßííûé_ãðàäèåíò_339-7" x1="1034.2405" y1="655.6747" x2="1709.5147" y2="655.6747" xlink:href="#åçûìßííûé_ãðàäèåíò_339"/><linearGradient id="åçûìßííûé_ãðàäèåíò_60" x1="1391.8314" y1="311.2959" x2="1391.8314" y2="571.2932" gradientUnits="userSpaceOnUse"><stop offset="0"/><stop offset="0.0939" stop-color="#060606"/><stop offset="0.2187" stop-color="#171717"/><stop offset="0.3609" stop-color="#323232"/><stop offset="0.516" stop-color="#595959"/><stop offset="0.6816" stop-color="#8b8b8b"/><stop offset="0.8532" stop-color="#c6c6c6"/><stop offset="1" stop-color="#fff"/></linearGradient><filter id="luminosity-noclip-8" x="1525.4041" y="-7434.8473" width="37.7857" height="32766" filterUnits="userSpaceOnUse" color-interpolation-filters="sRGB"><feFlood flood-color="#fff" result="bg"/><feBlend in="SourceGraphic" in2="bg"/></filter><mask id="mask-8" x="1525.4041" y="-7434.8473" width="37.7857" height="32766" maskUnits="userSpaceOnUse"><g class="cls-96"/></mask><linearGradient id="åçûìßííûé_ãðàäèåíò_339-8" x1="1525.4041" y1="511.4311" x2="1563.1899" y2="511.4311" xlink:href="#åçûìßííûé_ãðàäèåíò_339"/><filter id="luminosity-noclip-9" x="1062.4217" y="-7434.8473" width="37.7857" height="32766" filterUnits="userSpaceOnUse" color-interpolation-filters="sRGB"><feFlood flood-color="#fff" result="bg"/><feBlend in="SourceGraphic" in2="bg"/></filter><mask id="mask-9" x="1062.4217" y="-7434.8473" width="37.7857" height="32766" maskUnits="userSpaceOnUse"><g class="cls-95"/></mask><linearGradient id="åçûìßííûé_ãðàäèåíò_339-9" x1="1062.4217" y1="778.7342" x2="1100.2074" y2="778.7342" xlink:href="#åçûìßííûé_ãðàäèåíò_339"/><filter id="luminosity-noclip-10" x="1150.2572" y="-7434.8473" width="37.7857" height="32766" filterUnits="userSpaceOnUse" color-interpolation-filters="sRGB"><feFlood flood-color="#fff" result="bg"/><feBlend in="SourceGraphic" in2="bg"/></filter><mask id="mask-10" x="1150.2572" y="-7434.8473" width="37.7857" height="32766" maskUnits="userSpaceOnUse"><g class="cls-94"/></mask><linearGradient id="åçûìßííûé_ãðàäèåíò_339-10" x1="1150.2572" y1="728.0222" x2="1188.043" y2="728.0222" xlink:href="#åçûìßííûé_ãðàäèåíò_339"/><filter id="luminosity-noclip-11" x="1390.4235" y="612.256" width="221.5997" height="90.0233" filterUnits="userSpaceOnUse" color-interpolation-filters="sRGB"><feFlood flood-color="#fff" result="bg"/><feBlend in="SourceGraphic" in2="bg"/></filter><mask id="mask-11" x="1390.4235" y="612.256" width="221.5997" height="90.0233" maskUnits="userSpaceOnUse"><g class="cls-1"><path class="cls-2" d="M1390.4235,693.5009h75.3581l2.1306,8.7784h58.27a34.997,34.997,0,0,0,17.4989-4.6889l63.0961-36.4285a10.4928,10.4928,0,0,0,0-18.174l-53.2293-30.7319-119.4793,13.3668Z"/></g></mask><linearGradient id="åçûìßííûé_ãðàäèåíò_26" x1="1390.4235" y1="657.2676" x2="1612.0232" y2="657.2676" gradientUnits="userSpaceOnUse"><stop offset="0" stop-color="#bcc0e5"/><stop offset="1" stop-color="#bcc0e5"/></linearGradient><filter id="luminosity-noclip-12" x="1034.2405" y="443.9113" width="675.2742" height="423.5269" filterUnits="userSpaceOnUse" color-interpolation-filters="sRGB"><feFlood flood-color="#fff" result="bg"/><feBlend in="SourceGraphic" in2="bg"/></filter><mask id="mask-12" x="1034.2405" y="443.9113" width="675.2742" height="423.5269" maskUnits="userSpaceOnUse"><g class="cls-13"><path class="cls-14" d="M1608.4037,443.9113h-45.8088l89.4028,51.6168a8.8033,8.8033,0,0,1,0,15.2478L1034.2405,867.4382h45.8089a27.2679,27.2679,0,0,0,13.6338-3.6532l611.43-353.0091a8.8033,8.8033,0,0,0,0-15.2478l-83.0755-47.9636A27.2669,27.2669,0,0,0,1608.4037,443.9113Z"/></g></mask><linearGradient id="åçûìßííûé_ãðàäèåíò_26-2" x1="1034.2405" y1="655.6747" x2="1709.5147" y2="655.6747" xlink:href="#åçûìßííûé_ãðàäèåíò_26"/><linearGradient id="linear-gradient" x1="1102.5899" y1="713.8012" x2="1089.3426" y2="638.733" gradientUnits="userSpaceOnUse"><stop offset="0" stop-color="#101c7a"/><stop offset="1" stop-color="#a0a2c7"/></linearGradient><linearGradient id="åçûìßííûé_ãðàäèåíò_29" x1="-1000.5882" y1="703.1475" x2="-984.452" y2="700.665" gradientTransform="matrix(-0.9947, 0.1028, 0.1028, 0.9947, 40.7917, 21.2356)" gradientUnits="userSpaceOnUse"><stop offset="0" stop-color="#fff"/><stop offset="0.0762" stop-color="#fdf9f9"/><stop offset="1" stop-color="#f5d5d5"/></linearGradient><linearGradient id="åçûìßííûé_ãðàäèåíò_29-2" x1="-1000.8629" y1="682.3345" x2="-978.2242" y2="694.7986" xlink:href="#åçûìßííûé_ãðàäèåíò_29"/><filter id="luminosity-noclip-13" x="1525.4041" y="501.9099" width="37.7857" height="19.0424" filterUnits="userSpaceOnUse" color-interpolation-filters="sRGB"><feFlood flood-color="#fff" result="bg"/><feBlend in="SourceGraphic" in2="bg"/></filter><mask id="mask-13" x="1525.4041" y="501.9099" width="37.7857" height="19.0424" maskUnits="userSpaceOnUse"><g class="cls-16"><polygon class="cls-17" points="1546.699 501.91 1525.404 501.91 1525.404 520.952 1546.699 520.952 1563.19 511.431 1546.699 501.91"/></g></mask><linearGradient id="åçûìßííûé_ãðàäèåíò_26-3" x1="1525.4041" y1="511.4311" x2="1563.1899" y2="511.4311" xlink:href="#åçûìßííûé_ãðàäèåíò_26"/><linearGradient id="åçûìßííûé_ãðàäèåíò_15" x1="1417.7054" y1="594.3913" x2="1370.2698" y2="594.3913" gradientUnits="userSpaceOnUse"><stop offset="0" stop-color="#dcdefa"/><stop offset="1" stop-color="#f2f3fa"/></linearGradient><linearGradient id="îâûé_îáðàçåö_ãðàäèåíòà_1" x1="1242.8748" y1="521.9559" x2="1537.9567" y2="521.9559" gradientUnits="userSpaceOnUse"><stop offset="0" stop-color="#f7f8ff"/><stop offset="1" stop-color="#f2f3fa"/></linearGradient><linearGradient id="åçûìßííûé_ãðàäèåíò_15-2" x1="1486.0162" y1="652.4489" x2="1455.5186" y2="652.4489" xlink:href="#åçûìßííûé_ãðàäèåíò_15"/><linearGradient id="îâûé_îáðàçåö_ãðàäèåíòà_1-2" x1="1424.0318" y1="604.9373" x2="1557.1072" y2="604.9373" xlink:href="#îâûé_îáðàçåö_ãðàäèåíòà_1"/><linearGradient id="åçûìßííûé_ãðàäèåíò_15-3" x1="1125.9509" y1="764.6127" x2="1038.5509" y2="764.6127" xlink:href="#åçûìßííûé_ãðàäèåíò_15"/><linearGradient id="linear-gradient-2" x1="-1252.8449" y1="-802.6153" x2="-1252.8449" y2="-714.6114" gradientTransform="matrix(-0.5012, -0.8654, -0.8654, 0.5012, 29.742, -86.003)" gradientUnits="userSpaceOnUse"><stop offset="0" stop-color="#5795d1"/><stop offset="1" stop-color="#ffad6f"/></linearGradient><linearGradient id="linear-gradient-3" x1="1253.3812" y1="553.2527" x2="1185.5726" y2="669.1835" gradientUnits="userSpaceOnUse"><stop offset="0" stop-color="#a0a2c7"/><stop offset="0.135" stop-color="#e4aa88"/><stop offset="0.1984" stop-color="#ffad6f"/><stop offset="0.2868" stop-color="#ffbc8a"/><stop offset="0.4447" stop-color="#ffd4b4"/><stop offset="0.5987" stop-color="#ffe7d4"/><stop offset="0.7458" stop-color="#fff4ec"/><stop offset="0.8828" stop-color="#fffcfa"/><stop offset="1" stop-color="#fff"/></linearGradient><filter id="luminosity-noclip-14" x="1062.4217" y="769.2129" width="37.7857" height="19.0425" filterUnits="userSpaceOnUse" color-interpolation-filters="sRGB"><feFlood flood-color="#fff" result="bg"/><feBlend in="SourceGraphic" in2="bg"/></filter><mask id="mask-14" x="1062.4217" y="769.2129" width="37.7857" height="19.0425" maskUnits="userSpaceOnUse"><g class="cls-18"><polygon class="cls-19" points="1083.716 769.213 1062.422 769.213 1062.422 788.255 1083.716 788.255 1100.207 778.734 1083.716 769.213"/></g></mask><linearGradient id="åçûìßííûé_ãðàäèåíò_26-4" x1="1062.4217" y1="778.7342" x2="1100.2074" y2="778.7342" xlink:href="#åçûìßííûé_ãðàäèåíò_26"/><filter id="luminosity-noclip-15" x="1150.2572" y="718.501" width="37.7857" height="19.0425" filterUnits="userSpaceOnUse" color-interpolation-filters="sRGB"><feFlood flood-color="#fff" result="bg"/><feBlend in="SourceGraphic" in2="bg"/></filter><mask id="mask-15" x="1150.2572" y="718.501" width="37.7857" height="19.0425" maskUnits="userSpaceOnUse"><g class="cls-20"><polygon class="cls-21" points="1171.552 718.501 1150.257 718.501 1150.257 737.543 1171.552 737.543 1188.043 728.022 1171.552 718.501"/></g></mask><linearGradient id="åçûìßííûé_ãðàäèåíò_26-5" x1="1150.2572" y1="728.0222" x2="1188.043" y2="728.0222" xlink:href="#åçûìßííûé_ãðàäèåíò_26"/><filter id="luminosity-noclip-16" x="1238.0928" y="667.7891" width="37.7858" height="19.0425" filterUnits="userSpaceOnUse" color-interpolation-filters="sRGB"><feFlood flood-color="#fff" result="bg"/><feBlend in="SourceGraphic" in2="bg"/></filter><mask id="mask-16" x="1238.0928" y="667.7891" width="37.7858" height="19.0425" maskUnits="userSpaceOnUse"><g class="cls-3"><polygon class="cls-4" points="1259.387 667.789 1238.093 667.789 1238.093 686.832 1259.387 686.832 1275.879 677.31 1259.387 667.789"/></g></mask><linearGradient id="åçûìßííûé_ãðàäèåíò_26-6" x1="1238.0928" y1="677.3103" x2="1275.8786" y2="677.3103" xlink:href="#åçûìßííûé_ãðàäèåíò_26"/><filter id="luminosity-noclip-17" x="1741.7153" y="606.6309" width="191.5881" height="173.5891" filterUnits="userSpaceOnUse" color-interpolation-filters="sRGB"><feFlood flood-color="#fff" result="bg"/><feBlend in="SourceGraphic" in2="bg"/></filter><mask id="mask-17" x="1741.7153" y="606.6309" width="191.5881" height="173.5891" maskUnits="userSpaceOnUse"><g class="cls-5"><path class="cls-6" d="M1787.955,606.6309h-46.24l136.4769,78.7949a9.2372,9.2372,0,0,1,0,15.9993L1741.7153,780.22h46.24a25.66,25.66,0,0,0,12.83-3.4379l126.5883-73.0857a11.86,11.86,0,0,0,0-20.542l-126.5883-73.0858A25.6613,25.6613,0,0,0,1787.955,606.6309Z"/></g></mask><linearGradient id="åçûìßííûé_ãðàäèåíò_26-7" x1="1741.7153" y1="693.4255" x2="1933.3034" y2="693.4255" xlink:href="#åçûìßííûé_ãðàäèåíò_26"/><linearGradient id="åçûìßííûé_ãðàäèåíò_15-4" x1="1768.9973" y1="715.8468" x2="1721.5616" y2="715.8468" xlink:href="#åçûìßííûé_ãðàäèåíò_15"/><linearGradient id="îâûé_îáðàçåö_ãðàäèåíòà_1-3" x1="1594.1666" y1="677.835" x2="1889.2486" y2="677.835" xlink:href="#îâûé_îáðàçåö_ãðàäèåíòà_1"/><linearGradient id="åçûìßííûé_ãðàäèåíò_111" x1="1694.5329" y1="649.5848" x2="1694.5329" y2="489.5985" gradientUnits="userSpaceOnUse"><stop offset="0" stop-color="#5b68f5"/><stop offset="1" stop-color="#010854"/></linearGradient><linearGradient id="åçûìßííûé_ãðàäèåíò_15-5" x1="1729.2484" y1="644.787" x2="1715.2158" y2="625.248" xlink:href="#åçûìßííûé_ãðàäèåíò_15"/><linearGradient id="åçûìßííûé_ãðàäèåíò_16" x1="1739.0169" y1="629.6632" x2="1734.5905" y2="622.9072" gradientUnits="userSpaceOnUse"><stop offset="0" stop-color="#bcc0e5"/><stop offset="1" stop-color="#f2f3fa"/></linearGradient><filter id="luminosity-noclip-18" x="1662.9657" y="555.8709" width="63.1343" height="70.002" filterUnits="userSpaceOnUse" color-interpolation-filters="sRGB"><feFlood flood-color="#fff" result="bg"/><feBlend in="SourceGraphic" in2="bg"/></filter><mask id="mask-18" x="1662.9657" y="555.8709" width="63.1343" height="70.002" maskUnits="userSpaceOnUse"><g class="cls-7"><polygon class="cls-8" points="1726.1 587.145 1662.966 625.873 1662.966 592.811 1726.1 555.871 1726.1 587.145"/></g></mask><linearGradient id="åçûìßííûé_ãðàäèåíò_107" x1="1704.8237" y1="606.7595" x2="1692.6796" y2="588.0106" gradientUnits="userSpaceOnUse"><stop offset="0" stop-color="#8992f5"/><stop offset="1" stop-color="#fff"/></linearGradient><filter id="luminosity-noclip-19" x="1794.6519" y="659.0467" width="85.7149" height="14.6762" filterUnits="userSpaceOnUse" color-interpolation-filters="sRGB"><feFlood flood-color="#fff" result="bg"/><feBlend in="SourceGraphic" in2="bg"/></filter><mask id="mask-19" x="1794.6519" y="659.0467" width="85.7149" height="14.6762" maskUnits="userSpaceOnUse"><g class="cls-9"><path class="cls-10" d="M1808.7377,659.0467c-7.7793,0-14.0858,3.2853-14.0858,7.338s6.3065,7.3381,14.0858,7.3381h71.6291V659.0467Z"/></g></mask><linearGradient id="åçûìßííûé_ãðàäèåíò_26-8" x1="1794.6519" y1="666.3848" x2="1880.3668" y2="666.3848" xlink:href="#åçûìßííûé_ãðàäèåíò_26"/><linearGradient id="linear-gradient-4" x1="1808.3092" y1="622.8329" x2="1799.3438" y2="656.4196" xlink:href="#linear-gradient"/><linearGradient id="linear-gradient-5" x1="1819.159" y1="615.5789" x2="1815.7684" y2="637.5182" xlink:href="#linear-gradient"/><linearGradient id="åçûìßííûé_ãðàäèåíò_8_êîïèß_10" x1="1819.1941" y1="634.2337" x2="1825.8846" y2="691.5049" gradientUnits="userSpaceOnUse"><stop offset="0" stop-color="#020c82"/><stop offset="1" stop-color="#5b68f5"/></linearGradient><filter id="luminosity-noclip-20" x="1750.1932" y="675.6242" width="85.7149" height="14.6762" filterUnits="userSpaceOnUse" color-interpolation-filters="sRGB"><feFlood flood-color="#fff" result="bg"/><feBlend in="SourceGraphic" in2="bg"/></filter><mask id="mask-20" x="1750.1932" y="675.6242" width="85.7149" height="14.6762" maskUnits="userSpaceOnUse"><g class="cls-11"><path class="cls-12" d="M1764.2789,675.6242c-7.7793,0-14.0857,3.2853-14.0857,7.338S1756.5,690.3,1764.2789,690.3h71.6292V675.6242Z"/></g></mask><linearGradient id="åçûìßííûé_ãðàäèåíò_26-9" x1="1750.1932" y1="682.9623" x2="1835.9081" y2="682.9623" xlink:href="#åçûìßííûé_ãðàäèåíò_26"/><linearGradient id="åçûìßííûé_ãðàäèåíò_8_êîïèß_10-2" x1="1771.4664" y1="648.3658" x2="1783.8185" y2="697.7746" xlink:href="#åçûìßííûé_ãðàäèåíò_8_êîïèß_10"/><linearGradient id="åçûìßííûé_ãðàäèåíò_8_êîïèß_10-3" x1="1762.0177" y1="640.549" x2="1768.6208" y2="697.0722" xlink:href="#åçûìßííûé_ãðàäèåíò_8_êîïèß_10"/><linearGradient id="linear-gradient-6" x1="1755.3641" y1="592.2334" x2="1762.8575" y2="624.8833" xlink:href="#linear-gradient"/><linearGradient id="åçûìßííûé_ãðàäèåíò_8_êîïèß_10-4" x1="1764.1992" y1="583.5521" x2="1779.0523" y2="610.6489" xlink:href="#åçûìßííûé_ãðàäèåíò_8_êîïèß_10"/><linearGradient id="åçûìßííûé_ãðàäèåíò_8_êîïèß_10-5" x1="1765.1627" y1="583.024" x2="1780.0159" y2="610.1209" xlink:href="#åçûìßííûé_ãðàäèåíò_8_êîïèß_10"/><linearGradient id="åçûìßííûé_ãðàäèåíò_3" x1="499.8442" y1="726.79" x2="500.0203" y2="728.1985" gradientTransform="matrix(-0.9984, 0.0567, 0.0567, 0.9984, 1979.7882, -56.3172)" gradientUnits="userSpaceOnUse"><stop offset="0" stop-color="#04007e"/><stop offset="1" stop-color="#bb1aff"/></linearGradient><linearGradient id="åçûìßííûé_ãðàäèåíò_3-2" x1="480.7174" y1="721.3172" x2="480.8609" y2="722.4649" xlink:href="#åçûìßííûé_ãðàäèåíò_3"/><linearGradient id="åçûìßííûé_ãðàäèåíò_8_êîïèß_10-6" x1="1543.2628" y1="636.9696" x2="1575.7788" y2="711.4352" xlink:href="#åçûìßííûé_ãðàäèåíò_8_êîïèß_10"/><linearGradient id="åçûìßííûé_ãðàäèåíò_8_êîïèß_10-7" x1="1527.3886" y1="627.6728" x2="1553.6825" y2="720.4039" xlink:href="#åçûìßííûé_ãðàäèåíò_8_êîïèß_10"/><linearGradient id="linear-gradient-7" x1="1541.9358" y1="608.5364" x2="1530.5619" y2="587.5281" gradientUnits="userSpaceOnUse"><stop offset="0" stop-color="#5099c9"/><stop offset="1" stop-color="#ffad6f"/></linearGradient><linearGradient id="linear-gradient-8" x1="1551.1654" y1="636.5496" x2="1517.9942" y2="571.8895" gradientUnits="userSpaceOnUse"><stop offset="0" stop-color="#a0a2c7"/><stop offset="0.0922" stop-color="#b09ba4"/><stop offset="0.2011" stop-color="#bf9483"/><stop offset="0.3183" stop-color="#cb8f68"/><stop offset="0.4449" stop-color="#d58a53"/><stop offset="0.5851" stop-color="#dc8744"/><stop offset="0.75" stop-color="#e0863b"/><stop offset="1" stop-color="#e18538"/></linearGradient><linearGradient id="linear-gradient-9" x1="1527.9031" y1="613.0075" x2="1515.9605" y2="592.7351" gradientUnits="userSpaceOnUse"><stop offset="0" stop-color="#a0a2c7"/><stop offset="0.0367" stop-color="#a4a0bf"/><stop offset="0.2622" stop-color="#b99791"/><stop offset="0.4779" stop-color="#c9906c"/><stop offset="0.6786" stop-color="#d58a52"/><stop offset="0.8585" stop-color="#dc8743"/><stop offset="1" stop-color="#df863d"/></linearGradient><linearGradient id="linear-gradient-10" x1="1390.4235" y1="453.2141" x2="1390.4235" y2="584.7555" gradientUnits="userSpaceOnUse"><stop offset="0" stop-color="#5795d1"/><stop offset="0.0306" stop-color="#5d96cd"/><stop offset="0.3745" stop-color="#a2a0a5"/><stop offset="0.6621" stop-color="#d4a788"/><stop offset="0.8789" stop-color="#f3ab76"/><stop offset="1" stop-color="#ffad6f"/></linearGradient><linearGradient id="linear-gradient-11" x1="1390.4155" y1="594.1637" x2="1390.4155" y2="547.044" xlink:href="#linear-gradient-10"/><mask id="mask-21" x="1289.6188" y="304.7371" width="204.4252" height="278.1264" maskUnits="userSpaceOnUse"><rect class="cls-15" x="1289.6188" y="304.7371" width="204.4252" height="278.1264"/></mask><linearGradient id="linear-gradient-12" x1="1419.4255" y1="445.4314" x2="1367.7037" y2="445.4314" gradientUnits="userSpaceOnUse"><stop offset="0" stop-color="#e18538"/><stop offset="0.4099" stop-color="#c89070"/><stop offset="1" stop-color="#a0a2c7"/></linearGradient><linearGradient id="linear-gradient-13" x1="1113.6078" y1="503.7858" x2="1145.2769" y2="503.7858" gradientTransform="matrix(1.07, 0.0629, -0.0699, 1.0179, -86.9091, -14.8346)" gradientUnits="userSpaceOnUse"><stop offset="0" stop-color="#ffad6f"/><stop offset="0.5148" stop-color="#ee9751"/><stop offset="1" stop-color="#e18538"/></linearGradient></defs><title>Artboard 5ldpi</title><g class="cls-22"><g id="img"><path class="cls-23" d="M1093.7724,550.9383c-4.0226-.1183-7.123,2.936-8.0805,3.88-1.021-.8755-4.3267-3.7062-8.3313-3.3078-4.8435.4819-10.1356,4.3014-9.6458,13.4813.4847,9.0839,13.0794,19.5233,19.01,22.09l.0938.04.0908-.0466c5.7378-2.9738,17.5742-14.2657,17.4246-23.3613C1104.1832,554.5228,1098.6377,551.0815,1093.7724,550.9383Z"/><path class="cls-23" d="M1106.7556,631.1444l-.3751,28.97a9.3087,9.3087,0,0,0,13.8129,8.2662l111.203-61.4994,39.8918-22.3472a.8364.8364,0,0,0,.3137-.3051.8467.8467,0,0,0-1.141-1.1722l-39.8877,22.3451-111.199,61.4972a7.6161,7.6161,0,0,1-11.3007-6.763l.375-28.97Z"/><g class="cls-24"><path class="cls-25" d="M798.5458,499.3117a1.184,1.184,0,0,1,0,2.2432,4.2934,4.2934,0,0,1-3.8851,0,1.1839,1.1839,0,0,1,0-2.2431A4.2937,4.2937,0,0,1,798.5458,499.3117Z"/><path class="cls-25" d="M885.128,449.3235a1.1839,1.1839,0,0,1,0,2.2431,4.2939,4.2939,0,0,1-3.8852,0,1.184,1.184,0,0,1,0-2.2431A4.2937,4.2937,0,0,1,885.128,449.3235Z"/><path class="cls-25" d="M971.71,399.3353a1.1839,1.1839,0,0,1,0,2.243,4.2937,4.2937,0,0,1-3.8851,0,1.1839,1.1839,0,0,1,0-2.2431A4.2936,4.2936,0,0,1,971.71,399.3353Z"/><path class="cls-25" d="M1058.2925,349.347a1.1839,1.1839,0,0,1,0,2.243,4.2939,4.2939,0,0,1-3.8852,0,1.184,1.184,0,0,1,0-2.2431A4.2939,4.2939,0,0,1,1058.2925,349.347Z"/><path class="cls-25" d="M1144.8747,299.3587a1.184,1.184,0,0,1,0,2.2431,4.2939,4.2939,0,0,1-3.8852,0,1.184,1.184,0,0,1,0-2.2432A4.2943,4.2943,0,0,1,1144.8747,299.3587Z"/><path class="cls-25" d="M1231.4569,249.37a1.184,1.184,0,0,1,0,2.2432,4.2943,4.2943,0,0,1-3.8852,0,1.184,1.184,0,0,1,0-2.2431A4.2937,4.2937,0,0,1,1231.4569,249.37Z"/><path class="cls-25" d="M1318.0392,199.3821a1.184,1.184,0,0,1,0,2.2432,4.2939,4.2939,0,0,1-3.8852,0,1.1839,1.1839,0,0,1,0-2.2431A4.2939,4.2939,0,0,1,1318.0392,199.3821Z"/><path class="cls-25" d="M1404.6214,149.3939a1.1839,1.1839,0,0,1,0,2.2431,4.2936,4.2936,0,0,1-3.8852,0,1.1839,1.1839,0,0,1,0-2.243A4.2933,4.2933,0,0,1,1404.6214,149.3939Z"/><path class="cls-25" d="M798.5483,599.29a1.1839,1.1839,0,0,1,0,2.2431,4.2934,4.2934,0,0,1-3.8851,0,1.1839,1.1839,0,0,1,0-2.243A4.2931,4.2931,0,0,1,798.5483,599.29Z"/><path class="cls-25" d="M885.1306,549.3015a1.184,1.184,0,0,1,0,2.2431,4.2939,4.2939,0,0,1-3.8852,0,1.184,1.184,0,0,1,0-2.2431A4.2939,4.2939,0,0,1,885.1306,549.3015Z"/><path class="cls-25" d="M971.7128,499.3133a1.1839,1.1839,0,0,1,0,2.243,4.2937,4.2937,0,0,1-3.8851,0,1.1839,1.1839,0,0,1,0-2.2431A4.2934,4.2934,0,0,1,971.7128,499.3133Z"/><path class="cls-25" d="M1058.295,449.325a1.1839,1.1839,0,0,1,0,2.243,4.2933,4.2933,0,0,1-3.8852,0,1.184,1.184,0,0,1,0-2.2431A4.2939,4.2939,0,0,1,1058.295,449.325Z"/><path class="cls-25" d="M1144.8772,399.3367a1.184,1.184,0,0,1,0,2.2431,4.2937,4.2937,0,0,1-3.8851,0,1.184,1.184,0,0,1,0-2.2432A4.294,4.294,0,0,1,1144.8772,399.3367Z"/><path class="cls-25" d="M1231.46,349.3484a1.184,1.184,0,0,1,0,2.2432,4.2943,4.2943,0,0,1-3.8852,0,1.184,1.184,0,0,1,0-2.2431A4.2939,4.2939,0,0,1,1231.46,349.3484Z"/><path class="cls-25" d="M1318.0416,299.36a1.184,1.184,0,0,1,0,2.2432,4.2937,4.2937,0,0,1-3.8851,0,1.184,1.184,0,0,1,0-2.2431A4.2937,4.2937,0,0,1,1318.0416,299.36Z"/><path class="cls-25" d="M1404.6239,249.3719a1.184,1.184,0,0,1,0,2.2431,4.2936,4.2936,0,0,1-3.8852,0,1.1839,1.1839,0,0,1,0-2.243A4.2939,4.2939,0,0,1,1404.6239,249.3719Z"/><path class="cls-25" d="M1491.2061,199.3836a1.184,1.184,0,0,1,0,2.2431,4.2937,4.2937,0,0,1-3.8851,0,1.1839,1.1839,0,0,1,0-2.2431A4.2937,4.2937,0,0,1,1491.2061,199.3836Z"/><path class="cls-25" d="M798.5509,699.2678a1.184,1.184,0,0,1,0,2.2431,4.2936,4.2936,0,0,1-3.8852,0,1.1839,1.1839,0,0,1,0-2.243A4.2931,4.2931,0,0,1,798.5509,699.2678Z"/><path class="cls-25" d="M885.1331,649.28a1.1839,1.1839,0,0,1,0,2.2431,4.2937,4.2937,0,0,1-3.8851,0,1.1839,1.1839,0,0,1,0-2.2431A4.2937,4.2937,0,0,1,885.1331,649.28Z"/><path class="cls-25" d="M971.7153,599.2913a1.1839,1.1839,0,0,1,0,2.243,4.2939,4.2939,0,0,1-3.8852,0,1.184,1.184,0,0,1,0-2.2431A4.2934,4.2934,0,0,1,971.7153,599.2913Z"/><path class="cls-25" d="M1058.2976,549.303a1.1839,1.1839,0,0,1,0,2.243,4.2931,4.2931,0,0,1-3.8851,0,1.1839,1.1839,0,0,1,0-2.2431A4.2939,4.2939,0,0,1,1058.2976,549.303Z"/><path class="cls-25" d="M1144.88,499.3147a1.1839,1.1839,0,0,1,0,2.2431,4.2939,4.2939,0,0,1-3.8852,0,1.184,1.184,0,0,1,0-2.2432A4.2943,4.2943,0,0,1,1144.88,499.3147Z"/><path class="cls-25" d="M1231.462,449.3264a1.184,1.184,0,0,1,0,2.2432,4.294,4.294,0,0,1-3.8851,0,1.184,1.184,0,0,1,0-2.2431A4.2939,4.2939,0,0,1,1231.462,449.3264Z"/><path class="cls-25" d="M1318.0442,399.3382a1.184,1.184,0,0,1,0,2.2431,4.2939,4.2939,0,0,1-3.8852,0,1.1839,1.1839,0,0,1,0-2.243A4.2931,4.2931,0,0,1,1318.0442,399.3382Z"/><path class="cls-25" d="M1404.6265,349.35a1.184,1.184,0,0,1,0,2.2431,4.2936,4.2936,0,0,1-3.8852,0,1.1839,1.1839,0,0,1,0-2.243A4.2939,4.2939,0,0,1,1404.6265,349.35Z"/><path class="cls-25" d="M1491.2086,299.3616a1.1839,1.1839,0,0,1,0,2.2431,4.2939,4.2939,0,0,1-3.8852,0,1.184,1.184,0,0,1,0-2.2431A4.2937,4.2937,0,0,1,1491.2086,299.3616Z"/><path class="cls-25" d="M1577.7909,249.3733a1.184,1.184,0,0,1,0,2.2431,4.2933,4.2933,0,0,1-3.8852,0,1.184,1.184,0,0,1,0-2.2431A4.2939,4.2939,0,0,1,1577.7909,249.3733Z"/><path class="cls-25" d="M798.5534,799.2458a1.184,1.184,0,0,1,0,2.2431,4.2936,4.2936,0,0,1-3.8852,0,1.1839,1.1839,0,0,1,0-2.243A4.2939,4.2939,0,0,1,798.5534,799.2458Z"/><path class="cls-25" d="M885.1356,749.2575a1.184,1.184,0,0,1,0,2.2431,4.2937,4.2937,0,0,1-3.8851,0,1.184,1.184,0,0,1,0-2.2431A4.2937,4.2937,0,0,1,885.1356,749.2575Z"/><path class="cls-25" d="M971.7179,699.2693a1.1839,1.1839,0,0,1,0,2.243,4.2939,4.2939,0,0,1-3.8852,0,1.184,1.184,0,0,1,0-2.2431A4.2936,4.2936,0,0,1,971.7179,699.2693Z"/><path class="cls-25" d="M1058.3,649.281a1.1839,1.1839,0,0,1,0,2.2431,4.2937,4.2937,0,0,1-3.8851,0,1.184,1.184,0,0,1,0-2.2432A4.2937,4.2937,0,0,1,1058.3,649.281Z"/><path class="cls-25" d="M1144.8823,599.2927a1.184,1.184,0,0,1,0,2.2431,4.2939,4.2939,0,0,1-3.8852,0,1.184,1.184,0,0,1,0-2.2432A4.2943,4.2943,0,0,1,1144.8823,599.2927Z"/><path class="cls-25" d="M1231.4645,549.3044a1.184,1.184,0,0,1,0,2.2432,4.294,4.294,0,0,1-3.8851,0,1.1839,1.1839,0,0,1,0-2.2431A4.2937,4.2937,0,0,1,1231.4645,549.3044Z"/><path class="cls-25" d="M1318.0468,499.3162a1.1839,1.1839,0,0,1,0,2.2431,4.2939,4.2939,0,0,1-3.8852,0,1.1839,1.1839,0,0,1,0-2.243A4.2933,4.2933,0,0,1,1318.0468,499.3162Z"/><path class="cls-25" d="M1404.6289,449.3279a1.1839,1.1839,0,0,1,0,2.2431,4.2934,4.2934,0,0,1-3.8851,0,1.1839,1.1839,0,0,1,0-2.243A4.2937,4.2937,0,0,1,1404.6289,449.3279Z"/><path class="cls-25" d="M1491.2112,399.34a1.184,1.184,0,0,1,0,2.2431,4.2939,4.2939,0,0,1-3.8852,0,1.184,1.184,0,0,1,0-2.2431A4.2939,4.2939,0,0,1,1491.2112,399.34Z"/><path class="cls-25" d="M1577.7935,349.3513a1.184,1.184,0,0,1,0,2.2431,4.2931,4.2931,0,0,1-3.8851,0,1.1839,1.1839,0,0,1,0-2.2431A4.2939,4.2939,0,0,1,1577.7935,349.3513Z"/><path class="cls-25" d="M1664.3757,299.3631a1.1839,1.1839,0,0,1,0,2.2431,4.2939,4.2939,0,0,1-3.8852,0,1.184,1.184,0,0,1,0-2.2432A4.2936,4.2936,0,0,1,1664.3757,299.3631Z"/><path class="cls-25" d="M798.556,899.2238a1.184,1.184,0,0,1,0,2.2431,4.2934,4.2934,0,0,1-3.8851,0,1.1839,1.1839,0,0,1,0-2.243A4.2939,4.2939,0,0,1,798.556,899.2238Z"/><path class="cls-25" d="M885.1382,849.2355a1.184,1.184,0,0,1,0,2.2431,4.2939,4.2939,0,0,1-3.8852,0,1.1839,1.1839,0,0,1,0-2.2431A4.2937,4.2937,0,0,1,885.1382,849.2355Z"/><path class="cls-25" d="M971.7205,799.2473a1.1839,1.1839,0,0,1,0,2.243,4.2933,4.2933,0,0,1-3.8852,0,1.184,1.184,0,0,1,0-2.2431A4.2938,4.2938,0,0,1,971.7205,799.2473Z"/><path class="cls-25" d="M1058.3026,749.259a1.1839,1.1839,0,0,1,0,2.2431,4.2939,4.2939,0,0,1-3.8852,0,1.184,1.184,0,0,1,0-2.2432A4.2937,4.2937,0,0,1,1058.3026,749.259Z"/><path class="cls-25" d="M1144.8849,699.2707a1.184,1.184,0,0,1,0,2.2431,4.2937,4.2937,0,0,1-3.8851,0,1.184,1.184,0,0,1,0-2.2432A4.2943,4.2943,0,0,1,1144.8849,699.2707Z"/><path class="cls-25" d="M1231.4671,649.2824a1.184,1.184,0,0,1,0,2.2432,4.2943,4.2943,0,0,1-3.8852,0,1.184,1.184,0,0,1,0-2.2431A4.2939,4.2939,0,0,1,1231.4671,649.2824Z"/><path class="cls-25" d="M1318.0493,599.2942a1.184,1.184,0,0,1,0,2.2431,4.2937,4.2937,0,0,1-3.8851,0,1.1839,1.1839,0,0,1,0-2.243A4.2939,4.2939,0,0,1,1318.0493,599.2942Z"/><path class="cls-25" d="M1404.6315,549.3059a1.184,1.184,0,0,1,0,2.2431,4.2936,4.2936,0,0,1-3.8852,0,1.1839,1.1839,0,0,1,0-2.243A4.2937,4.2937,0,0,1,1404.6315,549.3059Z"/><path class="cls-25" d="M1491.2138,499.3176a1.184,1.184,0,0,1,0,2.2431,4.2939,4.2939,0,0,1-3.8852,0,1.1839,1.1839,0,0,1,0-2.2431A4.2939,4.2939,0,0,1,1491.2138,499.3176Z"/><path class="cls-25" d="M1577.7959,449.3293a1.184,1.184,0,0,1,0,2.2432,4.2937,4.2937,0,0,1-3.8851,0,1.184,1.184,0,0,1,0-2.2432A4.2937,4.2937,0,0,1,1577.7959,449.3293Z"/><path class="cls-25" d="M1664.3782,399.3411a1.184,1.184,0,0,1,0,2.2431,4.2939,4.2939,0,0,1-3.8852,0,1.184,1.184,0,0,1,0-2.2432A4.2936,4.2936,0,0,1,1664.3782,399.3411Z"/><path class="cls-25" d="M1750.96,349.3528a1.184,1.184,0,0,1,0,2.2431,4.2937,4.2937,0,0,1-3.8851,0,1.1839,1.1839,0,0,1,0-2.2431A4.2937,4.2937,0,0,1,1750.96,349.3528Z"/><path class="cls-25" d="M885.1407,949.2135a1.184,1.184,0,0,1,0,2.2431,4.2939,4.2939,0,0,1-3.8852,0,1.184,1.184,0,0,1,0-2.2431A4.2939,4.2939,0,0,1,885.1407,949.2135Z"/><path class="cls-25" d="M971.7229,899.2253a1.1839,1.1839,0,0,1,0,2.243,4.2931,4.2931,0,0,1-3.8851,0,1.184,1.184,0,0,1,0-2.2431A4.2934,4.2934,0,0,1,971.7229,899.2253Z"/><path class="cls-25" d="M1058.3052,849.237a1.184,1.184,0,0,1,0,2.2431,4.2939,4.2939,0,0,1-3.8852,0,1.184,1.184,0,0,1,0-2.2432A4.2939,4.2939,0,0,1,1058.3052,849.237Z"/><path class="cls-25" d="M1144.8874,799.2487a1.1839,1.1839,0,0,1,0,2.2431,4.2937,4.2937,0,0,1-3.8851,0,1.1839,1.1839,0,0,1,0-2.2431A4.2937,4.2937,0,0,1,1144.8874,799.2487Z"/><path class="cls-25" d="M1231.47,749.2605a1.184,1.184,0,0,1,0,2.2431,4.2943,4.2943,0,0,1-3.8852,0,1.1839,1.1839,0,0,1,0-2.243A4.2933,4.2933,0,0,1,1231.47,749.2605Z"/><path class="cls-25" d="M1318.0518,699.2722a1.184,1.184,0,0,1,0,2.2431,4.2937,4.2937,0,0,1-3.8851,0,1.1839,1.1839,0,0,1,0-2.243A4.2937,4.2937,0,0,1,1318.0518,699.2722Z"/><path class="cls-25" d="M1404.6341,649.2839a1.1839,1.1839,0,0,1,0,2.2431,4.2936,4.2936,0,0,1-3.8852,0,1.1839,1.1839,0,0,1,0-2.243A4.2939,4.2939,0,0,1,1404.6341,649.2839Z"/><path class="cls-25" d="M1491.2162,599.2956a1.1839,1.1839,0,0,1,0,2.2431,4.2931,4.2931,0,0,1-3.8851,0,1.184,1.184,0,0,1,0-2.2431A4.2937,4.2937,0,0,1,1491.2162,599.2956Z"/><path class="cls-25" d="M1577.7985,549.3073a1.184,1.184,0,0,1,0,2.2432,4.2939,4.2939,0,0,1-3.8852,0,1.184,1.184,0,0,1,0-2.2432A4.2937,4.2937,0,0,1,1577.7985,549.3073Z"/><path class="cls-25" d="M1664.3808,499.3191a1.184,1.184,0,0,1,0,2.2431,4.2937,4.2937,0,0,1-3.8851,0,1.1839,1.1839,0,0,1,0-2.2431A4.2933,4.2933,0,0,1,1664.3808,499.3191Z"/><path class="cls-25" d="M1750.963,449.3309a1.1839,1.1839,0,0,1,0,2.243,4.2937,4.2937,0,0,1-3.8851,0,1.1839,1.1839,0,0,1,0-2.2431A4.2934,4.2934,0,0,1,1750.963,449.3309Z"/><path class="cls-25" d="M1836.8045,399.0326c2.06.6129,2.0605,2.25,0,2.863a4.238,4.238,0,0,1-2.4038,0c-2.06-.6129-2.06-2.25,0-2.863A4.2372,4.2372,0,0,1,1836.8045,399.0326Z"/><path class="cls-25" d="M971.7255,999.2033a1.1839,1.1839,0,0,1,0,2.2431,4.2937,4.2937,0,0,1-3.8851,0,1.184,1.184,0,0,1,0-2.2432A4.2934,4.2934,0,0,1,971.7255,999.2033Z"/><path class="cls-25" d="M1058.3077,949.215a1.184,1.184,0,0,1,0,2.2431,4.2939,4.2939,0,0,1-3.8852,0,1.184,1.184,0,0,1,0-2.2432A4.2939,4.2939,0,0,1,1058.3077,949.215Z"/><path class="cls-25" d="M1144.89,899.2267a1.1839,1.1839,0,0,1,0,2.2431,4.2939,4.2939,0,0,1-3.8852,0,1.184,1.184,0,0,1,0-2.2431A4.2937,4.2937,0,0,1,1144.89,899.2267Z"/><path class="cls-25" d="M1231.4722,849.2385a1.184,1.184,0,0,1,0,2.2431,4.294,4.294,0,0,1-3.8851,0,1.1839,1.1839,0,0,1,0-2.243A4.2933,4.2933,0,0,1,1231.4722,849.2385Z"/><path class="cls-25" d="M1318.0544,799.25a1.1839,1.1839,0,0,1,0,2.2431,4.2937,4.2937,0,0,1-3.8851,0,1.1839,1.1839,0,0,1,0-2.243A4.2937,4.2937,0,0,1,1318.0544,799.25Z"/><path class="cls-25" d="M1404.6366,749.2619a1.184,1.184,0,0,1,0,2.2431,4.2936,4.2936,0,0,1-3.8852,0,1.1839,1.1839,0,0,1,0-2.243A4.2939,4.2939,0,0,1,1404.6366,749.2619Z"/><path class="cls-25" d="M1491.2188,699.2736a1.184,1.184,0,0,1,0,2.2431,4.2931,4.2931,0,0,1-3.8851,0,1.1839,1.1839,0,0,1,0-2.2431A4.2937,4.2937,0,0,1,1491.2188,699.2736Z"/><path class="cls-25" d="M1577.8011,649.2853a1.184,1.184,0,0,1,0,2.2432,4.2939,4.2939,0,0,1-3.8852,0,1.184,1.184,0,0,1,0-2.2432A4.2939,4.2939,0,0,1,1577.8011,649.2853Z"/><path class="cls-25" d="M1664.3832,599.2971a1.1839,1.1839,0,0,1,0,2.2431,4.2937,4.2937,0,0,1-3.8851,0,1.184,1.184,0,0,1,0-2.2431A4.2931,4.2931,0,0,1,1664.3832,599.2971Z"/><path class="cls-25" d="M1750.9655,549.3089a1.1839,1.1839,0,0,1,0,2.243,4.2939,4.2939,0,0,1-3.8852,0,1.184,1.184,0,0,1,0-2.2431A4.2936,4.2936,0,0,1,1750.9655,549.3089Z"/><path class="cls-25" d="M1836.807,499.0106c2.0605.6129,2.0605,2.25,0,2.863a4.238,4.238,0,0,1-2.4038,0c-2.06-.6129-2.0605-2.25,0-2.863A4.2372,4.2372,0,0,1,1836.807,499.0106Z"/><path class="cls-25" d="M1924.13,449.3323a1.1839,1.1839,0,0,1,0,2.2431,4.2936,4.2936,0,0,1-3.8852,0,1.1839,1.1839,0,0,1,0-2.243A4.2939,4.2939,0,0,1,1924.13,449.3323Z"/><path class="cls-25" d="M1144.8925,999.2047a1.184,1.184,0,0,1,0,2.2431,4.2939,4.2939,0,0,1-3.8852,0,1.184,1.184,0,0,1,0-2.2431A4.2939,4.2939,0,0,1,1144.8925,999.2047Z"/><path class="cls-25" d="M1231.4747,949.2165a1.1839,1.1839,0,0,1,0,2.2431,4.294,4.294,0,0,1-3.8851,0,1.1839,1.1839,0,0,1,0-2.243A4.2937,4.2937,0,0,1,1231.4747,949.2165Z"/><path class="cls-25" d="M1318.0569,899.2282a1.1839,1.1839,0,0,1,0,2.2431,4.2939,4.2939,0,0,1-3.8852,0,1.1839,1.1839,0,0,1,0-2.243A4.2939,4.2939,0,0,1,1318.0569,899.2282Z"/><path class="cls-25" d="M1404.6391,849.24a1.184,1.184,0,0,1,0,2.2431,4.2937,4.2937,0,0,1-3.8851,0,1.1839,1.1839,0,0,1,0-2.2431A4.2937,4.2937,0,0,1,1404.6391,849.24Z"/><path class="cls-25" d="M1491.2214,799.2516a1.184,1.184,0,0,1,0,2.2432,4.2939,4.2939,0,0,1-3.8852,0,1.184,1.184,0,0,1,0-2.2432A4.2939,4.2939,0,0,1,1491.2214,799.2516Z"/><path class="cls-25" d="M1577.8036,749.2633a1.184,1.184,0,0,1,0,2.2432,4.2939,4.2939,0,0,1-3.8852,0,1.184,1.184,0,0,1,0-2.2432A4.2939,4.2939,0,0,1,1577.8036,749.2633Z"/><path class="cls-25" d="M1664.3858,699.2751a1.184,1.184,0,0,1,0,2.2431,4.2939,4.2939,0,0,1-3.8852,0,1.184,1.184,0,0,1,0-2.2431A4.2937,4.2937,0,0,1,1664.3858,699.2751Z"/><path class="cls-25" d="M1750.9681,649.2869a1.1839,1.1839,0,0,1,0,2.243,4.2939,4.2939,0,0,1-3.8852,0,1.1839,1.1839,0,0,1,0-2.2431A4.2939,4.2939,0,0,1,1750.9681,649.2869Z"/><path class="cls-25" d="M1837.55,599.2986a1.1839,1.1839,0,0,1,0,2.243,4.2937,4.2937,0,0,1-3.8851,0,1.184,1.184,0,0,1,0-2.2431A4.2943,4.2943,0,0,1,1837.55,599.2986Z"/><path class="cls-25" d="M1924.1325,549.31a1.184,1.184,0,0,1,0,2.2431,4.2939,4.2939,0,0,1-3.8852,0,1.184,1.184,0,0,1,0-2.2431A4.2939,4.2939,0,0,1,1924.1325,549.31Z"/><path class="cls-25" d="M1318.06,999.2062a1.184,1.184,0,0,1,0,2.2431,4.2934,4.2934,0,0,1-3.8851,0,1.1839,1.1839,0,0,1,0-2.243A4.2939,4.2939,0,0,1,1318.06,999.2062Z"/><path class="cls-25" d="M1404.6417,949.2179a1.1839,1.1839,0,0,1,0,2.2431,4.2931,4.2931,0,0,1-3.8851,0,1.1839,1.1839,0,0,1,0-2.2431A4.2937,4.2937,0,0,1,1404.6417,949.2179Z"/><path class="cls-25" d="M1491.2239,899.23a1.184,1.184,0,0,1,0,2.2432,4.2939,4.2939,0,0,1-3.8852,0,1.184,1.184,0,0,1,0-2.2432A4.2939,4.2939,0,0,1,1491.2239,899.23Z"/><path class="cls-25" d="M1577.8061,849.2414a1.184,1.184,0,0,1,0,2.2431,4.2937,4.2937,0,0,1-3.8851,0,1.1839,1.1839,0,0,1,0-2.2431A4.2931,4.2931,0,0,1,1577.8061,849.2414Z"/><path class="cls-25" d="M1664.3884,799.2531a1.1839,1.1839,0,0,1,0,2.2431,4.2939,4.2939,0,0,1-3.8852,0,1.184,1.184,0,0,1,0-2.2431A4.2939,4.2939,0,0,1,1664.3884,799.2531Z"/><path class="cls-25" d="M1750.9706,749.2649a1.1839,1.1839,0,0,1,0,2.243,4.2937,4.2937,0,0,1-3.8851,0,1.184,1.184,0,0,1,0-2.2431A4.2939,4.2939,0,0,1,1750.9706,749.2649Z"/><path class="cls-25" d="M1837.5528,699.2766a1.1839,1.1839,0,0,1,0,2.243,4.2933,4.2933,0,0,1-3.8852,0,1.184,1.184,0,0,1,0-2.2431A4.2943,4.2943,0,0,1,1837.5528,699.2766Z"/><path class="cls-25" d="M1924.135,649.2883a1.184,1.184,0,0,1,0,2.2431,4.2937,4.2937,0,0,1-3.8851,0,1.1839,1.1839,0,0,1,0-2.2431A4.2937,4.2937,0,0,1,1924.135,649.2883Z"/><path class="cls-25" d="M1491.2264,999.2076a1.184,1.184,0,0,1,0,2.2432,4.2937,4.2937,0,0,1-3.8851,0,1.184,1.184,0,0,1,0-2.2432A4.2937,4.2937,0,0,1,1491.2264,999.2076Z"/><path class="cls-25" d="M1577.8087,949.2194a1.1839,1.1839,0,0,1,0,2.2431,4.2937,4.2937,0,0,1-3.8851,0,1.1839,1.1839,0,0,1,0-2.2431A4.2931,4.2931,0,0,1,1577.8087,949.2194Z"/><path class="cls-25" d="M1664.3909,899.2312a1.1839,1.1839,0,0,1,0,2.243,4.2939,4.2939,0,0,1-3.8852,0,1.184,1.184,0,0,1,0-2.2431A4.2936,4.2936,0,0,1,1664.3909,899.2312Z"/><path class="cls-25" d="M1750.9731,849.2429a1.1839,1.1839,0,0,1,0,2.243,4.2939,4.2939,0,0,1-3.8852,0,1.184,1.184,0,0,1,0-2.2431A4.2937,4.2937,0,0,1,1750.9731,849.2429Z"/><path class="cls-25" d="M1837.5554,799.2546a1.1839,1.1839,0,0,1,0,2.243,4.2933,4.2933,0,0,1-3.8852,0,1.1839,1.1839,0,0,1,0-2.2431A4.2943,4.2943,0,0,1,1837.5554,799.2546Z"/><path class="cls-25" d="M1924.1375,749.2663a1.1839,1.1839,0,0,1,0,2.2431,4.2937,4.2937,0,0,1-3.8851,0,1.184,1.184,0,0,1,0-2.2431A4.2937,4.2937,0,0,1,1924.1375,749.2663Z"/><path class="cls-25" d="M1664.3934,999.2092a1.1839,1.1839,0,0,1,0,2.243,4.2937,4.2937,0,0,1-3.8851,0,1.1839,1.1839,0,0,1,0-2.2431A4.2934,4.2934,0,0,1,1664.3934,999.2092Z"/><path class="cls-25" d="M1750.9757,949.2209a1.1839,1.1839,0,0,1,0,2.243,4.2939,4.2939,0,0,1-3.8852,0,1.184,1.184,0,0,1,0-2.2431A4.2939,4.2939,0,0,1,1750.9757,949.2209Z"/><path class="cls-25" d="M1837.5579,899.2326a1.184,1.184,0,0,1,0,2.2431,4.2937,4.2937,0,0,1-3.8851,0,1.184,1.184,0,0,1,0-2.2432A4.2943,4.2943,0,0,1,1837.5579,899.2326Z"/><path class="cls-25" d="M1924.14,849.2443a1.184,1.184,0,0,1,0,2.2432,4.2943,4.2943,0,0,1-3.8852,0,1.184,1.184,0,0,1,0-2.2431A4.2939,4.2939,0,0,1,1924.14,849.2443Z"/><path class="cls-25" d="M1837.56,999.2106a1.184,1.184,0,0,1,0,2.2431,4.2937,4.2937,0,0,1-3.8851,0,1.184,1.184,0,0,1,0-2.2432A4.294,4.294,0,0,1,1837.56,999.2106Z"/><path class="cls-25" d="M1924.1427,949.2223a1.184,1.184,0,0,1,0,2.2432,4.2943,4.2943,0,0,1-3.8852,0,1.1839,1.1839,0,0,1,0-2.2431A4.2939,4.2939,0,0,1,1924.1427,949.2223Z"/><path class="cls-26" d="M900.7956,740.2162,954.58,709.1637a10.13,10.13,0,0,0,0-17.5458l-53.7871-31.054a35.2048,35.2048,0,0,0-35.205,0l-53.7846,31.0525a10.13,10.13,0,0,0,0,17.5458l53.7871,31.054A35.2048,35.2048,0,0,0,900.7956,740.2162Z"/><path class="cls-26" d="M1160.55,890.1855l53.7847-31.0526a10.13,10.13,0,0,0,0-17.5458l-53.7871-31.0541a35.2055,35.2055,0,0,0-35.2051,0l-53.7845,31.0526a10.13,10.13,0,0,0,0,17.5459l53.7871,31.054A35.2051,35.2051,0,0,0,1160.55,890.1855Z"/><path class="cls-26" d="M987.3778,690.228l53.7846-31.0525a10.13,10.13,0,0,0,0-17.5459l-53.7872-31.054a35.2047,35.2047,0,0,0-35.2049,0l-53.7846,31.0526a10.13,10.13,0,0,0,0,17.5457l53.7871,31.0541A35.2053,35.2053,0,0,0,987.3778,690.228Z"/><path class="cls-26" d="M1593.4661,840.2l53.7846-31.0525a10.13,10.13,0,0,0,0-17.5459l-53.7871-31.054a35.2048,35.2048,0,0,0-35.205,0L1504.474,791.6a10.13,10.13,0,0,0,0,17.5458l53.7871,31.054A35.2048,35.2048,0,0,0,1593.4661,840.2Z"/><path class="cls-26" d="M1766.6356,940.18l53.7846-31.0525a10.13,10.13,0,0,0,0-17.5459l-53.7872-31.054a35.2047,35.2047,0,0,0-35.2049,0L1677.6435,891.58a10.13,10.13,0,0,0,0,17.5458l53.7871,31.054A35.2053,35.2053,0,0,0,1766.6356,940.18Z"/><path class="cls-26" d="M1766.6254,540.2675,1820.41,509.215a10.13,10.13,0,0,0,0-17.5458l-53.7872-31.0541a35.2053,35.2053,0,0,0-35.205,0l-53.7845,31.0526a10.13,10.13,0,0,0,0,17.5459l53.7871,31.0539A35.2047,35.2047,0,0,0,1766.6254,540.2675Z"/><path class="cls-26" d="M1853.2077,490.2793l53.7845-31.0525a10.13,10.13,0,0,0,0-17.5459l-53.7871-31.054a35.2051,35.2051,0,0,0-35.2049,0l-53.7847,31.0525a10.13,10.13,0,0,0,0,17.5459l53.7872,31.054A35.2053,35.2053,0,0,0,1853.2077,490.2793Z"/></g><g class="cls-27"><path class="cls-28" d="M1390.4235,693.5009h75.3581l2.1306,8.7784h58.27a34.997,34.997,0,0,0,17.4989-4.6889l63.0961-36.4285a10.4928,10.4928,0,0,0,0-18.174l-53.2293-30.7319-119.4793,13.3668Z"/></g><g class="cls-29"><path class="cls-30" d="M1608.4037,443.9113h-45.8088l89.4028,51.6168a8.8033,8.8033,0,0,1,0,15.2478L1034.2405,867.4382h45.8089a27.2679,27.2679,0,0,0,13.6338-3.6532l611.43-353.0091a8.8033,8.8033,0,0,0,0-15.2478l-83.0755-47.9636A27.2669,27.2669,0,0,0,1608.4037,443.9113Z"/></g><path class="cls-31" d="M1087.7784,600.8665c-6.1265,1.7943-7.4543,4.797-7.1791,8.8776s-3.546,6.4807-7.1589,7.02-7.56,6.9625-4.2151,10.6423,2.7432,4.0143,1.0036,8.3632,2.8075,8.0927,9.2986,7.0571,17.8154-21.7763,17.4723-22.044S1087.7784,600.8665,1087.7784,600.8665Z"/><path class="cls-31" d="M1088.24,709.7522c.0964,1.5394.4536,2.0838.7689,2.2492s.3284.2189.4026.4679a11.8111,11.8111,0,0,0,.8823,1.7963c1.2958,2.0957,3.2426,1.9566,2.6437.1865a17.9315,17.9315,0,0,1-1.0734-3.052c-.2185-1.264-.4947-2.5219-1.7088-2.952A1.3109,1.3109,0,0,0,1088.24,709.7522Z"/><path class="cls-32" d="M1098.3553,625.4713c-.443,2.126,2.1766,6.8466,4.189,9.1611,1.71,1.9667,7.3262,8.196,11.3071,12.1768.5846.5847,2.58-1.8316,2.074-2.5758-2.4829-3.6495-9.9325-15.0431-9.9325-15.0431-5.8089-12.1854-5.8373-12.137-7.2814-14.2142C1096.2305,611.4076,1098.7981,623.3453,1098.3553,625.4713Z"/><path class="cls-31" d="M1100.3644,707.215c1.7752,1.2012,2.0981,1.0279,2.407,1.9546s-2.3622.63-3.644.2977a4.0162,4.0162,0,0,1-1.6319-.897c-.5832-.6188-1.0624-.23-2.0653-.4655s-1.2184-1.159-.9493-2.6781,3.2339-.361,3.8911.05A18.2565,18.2565,0,0,1,1100.3644,707.215Z"/><path class="cls-33" d="M1097.6679,705.2229c.32.4.086.6122-.2934.7294a2.5644,2.5644,0,0,1-2.097-.7147c-.3254-.5706-2.6288-18.6855-2.6512-25.6423s-3.1071-27.6325-3.8854-32.6983,8.0282-7.1406,9.135,1.7484,1.16,29.1176.426,33.521-1.0969,18.857-1.1146,20.5639A4.3438,4.3438,0,0,0,1097.6679,705.2229Z"/><path class="cls-33" d="M1090.81,709.0533c.1083.54.2149,1.1535-.6041,1.4018a1.406,1.406,0,0,1-1.5409-1.6548c.3012-1.596-3.183-18.31-3.1925-25.2686s-.7749-27.8734-1.5578-32.9388,8.1882-7.1572,9.2985,1.7313-1.1191,30.1224-1.8744,34.5279-.746,17.6479-.7672,19.3552A17.6962,17.6962,0,0,0,1090.81,709.0533Z"/><path class="cls-34" d="M1102.0523,641.22c3.3371,23.7462.91,27.7752.3431,34.56-.2322,2.7784-8.1247,7.8979-12.583,7.8911s-5.3393-1.4676-5.4327-3.9984c-.2231-6.0491-.3615-8.5539-2.2693-34.7743Z"/><path class="cls-35" d="M1097.0822,654.0237c6.683-3.6738,7.5842-6.1749,6.989-11.9308-1.1215-10.8436-3.4879-28.2745-8.5065-30.4-4.5206-1.9151-13.6527,3.3913-16.2435,11.1771-2.2549,6.7764,1.2644,23.3735,2.0235,29.0117S1088.3119,658.845,1097.0822,654.0237Z"/><path class="cls-36" d="M1083.01,618.1285a5.8222,5.8222,0,0,1,.7825-.9664h0l.001-.0009q.0933-.0978.1942-.1994c.5663-.6241,2.2091-2.7578,2.7509-7,0,0,3.4026-.8126,4.0187.7a3.3912,3.3912,0,0,0,2.066,1.5687,4.0658,4.0658,0,0,1,1.48.3927l.0161.0027-.0055.0024c1.1367.5763,1.7738,1.7532,1.7175,3.6079-.122,4.02-7.5695,8.6152-10.7436,7.3273S1082.1657,619.578,1083.01,618.1285Z"/><path class="cls-32" d="M1085.2876,623.5637c-3.1741-1.2879-3.1219-3.9857-2.2773-5.4352a5.8222,5.8222,0,0,1,.7825-.9664h0l.001-.0009q.0933-.0978.1942-.1995a11.09,11.09,0,0,0,2.2435-4.4645l.0031,0s1.206,2.1683,2.7213,2.3181c1.3444.133,3.8581-.4768,3.9-2.58a4.048,4.048,0,0,1,1.447.3885l.0161.0027-.0055.0024c1.1367.5763,1.7738,1.7532,1.7175,3.6079C1095.9092,620.256,1088.4617,624.8516,1085.2876,623.5637Z"/><path class="cls-37" d="M1094.77,605.49c1.36,6.06-.1166,7.49-1.8547,8.522-1.2534.7445-6.8068-1.0282-6.6233-7.6455S1093.6717,600.5955,1094.77,605.49Z"/><path class="cls-33" d="M1113.4834,650.2131a3.3609,3.3609,0,0,1,1.2245-2.54,1.899,1.899,0,0,0-.7278-1.2823c-.9281-.6967.9084-2.5848,1.3976-2.1655,3.3243,2.85,3.3074,4.7336.439,7.0241A1.3418,1.3418,0,0,1,1113.4834,650.2131Z"/><polygon class="cls-23" points="1094.375 633.306 1094.375 652.244 1110.866 661.765 1110.866 642.827 1094.375 633.306"/><polygon class="cls-35" points="1127.357 633.306 1127.357 652.244 1110.866 661.765 1110.866 642.827 1127.357 633.306"/><polygon class="cls-38" points="1094.375 633.306 1110.866 623.785 1127.357 633.306 1110.866 642.827 1094.375 633.306"/><path class="cls-33" d="M1097.9655,651.59c1.0254.7541,1.3135,3.7325,2.8727,4.3433a9.7119,9.7119,0,0,1,2.75,1.6292c-.5526,1.219-4.3747.5913-5.2083.1521s-2.6821-3.6289-2.6821-3.6289l-1.0564-2.7367,2.7223-.2276Z"/><path class="cls-32" d="M1080.0334,625.1589c-.9456,2.866-.3173,4.3484-.0939,6.5086s3.4533,11.4484,5.2116,13.372,10.5462,9.0464,10.5462,9.0464-.5291-.8475.7951-2.3086a1.0042,1.0042,0,0,1,1.2975-.3237l-9.3788-10.959s-3.5874-13.1214-4.6746-15.7186S1080.2858,624.3936,1080.0334,625.1589Z"/><path class="cls-33" d="M1097.9655,651.59c2.3146,1.3364,2.7909.6111,3.1078,1.5489s-1.7706.7119-2.2824.6617S1097.9655,651.59,1097.9655,651.59Z"/><path class="cls-31" d="M1086.3377,612.1063c.7682-1.4763,2.82-.59,2.321-2.1286s.7386-1.9152,1.4913-.7862.527-1.0788,1.0789-1.9068,2.4839,1.4636,4.3405.3179,1.957-3.83,0-5.7623-6.8026-1.7764-8.3792-.6634C1082.3054,604.6252,1085.1657,614.3586,1086.3377,612.1063Z"/><path class="cls-39" d="M1665.7857,482.7223a9.3,9.3,0,0,0-4.3671-5.6241l-69.6816-40.2073a34.8471,34.8471,0,0,0-34.8392.0043L1476.4535,483.34l-68.5759-39.554c-9.6636-5.5739-24.2785-6.1736-32.6433-1.3395l-126.72,73.2322c-3.9943,2.3083-5.8359,5.4386-5.6233,8.686a8.007,8.007,0,0,0,.1078.85,7.5421,7.5421,0,0,0-.1078,1.856v80.3605a7.6156,7.6156,0,0,0,0,.9c.165,2.5207,1.5745,5.11,4.1785,7.4434L944.0634,790.7155a7.6964,7.6964,0,0,0-3.8482,5.9306l-.0046-.003,0,.0831a7.9452,7.9452,0,0,0-.0048,1.406l-.0412,12.0248a13.0334,13.0334,0,0,0,6.52,11.2889l73.4338,42.3724a27.0448,27.0448,0,0,0,27.039-.0034l314.3651-181.4988,11.432,6.5939a37.6523,37.6523,0,0,0,17.47,4.5909c5.673.14,11.1476-.9246,15.1738-3.2513l18.4345-10.6535h0l24.0837,13.9048h0l11.0469,6.3779a17.9529,17.9529,0,0,0,17.9527,0l73.0676-42.1856a13.849,13.849,0,0,0,6.9246-11.9936V610.3808l-.0121.0056a8.7159,8.7159,0,0,0-1.73-5.4645l-17.41-23.3563V580.452l120.6618-69.6642a15.05,15.05,0,0,0,7.5253-13.0343V482.4957ZM1033.6376,851.7265q.8754,0,1.75-.0569Q1034.5134,851.7263,1033.6376,851.7265Zm3.4936-.2268a27.0483,27.0483,0,0,0,3.448-.6795A27.0483,27.0483,0,0,1,1037.1312,851.5Z"/><path class="cls-40" d="M1666.1428,480.0871l-143.9523,91.3465v15.7118l136.427-78.7662a15.05,15.05,0,0,0,7.5253-13.0343Z"/><path class="cls-38" d="M1556.8979,434.4867l-135.9828,78.51,101.2754,58.4372,139.23-80.3845a9.4445,9.4445,0,0,0-.002-16.36l-69.6817-40.2073A34.8465,34.8465,0,0,0,1556.8979,434.4867Z"/><polygon class="cls-41" points="1522.19 571.434 1420.915 512.996 1420.915 528.708 1522.19 587.145 1522.19 571.434"/><path class="cls-41" d="M1515.3014,566.8308a.8445.8445,0,0,1-.4227-.1134l-85.0427-49.0991a.8469.8469,0,0,1,.8468-1.467l85.0428,49.0992a.847.847,0,0,1-.4242,1.58Z"/><path class="cls-41" d="M1547.1691,548.4322a.844.844,0,0,1-.4226-.1133l-85.0428-49.0995a.8469.8469,0,0,1,.8468-1.467l85.0428,49.1a.8469.8469,0,0,1-.4242,1.58Z"/><path class="cls-41" d="M1579.0369,530.0333a.8451.8451,0,0,1-.4227-.1133l-85.0427-49.0995a.8469.8469,0,0,1,.8468-1.467l85.0427,49.1a.8469.8469,0,0,1-.4241,1.58Z"/><path class="cls-41" d="M1610.9046,511.6344a.8442.8442,0,0,1-.4226-.1133l-85.0428-49.1a.8469.8469,0,0,1,.8468-1.4669l85.0427,49.1a.8469.8469,0,0,1-.4241,1.58Z"/><path class="cls-41" d="M1642.7722,493.2355a.8447.8447,0,0,1-.4225-.1133l-85.0428-49.0992a.8469.8469,0,0,1,.8467-1.4669l85.0429,49.0992a.8469.8469,0,0,1-.4243,1.58Z"/><polygon class="cls-42" points="1596.172 473.346 1574.878 473.346 1574.878 492.389 1596.172 492.389 1612.663 482.867 1596.172 473.346"/><g class="cls-43"><polygon class="cls-44" points="1546.699 501.91 1525.404 501.91 1525.404 520.952 1546.699 520.952 1563.19 511.431 1546.699 501.91"/></g><polygon class="cls-23" points="1558.387 463.93 1558.387 482.868 1574.878 492.389 1574.878 473.451 1558.387 463.93"/><polygon class="cls-35" points="1591.369 463.93 1591.369 482.868 1574.878 492.389 1574.878 473.451 1591.369 463.93"/><polygon class="cls-38" points="1558.387 463.93 1574.878 454.409 1591.369 463.93 1574.878 473.451 1558.387 463.93"/><polygon class="cls-23" points="1508.913 492.493 1508.913 511.431 1525.404 520.952 1525.404 502.015 1508.913 492.493"/><polygon class="cls-35" points="1541.895 492.493 1541.895 511.431 1525.404 520.952 1525.404 502.015 1541.895 492.493"/><polygon class="cls-38" points="1508.913 492.493 1525.404 482.972 1541.895 492.493 1525.404 502.015 1508.913 492.493"/><path class="cls-45" d="M1537.94,605.9316l.0153-.0089V524.662l-49.5448,24.0737-80.5333-46.451c-9.6636-5.5739-24.2785-6.1736-32.6434-1.3394l-82.7424,47.8174-49.6005-24.1007v80.3605a7.5943,7.5943,0,0,0,0,.9c.2326,3.5533,2.9257,7.247,7.9748,10.1593l122.0877,70.4194a37.651,37.651,0,0,0,17.47,4.5908h0c5.673.14,11.1476-.9245,15.1738-3.2513l126.72-73.2322C1536.3076,612.3025,1538.1491,609.1759,1537.94,605.9316Z"/><path class="cls-38" d="M1537.94,524.662c-.2326-3.5534-2.9257-7.247-7.9748-10.1594l-122.0878-70.4194c-9.6636-5.5739-24.2785-6.1735-32.6434-1.3395l-126.72,73.2323c-3.9942,2.3083-5.8358,5.4385-5.6232,8.686.2326,3.5534,2.9257,7.247,7.9748,10.1593l122.0877,70.42c9.6636,5.5739,24.2786,6.1736,32.6434,1.3395l126.72-73.2323C1536.3112,531.04,1538.1528,527.91,1537.94,524.662Z"/><path class="cls-46" d="M1537.94,521.9559c-.2326-3.5533-2.9257-7.247-7.9748-10.1593l-122.0878-70.4194c-9.6636-5.5739-24.2785-6.1736-32.6434-1.34l-126.72,73.2322c-3.9942,2.3083-5.8358,5.4386-5.6232,8.686.2326,3.5534,2.9257,7.2471,7.9748,10.1593l122.0877,70.42c9.6636,5.5739,24.2786,6.1736,32.6434,1.3394l126.72-73.2321C1536.3112,528.3335,1538.1528,525.2033,1537.94,521.9559Z"/><path class="cls-47" d="M1470.2087,648.8964l-46.1769-43.8739v72.165l35.13,20.2827a17.9531,17.9531,0,0,0,17.9528,0l73.0676-42.1856a13.8491,13.8491,0,0,0,6.9246-11.9936V607.9722Z"/><path class="cls-38" d="M1458.5963,654.5493l-34.5645-46.3712,93.1267-53.7669,38.2068,51.2577a8.7807,8.7807,0,0,1-2.65,12.852l-70.7488,40.8468A17.9527,17.9527,0,0,1,1458.5963,654.5493Z"/><path class="cls-48" d="M1458.5963,651.3937l-34.5645-46.3712,93.1267-53.7668,38.2068,51.2576a8.7807,8.7807,0,0,1-2.65,12.852l-70.7488,40.8469A17.9528,17.9528,0,0,1,1458.5963,651.3937Z"/><path class="cls-49" d="M1463.6932,638.029l-23.3492-31.3248a3.3338,3.3338,0,0,1,1.0061-4.88l66.6764-38.4957a3.3338,3.3338,0,0,1,4.34.8948l23.3492,31.3249a3.3337,3.3337,0,0,1-1.0061,4.88l-66.6764,38.4957A3.3338,3.3338,0,0,1,1463.6932,638.029Z"/><polygon class="cls-42" points="1448.116 691.092 1448.116 637.333 1424.032 605.022 1424.032 677.187 1448.116 691.092"/><path class="cls-50" d="M1020.1177,845.6979l-79.9071-51.4634-.0463,13.5139a13.0332,13.0332,0,0,0,6.52,11.2889l73.4338,42.3724a27.0448,27.0448,0,0,0,27.039-.0034l314.3651-181.4988V664.1957L1047.1567,845.6945A27.0448,27.0448,0,0,1,1020.1177,845.6979Z"/><path class="cls-51" d="M1260.2465,605.7585l-.0387-25.94,0-.0156q0-.2769.0135-.5432c.0033-.0658.01-.1288.0146-.1936.0079-.1146.0151-.23.0268-.3411.0082-.0789.02-.1547.03-.2321.012-.093.0231-.187.0378-.2776.0137-.084.0307-.1649.0465-.2468.0154-.08.03-.161.0474-.2392.0193-.0862.042-.1695.0638-.2534.018-.0692.0352-.1392.0548-.2067.0256-.0875.054-.1721.0823-.2568.02-.06.0393-.12.0606-.1791.032-.0876.0667-.1725.1017-.2569.0213-.0513.042-.1031.0643-.1532.0388-.0873.08-.1719.1223-.2557.0218-.0433.0432-.087.0659-.1293.0462-.0864.0946-.17.1443-.2526.0216-.0359.043-.0717.0652-.1068.0538-.0849.11-.1673.1675-.2478.0207-.029.0414-.058.0626-.0863q.093-.1244.1919-.2414l.0576-.067q.1055-.12.2172-.2329l.0512-.05q.1186-.1158.2441-.2228l.0414-.0344q.1326-.11.2722-.211l.0308-.0214q.1467-.1035.3009-.1966l.0177-.01c.1079-.064.2183-.1246.3317-.1807h0c2.057-1.0175,4.9867-.7085,8.2416,1.1667l78.7131,45.3476c6.23,3.5894,11.2857,11.5471,11.2915,17.7742l.0388,26.0307Z"/><path class="cls-52" d="M1292.4852,587.1454,944.0633,788.3069a7.798,7.798,0,0,0,.0017,13.5076l76.0527,43.8834a27.0448,27.0448,0,0,0,27.039-.0034l314.3651-181.4987-.0388-26.0308c-.0058-6.2271-5.0612-14.1848-11.2915-17.7742Z"/><path class="cls-41" d="M1232.8913,730.2589a.8351.8351,0,0,1-.4226-.1137l-85.0428-49.0988a.8465.8465,0,1,1,.8468-1.4661l85.0428,49.0987a.8466.8466,0,0,1-.4242,1.58Z"/><path class="cls-41" d="M1264.759,711.86a.8351.8351,0,0,1-.4226-.1137l-85.0428-49.1a.8465.8465,0,1,1,.8468-1.4661l85.0428,49.0995a.8466.8466,0,0,1-.4242,1.58Z"/><path class="cls-41" d="M1201.0236,748.6582a.8348.8348,0,0,1-.4226-.1137l-85.0428-49.1a.8465.8465,0,1,1,.8468-1.4661l85.0427,49.1a.8466.8466,0,0,1-.4241,1.58Z"/><path class="cls-41" d="M1169.1555,767.0567a.8357.8357,0,0,1-.4227-.1137l-85.0423-49.0987a.8466.8466,0,1,1,.8468-1.4662l85.0423,49.0988a.8465.8465,0,0,1-.4241,1.58Z"/><path class="cls-41" d="M1137.2877,785.456a.8359.8359,0,0,1-.4225-.1136l-85.0424-49.1a.8466.8466,0,1,1,.8467-1.4662l85.0424,49.1a.8465.8465,0,0,1-.4242,1.58Z"/><path class="cls-41" d="M1105.42,803.8545a.8353.8353,0,0,1-.4225-.1136l-85.0425-49.1a.8465.8465,0,1,1,.8468-1.4661l85.0424,49.1a.8465.8465,0,0,1-.4242,1.58Z"/><path class="cls-41" d="M1073.5524,822.2531a.8364.8364,0,0,1-.4227-.1137l-85.0424-49.0987a.8466.8466,0,1,1,.8468-1.4662l85.0424,49.0987a.8466.8466,0,0,1-.4241,1.58Z"/><path class="cls-41" d="M1041.6846,840.6524a.8363.8363,0,0,1-.4226-.1137L956.22,791.4392a.8466.8466,0,1,1,.8467-1.4662l85.0424,49.1a.8466.8466,0,0,1-.4242,1.58Z"/><path class="cls-41" d="M1296.6267,693.4619a.8351.8351,0,0,1-.4226-.1137l-85.0428-49.1a.8466.8466,0,1,1,.8468-1.4662l85.0427,49.1a.8466.8466,0,0,1-.4241,1.58Z"/><path class="cls-41" d="M1328.4944,675.0626a.8361.8361,0,0,1-.4226-.1137l-85.0428-49.1a.8465.8465,0,1,1,.8468-1.4661l85.0428,49.1a.8466.8466,0,0,1-.4242,1.58Z"/><path class="cls-41" d="M1360.3621,656.6641a.8374.8374,0,0,1-.4226-.1137l-85.0427-49.1a.8466.8466,0,1,1,.8467-1.4662l85.0428,49.1a.8467.8467,0,0,1-.4242,1.58Z"/><g class="cls-53"><polygon class="cls-54" points="1083.716 769.213 1062.422 769.213 1062.422 788.255 1083.716 788.255 1100.207 778.734 1083.716 769.213"/></g><g class="cls-55"><polygon class="cls-56" points="1171.552 718.501 1150.257 718.501 1150.257 737.543 1171.552 737.543 1188.043 728.022 1171.552 718.501"/></g><g class="cls-57"><polygon class="cls-58" points="1259.387 667.789 1238.093 667.789 1238.093 686.832 1259.387 686.832 1275.879 677.31 1259.387 667.789"/></g><polygon class="cls-23" points="1221.602 658.373 1221.602 677.31 1238.093 686.832 1238.093 667.894 1221.602 658.373"/><polygon class="cls-35" points="1254.584 658.373 1254.584 677.31 1238.093 686.832 1238.093 667.894 1254.584 658.373"/><polygon class="cls-38" points="1221.602 658.373 1238.093 648.851 1254.584 658.373 1238.093 667.894 1221.602 658.373"/><polygon class="cls-23" points="1133.766 709.084 1133.766 728.022 1150.257 737.543 1150.257 718.606 1133.766 709.084"/><polygon class="cls-35" points="1166.748 709.084 1166.748 728.022 1150.257 737.543 1150.257 718.606 1166.748 709.084"/><polygon class="cls-38" points="1133.766 709.084 1150.257 699.563 1166.748 709.084 1150.257 718.606 1133.766 709.084"/><polygon class="cls-23" points="1045.931 759.796 1045.931 778.734 1062.422 788.255 1062.422 769.318 1045.931 759.796"/><polygon class="cls-35" points="1078.913 759.796 1078.913 778.734 1062.422 788.255 1062.422 769.318 1078.913 759.796"/><polygon class="cls-38" points="1045.931 759.796 1062.422 750.275 1078.913 759.796 1062.422 769.318 1045.931 759.796"/><g class="cls-59"><path class="cls-60" d="M1787.955,606.6309h-46.24l136.4769,78.7949a9.2372,9.2372,0,0,1,0,15.9993L1741.7153,780.22h46.24a25.66,25.66,0,0,0,12.83-3.4379l126.5883-73.0857a11.86,11.86,0,0,0,0-20.542l-126.5883-73.0858A25.6613,25.6613,0,0,0,1787.955,606.6309Z"/></g><path class="cls-39" d="M1889.2321,695.0347c-.2327-3.5534-2.9257-7.2471-7.9748-10.1594l-122.0879-70.4194c-9.6635-5.5739-24.2784-6.1736-32.6433-1.34l-126.72,73.2323c-3.9944,2.3083-5.836,5.4385-5.6234,8.686.2326,3.5533,2.9257,7.247,7.9748,10.1593l122.0878,70.4194c9.6636,5.574,24.2785,6.1737,32.6433,1.34l126.72-73.2323C1887.6031,701.4124,1889.4447,698.2822,1889.2321,695.0347Z"/><path class="cls-61" d="M1889.2323,692.8089l.0153-.0089V680.6956l-49.5449,24.0736-80.5333-46.451c-9.6635-5.5738-24.2784-6.1735-32.6433-1.3394l-82.7425,47.8175-49.6005-24.1007V691.9a7.6371,7.6371,0,0,0,0,.9c.2326,3.5534,2.9257,7.2471,7.9748,10.1593l122.0878,70.4195a37.653,37.653,0,0,0,17.47,4.5908h0c5.673.14,11.1477-.9246,15.1738-3.2514l126.72-73.2321C1887.5994,699.18,1889.4409,696.0532,1889.2323,692.8089Z"/><path class="cls-38" d="M1889.2321,680.6956c-.2327-3.5533-2.9257-7.2471-7.9748-10.1594l-122.0879-70.4194c-9.6635-5.5739-24.2784-6.1736-32.6433-1.3394l-126.72,73.2321c-3.9944,2.3084-5.836,5.4387-5.6234,8.6861.2326,3.5533,2.9257,7.247,7.9748,10.1593l122.0878,70.4194c9.6636,5.5739,24.2785,6.1737,32.6433,1.3395l126.72-73.2322C1887.6031,687.0732,1889.4447,683.943,1889.2321,680.6956Z"/><path class="cls-62" d="M1889.2321,677.8351c-.2327-3.5535-2.9257-7.2471-7.9748-10.1594l-122.0879-70.4195c-9.6635-5.5739-24.2784-6.1735-32.6433-1.3394l-126.72,73.2322c-3.9944,2.3083-5.836,5.4386-5.6234,8.6861.2326,3.5533,2.9257,7.247,7.9748,10.1593l122.0878,70.4194c9.6636,5.5739,24.2785,6.1736,32.6433,1.3395l126.72-73.2323C1887.6031,684.2127,1889.4447,681.0825,1889.2321,677.8351Z"/><path class="cls-63" d="M1668.6333,527.9369l51.7992-29.9062c3.13-1.8073,5.6676-.7348,5.6676,2.3954v61.5681c0,3.13-2.5375,7.1327-5.6676,8.94L1668.6333,600.84c-3.13,1.8073-5.6676.7348-5.6676-2.3954V536.8768C1662.9657,533.7466,1665.5032,529.7441,1668.6333,527.9369Z"/><polygon class="cls-64" points="1706.623 570.22 1716.131 564.731 1716.131 540.011 1706.623 545.5 1706.623 570.22"/><polygon class="cls-64" points="1695.289 576.764 1704.797 571.274 1704.797 537.266 1695.289 542.756 1695.289 576.764"/><polygon class="cls-64" points="1683.955 583.308 1693.463 577.818 1693.463 537.266 1683.955 542.756 1683.955 583.308"/><polygon class="cls-64" points="1672.621 589.851 1682.129 584.362 1682.129 530.152 1672.621 535.641 1672.621 589.851"/><polygon class="cls-38" points="1706.623 554.925 1716.131 549.436 1716.131 545.587 1706.623 551.077 1706.623 554.925"/><polygon class="cls-38" points="1695.289 567.002 1704.797 561.513 1704.797 557.664 1695.289 563.154 1695.289 567.002"/><polygon class="cls-38" points="1683.955 555.523 1693.463 550.033 1693.463 546.185 1683.955 551.675 1683.955 555.523"/><polygon class="cls-38" points="1672.621 543.809 1682.129 538.319 1682.129 534.471 1672.621 539.961 1672.621 543.809"/><path class="cls-65" d="M1766.76,603.3305l-41.3924-23.8979c-2.3466-1.3548-4.4711-1.6322-6.0116-.9866h0a3.7132,3.7132,0,0,0-.8228.4751l-74.6814,43.1173,56.7438,78.5893,74.6814-43.1173V616.7649C1775.2767,612.061,1771.4635,606.0463,1766.76,603.3305Z"/><path class="cls-41" d="M1700.5953,700.6277l-58.4265-33.7325V626.15c0-4.7039,3.8131-6.3155,8.517-3.6l41.3924,23.898c4.7039,2.7157,8.5171,8.7306,8.5171,13.4343Z"/><path class="cls-66" d="M1756.67,611.0464l-13.0237-7.5194a1.8261,1.8261,0,0,0-1.8975.0372l-.0024-.003L1710.92,621.3546l13.1539,12.5991,4.5194,26.8372,30.1235-17.3918a2.6426,2.6426,0,0,0,1.7272-2.4869v-23.33A7.5471,7.5471,0,0,0,1756.67,611.0464Z"/><path class="cls-67" d="M1709.9957,622.9553v7.8063l4.6625,2.6918a16.9733,16.9733,0,0,1,8.4866,14.6992V659.64l2.4311,1.4037a2.66,2.66,0,0,0,3.99-2.3035V635.41a7.5468,7.5468,0,0,0-3.7735-6.5359l-13.0238-7.5194A1.8484,1.8484,0,0,0,1709.9957,622.9553Z"/><path class="cls-32" d="M1723.9088,626.234l-4.9648-2.8664a1.8818,1.8818,0,0,1,0-3.2593l22.2523-12.8474a5.035,5.035,0,0,1,5.0347,0l4.9648,2.8664a1.8819,1.8819,0,0,1,0,3.2594l-22.2524,12.8473A5.0348,5.0348,0,0,1,1723.9088,626.234Z"/><g class="cls-68"><polygon class="cls-69" points="1726.1 587.145 1662.966 625.873 1662.966 592.811 1726.1 555.871 1726.1 587.145"/></g><path class="cls-64" d="M1589.8889,745.6608a18.4989,18.4989,0,0,1-9.2534-2.4721l-79.3192-45.7948a14.25,14.25,0,0,1-7.105-12.3057v-9.6556a11.6219,11.6219,0,0,0-5.7942-10.0358l-.8107-.4681a.8465.8465,0,1,1,.8468-1.4661l.8107.4681a13.3166,13.3166,0,0,1,6.6408,11.5019v9.6556a12.5543,12.5543,0,0,0,6.2584,10.8395l79.3192,45.7948a16.8576,16.8576,0,0,0,16.8124,0l37.8132-21.8311a.8466.8466,0,0,1,.8467,1.4662l-37.8131,21.8311A18.4981,18.4981,0,0,1,1589.8889,745.6608Z"/><g class="cls-70"><path class="cls-71" d="M1808.7377,659.0467c-7.7793,0-14.0858,3.2853-14.0858,7.338s6.3065,7.3381,14.0858,7.3381h71.6291V659.0467Z"/></g><path class="cls-32" d="M1809.942,658.541c.9711.9192.7024,2.9033.1715,3.7176-.9122,1.3994-2.0425.6071-2.8237,1.1164-2.12,1.3826-6.5754,2.6488-7.5286,1.98-.9159-.6426-1.6547-2.6388,3.3109-4.5453a9.388,9.388,0,0,0,3.3046-2.0335Z"/><path class="cls-38" d="M1809.8847,656.8441a24.0134,24.0134,0,0,0,.3274,2.4283.8429.8429,0,0,1-.2735.8083,3.2533,3.2533,0,0,1-3.6.6909s-.9151-.3623-.4957-1.5634a17.822,17.822,0,0,0,.6483-2.7263Z"/><path class="cls-32" d="M1818.8985,665.7171a3.1646,3.1646,0,0,1,.1716,3.7176c-.6482.7245-1.6643.1244-2.1322.9311-1.7825,3.0726-4.99,2.71-6.1034,2.5946-1.6733-.174-1.7584-1.5627,1.0015-4.1643a42.9924,42.9924,0,0,0,3.1985-3.1816Z"/><path class="cls-72" d="M1817.6925,589.67c3.203,7.8123-.2278,9.5761-2.5929,19.3081-2.1281,8.7563-.755,26.4931-4.836,49.46-.2509,1.4117-4.5781,1.7443-4.5647-.8761.0231-4.5071-2.4507-20.8823-2.68-30.654-.1545-6.5812,0-27.1941,0-27.1941Z"/><path class="cls-38" d="M1818.8413,664.02a23.9827,23.9827,0,0,0,.3274,2.4283.8426.8426,0,0,1-.2736.8083,3.2532,3.2532,0,0,1-3.6.6909s-.9151-.3623-.4957-1.5634a17.829,17.829,0,0,0,.6482-2.7263Z"/><path class="cls-33" d="M1801.1552,584.953c-3.963,3.0362-5.59,4.2124-5.59,4.2124l-3.8638-2.1062,5.5262-7.9452,1.8455-1.4963,2.5042,3.5588Z"/><path class="cls-73" d="M1827.1753,595.1029c3.2029,7.8123.8251,17.73-1.4365,27.4865a269.4682,269.4682,0,0,0-6.3213,42.2545c-.1038,1.43-4.6151,2.5975-4.96,0-.4277-3.2167-1.911-23.59-2.5418-30.6267-1.0342-11.538.5863-29.07.5863-29.07Z"/><path class="cls-38" d="M1804.7529,570.971l-.2011,15.3523s-2.3861-1.9453-3.3966-1.37c0,0,.4385-5.3577-3.9275-5.839C1797.2277,579.114,1803.3975,571.7537,1804.7529,570.971Z"/><path class="cls-38" d="M1829.5721,600.4022c-1.1887,6.8158-9.6194,10.6451-20.3493,4.6688s-5.66-8.252-5.483-13.9636,3.5272-8.771,1.0868-17.1846,10.1122-2.8317,16.3215,2.3594S1830.6694,594.11,1829.5721,600.4022Z"/><path class="cls-74" d="M1823.1846,576.4472c5.0056,6.36,6.2952,26.2012,5.1978,32.4934-.9432,5.4085-5.7924,5.2679-13.3859,3.5083.1732-1.04.85-7.4262.8989-9.625.2052-9.282-2.0359-17.2539-.74-28.54,0,0,4.9991-.8564.1565-3.1061s-7.0173-2.2443-7.6274-.4142-.2367,16.4664-.5918,26.39c-.13,3.626-1.5671,8.6787-1.7055,10.4461-6.5545-4.63-2.6985-11.4311-2.542-16.4918.1766-5.7116,1.445-8.4826,1.2987-17.2417C1803.9935,564.8387,1818.1114,570.0016,1823.1846,576.4472Z"/><path class="cls-33" d="M1812.955,565.082c2.1832,4.5376,1.4032,5.3075,3.2916,6.9915.7257.6471-1.7456,1.8684-3.5,2.0019l-3.2984,4.0683.1826-5.6189s-1.0931-.4576-.8389-1.4236,1.07-1.6622.2454-2.9646C1808.659,567.5387,1812.955,565.082,1812.955,565.082Z"/><path class="cls-33" d="M1813.9862,565.0675c-.9323,3.1057-3.8278,3.7559-6.0556,3.6761s-5.19-7.9305-3.7174-10.6953,6.8486-4.3858,8.8281-1.5443S1813.9862,565.0675,1813.9862,565.0675Z"/><path class="cls-38" d="M1802.3719,591.3886a.3709.3709,0,0,0,.0936-.012l3.5508-.9146a.3744.3744,0,1,0-.1866-.7252l-3.5508.9147a.3744.3744,0,0,0,.093.7371Z"/><path class="cls-38" d="M1821.1481,576.2822c3.8418,1.0295,4.3723,7.49,5.5161,12.8832s-4.2431,4.0745-6.1008,2.1063S1815.9336,574.8851,1821.1481,576.2822Z"/><path class="cls-33" d="M1802.0983,590.2134c1.37-.3083,1.5284.4328,2.7206,2.079l.011.0042c2.7023,1.05,9.03,3.5089,11.873,4.615,0,0,1.893-15.125,2.7064-17.4128l5.6536,9.6666c-1.9931,8.56-4.1626,12.0676-5.8689,13.7454-1.3688,1.3457-12.1335-5.2261-16.3394-7.8791h0s-1.3474.2721-3.6113-1.5391S1800.573,590.5566,1802.0983,590.2134Z"/><path class="cls-35" d="M1814.4786,565.2972c-.9585,2.0137,1.5341,1.3945,1.7081,2.7429s-3.1628.824-4.0165-1.0686c-.48-1.0634-1.1759-.8923-.0673-1.9047,1.1492-1.0495-.4841-2.0969-1.4458-1.4288s-1.6-.496-1.7667-1.2524-2.9629.1491-4.7931-.0185-4.0407-1.4-3.1036-3.4393,1.5746-.6229,2.1657-1.3326-1.2585-1.188.114-2.046,2.2351.8208,2.8292-.02,2.202-.5743,3.0735-1.3289,1.8354.8652,2.34.6225,2.4649.3007,2.7945,3.2884.5566,1.8344.9195,3.327S1814.4786,565.2972,1814.4786,565.2972Z"/><polygon class="cls-64" points="1801.547 592.35 1790.809 583.499 1796.989 594.761 1807.678 604.174 1801.547 592.35"/><path class="cls-33" d="M1792.2945,586.2065c-2.8046,3.7654-1.5344,5.4756-.7389,6.5867.7662,1.07,8.7385,5.9534,9.86,7.9621s3.8542,1.4823,4.7943.9739a3.031,3.031,0,0,0,.8949-3.67c-.7506-1.6407-3.305-.0474-3.305-.0474l-9.3462-7.8709Z"/><path class="cls-38" d="M1817.9591,587.6113c1.73-1.4048,6.2845.8481,6.6508,3.4028l1.1289-1.3437-3.0361-8.6314-2.95-2.646-1.4871,1.1058Z"/><g class="cls-75"><path class="cls-76" d="M1764.2789,675.6242c-7.7793,0-14.0857,3.2853-14.0857,7.338S1756.5,690.3,1764.2789,690.3h71.6292V675.6242Z"/></g><path class="cls-33" d="M1740.2718,565.8618c-1.681-2.2581-2.81-2.5089-3.6631-3.4624s-.2872-1.1884.34-.7618,1.0249.7146.99.3669c-.0126-.1254.1006-.7717-1.8442-1.8s-2.5717-2.5215-1.4677-2.095,1.6559,1.33,2.835,1.1792,1.9069-.9283,2.81.6272a24.23,24.23,0,0,1,1.681,4.1147Z"/><path class="cls-33" d="M1729.2846,616.87a20.7581,20.7581,0,0,1-3.6639,2.3239c-1.3894.89-3.0775.7866-3.037,1.3041s2.24-.0752,2.7087-.0838c.2807-.0052.6639,1.5052,1.7081,1.657,1.7375.2525,1.8161-1.656,2.8082-2.4426S1729.2846,616.87,1729.2846,616.87Z"/><path class="cls-35" d="M1754.74,587.7215c3.3058-2.7335,12.3262.2147,14.6444,6.0936a93.2265,93.2265,0,0,0-5.6791-10.9164c-2.4352-3.5873-12.6743-8.7515-13.3458-9.6913s-5.5928-7.8629-7.9607-10.0121c-1.5964-1.4489-3.4737,1.8653-2.9647,2.736,2.9952,5.1227,7.3719,11.857,7.3719,11.857Z"/><path class="cls-25" d="M1751.5894,683.9645c-.792,1.3626,3.7109,3.3437,5.8373,3.8287,1.245.2838,2.898,1.9933,4.1448,1.6319,3.1317-.9077,1.7145-3.2918,1.233-4.2628a2.5282,2.5282,0,0,0-2.1849-1.5413,26.5183,26.5183,0,0,1-4.3674-.08C1755.2829,683.3108,1752.6454,682.1476,1751.5894,683.9645Z"/><path class="cls-25" d="M1763.2744,676.6717c-.792,1.3626,3.7109,3.3437,5.8373,3.8286,1.245.2839,2.898,1.9933,4.1448,1.632,3.1318-.9076,1.7145-3.2917,1.233-4.2628a2.5284,2.5284,0,0,0-2.1849-1.5413,26.5184,26.5184,0,0,1-4.3674-.08C1766.9679,676.018,1764.33,674.8548,1763.2744,676.6717Z"/><path class="cls-77" d="M1773.5856,618.1219c2.5792,13.46-1.2339,30.7727-1.2833,34.2674-.0805,5.7.7365,18.7735,1.3065,24.1613.0929.8776-3.0576,1.9266-3.3552,1.0959-3.1861-8.8923-7.7983-24.5365-7.5269-27.0229.4605-4.2187-2.2828-33.0412-2.2828-33.0412l4.246-5.98S1771.5364,607.4285,1773.5856,618.1219Z"/><path class="cls-78" d="M1752.318,614.1538c-3.6225,12.4,1.2435,30.3814,2.1266,44.215.2109,3.3032,1.8893,19.1111,3.7314,25.9077.2783,1.0265,4.6689,2.6066,4.5423-.05-.2843-5.9713.4431-20.3252.8343-24.9327,1.317-15.5125,5.6528-40.978,5.6528-40.978Z"/><path class="cls-79" d="M1774.009,614.6945c-5.7562-8.4843-1.148-10.7284-4.9508-22.4033-3.42-10.4986-8.0679-9.3762-13.5011-7.6409-1.0382.4454-9.983,4.1518-7.4307,10.1061,1.6429,3.8326,1.3619,8.1994.5794,14.7957-1.2871,10.8494-.1716,17.07,2.3509,18.3257C1759.1933,631.93,1779.5261,622.8266,1774.009,614.6945Z"/><path class="cls-35" d="M1751.5371,587.74c3.7588-.8715.2308,29.4971-2.2517,15.5392,0,0-2.0836,5.7942-5.9566,9.0808-3.7762,3.2044-7.3947,4.1982-12.7123,7.0092-1.454.7685-2.5012-1.816-1.6684-2.567,2.9811-2.6884,6.1217-6.0041,10.4093-9.6679C1740.7791,605.9193,1748.0747,588.5428,1751.5371,587.74Z"/><path class="cls-33" d="M1759.3664,571.054c-6.9961,2.9894-7.8092,5.1015-7.5609,6.6133s1.7878,1.5638,2.3056,3.2353a5.18,5.18,0,0,1-.1673,4.1217c-.4329,1.1641,2.1336.9982,3.7355-.0986s2.163-1.2874,1.4759-3.9521,2.0946-3.1711,2.3527-6.3875S1759.3664,571.054,1759.3664,571.054Z"/><path class="cls-80" d="M1758.6,570.6116c-1.736.4651-.5765,5.6457-.8563,5.8136,0,0,1.5668.028.7834,1.147s-1.5669.3077-1.5669.3077a2.1385,2.1385,0,0,0,.8115,2.0142c1.0073.5874,1.2793.43,1.2793.43a5.5944,5.5944,0,0,0,4.3526-1.7429C1765.5714,576.1758,1762.43,569.5855,1758.6,570.6116Z"/><path class="cls-81" d="M1763.2277,576.058c-.7467.2-.5037,1.5946-.22,1.8149s2.6357,1.3985,2.6312,3.92-1.8233,2.2137-1.9912,6.2421,10.6327,6.8818,9.4575,10.2387-5.441,1.12-6.0344,4.3681c-.2663,1.4569.27,3.1851,6.4821,1.8423s6.8272-7.2068,2.5742-12.8071-1.9587-8.5618-3.0219-11.3332S1766.7818,575.1059,1763.2277,576.058Z"/><path class="cls-33" d="M1519.7676,595.5261c-3.1445-.5353-4.97-.7286-5.74-2.0084-.5654-.9392,1.0253-.076,1.5254-.166.3492-.0629.0167-1.472-1.0538-1.99s-2.1744-1.2545-1.4552-1.5723a3.4715,3.4715,0,0,1,2.7934.3513,4.2479,4.2479,0,0,1,2.0907,2.1577c.3179,1.1039,1.6894,1.1039,1.6894,1.1039Z"/><path class="cls-33" d="M1508.1177,612.2124c-2.9133.9031-1.7383,1.647-4.5934.956s-2.8551-.6912-3.4378-1.3347c-.8324-.9195-.8185-2.2027,1.112-1.9811s2.8842.6263,3.0153.3787-.51-1.1507.0437-1.2382.6069.4128,1.0148.9663,2.5249-.3885,2.5249-.3885Z"/><path class="cls-82" d="M1528.45,678.7706c.0375,1.2617.3546,1.8761-.0192,2.5122a2.6741,2.6741,0,0,1-2.7429.7716,3.539,3.539,0,0,1-1.8823-1.2324c-.2889-.513-.6952-.45-1.4551-.6005a13.7125,13.7125,0,0,1-4.368-3.1059c-.6387-1.288,1.504-1.9452,3.8588-1.2046a58.3819,58.3819,0,0,1,5.9367,2.4538Z"/><path class="cls-83" d="M1546.3977,675.0527c.0772,2.1587.1646,2.4953-.4776,3.2149s-2.9136-.1362-3.1064-.6716-.48-.0184-1.2821-.4737-4.0965-1.9377-4.355-2.8793,1.1416-1.402,2.7545-.9643a22.9125,22.9125,0,0,0,3.7767.5151Z"/><path class="cls-84" d="M1550.081,612.2964c-.9083,17.6752-2.3505,25.9541-2.1386,32.09s-.5059,24.7564-.9314,29.2889-4.9866,2.3325-5.0707.288-3.6168-25.7516-4.0624-31.1909-1.7642-31.0483-1.7642-31.0483Z"/><path class="cls-85" d="M1543.8116,625.1163c-8.571,19.8657-10.323,18.8724-12.4707,27.4646s-1.9714,21.3134-2.1757,24.9324a2.5242,2.5242,0,0,1-5.0385.2863c-.4394-2.9252-2.4774-26.7727-1.8438-32.4506S1532.7,611.9178,1532.7,611.9178l9.0089,4.54Z"/><path class="cls-33" d="M1539.5086,578.0833a6.0207,6.0207,0,0,1-1.0438-4.5443c.3807-1.1146,1.3854-6.8771-3.11-8.2488s-7.7314,2.5838-6.7349,6.8972,1.5764,6.7053,2.7426,6.7929,1.5647-.1858,1.87.7247,5.19-.2949,5.19-.2949l1.1359-.4454Z"/><path class="cls-86" d="M1519.3982,592.5354c16.273-3.7478,21.5669-13.92,21.5669-13.92l4.8913,6.8558s-8.2617,11.3377-25.1917,10.7761C1516.8611,596.121,1518.1224,592.8292,1519.3982,592.5354Z"/><path class="cls-87" d="M1538.473,573.2269c-11.168,7.2463-11.9819,6.6083-14.7034,16.5354-2.0412,7.4453,4.1125,26.1814.0479,36.3359-1.4325,3.5783,1.3419,5.3659,4.4067,4.5414,3.94-1.06,2.5295,3.3931,9.07,5.4688,6.3113,2.0032,11.8732-4.1542,13.5555-10.6441.865-3.3373.1089-30.0542-.3321-31.9271C1547.7239,581.6763,1542.1005,570.8731,1538.473,573.2269Z"/><path class="cls-31" d="M1539.5086,578.0833a9.3724,9.3724,0,0,1,1.86,1.8045c.2053.3373-4.697,2.4579-7.95,3.0912l-.186-3.274S1539.7436,579.09,1539.5086,578.0833Z"/><path class="cls-31" d="M1529.8225,563.2943c-4.5419.5784-3.6612,5.362-2.3966,7.28s1.2873,1.25,2.9329,2.16c0,0,.3092-.169.8982,2.5836l.8723.1814c.2895.06-.3153-.797.0726-1.1833s1.8.4214,1.3488,1.6994-.4753.915-.4753.915,1.164,1.1862,1.7866.9231,3.6328-.6235,3.7275-1.741,1.2789-2.7169.8825-5.6853-2.5294-5.6478-5.4629-5.982S1530.8992,563.1571,1529.8225,563.2943Z"/><path class="cls-88" d="M1506.67,609.69c16.297-8.5888,17.0781-8.8906,21.7686-18.9474,5.0989-10.9326,7.0095,1.4485,6.784,3.649-1.4333,13.9832-9.1145,14.5848-25.6249,18.3725C1505.8887,613.6148,1505.5121,610.3,1506.67,609.69Z"/><path class="cls-89" d="M1485.5084,524.6612h0c-.15-2.29-1.8861-4.67-5.14-6.5471l-78.69-45.3879c-6.2286-3.5926-15.6485-3.9791-21.04-.8633l-81.6754,47.2008c-2.31,1.3349-3.5021,3.0965-3.6244,4.9562a5.1643,5.1643,0,0,0,.2311,1.8721l.01.0292q.0665.211.151.4217c.0093.0234.0193.0468.0289.07q.0793.192.1737.3834c.0139.0283.0276.0565.042.0847.064.1259.1334.2514.2069.3765.0154.0262.03.0526.0457.0787q.1233.2042.2637.4066l.0267.04a9.0569,9.0569,0,0,0,.7137.8887c.025.0276.0523.0547.0778.0821.1049.1129.2129.2253.326.3367.0455.0448.0934.0891.14.1336.0983.0936.1988.1866.3029.2789.0569.05.1151.1.1736.15q.1513.1291.3107.2565c.0641.0513.1285.1025.1945.1533.1086.0836.2207.1663.3344.2485.0677.0491.1345.0984.2041.1469.1253.0875.2556.1736.3868.26.0625.0408.1227.0823.1865.1228.1955.1239.3962.2463.604.3663l.0055.0033,78.69,45.3878a24.5411,24.5411,0,0,0,12.2549,2.9665,23.7221,23.7221,0,0,0,2.6312-.185c.11-.0138.2185-.03.3275-.0452a16.2829,16.2829,0,0,0,5.8262-1.873l51.7619-29.9135,29.9134-17.2872.0134-.0082q.24-.1387.4633-.2838c.0553-.0359.1065-.0733.16-.11.0952-.0643.1911-.1282.2817-.1941.0642-.0466.1239-.0949.1858-.1423.0744-.0571.15-.1138.2213-.1719.0658-.0539.1272-.1091.19-.1639s.1244-.1066.1832-.1609c.065-.06.1258-.1212.1873-.1823.0509-.05.1029-.1.1515-.151.0629-.0659.1218-.1329.1809-.2.0419-.0474.0846-.0944.1246-.1422.06-.0716.1159-.1441.1714-.2167.0338-.0441.0681-.088.1-.1324.056-.0774.1085-.1556.16-.2341.0265-.0405.0536-.0809.0789-.1218.0516-.0832.1-.1671.1463-.2515.02-.0366.0405-.0731.06-.11.0465-.0891.09-.1789.13-.2691.0147-.0324.0293-.0649.0433-.0975q.0611-.1427.1127-.287.015-.0415.0291-.0834c.0342-.1011.0653-.2026.0926-.3047l.018-.07c.0271-.1072.0509-.2148.0705-.3229l.009-.0531c.0192-.1133.035-.227.0461-.3412l.0031-.0374c.0107-.1192.0175-.2389.0193-.359,0-.0068,0-.0135,0-.02C1485.52,524.9132,1485.5167,524.7874,1485.5084,524.6612Z"/><path class="cls-90" d="M1295.5717,525.9211q.0665.211.151.4217c.0093.0234.0192.0468.0289.07q.0793.192.1737.3834c.0139.0283.0276.0564.042.0847.0641.1259.1334.2513.2069.3765.0154.0262.03.0525.0458.0786q.1232.2042.2636.4067l.0267.04q.1587.2262.3386.45a8.9686,8.9686,0,0,1,2.1064-1.6421l81.6754-47.2008c5.3915-3.1156,14.8113-2.7291,21.04.8634l78.69,45.3879a12.775,12.775,0,0,1,3.6193,2.9786c.0385-.0424.0776-.0848.1153-.1274.0418-.0474.0845-.0944.1245-.1423.06-.0715.1159-.1441.1714-.2166.0338-.0441.0682-.088.1-.1324.056-.0774.1085-.1556.16-.2341.0266-.0405.0536-.081.0789-.1218.0516-.0832.1-.1672.1463-.2515.02-.0366.04-.0731.06-.11q.07-.1337.1305-.2691c.0147-.0325.0293-.065.0433-.0975q.0611-.1427.1127-.287c.01-.0277.02-.0556.0291-.0834q.0513-.1517.0927-.3047l.0179-.07c.0271-.1072.0509-.2148.0705-.323l.009-.053c.0193-.1133.0351-.227.0461-.3413l.0031-.0374c.0107-.1192.0175-.2388.0193-.3589,0-.0068,0-.0136,0-.02.0013-.1255-.0016-.2513-.01-.3776h0c-.15-2.29-1.8861-4.67-5.14-6.5472l-78.69-45.3878c-6.2285-3.5926-15.6483-3.9791-21.04-.8633l-81.6754,47.2008c-2.31,1.3348-3.5021,3.0965-3.6244,4.9562a5.16,5.16,0,0,0,.2312,1.8721Z"/><g class="cls-91"><path class="cls-92" d="M1485.5084,524.6612h0l.0141-213.3653H1295.3389V524.02a5.1643,5.1643,0,0,0,.2311,1.8721l.01.0292q.0665.211.151.4217c.0093.0234.0193.0468.0289.07q.0793.192.1737.3834c.0139.0283.0276.0565.042.0847.064.1259.1334.2514.2069.3765.0154.0262.03.0526.0457.0787q.1233.2042.2637.4066l.0267.04a9.0569,9.0569,0,0,0,.7137.8887c.025.0276.0523.0547.0778.0821.1049.1129.2129.2253.326.3367.0455.0448.0934.0891.14.1336.0983.0936.1988.1866.3029.2789.0569.05.1151.1.1736.15q.1513.1291.3107.2565c.0641.0513.1285.1025.1945.1533.1086.0836.2207.1663.3344.2485.0677.0491.1345.0984.2041.1469.1253.0875.2556.1736.3868.26.0625.0408.1227.0823.1865.1228.1955.1239.3962.2463.604.3663l.0055.0033,78.69,45.3878a24.5411,24.5411,0,0,0,12.2549,2.9665,23.7221,23.7221,0,0,0,2.6312-.185c.11-.0138.2185-.03.3275-.0452a16.2829,16.2829,0,0,0,5.8262-1.873l51.7619-29.9135,29.9134-17.2872.0134-.0082q.24-.1387.4633-.2838c.0553-.0359.1065-.0733.16-.11.0952-.0643.1911-.1282.2817-.1941.0642-.0466.1239-.0949.1858-.1423.0744-.0571.15-.1138.2213-.1719.0658-.0539.1272-.1091.19-.1639s.1244-.1066.1832-.1609c.065-.06.1258-.1212.1873-.1823.0509-.05.1029-.1.1515-.151.0629-.0659.1218-.1329.1809-.2.0419-.0474.0846-.0944.1246-.1422.06-.0716.1159-.1441.1714-.2167.0338-.0441.0681-.088.1-.1324.056-.0774.1085-.1556.16-.2341.0265-.0405.0536-.0809.0789-.1218.0516-.0832.1-.1671.1463-.2515.02-.0366.0405-.0731.06-.11.0465-.0891.09-.1789.13-.2691.0147-.0324.0293-.0649.0433-.0975q.0611-.1427.1127-.287.015-.0415.0291-.0834c.0342-.1011.0653-.2026.0926-.3047l.018-.07c.0271-.1072.0509-.2148.0705-.3229l.009-.0531c.0192-.1133.035-.227.0461-.3412l.0031-.0374c.0107-.1192.0175-.2389.0193-.359,0-.0068,0-.0135,0-.02C1485.52,524.9132,1485.5167,524.7874,1485.5084,524.6612Z"/></g><path class="cls-38" d="M1403.8526,553.9818l-65.7935-37.596,114.8883-66.66Zm-62.3994-37.607,61.6483,35.2274,46.001-97.6876Z"/><path class="cls-38" d="M1452.6072,453.0933,1369.55,432.1184l37.7724-69.693Zm-80.529-22.0836,77.3645,19.5378-42.1811-84.4543Z"/><polygon class="cls-23" points="1332.448 512.146 1332.448 520.538 1339.756 524.757 1339.756 516.365 1332.448 512.146"/><polygon class="cls-35" points="1347.064 512.146 1347.064 520.538 1339.756 524.757 1339.756 516.365 1347.064 512.146"/><polygon class="cls-38" points="1332.448 512.146 1339.756 507.927 1347.064 512.146 1339.756 516.365 1332.448 512.146"/><polygon class="cls-23" points="1443.717 447.586 1443.717 455.978 1451.025 460.197 1451.025 451.805 1443.717 447.586"/><polygon class="cls-35" points="1458.333 447.586 1458.333 455.978 1451.025 460.197 1451.025 451.805 1458.333 447.586"/><polygon class="cls-38" points="1443.717 447.586 1451.025 443.367 1458.333 447.586 1451.025 451.805 1443.717 447.586"/><polygon class="cls-23" points="1328.794 465.561 1328.794 473.953 1336.102 478.172 1336.102 469.78 1328.794 465.561"/><polygon class="cls-35" points="1343.41 465.561 1343.41 473.953 1336.102 478.172 1336.102 469.78 1343.41 465.561"/><polygon class="cls-38" points="1328.794 465.561 1336.102 461.342 1343.41 465.561 1336.102 469.78 1328.794 465.561"/><polygon class="cls-23" points="1443.717 399.599 1443.717 407.991 1451.025 412.21 1451.025 403.818 1443.717 399.599"/><polygon class="cls-35" points="1458.333 399.599 1458.333 407.991 1451.025 412.21 1451.025 403.818 1458.333 399.599"/><polygon class="cls-38" points="1443.717 399.599 1451.025 395.38 1458.333 399.599 1451.025 403.818 1443.717 399.599"/><polygon class="cls-23" points="1339.756 325.508 1339.756 333.9 1347.064 338.119 1347.064 329.727 1339.756 325.508"/><polygon class="cls-35" points="1354.372 325.508 1354.372 333.9 1347.064 338.119 1347.064 329.727 1354.372 325.508"/><polygon class="cls-38" points="1339.756 325.508 1347.064 321.289 1354.372 325.508 1347.064 329.727 1339.756 325.508"/><polygon class="cls-23" points="1399.984 360.025 1399.984 368.417 1407.292 372.636 1407.292 364.244 1399.984 360.025"/><polygon class="cls-35" points="1414.6 360.025 1414.6 368.417 1407.292 372.636 1407.292 364.244 1414.6 360.025"/><polygon class="cls-38" points="1399.984 360.025 1407.292 355.806 1414.6 360.025 1407.292 364.244 1399.984 360.025"/><polygon class="cls-23" points="1396.169 548.557 1396.169 556.949 1403.477 561.169 1403.477 552.777 1396.169 548.557"/><polygon class="cls-35" points="1410.785 548.557 1410.785 556.949 1403.477 561.169 1403.477 552.777 1410.785 548.557"/><polygon class="cls-38" points="1396.169 548.557 1403.477 544.338 1410.785 548.557 1403.477 552.777 1396.169 548.557"/><polygon class="cls-23" points="1360.231 425.431 1360.231 437.585 1370.814 443.695 1370.814 431.542 1360.231 425.431"/><polygon class="cls-35" points="1381.398 425.431 1381.398 437.585 1370.814 443.695 1370.814 431.542 1381.398 425.431"/><polygon class="cls-38" points="1360.231 425.431 1370.814 419.32 1381.398 425.431 1370.814 431.542 1360.231 425.431"/><path class="cls-93" d="M1093.8862,551.297c-3.7241-.1267-6.5872,2.8956-7.4715,3.83-.9472-.8706-4.014-3.6859-7.72-3.3-4.4827.4668-9.3731,4.2429-8.8984,13.3491.47,9.0109,12.1532,19.3943,17.65,21.9536l.0869.04.084-.046c5.3048-2.9363,16.2361-14.1088,16.0767-23.1306C1103.5322,554.8762,1098.3905,551.45,1093.8862,551.297Z"/></g></g></svg>