<svg xmlns="http://www.w3.org/2000/svg" xmlns:xlink="http://www.w3.org/1999/xlink" viewBox="0 0 553.31 999.9919"><defs><style>.cls-1{mask:url(#mask);filter:url(#luminosity-noclip-7);}.cls-11,.cls-13,.cls-2,.cls-22,.cls-24,.cls-33,.cls-36,.cls-38,.cls-4,.cls-48,.cls-50,.cls-52,.cls-7,.cls-9{mix-blend-mode:multiply;}.cls-2{fill:url(#åçûìßííûé_ãðàäèåíò_339);}.cls-3{mask:url(#mask-2);filter:url(#luminosity-noclip-12);}.cls-4{fill:url(#åçûìßííûé_ãðàäèåíò_339-2);}.cls-5{fill:url(#åçûìßííûé_ãðàäèåíò_60);}.cls-6{mask:url(#mask-3);filter:url(#luminosity-noclip-8);}.cls-7{fill:url(#åçûìßííûé_ãðàäèåíò_339-3);}.cls-8{mask:url(#mask-4);filter:url(#luminosity-noclip-9);}.cls-9{fill:url(#åçûìßííûé_ãðàäèåíò_339-4);}.cls-10{mask:url(#mask-5);filter:url(#luminosity-noclip-10);}.cls-11{fill:url(#åçûìßííûé_ãðàäèåíò_339-5);}.cls-12{mask:url(#mask-6);filter:url(#luminosity-noclip-11);}.cls-13{fill:url(#åçûìßííûé_ãðàäèåíò_339-6);}.cls-14,.cls-20{fill:none;}.cls-15{isolation:isolate;}.cls-16{clip-path:url(#clip-path);}.cls-17{fill:#a0a2c7;}.cls-18{opacity:0.2;}.cls-19{fill:#8992f5;}.cls-20{stroke:#8992f5;stroke-miterlimit:10;stroke-width:1.2293px;}.cls-21{mask:url(#mask-7);}.cls-22{fill:url(#åçûìßííûé_ãðàäèåíò_26);}.cls-23{mask:url(#mask-8);}.cls-24{fill:url(#åçûìßííûé_ãðàäèåíò_26-2);}.cls-25{fill:#001370;}.cls-26{fill:#020c82;}.cls-27{fill:#f5d5d5;}.cls-28{fill:url(#linear-gradient);}.cls-29{fill:#ffad6f;}.cls-30{fill:url(#åçûìßííûé_ãðàäèåíò_29);}.cls-31{fill:url(#åçûìßííûé_ãðàäèåíò_29-2);}.cls-32{fill:#fff;}.cls-33{fill:#bcc0e5;}.cls-34{fill:#dcdefa;}.cls-35{fill:#e6e7f5;}.cls-36{fill:#d0d3f5;}.cls-37{mask:url(#mask-9);}.cls-38{fill:url(#åçûìßííûé_ãðàäèåíò_26-3);}.cls-39{fill:url(#åçûìßííûé_ãðàäèåíò_15);}.cls-40{fill:url(#îâûé_îáðàçåö_ãðàäèåíòà_1);}.cls-41{fill:url(#åçûìßííûé_ãðàäèåíò_15-2);}.cls-42{fill:url(#îâûé_îáðàçåö_ãðàäèåíòà_1-2);}.cls-43{fill:#5d96cf;}.cls-44{fill:url(#åçûìßííûé_ãðàäèåíò_15-3);}.cls-45{fill:url(#linear-gradient-2);}.cls-46{fill:url(#linear-gradient-3);}.cls-47{mask:url(#mask-10);}.cls-48{fill:url(#åçûìßííûé_ãðàäèåíò_26-4);}.cls-49{mask:url(#mask-11);}.cls-50{fill:url(#åçûìßííûé_ãðàäèåíò_26-5);}.cls-51{mask:url(#mask-12);}.cls-52{fill:url(#åçûìßííûé_ãðàäèåíò_26-6);}.cls-53{fill:#5795d1;}.cls-54{fill:url(#åçûìßííûé_ãðàäèåíò_3);}.cls-55{fill:url(#åçûìßííûé_ãðàäèåíò_3-2);}.cls-56{fill:url(#åçûìßííûé_ãðàäèåíò_8_êîïèß_10);}.cls-57{fill:url(#åçûìßííûé_ãðàäèåíò_8_êîïèß_10-2);}.cls-58{fill:url(#linear-gradient-4);}.cls-59{fill:url(#linear-gradient-5);}.cls-60{fill:url(#linear-gradient-6);}.cls-61{fill:url(#linear-gradient-7);}.cls-62{fill:url(#linear-gradient-8);}.cls-63{mask:url(#mask-13);}.cls-64{fill:url(#linear-gradient-9);}.cls-65{fill:url(#linear-gradient-10);}.cls-66{filter:url(#luminosity-noclip-6);}.cls-67{filter:url(#luminosity-noclip-5);}.cls-68{filter:url(#luminosity-noclip-4);}.cls-69{filter:url(#luminosity-noclip-3);}.cls-70{filter:url(#luminosity-noclip-2);}.cls-71{filter:url(#luminosity-noclip);}</style><filter id="luminosity-noclip" x="387.6639" y="-7434.8432" width="155.5647" height="32766" filterUnits="userSpaceOnUse" color-interpolation-filters="sRGB"><feFlood flood-color="#fff" result="bg"/><feBlend in="SourceGraphic" in2="bg"/></filter><mask id="mask" x="387.6639" y="-7434.8432" width="155.5647" height="32766" maskUnits="userSpaceOnUse"><g class="cls-71"/></mask><linearGradient id="åçûìßííûé_ãðàäèåíò_339" x1="387.6639" y1="700.1124" x2="543.2286" y2="700.1124" gradientUnits="userSpaceOnUse"><stop offset="0" stop-color="#fff"/><stop offset="1"/></linearGradient><filter id="luminosity-noclip-2" x="280.7266" y="-7434.8432" width="26.5259" height="32766" filterUnits="userSpaceOnUse" color-interpolation-filters="sRGB"><feFlood flood-color="#fff" result="bg"/><feBlend in="SourceGraphic" in2="bg"/></filter><mask id="mask-2" x="280.7266" y="-7434.8432" width="26.5259" height="32766" maskUnits="userSpaceOnUse"><g class="cls-70"/></mask><linearGradient id="åçûìßííûé_ãðàäèåíò_339-2" x1="280.7266" y1="714.1825" x2="307.2525" y2="714.1825" xlink:href="#åçûìßííûé_ãðàäèåíò_339"/><linearGradient id="åçûìßííûé_ãðàäèåíò_60" x1="388.6522" y1="457.2376" x2="388.6522" y2="639.7576" gradientUnits="userSpaceOnUse"><stop offset="0"/><stop offset="0.0939" stop-color="#060606"/><stop offset="0.2187" stop-color="#171717"/><stop offset="0.3609" stop-color="#323232"/><stop offset="0.516" stop-color="#595959"/><stop offset="0.6816" stop-color="#8b8b8b"/><stop offset="0.8532" stop-color="#c6c6c6"/><stop offset="1" stop-color="#fff"/></linearGradient><filter id="luminosity-noclip-3" x="137.6207" y="-7434.8432" width="474.0476" height="32766" filterUnits="userSpaceOnUse" color-interpolation-filters="sRGB"><feFlood flood-color="#fff" result="bg"/><feBlend in="SourceGraphic" in2="bg"/></filter><mask id="mask-3" x="137.6207" y="-7434.8432" width="474.0476" height="32766" maskUnits="userSpaceOnUse"><g class="cls-69"/></mask><linearGradient id="åçûìßííûé_ãðàäèåíò_339-3" x1="137.6207" y1="698.9941" x2="611.6683" y2="698.9941" xlink:href="#åçûìßííûé_ãðàäèåíò_339"/><filter id="luminosity-noclip-4" x="482.4213" y="-7434.8432" width="26.5259" height="32766" filterUnits="userSpaceOnUse" color-interpolation-filters="sRGB"><feFlood flood-color="#fff" result="bg"/><feBlend in="SourceGraphic" in2="bg"/></filter><mask id="mask-4" x="482.4213" y="-7434.8432" width="26.5259" height="32766" maskUnits="userSpaceOnUse"><g class="cls-68"/></mask><linearGradient id="åçûìßííûé_ãðàäèåíò_339-4" x1="482.4213" y1="597.734" x2="508.9472" y2="597.734" xlink:href="#åçûìßííûé_ãðàäèåíò_339"/><filter id="luminosity-noclip-5" x="157.4041" y="-7434.8432" width="26.5258" height="32766" filterUnits="userSpaceOnUse" color-interpolation-filters="sRGB"><feFlood flood-color="#fff" result="bg"/><feBlend in="SourceGraphic" in2="bg"/></filter><mask id="mask-5" x="157.4041" y="-7434.8432" width="26.5258" height="32766" maskUnits="userSpaceOnUse"><g class="cls-67"/></mask><linearGradient id="åçûìßííûé_ãðàäèåíò_339-5" x1="157.4041" y1="785.3828" x2="183.93" y2="785.3828" xlink:href="#åçûìßííûé_ãðàäèåíò_339"/><filter id="luminosity-noclip-6" x="219.0653" y="-7434.8432" width="26.5259" height="32766" filterUnits="userSpaceOnUse" color-interpolation-filters="sRGB"><feFlood flood-color="#fff" result="bg"/><feBlend in="SourceGraphic" in2="bg"/></filter><mask id="mask-6" x="219.0653" y="-7434.8432" width="26.5259" height="32766" maskUnits="userSpaceOnUse"><g class="cls-66"/></mask><linearGradient id="åçûìßííûé_ãðàäèåíò_339-6" x1="219.0653" y1="749.7826" x2="245.5912" y2="749.7826" xlink:href="#åçûìßííûé_ãðàäèåíò_339"/><clipPath id="clip-path"><polygon class="cls-14" points="553.109 1000.549 2.698 1000.549 1.698 363.831 553.109 363.831 553.109 1000.549"/></clipPath><filter id="luminosity-noclip-7" x="387.6639" y="668.5138" width="155.5647" height="63.1971" filterUnits="userSpaceOnUse" color-interpolation-filters="sRGB"><feFlood flood-color="#fff" result="bg"/><feBlend in="SourceGraphic" in2="bg"/></filter><mask id="mask-7" x="387.6639" y="668.5138" width="155.5647" height="63.1971" maskUnits="userSpaceOnUse"><g class="cls-1"><path class="cls-2" d="M387.6639,725.5484h52.9019l1.4957,6.1625h40.9058a24.5685,24.5685,0,0,0,12.2844-3.2917l44.2939-25.573a7.3661,7.3661,0,0,0,0-12.7583l-37.3674-21.5741-83.8753,9.3837Z"/></g></mask><linearGradient id="åçûìßííûé_ãðàäèåíò_26" x1="387.6639" y1="700.1124" x2="543.2286" y2="700.1124" gradientUnits="userSpaceOnUse"><stop offset="0" stop-color="#bcc0e5"/><stop offset="1" stop-color="#bcc0e5"/></linearGradient><filter id="luminosity-noclip-8" x="137.6207" y="550.3346" width="474.0476" height="297.3191" filterUnits="userSpaceOnUse" color-interpolation-filters="sRGB"><feFlood flood-color="#fff" result="bg"/><feBlend in="SourceGraphic" in2="bg"/></filter><mask id="mask-8" x="137.6207" y="550.3346" width="474.0476" height="297.3191" maskUnits="userSpaceOnUse"><g class="cls-6"><path class="cls-7" d="M540.6877,550.3346H508.53L571.291,586.57a6.18,6.18,0,0,1,0,10.7041l-433.67,250.38h32.1582a19.1416,19.1416,0,0,0,9.571-2.5646L608.5783,597.274a6.18,6.18,0,0,0,0-10.7041l-58.32-33.6708A19.1415,19.1415,0,0,0,540.6877,550.3346Z"/></g></mask><linearGradient id="åçûìßííûé_ãðàäèåíò_26-2" x1="137.6207" y1="698.9941" x2="611.6683" y2="698.9941" xlink:href="#åçûìßííûé_ãðàäèåíò_26"/><linearGradient id="linear-gradient" x1="185.6025" y1="739.7994" x2="176.3028" y2="687.1009" gradientUnits="userSpaceOnUse"><stop offset="0" stop-color="#101c7a"/><stop offset="1" stop-color="#a0a2c7"/></linearGradient><linearGradient id="åçûìßííûé_ãðàäèåíò_29" x1="1469.0879" y1="583.1286" x2="1480.4156" y2="581.3859" gradientTransform="matrix(-0.9947, 0.1028, 0.1028, 0.9947, 1591.0095, -58.6573)" gradientUnits="userSpaceOnUse"><stop offset="0" stop-color="#fff"/><stop offset="0.0762" stop-color="#fdf9f9"/><stop offset="1" stop-color="#f5d5d5"/></linearGradient><linearGradient id="åçûìßííûé_ãðàäèåíò_29-2" x1="1468.8951" y1="568.5177" x2="1484.7877" y2="577.2676" xlink:href="#åçûìßííûé_ãðàäèåíò_29"/><filter id="luminosity-noclip-9" x="482.4213" y="591.05" width="26.5259" height="13.3679" filterUnits="userSpaceOnUse" color-interpolation-filters="sRGB"><feFlood flood-color="#fff" result="bg"/><feBlend in="SourceGraphic" in2="bg"/></filter><mask id="mask-9" x="482.4213" y="591.05" width="26.5259" height="13.3679" maskUnits="userSpaceOnUse"><g class="cls-8"><polygon class="cls-9" points="497.37 591.05 482.421 591.05 482.421 604.418 497.37 604.418 508.947 597.734 497.37 591.05"/></g></mask><linearGradient id="åçûìßííûé_ãðàäèåíò_26-3" x1="482.4213" y1="597.734" x2="508.9472" y2="597.734" xlink:href="#åçûìßííûé_ãðàäèåíò_26"/><linearGradient id="åçûìßííûé_ãðàäèåíò_15" x1="406.816" y1="655.9727" x2="373.5158" y2="655.9727" gradientUnits="userSpaceOnUse"><stop offset="0" stop-color="#dcdefa"/><stop offset="1" stop-color="#f2f3fa"/></linearGradient><linearGradient id="îâûé_îáðàçåö_ãðàäèåíòà_1" x1="284.0835" y1="605.1225" x2="491.2333" y2="605.1225" gradientUnits="userSpaceOnUse"><stop offset="0" stop-color="#f7f8ff"/><stop offset="1" stop-color="#f2f3fa"/></linearGradient><linearGradient id="åçûìßííûé_ãðàäèåíò_15-2" x1="454.7707" y1="696.7296" x2="433.3611" y2="696.7296" xlink:href="#åçûìßííûé_ãðàäèåíò_15"/><linearGradient id="îâûé_îáðàçåö_ãðàäèåíòà_1-2" x1="411.2571" y1="663.376" x2="504.6771" y2="663.376" xlink:href="#îâûé_îáðàçåö_ãðàäèåíòà_1"/><linearGradient id="åçûìßííûé_ãðàäèåíò_15-3" x1="202.0021" y1="775.4694" x2="140.6466" y2="775.4694" xlink:href="#åçûìßííûé_ãðàäèåíò_15"/><linearGradient id="linear-gradient-2" x1="357.726" y1="758.3367" x2="357.726" y2="820.1161" gradientTransform="matrix(-0.5012, -0.8654, -0.8654, 0.5012, 1196.4234, 586.5564)" gradientUnits="userSpaceOnUse"><stop offset="0" stop-color="#5795d1"/><stop offset="1" stop-color="#ffad6f"/></linearGradient><linearGradient id="linear-gradient-3" x1="291.4591" y1="627.093" x2="243.857" y2="708.4774" gradientUnits="userSpaceOnUse"><stop offset="0" stop-color="#a0a2c7"/><stop offset="0.135" stop-color="#e4aa88"/><stop offset="0.1984" stop-color="#ffad6f"/><stop offset="0.2868" stop-color="#ffbc8a"/><stop offset="0.4447" stop-color="#ffd4b4"/><stop offset="0.5987" stop-color="#ffe7d4"/><stop offset="0.7458" stop-color="#fff4ec"/><stop offset="0.8828" stop-color="#fffcfa"/><stop offset="1" stop-color="#fff"/></linearGradient><filter id="luminosity-noclip-10" x="157.4041" y="778.6988" width="26.5258" height="13.368" filterUnits="userSpaceOnUse" color-interpolation-filters="sRGB"><feFlood flood-color="#fff" result="bg"/><feBlend in="SourceGraphic" in2="bg"/></filter><mask id="mask-10" x="157.4041" y="778.6988" width="26.5258" height="13.368" maskUnits="userSpaceOnUse"><g class="cls-10"><polygon class="cls-11" points="172.353 778.699 157.404 778.699 157.404 792.067 172.353 792.067 183.93 785.383 172.353 778.699"/></g></mask><linearGradient id="åçûìßííûé_ãðàäèåíò_26-4" x1="157.4041" y1="785.3828" x2="183.93" y2="785.3828" xlink:href="#åçûìßííûé_ãðàäèåíò_26"/><filter id="luminosity-noclip-11" x="219.0653" y="743.0986" width="26.5259" height="13.368" filterUnits="userSpaceOnUse" color-interpolation-filters="sRGB"><feFlood flood-color="#fff" result="bg"/><feBlend in="SourceGraphic" in2="bg"/></filter><mask id="mask-11" x="219.0653" y="743.0986" width="26.5259" height="13.368" maskUnits="userSpaceOnUse"><g class="cls-12"><polygon class="cls-13" points="234.014 743.099 219.065 743.099 219.065 756.467 234.014 756.467 245.591 749.783 234.014 743.099"/></g></mask><linearGradient id="åçûìßííûé_ãðàäèåíò_26-5" x1="219.0653" y1="749.7826" x2="245.5912" y2="749.7826" xlink:href="#åçûìßííûé_ãðàäèåíò_26"/><filter id="luminosity-noclip-12" x="280.7266" y="707.4985" width="26.5259" height="13.368" filterUnits="userSpaceOnUse" color-interpolation-filters="sRGB"><feFlood flood-color="#fff" result="bg"/><feBlend in="SourceGraphic" in2="bg"/></filter><mask id="mask-12" x="280.7266" y="707.4985" width="26.5259" height="13.368" maskUnits="userSpaceOnUse"><g class="cls-3"><polygon class="cls-4" points="295.676 707.498 280.727 707.498 280.727 720.866 295.676 720.866 307.252 714.183 295.676 707.498"/></g></mask><linearGradient id="åçûìßííûé_ãðàäèåíò_26-6" x1="280.7266" y1="714.1825" x2="307.2525" y2="714.1825" xlink:href="#åçûìßííûé_ãðàäèåíò_26"/><linearGradient id="åçûìßííûé_ãðàäèåíò_3" x1="3094.9398" y1="654.4085" x2="3095.0634" y2="655.3973" gradientTransform="matrix(-0.9984, 0.0567, 0.0567, 0.9984, 3532.8813, -100.3827)" gradientUnits="userSpaceOnUse"><stop offset="0" stop-color="#04007e"/><stop offset="1" stop-color="#bb1aff"/></linearGradient><linearGradient id="åçûìßííûé_ãðàäèåíò_3-2" x1="3081.5127" y1="650.5666" x2="3081.6134" y2="651.3722" xlink:href="#åçûìßííûé_ãðàäèåíò_3"/><linearGradient id="åçûìßííûé_ãðàäèåíò_8_êîïèß_10" x1="494.9582" y1="685.863" x2="517.7847" y2="738.1384" gradientUnits="userSpaceOnUse"><stop offset="0" stop-color="#020c82"/><stop offset="1" stop-color="#5b68f5"/></linearGradient><linearGradient id="åçûìßííûé_ãðàäèåíò_8_êîïèß_10-2" x1="483.8144" y1="679.3365" x2="502.2729" y2="744.4345" xlink:href="#åçûìßííûé_ãðàäèåíò_8_êîïèß_10"/><linearGradient id="linear-gradient-4" x1="494.0267" y1="665.9027" x2="486.0421" y2="651.1547" gradientUnits="userSpaceOnUse"><stop offset="0" stop-color="#5099c9"/><stop offset="1" stop-color="#ffad6f"/></linearGradient><linearGradient id="linear-gradient-5" x1="500.5059" y1="685.5681" x2="477.2194" y2="640.1763" gradientUnits="userSpaceOnUse"><stop offset="0" stop-color="#a0a2c7"/><stop offset="0.0922" stop-color="#b09ba4"/><stop offset="0.2011" stop-color="#bf9483"/><stop offset="0.3183" stop-color="#cb8f68"/><stop offset="0.4449" stop-color="#d58a53"/><stop offset="0.5851" stop-color="#dc8744"/><stop offset="0.75" stop-color="#e0863b"/><stop offset="1" stop-color="#e18538"/></linearGradient><linearGradient id="linear-gradient-6" x1="484.1756" y1="669.0414" x2="475.7918" y2="654.81" gradientUnits="userSpaceOnUse"><stop offset="0" stop-color="#a0a2c7"/><stop offset="0.0367" stop-color="#a4a0bf"/><stop offset="0.2622" stop-color="#b99791"/><stop offset="0.4779" stop-color="#c9906c"/><stop offset="0.6786" stop-color="#d58a52"/><stop offset="0.8585" stop-color="#dc8743"/><stop offset="1" stop-color="#df863d"/></linearGradient><linearGradient id="linear-gradient-7" x1="387.6639" y1="556.8652" x2="387.6639" y2="649.2083" gradientUnits="userSpaceOnUse"><stop offset="0" stop-color="#5795d1"/><stop offset="0.0306" stop-color="#5d96cd"/><stop offset="0.3745" stop-color="#a2a0a5"/><stop offset="0.6621" stop-color="#d4a788"/><stop offset="0.8789" stop-color="#f3ab76"/><stop offset="1" stop-color="#ffad6f"/></linearGradient><linearGradient id="linear-gradient-8" x1="387.6583" y1="655.8129" x2="387.6583" y2="622.7346" xlink:href="#linear-gradient-7"/><mask id="mask-13" x="316.8982" y="452.6332" width="143.5081" height="195.2468" maskUnits="userSpaceOnUse"><rect class="cls-5" x="316.8982" y="452.6332" width="143.5081" height="195.2468"/></mask><linearGradient id="linear-gradient-9" x1="408.0235" y1="551.4017" x2="371.7144" y2="551.4017" gradientUnits="userSpaceOnUse"><stop offset="0" stop-color="#e18538"/><stop offset="0.4099" stop-color="#c89070"/><stop offset="1" stop-color="#a0a2c7"/></linearGradient><linearGradient id="linear-gradient-10" x1="327.433" y1="668.6033" x2="349.6649" y2="668.6033" gradientTransform="matrix(1.07, 0.0629, -0.0699, 1.0179, -141.3031, -63.707)" gradientUnits="userSpaceOnUse"><stop offset="0" stop-color="#ffad6f"/><stop offset="0.5148" stop-color="#ee9751"/><stop offset="1" stop-color="#e18538"/></linearGradient></defs><title>Artboard 6ldpi</title><g class="cls-15"><g id="img"><g class="cls-16"><path class="cls-17" d="M179.4126,625.4684c-2.8239-.0831-5,2.061-5.6726,2.7241-.7168-.6146-3.0374-2.6018-5.8486-2.3221-3.4.3383-7.1154,3.02-6.7715,9.464.34,6.3769,9.1818,13.7055,13.3455,15.5073l.0658.0282.0638-.0328c4.0279-2.0876,12.3372-10.0146,12.2321-16.4C186.721,627.9847,182.828,625.5689,179.4126,625.4684Z"/><path class="cls-17" d="M188.5268,681.7736l-.2632,20.3369a6.5346,6.5346,0,0,0,9.6967,5.8029l78.0654-43.173L304.03,649.0525a.5866.5866,0,0,0,.22-.2142.5944.5944,0,0,0-.801-.8228l-28.0015,15.6863-78.0625,43.1715a5.3464,5.3464,0,0,1-7.9331-4.7476l.2632-20.3369Z"/><g class="cls-18"><path class="cls-19" d="M32.9426,554.134a.8312.8312,0,0,1,0,1.5747,3.0147,3.0147,0,0,1-2.7275,0,.8312.8312,0,0,1,0-1.5747A3.0138,3.0138,0,0,1,32.9426,554.134Z"/><path class="cls-19" d="M93.724,519.0419a.8311.8311,0,0,1,0,1.5746,3.0147,3.0147,0,0,1-2.7275,0,.8312.8312,0,0,1,0-1.5747A3.0141,3.0141,0,0,1,93.724,519.0419Z"/><path class="cls-19" d="M154.5054,483.95a.8311.8311,0,0,1,0,1.5747,3.0144,3.0144,0,0,1-2.7274,0,.8311.8311,0,0,1,0-1.5747A3.0141,3.0141,0,0,1,154.5054,483.95Z"/><path class="cls-19" d="M215.2867,448.8576a.8311.8311,0,0,1,0,1.5746,3.0144,3.0144,0,0,1-2.7274,0,.8312.8312,0,0,1,0-1.5747A3.0141,3.0141,0,0,1,215.2867,448.8576Z"/><path class="cls-19" d="M276.0681,413.7654a.8312.8312,0,0,1,0,1.5747,3.0141,3.0141,0,0,1-2.7274,0,.8311.8311,0,0,1,0-1.5746A3.0144,3.0144,0,0,1,276.0681,413.7654Z"/><path class="cls-19" d="M336.85,378.6733a.8312.8312,0,0,1,0,1.5747,3.0147,3.0147,0,0,1-2.7275,0,.8311.8311,0,0,1,0-1.5746A3.0138,3.0138,0,0,1,336.85,378.6733Z"/><path class="cls-19" d="M397.6309,343.5811a.8311.8311,0,0,1,0,1.5747,3.0141,3.0141,0,0,1-2.7274,0,.8311.8311,0,0,1,0-1.5746A3.0147,3.0147,0,0,1,397.6309,343.5811Z"/><path class="cls-19" d="M32.9444,624.3193a.8312.8312,0,0,1,0,1.5747,3.0144,3.0144,0,0,1-2.7274,0,.8311.8311,0,0,1,0-1.5747A3.0144,3.0144,0,0,1,32.9444,624.3193Z"/><path class="cls-19" d="M93.7258,589.2272a.8311.8311,0,0,1,0,1.5746,3.0138,3.0138,0,0,1-2.7274,0,.8311.8311,0,0,1,0-1.5747A3.0141,3.0141,0,0,1,93.7258,589.2272Z"/><path class="cls-19" d="M154.5071,554.135a.8311.8311,0,0,1,0,1.5747,3.0144,3.0144,0,0,1-2.7274,0,.8312.8312,0,0,1,0-1.5747A3.0141,3.0141,0,0,1,154.5071,554.135Z"/><path class="cls-19" d="M215.2885,519.0429a.8311.8311,0,0,1,0,1.5746,3.0138,3.0138,0,0,1-2.7274,0,.8312.8312,0,0,1,0-1.5747A3.0141,3.0141,0,0,1,215.2885,519.0429Z"/><path class="cls-19" d="M276.07,483.9507a.8311.8311,0,0,1,0,1.5747,3.0144,3.0144,0,0,1-2.7274,0,.8312.8312,0,0,1,0-1.5747A3.0144,3.0144,0,0,1,276.07,483.9507Z"/><path class="cls-19" d="M336.8513,448.8586a.8312.8312,0,0,1,0,1.5747,3.0144,3.0144,0,0,1-2.7274,0,.8311.8311,0,0,1,0-1.5746A3.0138,3.0138,0,0,1,336.8513,448.8586Z"/><path class="cls-19" d="M397.6327,413.7664a.8312.8312,0,0,1,0,1.5747,3.0144,3.0144,0,0,1-2.7274,0,.8312.8312,0,0,1,0-1.5747A3.0147,3.0147,0,0,1,397.6327,413.7664Z"/><path class="cls-19" d="M458.414,378.6743a.8312.8312,0,0,1,0,1.5747,3.0144,3.0144,0,0,1-2.7274,0,.8312.8312,0,0,1,0-1.5747A3.0138,3.0138,0,0,1,458.414,378.6743Z"/><path class="cls-19" d="M32.9462,694.5046a.8311.8311,0,0,1,0,1.5747,3.0144,3.0144,0,0,1-2.7274,0,.8311.8311,0,0,1,0-1.5747A3.0144,3.0144,0,0,1,32.9462,694.5046Z"/><path class="cls-19" d="M93.7275,659.4125a.8311.8311,0,0,1,0,1.5746,3.0138,3.0138,0,0,1-2.7274,0,.8311.8311,0,0,1,0-1.5746A3.0138,3.0138,0,0,1,93.7275,659.4125Z"/><path class="cls-19" d="M154.5089,624.32a.8311.8311,0,0,1,0,1.5746,3.0144,3.0144,0,0,1-2.7274,0,.8312.8312,0,0,1,0-1.5747A3.0141,3.0141,0,0,1,154.5089,624.32Z"/><path class="cls-19" d="M215.29,589.2282a.8311.8311,0,0,1,0,1.5746,3.0138,3.0138,0,0,1-2.7274,0,.8312.8312,0,0,1,0-1.5747A3.0148,3.0148,0,0,1,215.29,589.2282Z"/><path class="cls-19" d="M276.0717,554.136a.8312.8312,0,0,1,0,1.5747,3.0144,3.0144,0,0,1-2.7274,0,.8312.8312,0,0,1,0-1.5747A3.0144,3.0144,0,0,1,276.0717,554.136Z"/><path class="cls-19" d="M336.8531,519.0439a.8312.8312,0,0,1,0,1.5747,3.0141,3.0141,0,0,1-2.7274,0,.8311.8311,0,0,1,0-1.5746A3.0144,3.0144,0,0,1,336.8531,519.0439Z"/><path class="cls-19" d="M397.6345,483.9517a.8312.8312,0,0,1,0,1.5747,3.0138,3.0138,0,0,1-2.7274,0,.8311.8311,0,0,1,0-1.5747A3.0144,3.0144,0,0,1,397.6345,483.9517Z"/><path class="cls-19" d="M458.4158,448.86a.8312.8312,0,0,1,0,1.5747,3.0147,3.0147,0,0,1-2.7275,0,.8312.8312,0,0,1,0-1.5747A3.0144,3.0144,0,0,1,458.4158,448.86Z"/><path class="cls-19" d="M519.1972,413.7674a.8312.8312,0,0,1,0,1.5747,3.0138,3.0138,0,0,1-2.7274,0,.8312.8312,0,0,1,0-1.5747A3.0144,3.0144,0,0,1,519.1972,413.7674Z"/><path class="cls-19" d="M32.948,764.69a.8312.8312,0,0,1,0,1.5747,3.0138,3.0138,0,0,1-2.7274,0,.8312.8312,0,0,1,0-1.5747A3.0147,3.0147,0,0,1,32.948,764.69Z"/><path class="cls-19" d="M93.7293,729.5978a.8312.8312,0,0,1,0,1.5747,3.0144,3.0144,0,0,1-2.7274,0,.8312.8312,0,0,1,0-1.5747A3.0138,3.0138,0,0,1,93.7293,729.5978Z"/><path class="cls-19" d="M154.5107,694.5057a.8311.8311,0,0,1,0,1.5746,3.0144,3.0144,0,0,1-2.7274,0,.8312.8312,0,0,1,0-1.5747A3.0141,3.0141,0,0,1,154.5107,694.5057Z"/><path class="cls-19" d="M215.2921,659.4135a.8312.8312,0,0,1,0,1.5747,3.0144,3.0144,0,0,1-2.7274,0,.8312.8312,0,0,1,0-1.5747A3.0144,3.0144,0,0,1,215.2921,659.4135Z"/><path class="cls-19" d="M276.0735,624.3214a.8312.8312,0,0,1,0,1.5747,3.0148,3.0148,0,0,1-2.7274,0,.8311.8311,0,0,1,0-1.5746A3.0138,3.0138,0,0,1,276.0735,624.3214Z"/><path class="cls-19" d="M336.8549,589.2292a.8312.8312,0,0,1,0,1.5747,3.0144,3.0144,0,0,1-2.7274,0,.8311.8311,0,0,1,0-1.5747A3.0144,3.0144,0,0,1,336.8549,589.2292Z"/><path class="cls-19" d="M397.6362,554.1371a.8312.8312,0,0,1,0,1.5747,3.0141,3.0141,0,0,1-2.7274,0,.8311.8311,0,0,1,0-1.5746A3.0138,3.0138,0,0,1,397.6362,554.1371Z"/><path class="cls-19" d="M458.4176,519.0449a.8312.8312,0,0,1,0,1.5747,3.0147,3.0147,0,0,1-2.7275,0,.8312.8312,0,0,1,0-1.5747A3.0144,3.0144,0,0,1,458.4176,519.0449Z"/><path class="cls-19" d="M519.199,483.9528a.8312.8312,0,0,1,0,1.5747,3.0144,3.0144,0,0,1-2.7274,0,.8311.8311,0,0,1,0-1.5747A3.0138,3.0138,0,0,1,519.199,483.9528Z"/><path class="cls-19" d="M32.95,834.8752a.8312.8312,0,0,1,0,1.5747,3.0138,3.0138,0,0,1-2.7274,0,.8311.8311,0,0,1,0-1.5747A3.0144,3.0144,0,0,1,32.95,834.8752Z"/><path class="cls-19" d="M93.7312,799.7831a.8312.8312,0,0,1,0,1.5747,3.0147,3.0147,0,0,1-2.7275,0,.8312.8312,0,0,1,0-1.5747A3.0147,3.0147,0,0,1,93.7312,799.7831Z"/><path class="cls-19" d="M154.5125,764.691a.8311.8311,0,0,1,0,1.5746,3.0138,3.0138,0,0,1-2.7274,0,.8312.8312,0,0,1,0-1.5747A3.0144,3.0144,0,0,1,154.5125,764.691Z"/><path class="cls-19" d="M215.2939,729.5988a.8312.8312,0,0,1,0,1.5747,3.0144,3.0144,0,0,1-2.7274,0,.8312.8312,0,0,1,0-1.5747A3.0144,3.0144,0,0,1,215.2939,729.5988Z"/><path class="cls-19" d="M276.0753,694.5067a.8312.8312,0,0,1,0,1.5747,3.0141,3.0141,0,0,1-2.7274,0,.8311.8311,0,0,1,0-1.5746A3.0144,3.0144,0,0,1,276.0753,694.5067Z"/><path class="cls-19" d="M336.8566,659.4145a.8312.8312,0,0,1,0,1.5747,3.0141,3.0141,0,0,1-2.7274,0,.8312.8312,0,0,1,0-1.5747A3.0144,3.0144,0,0,1,336.8566,659.4145Z"/><path class="cls-19" d="M397.638,624.3224a.8312.8312,0,0,1,0,1.5747,3.0141,3.0141,0,0,1-2.7274,0,.8311.8311,0,0,1,0-1.5746A3.0144,3.0144,0,0,1,397.638,624.3224Z"/><path class="cls-19" d="M458.4194,589.23a.8311.8311,0,0,1,0,1.5747,3.0138,3.0138,0,0,1-2.7274,0,.8311.8311,0,0,1,0-1.5747A3.0144,3.0144,0,0,1,458.4194,589.23Z"/><path class="cls-19" d="M519.2008,554.1381a.8312.8312,0,0,1,0,1.5747,3.0144,3.0144,0,0,1-2.7274,0,.8312.8312,0,0,1,0-1.5747A3.014,3.014,0,0,1,519.2008,554.1381Z"/><path class="cls-19" d="M32.9515,905.0606a.8312.8312,0,0,1,0,1.5747,3.0144,3.0144,0,0,1-2.7274,0,.8312.8312,0,0,1,0-1.5747A3.0138,3.0138,0,0,1,32.9515,905.0606Z"/><path class="cls-19" d="M93.7329,869.9685a.8311.8311,0,0,1,0,1.5746,3.0147,3.0147,0,0,1-2.7275,0,.8312.8312,0,0,1,0-1.5747A3.0141,3.0141,0,0,1,93.7329,869.9685Z"/><path class="cls-19" d="M154.5143,834.8763a.8311.8311,0,0,1,0,1.5747,3.0144,3.0144,0,0,1-2.7274,0,.8312.8312,0,0,1,0-1.5747A3.0141,3.0141,0,0,1,154.5143,834.8763Z"/><path class="cls-19" d="M215.2957,799.7842a.8311.8311,0,0,1,0,1.5746,3.0144,3.0144,0,0,1-2.7274,0,.8311.8311,0,0,1,0-1.5747A3.0141,3.0141,0,0,1,215.2957,799.7842Z"/><path class="cls-19" d="M276.077,764.692a.8312.8312,0,0,1,0,1.5747,3.0141,3.0141,0,0,1-2.7274,0,.8311.8311,0,0,1,0-1.5746A3.0144,3.0144,0,0,1,276.077,764.692Z"/><path class="cls-19" d="M336.8584,729.6a.8312.8312,0,0,1,0,1.5747,3.0144,3.0144,0,0,1-2.7274,0,.8311.8311,0,0,1,0-1.5746A3.0138,3.0138,0,0,1,336.8584,729.6Z"/><path class="cls-19" d="M397.64,694.5077a.8311.8311,0,0,1,0,1.5747,3.0141,3.0141,0,0,1-2.7274,0,.8311.8311,0,0,1,0-1.5746A3.0144,3.0144,0,0,1,397.64,694.5077Z"/><path class="cls-19" d="M458.4211,659.4156a.8311.8311,0,0,1,0,1.5746,3.0138,3.0138,0,0,1-2.7274,0,.8311.8311,0,0,1,0-1.5746A3.0138,3.0138,0,0,1,458.4211,659.4156Z"/><path class="cls-19" d="M519.2026,624.3234a.8312.8312,0,0,1,0,1.5747,3.0144,3.0144,0,0,1-2.7274,0,.8312.8312,0,0,1,0-1.5747A3.0147,3.0147,0,0,1,519.2026,624.3234Z"/><path class="cls-19" d="M93.7347,940.1538a.8311.8311,0,0,1,0,1.5746,3.0138,3.0138,0,0,1-2.7274,0,.8311.8311,0,0,1,0-1.5747A3.0141,3.0141,0,0,1,93.7347,940.1538Z"/><path class="cls-19" d="M154.516,905.0616a.8311.8311,0,0,1,0,1.5747,3.0144,3.0144,0,0,1-2.7274,0,.8312.8312,0,0,1,0-1.5747A3.0141,3.0141,0,0,1,154.516,905.0616Z"/><path class="cls-19" d="M215.2974,869.97a.8311.8311,0,0,1,0,1.5746,3.0138,3.0138,0,0,1-2.7274,0,.8312.8312,0,0,1,0-1.5747A3.0141,3.0141,0,0,1,215.2974,869.97Z"/><path class="cls-19" d="M276.0788,834.8773a.8312.8312,0,0,1,0,1.5747,3.0144,3.0144,0,0,1-2.7274,0,.8312.8312,0,0,1,0-1.5747A3.0144,3.0144,0,0,1,276.0788,834.8773Z"/><path class="cls-19" d="M336.86,799.7852a.8311.8311,0,0,1,0,1.5747,3.0144,3.0144,0,0,1-2.7274,0,.8311.8311,0,0,1,0-1.5746A3.0138,3.0138,0,0,1,336.86,799.7852Z"/><path class="cls-19" d="M397.6416,764.693a.8312.8312,0,0,1,0,1.5747,3.0144,3.0144,0,0,1-2.7274,0,.8311.8311,0,0,1,0-1.5747A3.0144,3.0144,0,0,1,397.6416,764.693Z"/><path class="cls-19" d="M458.423,729.6009a.8312.8312,0,0,1,0,1.5747,3.0144,3.0144,0,0,1-2.7274,0,.8312.8312,0,0,1,0-1.5747A3.014,3.014,0,0,1,458.423,729.6009Z"/><path class="cls-19" d="M519.2044,694.5087a.8312.8312,0,0,1,0,1.5747,3.0144,3.0144,0,0,1-2.7274,0,.8311.8311,0,0,1,0-1.5747A3.0144,3.0144,0,0,1,519.2044,694.5087Z"/><path class="cls-19" d="M215.2992,940.1548a.8311.8311,0,0,1,0,1.5746,3.0138,3.0138,0,0,1-2.7274,0,.8312.8312,0,0,1,0-1.5747A3.0148,3.0148,0,0,1,215.2992,940.1548Z"/><path class="cls-19" d="M276.0806,905.0626a.8311.8311,0,0,1,0,1.5747,3.0144,3.0144,0,0,1-2.7274,0,.8312.8312,0,0,1,0-1.5747A3.0144,3.0144,0,0,1,276.0806,905.0626Z"/><path class="cls-19" d="M336.862,869.9705a.8312.8312,0,0,1,0,1.5747,3.0141,3.0141,0,0,1-2.7274,0,.8311.8311,0,0,1,0-1.5746A3.0144,3.0144,0,0,1,336.862,869.9705Z"/><path class="cls-19" d="M397.6434,834.8783a.8312.8312,0,0,1,0,1.5747,3.0138,3.0138,0,0,1-2.7274,0,.8311.8311,0,0,1,0-1.5747A3.0144,3.0144,0,0,1,397.6434,834.8783Z"/><path class="cls-19" d="M458.4248,799.7862a.8312.8312,0,0,1,0,1.5747,3.0147,3.0147,0,0,1-2.7275,0,.8312.8312,0,0,1,0-1.5747A3.0147,3.0147,0,0,1,458.4248,799.7862Z"/><path class="cls-19" d="M519.2061,764.694a.8312.8312,0,0,1,0,1.5747,3.0138,3.0138,0,0,1-2.7274,0,.8312.8312,0,0,1,0-1.5747A3.0144,3.0144,0,0,1,519.2061,764.694Z"/><path class="cls-19" d="M336.8638,940.1558a.8312.8312,0,0,1,0,1.5747,3.0144,3.0144,0,0,1-2.7274,0,.8312.8312,0,0,1,0-1.5747A3.0144,3.0144,0,0,1,336.8638,940.1558Z"/><path class="cls-19" d="M397.6452,905.0637a.8312.8312,0,0,1,0,1.5747,3.0141,3.0141,0,0,1-2.7274,0,.8311.8311,0,0,1,0-1.5746A3.0138,3.0138,0,0,1,397.6452,905.0637Z"/><path class="cls-19" d="M458.4265,869.9715a.8312.8312,0,0,1,0,1.5747,3.0144,3.0144,0,0,1-2.7274,0,.8312.8312,0,0,1,0-1.5747A3.0144,3.0144,0,0,1,458.4265,869.9715Z"/><path class="cls-19" d="M519.2079,834.8794a.8312.8312,0,0,1,0,1.5747,3.0144,3.0144,0,0,1-2.7274,0,.8311.8311,0,0,1,0-1.5747A3.0138,3.0138,0,0,1,519.2079,834.8794Z"/><path class="cls-19" d="M458.4283,940.1568a.8312.8312,0,0,1,0,1.5747,3.0138,3.0138,0,0,1-2.7274,0,.8311.8311,0,0,1,0-1.5747A3.0144,3.0144,0,0,1,458.4283,940.1568Z"/><path class="cls-19" d="M519.21,905.0647a.8311.8311,0,0,1,0,1.5747,3.0144,3.0144,0,0,1-2.7274,0,.8311.8311,0,0,1,0-1.5747A3.0138,3.0138,0,0,1,519.21,905.0647Z"/><path class="cls-20" d="M43.9413,758.3429l37.7573-21.7991a7.1114,7.1114,0,0,0,0-12.3173l-37.759-21.8a24.7145,24.7145,0,0,0-24.7142,0l-37.7572,21.7991a7.1114,7.1114,0,0,0,0,12.3173l37.759,21.8A24.7139,24.7139,0,0,0,43.9413,758.3429Z"/><path class="cls-20" d="M226.2908,863.6225l37.7572-21.7992a7.1113,7.1113,0,0,0,0-12.3173l-37.7589-21.8a24.7145,24.7145,0,0,0-24.7142,0L163.8177,829.505a7.1114,7.1114,0,0,0,0,12.3173l37.759,21.8A24.7143,24.7143,0,0,0,226.2908,863.6225Z"/><path class="cls-20" d="M104.7227,723.2507l37.7572-21.799a7.1115,7.1115,0,0,0,0-12.3174l-37.759-21.8a24.7139,24.7139,0,0,0-24.7141,0L42.25,689.1333a7.1113,7.1113,0,0,0,0,12.3173l37.759,21.8A24.7139,24.7139,0,0,0,104.7227,723.2507Z"/><path class="cls-20" d="M530.2013,828.5323l37.7572-21.7991a7.1113,7.1113,0,0,0,0-12.3173l-37.7589-21.8a24.714,24.714,0,0,0-24.7142,0l-37.7572,21.7991a7.1114,7.1114,0,0,0,0,12.3173l37.7589,21.8A24.714,24.714,0,0,0,530.2013,828.5323Z"/></g><g class="cls-21"><path class="cls-22" d="M387.6639,725.5484h52.9019l1.4957,6.1625h40.9058a24.5685,24.5685,0,0,0,12.2844-3.2917l44.2939-25.573a7.3661,7.3661,0,0,0,0-12.7583l-37.3674-21.5741-83.8753,9.3837Z"/></g><g class="cls-23"><path class="cls-24" d="M540.6877,550.3346H508.53L571.291,586.57a6.18,6.18,0,0,1,0,10.7041l-433.67,250.38h32.1582a19.1416,19.1416,0,0,0,9.571-2.5646L608.5783,597.274a6.18,6.18,0,0,0,0-10.7041l-58.32-33.6708A19.1415,19.1415,0,0,0,540.6877,550.3346Z"/></g><path class="cls-25" d="M175.2047,660.5183c-4.3008,1.26-5.233,3.3675-5.04,6.2322s-2.4893,4.5495-5.0256,4.9282-5.3074,4.8877-2.959,7.471,1.9257,2.818.7045,5.871,1.9709,5.6812,6.5277,4.9542,12.5066-15.2872,12.2657-15.4751S175.2047,660.5183,175.2047,660.5183Z"/><path class="cls-25" d="M175.529,736.9569c.0676,1.0807.3184,1.4629.54,1.579s.2306.1537.2827.3284a8.2845,8.2845,0,0,0,.6194,1.2611c.91,1.4711,2.2763,1.3735,1.8559.1309a12.59,12.59,0,0,1-.7536-2.1425c-.1533-.8874-.3473-1.77-1.2-2.0724A.92.92,0,0,0,175.529,736.9569Z"/><path class="cls-26" d="M182.63,677.791c-.3109,1.4926,1.5281,4.8065,2.9408,6.4312,1.2,1.3807,5.143,5.7537,7.9377,8.5483.41.41,1.8114-1.2859,1.456-1.8083-1.7431-2.562-6.9727-10.56-6.9727-10.56-4.078-8.5542-4.0979-8.52-5.1117-9.9784C181.1382,667.9182,182.9406,676.2986,182.63,677.791Z"/><path class="cls-25" d="M184.04,735.1758c1.2462.8432,1.4729.7216,1.69,1.3721s-1.6582.442-2.5581.209a2.8188,2.8188,0,0,1-1.1456-.63c-.4094-.4344-.7458-.1613-1.45-.3268s-.8553-.8136-.6664-1.88,2.27-.2534,2.7316.0354A12.8117,12.8117,0,0,1,184.04,735.1758Z"/><path class="cls-27" d="M182.1472,733.7773c.2245.2806.06.43-.2059.512a1.8,1.8,0,0,1-1.4722-.5016,156.9493,156.9493,0,0,1-1.8611-18.0012c-.0156-4.8838-2.1812-19.3982-2.7276-22.9544s5.6359-5.0127,6.4129,1.2274.814,20.4407.299,23.532-.77,13.2377-.7825,14.436A3.05,3.05,0,0,0,182.1472,733.7773Z"/><path class="cls-27" d="M177.3331,736.4663c.0761.3792.1509.81-.424.984a.987.987,0,0,1-1.0818-1.1616c.2115-1.12-2.2345-12.854-2.2411-17.7388s-.544-19.5673-1.0936-23.1233,5.7481-5.0244,6.5276,1.2154-.7856,21.1462-1.3159,24.2389-.5237,12.389-.5386,13.5875A12.4314,12.4314,0,0,0,177.3331,736.4663Z"/><path class="cls-28" d="M185.2251,688.8467c2.3427,16.67.6389,19.4984.2409,24.2612-.1631,1.95-5.7036,5.5444-8.8334,5.54s-3.7482-1.03-3.8138-2.8069c-.1566-4.2465-.2538-6.0049-1.593-24.4118Z"/><path class="cls-29" d="M181.7361,697.8351c4.6915-2.5791,5.3241-4.3349,4.9063-8.3756-.7873-7.6122-2.4486-19.8488-5.9716-21.3413-3.1735-1.3444-9.5844,2.3807-11.4031,7.8464-1.583,4.7571.8876,16.4084,1.4205,20.3664S175.5792,701.22,181.7361,697.8351Z"/><path class="cls-30" d="M171.8575,672.6364a4.0753,4.0753,0,0,1,.5493-.6784h0l.0007-.0006q.0656-.0685.1363-.14a8.9518,8.9518,0,0,0,1.9312-4.9139s2.3886-.57,2.8211.4914a2.3807,2.3807,0,0,0,1.45,1.1012,2.8534,2.8534,0,0,1,1.0389.2757l.0113.0019-.0039.0016a2.4835,2.4835,0,0,1,1.2057,2.5328c-.0856,2.8218-5.3138,6.0479-7.5421,5.1438A2.61,2.61,0,0,1,171.8575,672.6364Z"/><path class="cls-26" d="M173.4561,676.4519a2.61,2.61,0,0,1-1.5986-3.8155,4.0753,4.0753,0,0,1,.5493-.6784h0l.0007-.0006q.0656-.0685.1363-.14a7.7842,7.7842,0,0,0,1.575-3.1342l.0021,0s.8466,1.5222,1.91,1.6274c.9438.0933,2.7084-.3348,2.7382-1.8114a2.84,2.84,0,0,1,1.0158.2728l.0113.0019-.0039.0016a2.4835,2.4835,0,0,1,1.2057,2.5328C180.9126,674.13,175.6844,677.356,173.4561,676.4519Z"/><path class="cls-31" d="M180.1128,663.7642c.9547,4.254-.0818,5.2578-1.3019,5.9825-.88.5227-4.7785-.7218-4.65-5.3672S179.3419,660.328,180.1128,663.7642Z"/><path class="cls-27" d="M193.25,695.16a2.36,2.36,0,0,1,.86-1.7829,1.3331,1.3331,0,0,0-.5109-.9c-.6515-.4891.6377-1.8145.9811-1.52,2.3337,2,2.3218,3.3231.3082,4.931A.9419.9419,0,0,1,193.25,695.16Z"/><polygon class="cls-17" points="179.835 683.291 179.835 696.585 191.412 703.269 191.412 689.975 179.835 683.291"/><polygon class="cls-29" points="202.989 683.291 202.989 696.585 191.412 703.269 191.412 689.975 202.989 683.291"/><polygon class="cls-32" points="179.835 683.291 191.412 676.607 202.989 683.291 191.412 689.975 179.835 683.291"/><path class="cls-27" d="M182.3562,696.1268c.72.5293.922,2.62,2.0166,3.049a6.817,6.817,0,0,1,1.93,1.1437c-.388.8558-3.0711.4151-3.6563.1068a11.4683,11.4683,0,0,1-1.8829-2.5475l-.7416-1.9212,1.9111-.16Z"/><path class="cls-26" d="M169.7677,677.5718c-.6638,2.012-.2228,3.0526-.066,4.5691s2.4243,8.0369,3.6587,9.3872,7.4034,6.3507,7.4034,6.3507-.3714-.595.5582-1.6207a.705.705,0,0,1,.9108-.2273l-6.5839-7.6933s-2.5184-9.2112-3.2816-11.0345S169.9449,677.0346,169.7677,677.5718Z"/><path class="cls-27" d="M182.3562,696.1268c1.6248.9381,1.9592.4289,2.1816,1.0873s-1.2429.5-1.6022.4645S182.3562,696.1268,182.3562,696.1268Z"/><path class="cls-25" d="M174.1933,668.4088c.5393-1.0364,1.98-.4141,1.6294-1.4944s.5185-1.3444,1.0469-.5519.37-.7573.7574-1.3385,1.7437,1.0274,3.047.2231,1.3739-2.689,0-4.0452-4.7754-1.247-5.8822-.4657C171.3626,663.157,173.3706,669.99,174.1933,668.4088Z"/><path class="cls-33" d="M580.97,577.58a6.5289,6.5289,0,0,0-3.0657-3.9482l-48.917-28.2258a24.4627,24.4627,0,0,0-24.4574.0031l-56.4725,32.6044-48.1408-27.7672c-6.7839-3.913-17.0437-4.3339-22.9159-.94l-88.9581,51.41c-2.8041,1.62-4.0969,3.8179-3.9477,6.0976a5.6113,5.6113,0,0,0,.0757.5968,5.2982,5.2982,0,0,0-.0757,1.3029v56.4138a5.3715,5.3715,0,0,0,0,.6319,7.9182,7.9182,0,0,0,2.9334,5.2253L74.3157,793.7937a5.4031,5.4031,0,0,0-2.7015,4.1634l-.0032-.0021,0,.0583a5.5808,5.5808,0,0,0-.0034.987l-.0289,8.4415a9.15,9.15,0,0,0,4.5768,7.925l51.5511,29.7457a18.9857,18.9857,0,0,0,18.9815-.0024L367.3747,717.6966l8.0253,4.629a26.4334,26.4334,0,0,0,12.2639,3.2228,20.75,20.75,0,0,0,10.6521-2.2825l12.9411-7.4788h0l16.907,9.7613h0l7.755,4.4773a12.6029,12.6029,0,0,0,12.6029,0l51.294-29.6146a9.7221,9.7221,0,0,0,4.8611-8.42V667.1974l-.0084.004a6.1191,6.1191,0,0,0-1.2144-3.8362l-12.2217-16.3963v-.7817l84.7055-48.9048a10.5658,10.5658,0,0,0,5.2828-9.15V577.4211ZM137.1974,836.6239q.6146,0,1.2283-.04Q137.8123,836.6239,137.1974,836.6239Zm2.4526-.1592a18.9607,18.9607,0,0,0,2.4205-.477A18.9607,18.9607,0,0,1,139.65,836.4647Z"/><path class="cls-34" d="M581.2209,575.73,480.1653,639.8562v11.03l95.7728-55.2944a10.5658,10.5658,0,0,0,5.2828-9.15Z"/><path class="cls-32" d="M504.53,543.7185l-95.4609,55.1143,71.0961,41.0234,97.7406-56.43a6.63,6.63,0,0,0-.0014-11.4845l-48.9171-28.2258A24.4623,24.4623,0,0,0,504.53,543.7185Z"/><polygon class="cls-35" points="480.165 639.856 409.069 598.833 409.069 609.863 480.165 650.886 480.165 639.856"/><path class="cls-35" d="M475.3291,636.625a.5925.5925,0,0,1-.2967-.08l-59.7006-34.4679a.5946.5946,0,0,1,.5944-1.03l59.7007,34.468a.5946.5946,0,0,1-.2978,1.1094Z"/><path class="cls-35" d="M497.7005,623.7091a.5925.5925,0,0,1-.2967-.08l-59.7007-34.4682a.5945.5945,0,0,1,.5945-1.03L497.9983,622.6a.5946.5946,0,0,1-.2978,1.1094Z"/><path class="cls-35" d="M520.0719,610.7929a.5934.5934,0,0,1-.2967-.08l-59.7007-34.4683a.5945.5945,0,0,1,.5945-1.03L520.37,609.6836a.5945.5945,0,0,1-.2977,1.1093Z"/><path class="cls-35" d="M542.4433,597.8767a.5929.5929,0,0,1-.2967-.08l-59.7007-34.4683a.5945.5945,0,0,1,.5945-1.03l59.7006,34.4683a.5945.5945,0,0,1-.2977,1.1093Z"/><path class="cls-35" d="M564.8146,584.9605a.5928.5928,0,0,1-.2966-.08l-59.7007-34.468a.5945.5945,0,0,1,.5944-1.03l59.7007,34.468a.5945.5945,0,0,1-.2978,1.1093Z"/><polygon class="cls-36" points="532.101 570.998 517.152 570.998 517.152 584.366 532.101 584.366 543.678 577.682 532.101 570.998"/><g class="cls-37"><polygon class="cls-38" points="497.37 591.05 482.421 591.05 482.421 604.418 497.37 604.418 508.947 597.734 497.37 591.05"/></g><polygon class="cls-17" points="505.575 564.388 505.575 577.682 517.152 584.366 517.152 571.072 505.575 564.388"/><polygon class="cls-29" points="528.729 564.388 528.729 577.682 517.152 584.366 517.152 571.072 528.729 564.388"/><polygon class="cls-32" points="505.575 564.388 517.152 557.704 528.729 564.388 517.152 571.072 505.575 564.388"/><polygon class="cls-17" points="470.844 584.44 470.844 597.734 482.421 604.418 482.421 591.124 470.844 584.44"/><polygon class="cls-29" points="493.998 584.44 493.998 597.734 482.421 604.418 482.421 591.124 493.998 584.44"/><polygon class="cls-32" points="470.844 584.44 482.421 577.756 493.998 584.44 482.421 591.124 470.844 584.44"/><path class="cls-39" d="M491.2219,664.074l.0107-.0062V607.0222l-34.7808,16.9-56.535-32.609c-6.7839-3.9129-17.0437-4.3339-22.9159-.94L318.915,623.9411l-34.82-16.9189v56.4136a5.3732,5.3732,0,0,0,0,.632c.1633,2.4945,2.0539,5.0875,5.5984,7.1319L375.4,720.6347a26.4322,26.4322,0,0,0,12.2639,3.2228h0a20.7491,20.7491,0,0,0,10.6521-2.2825l88.9581-51.41C490.0756,668.5465,491.3684,666.3516,491.2219,664.074Z"/><path class="cls-32" d="M491.2218,607.0222c-.1634-2.4945-2.0539-5.0875-5.5984-7.132l-85.7066-49.4349c-6.7839-3.9129-17.0437-4.3339-22.9159-.94l-88.9582,51.41c-2.804,1.62-4.0968,3.8179-3.9476,6.0977.1633,2.4945,2.0539,5.0875,5.5984,7.1319L375.4,663.5891c6.7839,3.9129,17.0438,4.3339,22.9159.94l88.9582-51.41C490.0782,611.4994,491.371,609.3019,491.2218,607.0222Z"/><path class="cls-40" d="M491.2218,605.1225c-.1634-2.4945-2.0539-5.0875-5.5984-7.1319l-85.7066-49.435c-6.7839-3.9129-17.0437-4.3339-22.9159-.94l-88.9582,51.41c-2.804,1.62-4.0968,3.8179-3.9476,6.0976.1633,2.4945,2.0539,5.0875,5.5984,7.1319L375.4,661.6894c6.7839,3.9129,17.0438,4.3339,22.9159.94L487.2741,611.22C490.0782,609.6,491.371,607.4022,491.2218,605.1225Z"/><path class="cls-41" d="M443.6737,694.2357l-32.4166-30.8v50.66l24.662,14.2387a12.6033,12.6033,0,0,0,12.6029,0L499.816,698.72a9.7219,9.7219,0,0,0,4.8611-8.42v-24.794Z"/><path class="cls-32" d="M435.5217,698.204l-24.2646-32.5529,65.3757-37.7447L503.4543,663.89a6.1643,6.1643,0,0,1-1.86,9.0223l-49.6662,28.6747A12.603,12.603,0,0,1,435.5217,698.204Z"/><path class="cls-42" d="M435.5217,695.9888l-24.2646-32.553,65.3757-37.7446,26.8215,35.9832a6.1642,6.1642,0,0,1-1.86,9.0222l-49.6662,28.6748A12.603,12.603,0,0,1,435.5217,695.9888Z"/><path class="cls-43" d="M439.1,686.6067l-16.3912-21.99a2.34,2.34,0,0,1,.7062-3.4256l46.8074-27.0242a2.34,2.34,0,0,1,3.0466.6281l16.3913,21.99a2.34,2.34,0,0,1-.7062,3.4255l-46.8074,27.0242A2.34,2.34,0,0,1,439.1,686.6067Z"/><polygon class="cls-36" points="428.164 723.857 428.164 686.118 411.257 663.436 411.257 714.096 428.164 723.857"/><path class="cls-44" d="M127.7064,832.3918,71.611,796.2641l-.0325,9.4869a9.1494,9.1494,0,0,0,4.5768,7.9249l51.5511,29.7457a18.9855,18.9855,0,0,0,18.9815-.0023L367.3747,716.0057v-11.03L146.6879,832.39A18.9855,18.9855,0,0,1,127.7064,832.3918Z"/><path class="cls-45" d="M296.2786,663.9525l-.0271-18.21,0-.0109q0-.1944.0095-.3813c.0023-.0463.007-.0905.01-.136.0056-.08.0106-.1612.0188-.2394.0057-.0554.0141-.1086.0211-.163.0085-.0652.0163-.1312.0266-.1949.01-.0589.0215-.1157.0326-.1732s.021-.113.0333-.1679c.0136-.0605.0295-.119.0448-.1779.0126-.0486.0247-.0977.0385-.1451.0179-.0615.0378-.1208.0578-.18.014-.0421.0275-.0846.0425-.1257.0224-.0615.0468-.1211.0714-.18.0149-.036.0294-.0723.0451-.1075.0273-.0613.0563-.1207.0859-.1795.0153-.03.03-.0611.0462-.0908.0325-.0606.0665-.12.1013-.1773.0152-.0252.03-.05.0458-.075.0378-.06.0771-.1174.1176-.1739.0145-.02.0291-.0407.0439-.0606q.0654-.0873.1348-.17l.04-.047q.074-.0845.1525-.1635l.0359-.0354c.0556-.0541.1125-.1064.1714-.1564l.029-.0241c.0621-.0516.1256-.1011.1911-.1481l.0216-.015c.0687-.0485.139-.0947.2113-.138l.0124-.0072c.0758-.045.1533-.0875.2328-.1268h0c1.4441-.7144,3.5007-.4974,5.7857.8189l55.2572,31.8344c4.3738,2.52,7.9227,8.1062,7.9267,12.4776l.0273,18.2738Z"/><path class="cls-46" d="M318.91,650.886,74.3156,792.1029a5.4743,5.4743,0,0,0,.0012,9.4824l53.39,30.8065a18.9855,18.9855,0,0,0,18.9815-.0023L367.3747,704.976l-.0273-18.2739c-.004-4.3714-3.553-9.9577-7.9267-12.4776Z"/><path class="cls-35" d="M277.0751,751.3528a.5869.5869,0,0,1-.2967-.08l-59.7007-34.4677a.5943.5943,0,1,1,.5945-1.0293l59.7006,34.4677a.5943.5943,0,0,1-.2977,1.1091Z"/><path class="cls-35" d="M299.4464,738.4369a.5863.5863,0,0,1-.2966-.08l-59.7007-34.4683a.5943.5943,0,1,1,.5944-1.0292l59.7007,34.4682a.5943.5943,0,0,1-.2978,1.1091Z"/><path class="cls-35" d="M254.7037,764.2692a.5869.5869,0,0,1-.2967-.08l-59.7006-34.4683a.5943.5943,0,1,1,.5944-1.0292L255.0015,763.16a.5944.5944,0,0,1-.2978,1.1091Z"/><path class="cls-35" d="M232.332,777.1851a.5871.5871,0,0,1-.2967-.08l-59.7-34.4677a.5943.5943,0,1,1,.5944-1.0292l59.7,34.4677a.5943.5943,0,0,1-.2978,1.109Z"/><path class="cls-35" d="M209.9606,790.1016a.5865.5865,0,0,1-.2966-.08l-59.7-34.4683a.5943.5943,0,1,1,.5944-1.0292l59.7,34.4682a.5943.5943,0,0,1-.2978,1.1091Z"/><path class="cls-35" d="M187.5893,803.0175a.5869.5869,0,0,1-.2967-.08l-59.7-34.4683a.5943.5943,0,1,1,.5944-1.0292l59.7005,34.4682a.5944.5944,0,0,1-.2978,1.1091Z"/><path class="cls-35" d="M165.2179,815.9334a.5869.5869,0,0,1-.2967-.08l-59.7-34.4677a.5943.5943,0,1,1,.5945-1.0293l59.7,34.4677a.5943.5943,0,0,1-.2978,1.1091Z"/><path class="cls-35" d="M142.8465,828.85a.5869.5869,0,0,1-.2967-.08l-59.7-34.4682a.5943.5943,0,1,1,.5944-1.0293l59.7,34.4683a.5943.5943,0,0,1-.2978,1.109Z"/><path class="cls-35" d="M321.8178,725.521a.5863.5863,0,0,1-.2966-.08L261.82,690.9729a.5943.5943,0,1,1,.5944-1.0293l59.7007,34.4683a.5943.5943,0,0,1-.2978,1.1091Z"/><path class="cls-35" d="M344.1892,712.6045a.5869.5869,0,0,1-.2967-.08l-59.7007-34.4682a.5943.5943,0,1,1,.5945-1.0293l59.7006,34.4683a.5942.5942,0,0,1-.2977,1.109Z"/><path class="cls-35" d="M366.5606,699.6887a.5865.5865,0,0,1-.2967-.08l-59.7007-34.4682a.5943.5943,0,1,1,.5945-1.0293L366.8583,698.58a.5944.5944,0,0,1-.2977,1.1091Z"/><g class="cls-47"><polygon class="cls-48" points="172.353 778.699 157.404 778.699 157.404 792.067 172.353 792.067 183.93 785.383 172.353 778.699"/></g><g class="cls-49"><polygon class="cls-50" points="234.014 743.099 219.065 743.099 219.065 756.467 234.014 756.467 245.591 749.783 234.014 743.099"/></g><g class="cls-51"><polygon class="cls-52" points="295.676 707.498 280.727 707.498 280.727 720.866 295.676 720.866 307.252 714.183 295.676 707.498"/></g><polygon class="cls-17" points="269.15 700.888 269.15 714.183 280.727 720.866 280.727 707.572 269.15 700.888"/><polygon class="cls-29" points="292.304 700.888 292.304 714.183 280.727 720.866 280.727 707.572 292.304 700.888"/><polygon class="cls-32" points="269.15 700.888 280.727 694.204 292.304 700.888 280.727 707.572 269.15 700.888"/><polygon class="cls-17" points="207.488 736.488 207.488 749.783 219.065 756.467 219.065 743.172 207.488 736.488"/><polygon class="cls-29" points="230.642 736.488 230.642 749.783 219.065 756.467 219.065 743.172 230.642 736.488"/><polygon class="cls-32" points="207.488 736.488 219.065 729.804 230.642 736.488 219.065 743.172 207.488 736.488"/><polygon class="cls-17" points="145.827 772.088 145.827 785.383 157.404 792.067 157.404 778.772 145.827 772.088"/><polygon class="cls-29" points="168.981 772.088 168.981 785.383 157.404 792.067 157.404 778.772 168.981 772.088"/><polygon class="cls-32" points="145.827 772.088 157.404 765.404 168.981 772.088 157.404 778.772 145.827 772.088"/><path class="cls-53" d="M527.69,762.165a12.9861,12.9861,0,0,1-6.4959-1.7354l-55.6827-32.1483a10.0036,10.0036,0,0,1-4.9878-8.6387v-6.7783a8.1586,8.1586,0,0,0-4.0676-7.0452l-.5691-.3286a.5943.5943,0,1,1,.5945-1.0292l.5691.3286a9.3481,9.3481,0,0,1,4.6619,8.0744v6.7783a8.8131,8.8131,0,0,0,4.3934,7.6094L521.7886,759.4a11.8342,11.8342,0,0,0,11.8024,0l26.5452-15.3256a.5943.5943,0,0,1,.5944,1.0293L534.1855,760.43A12.9859,12.9859,0,0,1,527.69,762.165Z"/><path class="cls-27" d="M478.4645,656.7693c-2.2076-.3758-3.489-.5115-4.03-1.41-.3969-.6593.72-.0534,1.0709-.1165.2451-.0442.0117-1.0334-.74-1.3974s-1.5264-.8806-1.0216-1.1037a2.4368,2.4368,0,0,1,1.961.2466,2.9819,2.9819,0,0,1,1.4677,1.5147c.2231.775,1.186.775,1.186.775Z"/><path class="cls-27" d="M470.2861,668.4832c-2.0452.634-1.22,1.1562-3.2246.6711s-2.0043-.4851-2.4134-.9369c-.5843-.6455-.5745-1.5463.7806-1.3908s2.0248.44,2.1168.2659-.3579-.8078.0307-.8692.4261.29.7124.6783,1.7725-.2727,1.7725-.2727Z"/><path class="cls-54" d="M484.56,715.2076c.0264.8857.2489,1.317-.0134,1.7636a1.8773,1.8773,0,0,1-1.9256.5416,2.4837,2.4837,0,0,1-1.3214-.8651c-.2028-.36-.488-.316-1.0215-.4216a9.625,9.625,0,0,1-3.0664-2.18c-.4483-.9042,1.0559-1.3656,2.709-.8457a40.9943,40.9943,0,0,1,4.1676,1.7226Z"/><path class="cls-55" d="M497.159,712.5976c.0541,1.5154.1155,1.7517-.3353,2.2569s-2.0454-.0956-2.1807-.4715-.3368-.0129-.9-.3325-2.8758-1.36-3.0572-2.0213.8013-.9842,1.9337-.677a16.0778,16.0778,0,0,0,2.6512.3617Z"/><path class="cls-56" d="M499.7447,668.5422c-.6377,12.4081-1.65,18.22-1.5013,22.5273s-.3552,17.3791-.6539,20.561-3.5007,1.6375-3.56.2022-2.539-18.0778-2.8518-21.8963S489.94,668.14,489.94,668.14Z"/><path class="cls-57" d="M495.3435,677.5419c-6.0169,13.9459-7.2468,13.2485-8.7545,19.28s-1.384,14.9621-1.5274,17.5026a1.7721,1.7721,0,0,1-3.5371.201c-.3084-2.0535-1.7391-18.7946-1.2943-22.78s7.313-23.469,7.313-23.469l6.3243,3.1875Z"/><path class="cls-27" d="M492.3228,644.5243a4.2263,4.2263,0,0,1-.7328-3.19c.2672-.7824.9725-4.8278-2.1832-5.7907s-5.4275,1.8138-4.7279,4.8419,1.1066,4.7072,1.9253,4.7686,1.0984-.13,1.3131.5088,3.6432-.207,3.6432-.207l.7975-.3127Z"/><path class="cls-58" d="M478.2051,654.67c11.4238-2.631,15.14-9.7721,15.14-9.7721l3.4338,4.8129s-5.8,7.9591-17.6848,7.5649C476.424,657.1869,477.31,654.8761,478.2051,654.67Z"/><path class="cls-59" d="M491.5957,641.1151c-7.84,5.087-8.4114,4.6391-10.3219,11.608-1.4329,5.2266,2.8871,18.38.0336,25.5081-1.0055,2.512.9421,3.7669,3.0936,3.1881,2.7662-.7442,1.7758,2.382,6.3671,3.8391,4.4306,1.4062,8.3351-2.9163,9.516-7.4722.6073-2.3429.0765-21.0983-.2331-22.4131C498.09,647.0467,494.1423,639.4627,491.5957,641.1151Z"/><path class="cls-25" d="M492.3228,644.5243a6.579,6.579,0,0,1,1.3057,1.2668c.1442.2368-3.2973,1.7255-5.5806,2.17l-.1306-2.2984S492.4877,645.2308,492.3228,644.5243Z"/><path class="cls-25" d="M485.523,634.1424c-3.1884.406-2.57,3.7641-1.6824,5.1106s.9037.8775,2.0589,1.5163c0,0,.217-.1185.6306,1.8138l.6123.1273c.2032.0423-.2213-.56.051-.8307s1.2636.2959.9469,1.193-.3337.6423-.3337.6423.8171.8328,1.2542.6481,2.55-.4377,2.6168-1.2222.8977-1.9073.62-3.9911a4.6864,4.6864,0,0,0-3.8351-4.1994C486.4028,634.7157,486.2789,634.046,485.523,634.1424Z"/><path class="cls-60" d="M469.27,666.7123c11.4406-6.0295,11.989-6.2413,15.2817-13.3012,3.5795-7.6748,4.9207,1.0168,4.7624,2.5616-1.0061,9.8163-6.3984,10.2386-17.9888,12.8976C468.7213,669.4677,468.4569,667.1407,469.27,666.7123Z"/><path class="cls-61" d="M454.4142,607.0216h0c-.1055-1.6075-1.324-3.2785-3.6083-4.596L395.565,570.5628c-4.3725-2.522-10.9853-2.7934-14.77-.6061L323.4582,603.092a4.4816,4.4816,0,0,0-2.5444,3.4794,3.6217,3.6217,0,0,0,.1622,1.3142l.0068.0205c.0311.0988.0667.1975.106.296l.02.0493q.0557.1347.122.2691l.0294.0594q.0675.1326.1453.2644c.0108.0184.0209.0368.032.0552q.0867.1433.1851.2854l.0188.0281a6.367,6.367,0,0,0,.501.6239c.0176.0194.0368.0384.0547.0576.0736.0793.1494.1582.2288.2364.032.0314.0656.0625.0984.0938.069.0657.14.131.2127.1958.04.0353.0807.07.1218.1054q.1063.0908.2181.18c.045.036.09.0719.1366.1076.0762.0587.1549.1167.2348.1745.0475.0344.0944.069.1432.103.088.0615.1794.122.2715.1822.0439.0287.0862.0578.131.0862.1372.087.2781.173.424.2572l.0039.0023,55.2409,31.8626a17.228,17.228,0,0,0,8.603,2.0825,16.687,16.687,0,0,0,1.8471-.13c.0772-.01.1534-.021.23-.0318a11.4307,11.4307,0,0,0,4.09-1.3148l36.3373-21L451.87,610.9524l.0093-.0058q.1683-.0974.3253-.1992c.0388-.0252.0747-.0515.1125-.077.0668-.0451.1342-.09.1978-.1363.0451-.0327.0869-.0666.13-.1.0522-.04.1054-.08.1554-.1207.0462-.0378.0892-.0766.1335-.115s.0873-.0749.1286-.113c.0456-.0421.0883-.0851.1315-.1279.0357-.0353.0722-.07.1064-.1061.0441-.0462.0855-.0933.1269-.14.0294-.0332.0594-.0662.0875-.1.0419-.05.0813-.1011.12-.1522.0237-.0309.0478-.0617.0705-.0929.0393-.0543.0762-.1092.1123-.1643.0186-.0285.0376-.0568.0553-.0855.0363-.0584.07-.1173.1027-.1766.0142-.0257.0285-.0513.0419-.0771q.0491-.0939.0916-.1889c.01-.0228.0207-.0456.0305-.0685q.0428-.1.0791-.2014l.02-.0586q.036-.1064.065-.2139l.0127-.0488q.0285-.1128.05-.2267l.0063-.0372c.0134-.08.0245-.1594.0323-.24l.0022-.0262c.0075-.0837.0123-.1678.0135-.252,0-.0048,0-.01,0-.0143C454.4221,607.1985,454.42,607.11,454.4142,607.0216Z"/><path class="cls-62" d="M321.0772,607.9061q.0466.1481.106.296l.02.0493q.0558.1347.1219.2691l.0295.0594c.045.0884.0937.1765.1452.2643.0109.0185.0211.0369.0322.0553q.0864.1433.1851.2854l.0187.0281q.1114.1589.2377.316a6.2923,6.2923,0,0,1,1.4787-1.1527l57.3367-33.1354c3.7849-2.1872,10.3977-1.9159,14.77.6061L450.8,607.71a8.9676,8.9676,0,0,1,2.5407,2.0909c.0271-.03.0545-.0594.081-.0894.0293-.0332.0593-.0662.0874-.1.042-.05.0813-.1012.12-.1522.0237-.0309.0479-.0617.07-.0929.0393-.0543.0762-.1092.1122-.1643.0187-.0285.0376-.0569.0554-.0855.0362-.0584.07-.1174.1027-.1766.0142-.0257.0284-.0513.0419-.0771.0326-.0626.063-.1256.0917-.189.01-.0227.02-.0456.03-.0684q.0429-.1.0792-.2015l.02-.0585q.036-.1064.0651-.2139l.0125-.0488c.019-.0752.0358-.1507.05-.2267l.0063-.0372c.0136-.08.0247-.1594.0324-.24l.0022-.0263c.0075-.0837.0123-.1677.0136-.2519,0-.0048,0-.01,0-.0143.001-.0882-.0011-.1765-.0069-.2652h0c-.1055-1.6075-1.324-3.2785-3.6083-4.5961l-55.2409-31.8626c-4.3725-2.522-10.9853-2.7934-14.77-.6061L323.4525,603.092a4.4817,4.4817,0,0,0-2.5444,3.4794,3.6262,3.6262,0,0,0,.1623,1.3142Z"/><g class="cls-63"><path class="cls-64" d="M454.4142,607.0216h0l.01-149.784h-133.51V606.5714a3.6217,3.6217,0,0,0,.1622,1.3142l.0068.0205c.0311.0988.0667.1975.106.296l.02.0493q.0557.1347.122.2691l.0294.0594q.0675.1326.1453.2644c.0108.0184.0209.0368.032.0552q.0867.1433.1851.2854l.0188.0281a6.367,6.367,0,0,0,.501.6239c.0176.0194.0368.0384.0547.0576.0736.0793.1494.1582.2288.2364.032.0314.0656.0625.0984.0938.069.0657.14.131.2127.1958.04.0353.0807.07.1218.1054q.1063.0908.2181.18c.045.036.09.0719.1366.1076.0762.0587.1549.1167.2348.1745.0475.0344.0944.069.1432.103.088.0615.1794.122.2715.1822.0439.0287.0862.0578.131.0862.1372.087.2781.173.424.2572l.0039.0023,55.2409,31.8626a17.228,17.228,0,0,0,8.603,2.0825,16.687,16.687,0,0,0,1.8471-.13c.0772-.01.1534-.021.23-.0318a11.4307,11.4307,0,0,0,4.09-1.3148l36.3373-21L451.87,610.9524l.0093-.0058q.1683-.0974.3253-.1992c.0388-.0252.0747-.0515.1125-.077.0668-.0451.1342-.09.1978-.1363.0451-.0327.0869-.0666.13-.1.0522-.04.1054-.08.1554-.1207.0462-.0378.0892-.0766.1335-.115s.0873-.0749.1286-.113c.0456-.0421.0883-.0851.1315-.1279.0357-.0353.0722-.07.1064-.1061.0441-.0462.0855-.0933.1269-.14.0294-.0332.0594-.0662.0875-.1.0419-.05.0813-.1011.12-.1522.0237-.0309.0478-.0617.0705-.0929.0393-.0543.0762-.1092.1123-.1643.0186-.0285.0376-.0568.0553-.0855.0363-.0584.07-.1173.1027-.1766.0142-.0257.0285-.0513.0419-.0771q.0491-.0939.0916-.1889c.01-.0228.0207-.0456.0305-.0685q.0428-.1.0791-.2014l.02-.0586q.036-.1064.065-.2139l.0127-.0488q.0285-.1128.05-.2267l.0063-.0372c.0134-.08.0245-.1594.0323-.24l.0022-.0262c.0075-.0837.0123-.1678.0135-.252,0-.0048,0-.01,0-.0143C454.4221,607.1985,454.42,607.11,454.4142,607.0216Z"/></g><path class="cls-32" d="M397.0912,627.6049l-46.1876-26.3927,80.6525-46.7955Zm-43.8049-26.4,43.2776,24.73L428.857,557.357Z"/><path class="cls-32" d="M431.3173,556.78l-58.3065-14.7245,26.5165-48.9251Zm-56.532-15.5028,54.31,13.7157-29.6114-59.2876Z"/><polygon class="cls-17" points="346.965 598.236 346.965 604.127 352.095 607.089 352.095 601.198 346.965 598.236"/><polygon class="cls-29" points="357.225 598.236 357.225 604.127 352.095 607.089 352.095 601.198 357.225 598.236"/><polygon class="cls-32" points="346.965 598.236 352.095 595.274 357.225 598.236 352.095 601.198 346.965 598.236"/><polygon class="cls-17" points="425.076 552.914 425.076 558.805 430.207 561.767 430.207 555.876 425.076 552.914"/><polygon class="cls-29" points="435.337 552.914 435.337 558.805 430.207 561.767 430.207 555.876 435.337 552.914"/><polygon class="cls-32" points="425.076 552.914 430.207 549.952 435.337 552.914 430.207 555.876 425.076 552.914"/><polygon class="cls-17" points="344.4 565.533 344.4 571.424 349.53 574.386 349.53 568.495 344.4 565.533"/><polygon class="cls-29" points="354.66 565.533 354.66 571.424 349.53 574.386 349.53 568.495 354.66 565.533"/><polygon class="cls-32" points="344.4 565.533 349.53 562.571 354.66 565.533 349.53 568.495 344.4 565.533"/><polygon class="cls-17" points="425.076 519.227 425.076 525.118 430.207 528.08 430.207 522.189 425.076 519.227"/><polygon class="cls-29" points="435.337 519.227 435.337 525.118 430.207 528.08 430.207 522.189 435.337 519.227"/><polygon class="cls-32" points="425.076 519.227 430.207 516.265 435.337 519.227 430.207 522.189 425.076 519.227"/><polygon class="cls-17" points="352.095 467.215 352.095 473.106 357.225 476.068 357.225 470.177 352.095 467.215"/><polygon class="cls-29" points="362.356 467.215 362.356 473.106 357.225 476.068 357.225 470.177 362.356 467.215"/><polygon class="cls-32" points="352.095 467.215 357.225 464.253 362.356 467.215 357.225 470.177 352.095 467.215"/><polygon class="cls-17" points="394.376 491.446 394.376 497.337 399.506 500.299 399.506 494.408 394.376 491.446"/><polygon class="cls-29" points="404.636 491.446 404.636 497.337 399.506 500.299 399.506 494.408 404.636 491.446"/><polygon class="cls-32" points="394.376 491.446 399.506 488.484 404.636 491.446 399.506 494.408 394.376 491.446"/><polygon class="cls-17" points="391.698 623.797 391.698 629.688 396.828 632.65 396.828 626.759 391.698 623.797"/><polygon class="cls-29" points="401.958 623.797 401.958 629.688 396.828 632.65 396.828 626.759 401.958 623.797"/><polygon class="cls-32" points="391.698 623.797 396.828 620.835 401.958 623.797 396.828 626.759 391.698 623.797"/><polygon class="cls-17" points="366.468 537.361 366.468 545.893 373.898 550.183 373.898 541.651 366.468 537.361"/><polygon class="cls-29" points="381.328 537.361 381.328 545.893 373.898 550.183 373.898 541.651 381.328 537.361"/><polygon class="cls-32" points="366.468 537.361 373.898 533.072 381.328 537.361 373.898 541.651 366.468 537.361"/><path class="cls-65" d="M179.4924,625.72c-2.6143-.089-4.6243,2.0327-5.245,2.6887-.6649-.6112-2.8178-2.5875-5.42-2.3166-3.1468.3277-6.58,2.9785-6.2467,9.3711.33,6.3258,8.5316,13.615,12.39,15.4117l.0611.0281.0589-.0323c3.724-2.0613,11.3979-9.9045,11.2859-16.2378C186.264,628.2328,182.6545,625.8277,179.4924,625.72Z"/></g></g></g></svg>