<svg xmlns="http://www.w3.org/2000/svg" xmlns:xlink="http://www.w3.org/1999/xlink" viewBox="0 0 667.7647 406.5882"><defs><style>.cls-1{fill:url(#linear-gradient);}.cls-2{fill:url(#linear-gradient-2);}.cls-3{isolation:isolate;}.cls-4{opacity:0.97;}.cls-5{clip-path:url(#clip-path);}.cls-10,.cls-6{opacity:0.92;mix-blend-mode:screen;}.cls-6{fill:url(#linear-gradient-4);}.cls-7{fill:url(#radial-gradient);}.cls-8{fill:url(#linear-gradient-5);}.cls-9{clip-path:url(#clip-path-2);}.cls-10{fill:url(#linear-gradient-7);}.cls-11{fill:url(#radial-gradient-2);}.cls-12{fill:url(#linear-gradient-8);}</style><linearGradient id="linear-gradient" x1="43.6431" y1="219.2042" x2="480.4751" y2="219.2042" gradientUnits="userSpaceOnUse"><stop offset="0.1034" stop-color="#fff"/><stop offset="0.2048" stop-color="#fff" stop-opacity="0.9493"/><stop offset="0.3922" stop-color="#fff" stop-opacity="0.8153"/><stop offset="0.6431" stop-color="#fff" stop-opacity="0.6"/><stop offset="0.75" stop-color="#fff" stop-opacity="0.5"/></linearGradient><linearGradient id="linear-gradient-2" x1="123.2177" y1="207.1583" x2="643.7647" y2="207.1583" xlink:href="#linear-gradient"/><clipPath id="clip-path"><path class="cls-1" d="M126.1817,362.5537H385.5282s82.6667-1.3505,94.5534-91.2974c0,0,8.3747-62.1254-52.1395-96.7,0,0-9.9034-6.4064-26.9238-9.8737,0,0-2.2169-13.1188-10.6084-29.42-12.214-23.7274-43.4881-58.81-98.7956-59.52,0,0-77.4931-3.7894-107.243,78.82,0,0-27.23-1.92-50.5713,20.8841a93.9736,93.9736,0,0,0-10.3954,12.8041c-5.4764,8.1141-10.3236,18.5662-11.5653,27.5742a3.1173,3.1173,0,0,0,.5085,2.3993,74.8511,74.8511,0,0,0-28.7707,7.5643c-18.5846,9.1027-39.15,30.0176-39.9318,63.9372,0,0-.9034,41.9265,34.0732,62.1707C89.4078,358.6619,100.9749,363.596,126.1817,362.5537Z"/></clipPath><linearGradient id="linear-gradient-4" x1="43.7064" y1="219.2021" x2="480.4707" y2="219.2021" gradientUnits="userSpaceOnUse"><stop offset="0" stop-color="#fff"/><stop offset="0.5876" stop-color="#fff" stop-opacity="0.4"/><stop offset="0.6396" stop-color="#fff" stop-opacity="0.4256"/><stop offset="0.7125" stop-color="#fff" stop-opacity="0.4972"/><stop offset="0.7978" stop-color="#fff" stop-opacity="0.6149"/><stop offset="0.8925" stop-color="#fff" stop-opacity="0.7788"/><stop offset="0.9939" stop-color="#fff" stop-opacity="0.9865"/><stop offset="1" stop-color="#fff"/></linearGradient><radialGradient id="radial-gradient" cx="283.5818" cy="251.7885" r="249.9821" gradientTransform="translate(0 50.3577) scale(1 0.8)" gradientUnits="userSpaceOnUse"><stop offset="0.4091" stop-color="#fff" stop-opacity="0"/><stop offset="0.4663" stop-color="#fff" stop-opacity="0.0593"/><stop offset="0.5766" stop-color="#fff" stop-opacity="0.2148"/><stop offset="0.7274" stop-color="#fff" stop-opacity="0.4637"/><stop offset="0.831" stop-color="#fff" stop-opacity="0.65"/><stop offset="0.836" stop-color="#fff" stop-opacity="0.6658"/><stop offset="0.8804" stop-color="#fff" stop-opacity="0.7893"/><stop offset="0.9234" stop-color="#fff" stop-opacity="0.8781"/><stop offset="0.9641" stop-color="#fff" stop-opacity="0.9317"/><stop offset="1" stop-color="#fff" stop-opacity="0.95"/></radialGradient><linearGradient id="linear-gradient-5" x1="262.093" y1="362.6929" x2="262.093" y2="75.7154" gradientUnits="userSpaceOnUse"><stop offset="0.1314" stop-color="#fff"/><stop offset="0.1932" stop-color="#fff" stop-opacity="0.7971"/><stop offset="0.3026" stop-color="#fff" stop-opacity="0.4596"/><stop offset="0.392" stop-color="#fff" stop-opacity="0.2117"/><stop offset="0.457" stop-color="#fff" stop-opacity="0.0584"/><stop offset="0.4908" stop-color="#fff" stop-opacity="0"/></linearGradient><clipPath id="clip-path-2"><path class="cls-2" d="M221.5741,377.98H530.622s98.509-1.6094,112.6737-108.7937c0,0,9.98-74.0313-62.1315-115.2312,0,0-11.8014-7.6342-32.0835-11.766,0,0-2.6417-15.6328-12.6414-35.0585C521.8846,78.8555,484.617,37.05,418.71,36.2031c0,0-92.344-4.5156-127.7951,93.9253,0,0-32.4485-2.2874-60.2628,24.8864a111.9807,111.9807,0,0,0-12.3876,15.258c-6.526,9.669-12.302,22.1242-13.7817,32.8585a3.714,3.714,0,0,0,.606,2.8591,89.198,89.198,0,0,0-34.2845,9.0139c-22.1462,10.8472-46.6525,35.77-47.5843,76.19,0,0-1.0766,49.9613,40.603,74.0851C177.7527,373.3419,191.5366,379.2215,221.5741,377.98Z"/></clipPath><linearGradient id="linear-gradient-7" x1="123.2932" y1="207.1558" x2="643.7594" y2="207.1558" xlink:href="#linear-gradient-4"/><radialGradient id="radial-gradient-2" cx="409.1386" cy="245.9872" r="297.8889" gradientTransform="translate(0 49.1974) scale(1 0.8)" xlink:href="#radial-gradient"/><linearGradient id="linear-gradient-8" x1="383.5316" y1="378.1454" x2="383.5316" y2="36.1712" xlink:href="#linear-gradient-5"/></defs><title>Artboard 10ldpi</title><g class="cls-3"><g id="cloud2"><g class="cls-4"><path class="cls-1" d="M126.1817,362.5537H385.5282s82.6667-1.3505,94.5534-91.2974c0,0,8.3747-62.1254-52.1395-96.7,0,0-9.9034-6.4064-26.9238-9.8737,0,0-2.2169-13.1188-10.6084-29.42-12.214-23.7274-43.4881-58.81-98.7956-59.52,0,0-77.4931-3.7894-107.243,78.82,0,0-27.23-1.92-50.5713,20.8841a93.9736,93.9736,0,0,0-10.3954,12.8041c-5.4764,8.1141-10.3236,18.5662-11.5653,27.5742a3.1173,3.1173,0,0,0,.5085,2.3993,74.8511,74.8511,0,0,0-28.7707,7.5643c-18.5846,9.1027-39.15,30.0176-39.9318,63.9372,0,0-.9034,41.9265,34.0732,62.1707C89.4078,358.6619,100.9749,363.596,126.1817,362.5537Z"/><g class="cls-5"><path class="cls-6" d="M126.2323,362.5516H385.5385s82.6538-1.3505,94.5387-91.2973c0,0,8.3734-62.1255-52.1314-96.7,0,0-9.9019-6.4064-26.92-9.8738,0,0-2.2166-13.1187-10.6067-29.42-12.2122-23.7274-43.4814-58.81-98.78-59.52,0,0-77.4811-3.7893-107.2263,78.82,0,0-27.2259-1.92-50.5634,20.8841a93.974,93.974,0,0,0-10.3938,12.8042c-5.4756,8.114-10.322,18.5661-11.5635,27.5742a3.1176,3.1176,0,0,0,.5084,2.3993,74.8315,74.8315,0,0,0-28.7663,7.5642C65.0525,234.889,44.49,255.8039,43.7086,289.7235c0,0-.9032,41.9265,34.068,62.1707C89.464,358.66,101.0294,363.594,126.2323,362.5516Z"/><path class="cls-7" d="M126.2367,362.553H385.5429s82.6539-1.3506,94.5387-91.2974c0,0,8.3735-62.1254-52.1313-96.7,0,0-9.902-6.4064-26.92-9.8737,0,0-2.2166-13.1188-10.6068-29.42-12.2121-23.7275-43.4814-58.81-98.78-59.52,0,0-77.4811-3.7894-107.2263,78.82,0,0-27.2259-1.9195-50.5634,20.8842A93.9648,93.9648,0,0,0,123.46,188.25c-5.4755,8.1141-10.3219,18.5662-11.5634,27.5742a3.1169,3.1169,0,0,0,.5084,2.3993,74.83,74.83,0,0,0-28.7663,7.5643C65.057,234.89,44.4949,255.8053,43.7131,289.7249c0,0-.9033,41.9265,34.0679,62.1706C89.4685,358.6612,101.0338,363.5953,126.2367,362.553Z"/><path class="cls-8" d="M126.2367,362.5537H385.5429s82.6539-1.3505,94.5387-91.2974c0,0,8.3735-62.1254-52.1313-96.7,0,0-9.902-6.4064-26.92-9.8737,0,0-2.2166-13.1188-10.6068-29.42-12.2121-23.7274-43.4814-58.81-98.78-59.52,0,0-77.4811-3.7894-107.2263,78.82,0,0-27.2259-1.92-50.5634,20.8841A93.9648,93.9648,0,0,0,123.46,188.2506c-5.4755,8.1141-10.3219,18.5662-11.5634,27.5742a3.1169,3.1169,0,0,0,.5084,2.3993,74.83,74.83,0,0,0-28.7663,7.5643c-18.5817,9.1027-39.1438,30.0176-39.9256,63.9372,0,0-.9033,41.9265,34.0679,62.1707C89.4685,358.6619,101.0338,363.596,126.2367,362.5537Z"/></g></g><path class="cls-2" d="M221.5741,377.98H530.622s98.509-1.6094,112.6737-108.7937c0,0,9.98-74.0313-62.1315-115.2312,0,0-11.8014-7.6342-32.0835-11.766,0,0-2.6417-15.6328-12.6414-35.0585C521.8846,78.8555,484.617,37.05,418.71,36.2031c0,0-92.344-4.5156-127.7951,93.9253,0,0-32.4485-2.2874-60.2628,24.8864a111.9807,111.9807,0,0,0-12.3876,15.258c-6.526,9.669-12.302,22.1242-13.7817,32.8585a3.714,3.714,0,0,0,.606,2.8591,89.198,89.198,0,0,0-34.2845,9.0139c-22.1462,10.8472-46.6525,35.77-47.5843,76.19,0,0-1.0766,49.9613,40.603,74.0851C177.7527,373.3419,191.5366,379.2215,221.5741,377.98Z"/><g class="cls-9"><path class="cls-10" d="M221.6343,377.977h309s98.4938-1.6093,112.6563-108.7937c0,0,9.9781-74.0312-62.1219-115.2312,0,0-11.7995-7.6341-32.0785-11.766,0,0-2.6414-15.6328-12.6394-35.0585-14.5525-28.2746-51.8143-70.08-117.7107-70.927,0,0-92.33-4.5155-127.7753,93.9254,0,0-32.4435-2.2874-60.2535,24.8864A111.9821,111.9821,0,0,0,218.3255,170.27c-6.5249,9.669-12.3,22.1242-13.78,32.8586a3.715,3.715,0,0,0,.6058,2.8591,89.1706,89.1706,0,0,0-34.2791,9.0139c-22.1427,10.8471-46.6453,35.77-47.577,76.19,0,0-1.0763,49.9613,40.5968,74.0851C177.82,373.3394,191.6015,379.2191,221.6343,377.977Z"/><path class="cls-11" d="M221.64,377.9786h309s98.4937-1.6093,112.6562-108.7937c0,0,9.9781-74.0312-62.1219-115.2312,0,0-11.7995-7.6341-32.0785-11.766,0,0-2.6413-15.6328-12.6394-35.0585-14.5525-28.2746-51.8143-70.08-117.7107-70.927,0,0-92.33-4.5155-127.7753,93.9254,0,0-32.4435-2.2874-60.2535,24.8864a111.9821,111.9821,0,0,0-12.3857,15.2579c-6.5249,9.6691-12.3,22.1242-13.78,32.8586a3.7146,3.7146,0,0,0,.6059,2.8591,89.17,89.17,0,0,0-34.2791,9.0139c-22.1428,10.8471-46.6454,35.77-47.577,76.19,0,0-1.0764,49.9613,40.5968,74.0851C177.8251,373.341,191.6068,379.2207,221.64,377.9786Z"/><path class="cls-12" d="M221.64,377.98h309s98.4937-1.6094,112.6562-108.7937c0,0,9.9781-74.0313-62.1219-115.2312,0,0-11.7995-7.6342-32.0785-11.766,0,0-2.6413-15.6328-12.6394-35.0585-14.5525-28.2746-51.8143-70.08-117.7107-70.927,0,0-92.33-4.5156-127.7753,93.9253,0,0-32.4435-2.2874-60.2535,24.8864a111.98,111.98,0,0,0-12.3857,15.258c-6.5249,9.669-12.3,22.1242-13.78,32.8585a3.7145,3.7145,0,0,0,.6059,2.8591,89.1724,89.1724,0,0,0-34.2791,9.0139c-22.1428,10.8472-46.6454,35.77-47.577,76.19,0,0-1.0764,49.9613,40.5968,74.0851C177.8251,373.3419,191.6068,379.2215,221.64,377.98Z"/></g></g></g></svg>