<svg xmlns="http://www.w3.org/2000/svg" xmlns:xlink="http://www.w3.org/1999/xlink" viewBox="0 0 409.4118 309.1765"><defs><style>.cls-1{fill:url(#linear-gradient);}.cls-2{isolation:isolate;}.cls-3{clip-path:url(#clip-path);}.cls-4{opacity:0.92;mix-blend-mode:screen;fill:url(#linear-gradient-3);}.cls-5{fill:url(#radial-gradient);}.cls-6{fill:url(#linear-gradient-4);}</style><linearGradient id="linear-gradient" x1="-610.9217" y1="166.8564" x2="-318.5488" y2="166.8564" gradientTransform="matrix(-1, 0, 0, 1, -257.4092, 0)" gradientUnits="userSpaceOnUse"><stop offset="0.1034" stop-color="#fff"/><stop offset="0.2048" stop-color="#fff" stop-opacity="0.9493"/><stop offset="0.3922" stop-color="#fff" stop-opacity="0.8153"/><stop offset="0.6431" stop-color="#fff" stop-opacity="0.6"/><stop offset="0.75" stop-color="#fff" stop-opacity="0.5"/></linearGradient><clipPath id="clip-path"><path class="cls-1" d="M298.2691,262.8006H124.6879s-55.3291-.9039-63.2849-61.1056c0,0-5.6052-41.5807,34.8971-64.7213,0,0,6.6284-4.2878,18.02-6.6085a75.1768,75.1768,0,0,1,7.1-19.6911c8.1749-15.8809,29.1067-39.3617,66.1242-39.8372,0,0,51.8663-2.5362,71.778,52.7546,0,0,18.2252-1.2848,33.8475,13.9778a62.8951,62.8951,0,0,1,6.9577,8.57c3.6654,5.4308,6.91,12.4264,7.7406,18.4555a2.0867,2.0867,0,0,1-.34,1.6059,50.0976,50.0976,0,0,1,19.2563,5.0627c12.4388,6.0925,26.2031,20.0909,26.7265,42.7934,0,0,.6046,28.0615-22.8053,41.611C322.882,260.1958,315.14,263.4982,298.2691,262.8006Z"/></clipPath><linearGradient id="linear-gradient-3" x1="-610.8793" y1="166.855" x2="-318.5518" y2="166.855" gradientTransform="matrix(-1, 0, 0, 1, -257.4092, 0)" gradientUnits="userSpaceOnUse"><stop offset="0" stop-color="#fff"/><stop offset="0.5876" stop-color="#fff" stop-opacity="0.4"/><stop offset="0.6396" stop-color="#fff" stop-opacity="0.4256"/><stop offset="0.7125" stop-color="#fff" stop-opacity="0.4972"/><stop offset="0.7978" stop-color="#fff" stop-opacity="0.6149"/><stop offset="0.8925" stop-color="#fff" stop-opacity="0.7788"/><stop offset="0.9939" stop-color="#fff" stop-opacity="0.9865"/><stop offset="1" stop-color="#fff"/></linearGradient><radialGradient id="radial-gradient" cx="-450.33" cy="188.6652" r="167.3136" gradientTransform="matrix(-1, 0, 0, 0.8, -257.4092, 37.733)" gradientUnits="userSpaceOnUse"><stop offset="0.4091" stop-color="#fff" stop-opacity="0"/><stop offset="0.4663" stop-color="#fff" stop-opacity="0.0593"/><stop offset="0.5766" stop-color="#fff" stop-opacity="0.2148"/><stop offset="0.7274" stop-color="#fff" stop-opacity="0.4637"/><stop offset="0.831" stop-color="#fff" stop-opacity="0.65"/><stop offset="0.836" stop-color="#fff" stop-opacity="0.6658"/><stop offset="0.8804" stop-color="#fff" stop-opacity="0.7893"/><stop offset="0.9234" stop-color="#fff" stop-opacity="0.8781"/><stop offset="0.9641" stop-color="#fff" stop-opacity="0.9317"/><stop offset="1" stop-color="#fff" stop-opacity="0.95"/></radialGradient><linearGradient id="linear-gradient-4" x1="-464.7125" y1="262.8938" x2="-464.7125" y2="70.819" gradientTransform="matrix(-1, 0, 0, 1, -257.4092, 0)" gradientUnits="userSpaceOnUse"><stop offset="0.1314" stop-color="#fff"/><stop offset="0.1932" stop-color="#fff" stop-opacity="0.7971"/><stop offset="0.3026" stop-color="#fff" stop-opacity="0.4596"/><stop offset="0.392" stop-color="#fff" stop-opacity="0.2117"/><stop offset="0.457" stop-color="#fff" stop-opacity="0.0584"/><stop offset="0.4908" stop-color="#fff" stop-opacity="0"/></linearGradient></defs><title>Artboard 9ldpi</title><g class="cls-2"><g id="cloud1"><path class="cls-1" d="M298.2691,262.8006H124.6879s-55.3291-.9039-63.2849-61.1056c0,0-5.6052-41.5807,34.8971-64.7213,0,0,6.6284-4.2878,18.02-6.6085a75.1768,75.1768,0,0,1,7.1-19.6911c8.1749-15.8809,29.1067-39.3617,66.1242-39.8372,0,0,51.8663-2.5362,71.778,52.7546,0,0,18.2252-1.2848,33.8475,13.9778a62.8951,62.8951,0,0,1,6.9577,8.57c3.6654,5.4308,6.91,12.4264,7.7406,18.4555a2.0867,2.0867,0,0,1-.34,1.6059,50.0976,50.0976,0,0,1,19.2563,5.0627c12.4388,6.0925,26.2031,20.0909,26.7265,42.7934,0,0,.6046,28.0615-22.8053,41.611C322.882,260.1958,315.14,263.4982,298.2691,262.8006Z"/><g class="cls-3"><path class="cls-4" d="M298.2353,262.7992H124.681s-55.32-.9039-63.275-61.1055c0,0-5.6044-41.5808,34.8916-64.7213,0,0,6.6274-4.2878,18.0174-6.6086a75.1861,75.1861,0,0,1,7.0991-19.6911c8.1736-15.8808,29.1022-39.3617,66.1139-39.8372,0,0,51.8583-2.5362,71.7669,52.7546,0,0,18.2223-1.2848,33.8422,13.9778a62.8951,62.8951,0,0,1,6.9566,8.57c3.6649,5.4308,6.9086,12.4264,7.7395,18.4555a2.0866,2.0866,0,0,1-.34,1.6059,50.0831,50.0831,0,0,1,19.2534,5.0628c12.4368,6.0924,26.199,20.0908,26.7223,42.7933,0,0,.6045,28.0615-22.8018,41.611C322.8444,260.1944,315.1037,263.4969,298.2353,262.7992Z"/><path class="cls-5" d="M298.2323,262.8H124.678s-55.32-.9039-63.275-61.1055c0,0-5.6044-41.5808,34.8916-64.7213,0,0,6.6274-4.2878,18.0174-6.6086a75.1906,75.1906,0,0,1,7.0991-19.6911c8.1736-15.8808,29.1022-39.3617,66.114-39.8372,0,0,51.8583-2.5362,71.7668,52.7546,0,0,18.2224-1.2848,33.8422,13.9778a62.8951,62.8951,0,0,1,6.9566,8.57c3.6649,5.4308,6.9086,12.4264,7.7395,18.4555a2.0866,2.0866,0,0,1-.34,1.6059,50.0831,50.0831,0,0,1,19.2534,5.0628c12.4368,6.0924,26.199,20.0908,26.7223,42.7933,0,0,.6045,28.0615-22.8018,41.611C322.8414,260.1953,315.1007,263.4978,298.2323,262.8Z"/><path class="cls-6" d="M298.2323,262.8006H124.678s-55.32-.9039-63.275-61.1056c0,0-5.6044-41.5807,34.8916-64.7213,0,0,6.6274-4.2878,18.0174-6.6085a75.1906,75.1906,0,0,1,7.0991-19.6911c8.1736-15.8809,29.1022-39.3617,66.114-39.8372,0,0,51.8583-2.5362,71.7668,52.7546,0,0,18.2224-1.2848,33.8422,13.9778a62.8874,62.8874,0,0,1,6.9566,8.57c3.6649,5.4308,6.9086,12.4264,7.7395,18.4555a2.0867,2.0867,0,0,1-.34,1.6059,50.0839,50.0839,0,0,1,19.2534,5.0627c12.4368,6.0925,26.199,20.0909,26.7223,42.7934,0,0,.6045,28.0615-22.8018,41.611C322.8414,260.1958,315.1007,263.4982,298.2323,262.8006Z"/></g></g></g></svg>