<svg xmlns="http://www.w3.org/2000/svg" xmlns:xlink="http://www.w3.org/1999/xlink" viewBox="0 0 2040.8836 1000"><defs><style>.cls-1{isolation:isolate;}.cls-2{opacity:0.54;fill:url(#linear-gradient);}.cls-3{opacity:0.14;mix-blend-mode:multiply;fill:url(#White_Black);}.cls-4{mix-blend-mode:darken;}.cls-5{fill:#3f334d;}.cls-6{fill:#cbcbc6;}.cls-7{fill:#f4f4f4;}.cls-8{fill:#5d96cf;}</style><linearGradient id="linear-gradient" x1="988.5593" y1="670.2524" x2="987.5005" y2="670.2524" gradientTransform="matrix(1, -0.0008, 0.0007, 0.8607, -0.3149, 103.7384)" gradientUnits="userSpaceOnUse"><stop offset="0" stop-color="#101c7a"/><stop offset="1" stop-color="#5d96cf"/></linearGradient><linearGradient id="White_Black" x1="384.8277" y1="812.525" x2="384.8277" y2="748.1751" gradientUnits="userSpaceOnUse"><stop offset="0" stop-color="#fff"/><stop offset="1" stop-color="#272425"/></linearGradient></defs><title>Artboard 5ldpi</title><g class="cls-1"><g id="img_robot" data-name="img robot"><path class="cls-2" d="M256.0671,659.3259A193.4275,193.4275,0,0,0,161.58,683.575c-26.6737,14.7414-64.2071,10.649-84.3435-9.0792C56.97,654.64,31.1179,633.9166-.3214,617.36l.0976,126.5973,94.078-.0725,38.6528-.03,285.903-.22S364.4476,659.2424,256.0671,659.3259Z"/><path class="cls-3" d="M486.5322,745.1007s-2.4288,2.2516-15.0907.8844l-.3554-.0383-8.8842,17.9469-.6155,1.2445c-.5858,1.2018-2.1319,2.3323-4.5042,3.2919l-3.4083,1.4014L433.72,778.0352c-.3985.1639-.8166.3215-1.2455.4755v14.4285l22.56,1.9785-.0182.144c.099-.7786,2.1745-1.3845,4.6357-1.3532l9.8147.1251-.2846,2.2353c-.0985.7737-2.1609,1.3757-4.6066,1.3446l-9.8427-.1256-22.2583-.2836v5.1288c0,1.5381-.9322,2.9883-2.553,4.2854,2.5339,1.98-.3541,4.2488-6.5795,5.1078a38.0527,38.0527,0,0,1-8.811.1375v1.6178h3.8546a13.9679,13.9679,0,0,1,6.0036,1.0509c.4779.2678.7451.5721.7451.8967v4.8771c0,2.5521-7.1564,4.6214-16,4.6214H406.041c-5.54,0-10.4183-.8115-13.2864-2.0449-1.7294-.7344-2.7277-1.623-2.7277-2.5765v-.2231c0-2.2812,4.0183-4.293,10.1208-5.4792v-2.36h-.5313a26.35,26.35,0,0,1-3.77-.2677c-.2245.0361-.4436.0744-.6775.1066-6.3293.8735-13.6981-.0417-16.459-2.0441a2.2391,2.2391,0,0,1-1.0139-1.3721l-15.1209-6.4623c-3.8245-.2334-6.7148-1.2968-6.7148-2.5749,0-1.449,3.7128-2.6236,8.2927-2.6236a23.6591,23.6591,0,0,1,3.9257.3125,22.9661,22.9661,0,0,1,2.5684.0453l18.2423,1.3522V781.66h-.0025v-1.6864l-30.7944-6.142-1.5014-.2994-1.5014.3136L304.0413,784.543l-.0036-.0014-5.8339,1.4871-15.0806-5.9217s5.8557-1.4927,14.25,1.8033l.23.09L345,766.5443l2.162-.7079a36.7369,36.7369,0,0,1,15.54-.8122l3.9937.6461,40.5386,6.57h.12l29.9689-8.6217,1.141-.3278.5554-.4513,22.3264-17.9559.0206.0023,2.4172-2.241Zm-102.98,56.6567,5.3377,1.8875v-1.8875Z"/><g class="cls-4"><path class="cls-5" d="M471.4415,732.0855l-10.0862,3.4421,2.4288,7.117,22.7481-7.7633S484.1034,727.7643,471.4415,732.0855Z"/></g><path class="cls-5" d="M297.3731,618.535l6.6866-8.2988-5.8558-4.7181-15.0807,18.7168S288.9789,628.953,297.3731,618.535Z"/><path class="cls-5" d="M454.9582,569.6382h10.2335a4.0491,4.0491,0,0,1,4.0491,4.0491v7.4533a0,0,0,0,1,0,0H459.033a4.0748,4.0748,0,0,1-4.0748-4.0748v-7.4276A0,0,0,0,1,454.9582,569.6382Z" transform="translate(-22.7835 19.0645) rotate(-2.3066)"/><path class="cls-5" d="M462.2019,675.4812h-.1049a11.2709,11.2709,0,0,1-11.2758-11.2757,11.1339,11.1339,0,0,1,2.8527-7.4922l3.4082,4.4294a22.41,22.41,0,0,1,4.5043,10.405Z"/><path class="cls-5" d="M429.8028,541.3852a12.5028,12.5028,0,1,1-6.461-16.4588A12.5027,12.5027,0,0,1,429.8028,541.3852Z"/><path class="cls-6" d="M420.9275,642.0894l-13.6928,7.0118-40.5388,20.7647-3.9936,2.0421a13.2419,13.2419,0,0,1-15.54-2.5674L345,667.1033l-47.4153-48.8715,6.4562-8.0178L355.09,644.0263l1.5015.991,1.5014-.9459,30.7944-19.4134,8.4679-5.33,6.5911-4.1589,2.6276,4.1589Z"/><path class="cls-6" d="M455.0343,577.4222l-32.869,9.1109a7.7413,7.7413,0,0,1-9.8028-7.1486h0a7.7412,7.7412,0,0,1,7.4235-8.0466l34.9466-1.4076Z"/><path class="cls-7" d="M432.4743,554.616v78.42H388.89V536.348c0-7.1968,4.7978-13.0566,10.7266-13.0566H406.74c6.8494,0,13.0689,3.2444,17.6891,8.5931A34.6033,34.6033,0,0,1,432.4743,554.616Z"/><path class="cls-5" d="M401.63,540.2591a12.5028,12.5028,0,1,1-6.461-16.4589A12.5028,12.5028,0,0,1,401.63,540.2591Z"/><path class="cls-7" d="M363.1274,567.3439h0a8.0213,8.0213,0,0,1-1.4776-11.0693L378.4947,533.52c3.41-4.606,9.67-5.7136,13.8132-2.4437h0c4.24,3.3463,4.52,9.89.61,14.2592l-18.8434,21.0606A8.0214,8.0214,0,0,1,363.1274,567.3439Z"/><circle class="cls-5" cx="364.1533" cy="563.1625" r="8.2927"/><rect class="cls-5" x="388.8897" y="600.5149" width="43.5846" height="32.5209"/><path class="cls-5" d="M432.4743,620.534c-7.0483,0-12.7621-10.1061-12.7621-22.5726s5.7138-22.5725,12.7621-22.5725Z"/><path class="cls-7" d="M471.0905,732.2354l-9.7442,3.3331L439.02,678.8145l-.5554-1.4265-1.1411-1.0358-29.9689-27.251h-.36a18.1083,18.1083,0,0,1-18.1073-18.1072V619.3278h21.5754A29.3378,29.3378,0,0,1,433.72,630.7835l19.9542,25.93,3.4082,4.4294a22.41,22.41,0,0,1,4.5043,10.405l.6155,3.9335Z"/><polygon class="cls-5" points="414.531 529.936 400.148 523.294 400.148 508.575 414.531 508.575 414.531 529.936"/><path class="cls-7" d="M402.2085,562.93l-31.561,7.3946a7.3573,7.3573,0,0,1-9.0356-7.1633h0a7.3572,7.3572,0,0,1,7.3572-7.3572h33.2394Z"/><path class="cls-5" d="M397.9374,555.8037h11.2748a4.4612,4.4612,0,0,1,4.4612,4.4612v8.2117a0,0,0,0,1,0,0H402.4268a4.4894,4.4894,0,0,1-4.4894-4.4894v-8.1835A0,0,0,0,1,397.9374,555.8037Z"/><polygon class="cls-5" points="455.596 667.329 439.02 678.815 438.464 677.388 437.323 676.352 453.884 664.866 455.596 667.329"/><path class="cls-5" d="M366.6959,669.8659l-3.9936,2.0421a13.2419,13.2419,0,0,1-15.54-2.5674L345,667.1033a11.2725,11.2725,0,0,1,21.6955,2.7626Z"/><polygon class="cls-5" points="358.093 644.071 358.093 662.329 355.09 662.329 355.09 644.026 356.591 645.017 358.093 644.071"/><path class="cls-7" d="M425.1341,497.8074v15.4153a5.7306,5.7306,0,0,1-.7451,2.8342,6.8573,6.8573,0,0,1-6.0036,3.3217h-5.4833c-12.6256,0-22.8751-9.3492-22.8751-20.8658v-.7054a13.5667,13.5667,0,0,1,2.7276-8.1436A16.4262,16.4262,0,0,1,406.041,483.2h3.0932C417.9777,483.2,425.1341,489.7407,425.1341,497.8074Z"/><path class="cls-5" d="M425.1341,497.8074v15.4153a5.7306,5.7306,0,0,1-.7451,2.8342,15.1315,15.1315,0,0,1-5.61-3.219,12.9741,12.9741,0,0,1-4.3584-9.5929c0-7.5022-6.6643-13.5812-14.8752-13.5812h-6.7908A16.4262,16.4262,0,0,1,406.041,483.2h3.0932C417.9777,483.2,425.1341,489.7407,425.1341,497.8074Z"/><rect class="cls-5" x="399.6576" y="498.2178" width="7.4985" height="10.901" rx="3.2716"/><rect class="cls-8" x="419.5397" y="498.2178" width="2.7456" height="6.5724" rx="1.1979"/></g></g></svg>