<svg xmlns="http://www.w3.org/2000/svg" xmlns:xlink="http://www.w3.org/1999/xlink" viewBox="0 0 553.31 999.9919"><defs><style>.cls-1{fill:none;}.cls-2{isolation:isolate;}.cls-3{fill:#3f334d;}.cls-4{fill:#5b5168;}.cls-5{fill:#fff;}.cls-6{fill:#0c155c;}.cls-7{fill:#f7d1ba;}.cls-8{fill:#e18538;}.cls-9{fill:#080e3d;}.cls-10{fill:#101c7a;}.cls-11{fill:#77331b;}.cls-12{opacity:0.14;mix-blend-mode:multiply;}.cls-13{fill:url(#White_Black);}.cls-14{fill:url(#White_Black-2);}.cls-15{opacity:0.88;mix-blend-mode:screen;fill:url(#radial-gradient);}.cls-16{clip-path:url(#clip-path);}.cls-17{opacity:0.82;fill:url(#linear-gradient);}</style><linearGradient id="White_Black" x1="403.6481" y1="757.1852" x2="403.6481" y2="713.4828" gradientUnits="userSpaceOnUse"><stop offset="0" stop-color="#fff"/><stop offset="1" stop-color="#272425"/></linearGradient><linearGradient id="White_Black-2" x1="465.2626" y1="757.1852" x2="465.2626" y2="713.4824" xlink:href="#White_Black"/><radialGradient id="radial-gradient" cx="337.2584" cy="685.4065" r="54.2209" gradientUnits="userSpaceOnUse"><stop offset="0" stop-color="#9dc8e6" stop-opacity="0.54"/><stop offset="0.1925" stop-color="#abd0ea" stop-opacity="0.4602"/><stop offset="0.5802" stop-color="#d1e5f3" stop-opacity="0.2529"/><stop offset="1" stop-color="#fff" stop-opacity="0"/></radialGradient><clipPath id="clip-path"><rect class="cls-1" x="0.6388" y="292.1962" width="552.7059" height="537.8824"/></clipPath><linearGradient id="linear-gradient" x1="-124.3453" y1="466.483" x2="-124.3453" y2="651.2295" gradientUnits="userSpaceOnUse"><stop offset="0" stop-color="#fff"/><stop offset="1" stop-color="#e18538"/></linearGradient></defs><title>Artboard 6ldpi</title><g class="cls-2"><g id="img_man" data-name="img man"><path class="cls-3" d="M347.2537,473.8333l1.4663,2.0837,2.2249-1.5658c1.3172-.9268,3.0174-.8754,3.7126.1124l7.4367,10.5678c.6952.9878.17,2.6055-1.1475,3.5324l-2.225,1.5658,1.4664,2.0837,2.2249-1.5658c2.4523-1.7257,3.2143-4.8819,1.6986-7.0358l-7.4367-10.5678c-1.5157-2.1539-4.744-2.5021-7.1963-.7763Z"/><path class="cls-3" d="M359.0425,523.2546a6.6013,6.6013,0,0,0,1.5995-9.1976l-36.2884-51.5664a2.0709,2.0709,0,0,0-2.8851-.5017l-31.6553,22.2766,41.486,58.5128Z"/><rect class="cls-4" x="306.6389" y="477.2635" width="71.727" height="27.5541" rx="5.207" transform="translate(138.0415 1053.7346) rotate(-125.1349)"/><rect class="cls-5" x="329.8704" y="496.2876" width="5.0463" height="8.25" transform="translate(548.3708 -60.1693) rotate(54.664)"/><polygon class="cls-6" points="408.698 554.643 427.178 570.476 439.071 512.888 408.698 554.643"/><path class="cls-7" d="M356.3223,468.9988H368.339a0,0,0,0,1,0,0v8.832a4.4611,4.4611,0,0,1-4.4611,4.4611H351.8329a0,0,0,0,1,0,0v-8.8037A4.4894,4.4894,0,0,1,356.3223,468.9988Z" transform="translate(945.1859 592.0855) rotate(138.3828)"/><path class="cls-8" d="M344.0061,682.9358l-8.3116-4.66-3.8577,6.88,18.7456,10.5107S354.44,688.7863,344.0061,682.9358Z"/><path class="cls-9" d="M445.183,541.1528l6.4386-.96a8.2284,8.2284,0,0,0,6.9255-9.3514l-4.8992-31.6936-14.5769,2.1726Z"/><path class="cls-9" d="M335.6945,678.2756l36.0637-64.3186,6.3824,3.5786a11.639,11.639,0,0,1,3.5513,17.2247l-37.1081,48.5Z"/><polygon class="cls-9" points="335.695 678.276 361.131 632.911 376.509 641.534 344.584 683.26 335.695 678.276"/><polygon class="cls-9" points="387.908 616.312 370.868 613.053 375.108 556.085 402.79 558.146 387.908 616.312"/><path class="cls-6" d="M420.9428,591.7217l-19.075,12.1292-26.1017-36.3092c-7-9.7377-8.4077-22.0119-3.3937-29.5941l2.0164-3.049,32.8693,28.3737Z"/><polygon class="cls-9" points="383.086 632.167 370.668 631.388 369.573 614.422 389.371 613.144 383.086 632.167"/><path class="cls-10" d="M450.7474,509.1787l-40.399,59.9568-16.0653-12.4029-21.6343-16.7261,46.4589-70.0188a12.0661,12.0661,0,0,1,14.5362-4.965,11.9116,11.9116,0,0,1,2.0955,1.02l5.38,3.3036A28.9679,28.9679,0,0,1,450.7474,509.1787Z"/><path class="cls-5" d="M450.7474,509.1787l-40.399,59.9568-16.0653-12.4029s22.597-29.6009,35.2832-51.7826c12.29-21.4455,4.5874-38.7945,4.0776-39.9273a11.9116,11.9116,0,0,1,2.0955,1.02l5.38,3.3036A28.9679,28.9679,0,0,1,450.7474,509.1787Z"/><path class="cls-8" d="M380.4947,548.035l-1.6534-.9257c-.9758-.5355-2.282-1.3173-3.543-2.1387a36.4034,36.4034,0,0,1-3.3478-2.4172l-1.3736-1.2339s.7758-.1056,1.8249-.3027a31.9443,31.9443,0,0,0,3.7665-1.0968c1.3385-.4657,2.6335-.9777,3.6181-1.4074l1.6042-.6884s1.3659.1629,3.7929.371c2.4329.193,5.9456.38,10.1866.3922a130.2194,130.2194,0,0,0,14.4221-.8113c2.6126-.297,5.2695-.7355,7.9065-1.2993a32.1462,32.1462,0,0,0,7.2508-2.43c4.1907-2.3347,7.6777-6.6062,9.9759-11.1174a46.1061,46.1061,0,0,0,4.4987-13.2735,35.1728,35.1728,0,0,0,.4231-9.8528,16.0643,16.0643,0,0,0-.437-2.654c-.1292-.6036-.1982-.9254-.1982-.9254l2.2645-.73.316,1.0114a18.3921,18.3921,0,0,1,.7445,2.9109,38.168,38.168,0,0,1,.4615,10.7387,50.2649,50.2649,0,0,1-3.6891,14.8942,31.9077,31.9077,0,0,1-11.1452,14.4327l-2.1757,1.2454a22.9283,22.9283,0,0,1-2.1708.9812c-1.4459.6636-2.8958,1.0711-4.34,1.5884-2.8875.8789-5.7491,1.5965-8.5267,2.1518a138.5842,138.5842,0,0,1-15.28,2.1537c-4.501.366-8.2857.4825-10.9558.4935C382.0415,548.0916,380.4947,548.035,380.4947,548.035Z"/><polygon class="cls-8" points="444.403 490.951 438.883 485.685 442.983 478.674 447.018 485.128 444.403 490.951"/><path class="cls-10" d="M378.3706,450.3385l7.0665-7.8794a9.0854,9.0854,0,0,1,12.7407-1.6616L429.57,465.7456l-12.606,15.0806Z"/><path class="cls-10" d="M359.5489,463.3865l28.8427-22.9892a6.8084,6.8084,0,0,1,8.07-.3075h0a6.8086,6.8086,0,0,1-.3939,11.5118l-28.28,20.534Z"/><polygon class="cls-7" points="442.923 478.674 433.597 464.973 441.673 451.691 454.564 459.53 442.923 478.674"/><path class="cls-7" d="M454.3112,468.3112l-4.54-1.7826a21.5114,21.5114,0,0,1-12.1616-27.8852l.3786-.9644a15.0556,15.0556,0,0,1,19.5165-8.5117l2.4431.9592a15.0556,15.0556,0,0,1,8.5117,19.5165l-5.921,15.08A6.3465,6.3465,0,0,1,454.3112,468.3112Z"/><path class="cls-11" d="M460.95,433.1007h12.33a0,0,0,0,1,0,0v9.8842a5.5585,5.5585,0,0,1-5.5585,5.5585H454.7172a0,0,0,0,1,0,0v-9.21A6.2326,6.2326,0,0,1,460.95,433.1007Z" transform="translate(193.208 -139.0841) rotate(21.4368)"/><path class="cls-11" d="M462.4511,425.8589h10.9052a0,0,0,0,1,0,0v8.7423a4.9163,4.9163,0,0,1-4.9163,4.9163H456.9385a0,0,0,0,1,0,0v-8.146A5.5126,5.5126,0,0,1,462.4511,425.8589Z" transform="translate(190.3124 -140.0656) rotate(21.4366)"/><path class="cls-11" d="M465.6992,446.2015c-10.8722-4.2689-17.3092-7.4834-21.0538,9.1821a16.2415,16.2415,0,1,1,11.8717-30.2359l7.8083,3.0658C469.8416,432.5237,468.3883,439.3523,465.6992,446.2015Z"/><path class="cls-7" d="M465.4217,462.7725l-1.8346-.72,2.3784-6.0577.9559,5.5566A1.11,1.11,0,0,1,465.4217,462.7725Z"/><path class="cls-11" d="M435.4235,458.23c-3.7235-15.69.5289-25.0056.5289-25.0056l10.8739-.4352c6.3738,2.5024,10.7565,6.2277,8.2541,12.6014l-1.9333-.4588C447.39,464.9772,435.4235,458.23,435.4235,458.23Z"/><path class="cls-7" d="M448.6119,456.346,445.1839,455a3.6829,3.6829,0,0,1-2.0822-4.774l1.0535-2.6828a3.6825,3.6825,0,0,1,4.7739-2.082h0a3.6826,3.6826,0,0,1,2.082,4.7739Z"/><path class="cls-7" d="M467.7555,451.4354l-10.7262-4.2115a4.4512,4.4512,0,0,1-2.5164-5.77h0a4.4511,4.4511,0,0,1,5.77-2.5164l6.53,2.5638a4.5083,4.5083,0,0,1,2.5488,5.844Z"/><path class="cls-11" d="M452.7758,437.558h10.4382a0,0,0,0,1,0,0v5.9113a4.4025,4.4025,0,0,1-4.4025,4.4025h-6.0357a0,0,0,0,1,0,0V437.558A0,0,0,0,1,452.7758,437.558Z" transform="translate(193.4892 -136.7612) rotate(21.4373)"/><path class="cls-11" d="M438.5489,442.5545h18.3987a0,0,0,0,1,0,0v3.33a7.17,7.17,0,0,1-7.17,7.17H438.5489a0,0,0,0,1,0,0v-10.5A0,0,0,0,1,438.5489,442.5545Z" transform="translate(194.6351 -132.6618) rotate(21.4367)"/><path class="cls-10" d="M449.87,499.4559l6.744,36.2618a6.8091,6.8091,0,0,1-3.52,7.2687h0a6.8088,6.8088,0,0,1-9.9773-5.7561l-1.4732-37.4375Z"/><path class="cls-7" d="M437.6831,486.4692H449.7a0,0,0,0,1,0,0v8.8319a4.4612,4.4612,0,0,1-4.4612,4.4612h-12.045a0,0,0,0,1,0,0v-8.8037a4.4894,4.4894,0,0,1,4.4894-4.4894Z" transform="translate(65.9182 1038.1082) rotate(-103.5956)"/><path class="cls-10" d="M350.0783,612.11l70.8645-20.3883,1.4879,5.1717a13.3175,13.3175,0,0,1-10.9656,16.873L347.57,622.82Z"/><path class="cls-8" d="M348.1008,621.1666l2.59-9.17-7.5911-2.144-5.8414,20.6821S344.85,632.6786,348.1008,621.1666Z"/><polygon class="cls-10" points="372.649 540.007 361.434 530.423 390.642 512.888 372.649 540.007"/><g class="cls-12"><path class="cls-13" d="M472.69,766.6663l2.5946,1.8063-9.3911,1.008a21.1794,21.1794,0,0,1-6.0564-.2205c-1.399.15-2.7305.293-3.32.3562-7.9687.8553-16.9046-.132-20.5541-2.2078h-.0108s-.0457-.0292-.1093-.0726c-.128-.0762-.2661-.15-.38-.2295a2.3822,2.3822,0,0,1-1.0914-1.37c-.66-1.175-.8872-2.93,1.0516-5.1633,0,0,.7028-.1075,1.8432-.1935l-3.67-1.65.03-.0121a42.8957,42.8957,0,0,1-5.8014.18l-29.6484,6.441a26.485,26.485,0,0,1-4.5577.4924c-.08.0032-.16.008-.24.01-.1522.0035-.3029.0037-.4552.005-.3482.004-.6945.0008-1.0409-.01a22.1927,22.1927,0,0,1-6.4463-.9523l-.9211-.2808-24.9672-5.44,1.9717-.5723-8.19-1.989c-2.1147-.5135-2.306-1.3985-.4274-1.9766l5.4271-1.67,8.4866,2.0609c1.8708.4543,2.2428,1.197,1.022,1.7653L387.68,760.72l25.9724-5.6087-23.01-9.48-29.2081-4.7934,11.2072-2.618-.9534-.3128c-.668-.0312-1.1112-.0478-1.1112-.0478l.5522-.1357-1.4274-.4683c-7.3344-2.4062-7.617-5.8783-.6816-8.3715l4.32-1.5531-1.9461-7.1464-20.8137-1.637-7.481.5776-5.8415-5.6537s6.8748-.5239,10.34,2.1424l-.0287-.0335,20.878.8087-32.7528-15.9683-3.8579-1.8808,18.7456-2.8732s3.857,1.88-6.5743,3.48l.5757-.0883,37.1081,13.258a7.8111,7.8111,0,0,1,1.3159.5942h.0006l8.567,4.3744,19.89.77c8.0283.3049,13.2067,2.483,10.9656,4.6124l-1.4879,1.4138-10.7962,6.2168.2018-.0426,5.587,2.2667,11.2428-2.633,7.7649,10.2783a25.0048,25.0048,0,0,1,2.5537,1.1021l4.7221,1.9158.393-.7.505-3.5081c.1969-1.3679,5.5468-2.2117,9.9773-1.5735,2.158.3108,3.4839.9069,3.6051,1.5519,1.4526.4758,2.2082,1.1069,1.8478,1.768l-4.5282,8.008c2.6906,2.7463-.2771,5.7161-7.8312,7.72l4.017,1.8059,4.1065-.4408c3.2627-.35,6.946.089,8.2271.9808l5.9211,4.1224,0,0,.255.1775a8.3748,8.3748,0,0,1,3.4332.9654l3.3115,2.3057Z"/><path class="cls-14" d="M465.9656,761.184l-2.3785-1.656,1.8346-.1969c.805-.0863,1.6464.1009,1.5.3339Z"/></g><rect class="cls-15" x="255.6939" y="603.842" width="163.129" height="163.129"/><g class="cls-16"><path class="cls-17" d="M167.4066,616.292C125.0933,613.62,79.4047,634.9048,52.06,651.4655,22.535,669.3461-9.1463,640.9788-31.4086,616.9972-79.9539,564.7027-157.48,484.9609-264.16,484.9609c-61.6523,0-113.568,33.9892-155.78,60.2358-30.5425,18.9906-74.1727,13.6587-96.0779-12.1925a457.3041,457.3041,0,0,0-55.7087-55.7165v216.409H323.0367S279.1769,623.35,167.4066,616.292Z"/><path class="cls-5" d="M323.1132,696.7766a3.0924,3.0924,0,0,1-2.1806-.8957,3.06,3.06,0,0,1-.8958-2.1806,3.0945,3.0945,0,0,1,.8958-2.1818,3.1932,3.1932,0,0,1,4.3624,0,3.0769,3.0769,0,0,1-2.1818,5.2581Z"/></g></g></g></svg>