<svg xmlns="http://www.w3.org/2000/svg" xmlns:xlink="http://www.w3.org/1999/xlink" viewBox="0 0 553.31 999.9919"><defs><style>.cls-1{fill:none;}.cls-2{isolation:isolate;}.cls-3{mix-blend-mode:darken;}.cls-4{fill:#3f334d;}.cls-5{fill:#cbcbc6;}.cls-6{fill:#f4f4f4;}.cls-7{fill:#5d96cf;}.cls-8{opacity:0.14;mix-blend-mode:multiply;fill:url(#White_Black);}.cls-9{clip-path:url(#clip-path);}.cls-10{opacity:0.54;fill:url(#linear-gradient);}</style><linearGradient id="White_Black" x1="228.6952" y1="928.5981" x2="228.6952" y2="856.7275" gradientUnits="userSpaceOnUse"><stop offset="0" stop-color="#fff"/><stop offset="1" stop-color="#272425"/></linearGradient><clipPath id="clip-path"><rect class="cls-1" x="0.6388" y="404.4314" width="439.4118" height="578.1176"/></clipPath><linearGradient id="linear-gradient" x1="988.9911" y1="783.376" x2="987.6967" y2="783.376" gradientUnits="userSpaceOnUse"><stop offset="0" stop-color="#101c7a"/><stop offset="1" stop-color="#5d96cf"/></linearGradient></defs><title>Artboard 6ldpi</title><g class="cls-2"><g id="img_robot" data-name="img robot"><g class="cls-3"><path class="cls-4" d="M325.4318,838.7574l-11.265,3.8445,2.7127,7.9487,25.4067-8.6706S339.5736,833.9313,325.4318,838.7574Z"/></g><path class="cls-4" d="M131.02,711.936l7.4681-9.2686-6.54-5.2695-16.8432,20.9042S121.6444,723.5716,131.02,711.936Z"/><path class="cls-5" d="M269.0142,738.2433l-15.2933,7.8313-45.2765,23.1915-4.46,2.2808a14.79,14.79,0,0,1-17.3561-2.8674l-2.4147-2.4988-52.9568-54.5833,7.2107-8.9548,57.0149,37.764,1.6769,1.1068,1.6769-1.0565,34.3934-21.6822,9.4576-5.9532,7.3613-4.645,2.9347,4.645Z"/><path class="cls-4" d="M278.9267,625.77a13.9641,13.9641,0,1,1-7.2161-18.3824A13.964,13.964,0,0,1,278.9267,625.77Z"/><path class="cls-5" d="M307.1071,666.0183l-36.7105,10.1758A8.6463,8.6463,0,0,1,259.448,668.21h0a8.6462,8.6462,0,0,1,8.2912-8.9871l39.0309-1.572Z"/><path class="cls-4" d="M307.0221,657.3246h11.9027a4.0491,4.0491,0,0,1,4.0491,4.0491v8.7976a0,0,0,0,1,0,0H311.0967a4.0747,4.0747,0,0,1-4.0747-4.0747v-8.7721A0,0,0,0,1,307.0221,657.3246Z" transform="translate(-26.4589 13.2157) rotate(-2.3066)"/><path class="cls-6" d="M281.91,640.5467v87.5849H233.232V620.1437c0-8.038,5.3585-14.5826,11.98-14.5826h7.9567c7.65,0,14.5963,3.6236,19.7565,9.5974C278.4644,621.5054,281.91,630.5319,281.91,640.5467Z"/><path class="cls-4" d="M247.4615,624.5118a13.9641,13.9641,0,1,1-7.2162-18.3824A13.964,13.964,0,0,1,247.4615,624.5118Z"/><path class="cls-6" d="M204.4588,654.7621h0a8.9588,8.9588,0,0,1-1.65-12.3629l18.8136-25.4143c3.8081-5.1443,10.8-6.3813,15.4275-2.7293h0c4.7354,3.7374,5.0482,11.0455.6818,15.9257l-21.0456,23.5221A8.959,8.959,0,0,1,204.4588,654.7621Z"/><circle class="cls-4" cx="205.6045" cy="650.0921" r="9.2619"/><rect class="cls-4" x="233.232" y="691.8099" width="48.6785" height="36.3217"/><path class="cls-4" d="M281.91,714.1687c-7.872,0-14.2536-11.2872-14.2536-25.2107s6.3816-25.2106,14.2536-25.2106Z"/><path class="cls-6" d="M325.04,838.9249l-10.883,3.7227-24.9358-63.387-.62-1.5932-1.2745-1.1569-33.4714-30.4359h-.4021a20.2246,20.2246,0,0,1-20.2235-20.2234v-13.03h24.0969a32.7669,32.7669,0,0,1,25.9753,12.7946l22.2862,28.96,3.8066,4.947a25.0286,25.0286,0,0,1,5.0307,11.6211l.6874,4.3932Z"/><polygon class="cls-4" points="261.87 612.982 245.806 605.564 245.806 589.125 261.87 589.125 261.87 612.982"/><path class="cls-6" d="M248.1074,649.8319l-35.25,8.2588a8.2171,8.2171,0,0,1-10.0915-8h0a8.217,8.217,0,0,1,8.217-8.217h37.1242Z"/><path class="cls-4" d="M243.3371,641.8732H256.451a4.4612,4.4612,0,0,1,4.4612,4.4612v9.6928a0,0,0,0,1,0,0H247.8265a4.4894,4.4894,0,0,1-4.4894-4.4894v-9.6646A0,0,0,0,1,243.3371,641.8732Z"/><path class="cls-4" d="M315.1123,775.5377h-.1171a12.5882,12.5882,0,0,1-12.5936-12.5935,12.435,12.435,0,0,1,3.186-8.3678l3.8066,4.947a25.0286,25.0286,0,0,1,5.0307,11.6211Z"/><polygon class="cls-4" points="307.734 766.432 289.221 779.261 288.601 777.667 287.326 776.51 305.823 763.682 307.734 766.432"/><path class="cls-4" d="M208.4444,769.2661l-4.46,2.2808a14.79,14.79,0,0,1-17.3561-2.8674l-2.4147-2.4988a12.59,12.59,0,0,1,24.2312,3.0854Z"/><polygon class="cls-4" points="198.836 740.457 198.836 760.848 195.482 760.848 195.482 740.407 197.159 741.513 198.836 740.457"/><path class="cls-6" d="M273.7123,577.0987v17.217a6.4,6.4,0,0,1-.8322,3.1654,7.6587,7.6587,0,0,1-6.7052,3.71h-6.1241c-14.1012,0-25.5486-10.4419-25.5486-23.3044v-.7879a15.1537,15.1537,0,0,1,3.0463-9.0954,18.3463,18.3463,0,0,1,14.8392-7.2189h3.4548C265.72,560.7844,273.7123,568.0893,273.7123,577.0987Z"/><path class="cls-4" d="M273.7123,577.0987v17.217a6.4,6.4,0,0,1-.8322,3.1654,16.9,16.9,0,0,1-6.2656-3.5952,14.4906,14.4906,0,0,1-4.8678-10.714c0-8.3791-7.4432-15.1686-16.6137-15.1686h-7.5845a18.3463,18.3463,0,0,1,14.8392-7.2189h3.4548C265.72,560.7844,273.7123,568.0893,273.7123,577.0987Z"/><rect class="cls-4" x="245.2584" y="577.5571" width="8.3749" height="12.1751" rx="2.6857"/><rect class="cls-7" x="267.4641" y="577.5571" width="3.0665" height="7.3406" rx="0.9834"/><path class="cls-8" d="M342.2862,853.2937s-2.7126,2.5148-16.8544.9879l-.3969-.0428-9.9226,20.0443-.6874,1.39c-.6542,1.3422-2.381,2.6048-5.0306,3.6765l-3.8067,1.5652-22.2861,9.1625c-.4451.183-.9121.3591-1.3911.5311v16.1148l25.1967,2.21-.02.1608c.1106-.87,2.4287-1.5462,5.1775-1.5113l10.9618.14-.3179,2.4964c-.11.8642-2.4134,1.5365-5.145,1.5018l-10.993-.14-24.86-.3168v5.7282c0,1.7179-1.0411,3.3375-2.8514,4.7862,2.83,2.2111-.3955,4.7454-7.3484,5.7049a42.5094,42.5094,0,0,1-9.8408.1535v1.8069h4.3051a15.6,15.6,0,0,1,6.7052,1.1736c.5338.2992.8322.639.8322,1.0016v5.4471c0,2.85-7.9927,5.1615-17.87,5.1615h-3.4546c-6.1869,0-11.6358-.9063-14.8392-2.2839-1.9314-.82-3.0464-1.8127-3.0464-2.8776v-.2492c0-2.5478,4.4879-4.7948,11.3036-6.1195v-2.6362h-.5934a29.4292,29.4292,0,0,1-4.21-.299c-.2507.04-.4954.0831-.7567.1191-7.0689.9756-15.299-.0466-18.3825-2.2831a2.5,2.5,0,0,1-1.1324-1.5324l-16.8881-7.2176c-4.2716-.2606-7.5-1.4483-7.5-2.8758,0-1.6184,4.1467-2.93,9.2618-2.93a26.43,26.43,0,0,1,4.3845.349,25.6959,25.6959,0,0,1,2.8686.0506l20.3744,1.51V894.1254h-.0028v-1.8835l-34.3934-6.86-1.6769-.3344-1.6768.35-57.015,11.9478-.004-.0016-6.5157,1.6609-16.8431-6.6137s6.54-1.6672,15.9153,2.0141l.2565.1007,52.9371-17.2627,2.4147-.7906c4.5276-1.4748,11.57-1.8462,17.3562-.9071l4.46.7216,45.2764,7.3374h.134l33.4714-9.6294,1.2744-.3661.62-.504,24.9358-20.0545.0229.0026,2.7-2.5029ZM227.27,916.5721l5.9616,2.108v-2.108Z"/><g class="cls-9"><path class="cls-10" d="M93.4306,761.6809c-46.8175,0-85.3148,10.8216-115.5273,24.8174-32.6206,15.1111-78.4989,10.88-103.0957-9.3868a411.5654,411.5654,0,0,0-94.7548-58.7127V848.3532H291.8043S225.9184,761.6809,93.4306,761.6809Z"/></g></g></g></svg>