<svg xmlns="http://www.w3.org/2000/svg" xmlns:xlink="http://www.w3.org/1999/xlink" viewBox="0 0 2040.8836 1000"><defs><style>.cls-1{fill:none;}.cls-2{isolation:isolate;}.cls-3{fill:#fff;}.cls-4{fill:#3f334d;}.cls-5{fill:#5b5168;}.cls-6{fill:#0c155c;}.cls-7{fill:#f7d1ba;}.cls-8{fill:#e18538;}.cls-9{fill:#080e3d;}.cls-10{fill:#101c7a;}.cls-11{fill:#77331b;}.cls-12{opacity:0.14;mix-blend-mode:multiply;}.cls-13{fill:url(#White_Black);}.cls-14{fill:url(#White_Black-2);}.cls-15{opacity:0.88;mix-blend-mode:screen;fill:url(#radial-gradient);}.cls-16{clip-path:url(#clip-path);}.cls-17{opacity:0.82;fill:url(#linear-gradient);}</style><linearGradient id="White_Black" x1="727.2418" y1="658.9875" x2="727.2418" y2="620.9215" gradientUnits="userSpaceOnUse"><stop offset="0" stop-color="#fff"/><stop offset="1" stop-color="#272425"/></linearGradient><linearGradient id="White_Black-2" x1="780.9097" y1="658.9874" x2="780.9097" y2="620.9212" xlink:href="#White_Black"/><radialGradient id="radial-gradient" cx="669.4147" cy="596.4664" r="47.2278" gradientUnits="userSpaceOnUse"><stop offset="0" stop-color="#9dc8e6" stop-opacity="0.54"/><stop offset="0.1925" stop-color="#abd0ea" stop-opacity="0.4602"/><stop offset="0.5802" stop-color="#d1e5f3" stop-opacity="0.2529"/><stop offset="1" stop-color="#fff" stop-opacity="0"/></radialGradient><clipPath id="clip-path"><rect class="cls-1" x="-0.4118" y="101.612" width="867.1765" height="625.7647"/></clipPath><linearGradient id="linear-gradient" x1="263.2489" y1="436.3524" x2="263.2489" y2="573.2403" gradientUnits="userSpaceOnUse"><stop offset="0" stop-color="#fff"/><stop offset="1" stop-color="#e18538"/></linearGradient></defs><title>Artboard 5ldpi</title><g class="cls-2"><g id="img_man" data-name="img man"><path class="cls-3" d="M638.4668,440.5991a2.501,2.501,0,0,1,2.5-2.5h0a2.5,2.5,0,0,1,2.5,2.5h0a2.5,2.5,0,0,1-2.5,2.5h0A2.501,2.501,0,0,1,638.4668,440.5991Zm-13,0a2.501,2.501,0,0,1,2.5-2.5h0a2.5,2.5,0,0,1,2.5,2.5h0a2.5,2.5,0,0,1-2.5,2.5h0A2.501,2.501,0,0,1,625.4668,440.5991Zm-13,0a2.501,2.501,0,0,1,2.5-2.5h0a2.5,2.5,0,0,1,2.5,2.5h0a2.5,2.5,0,0,1-2.5,2.5h0A2.501,2.501,0,0,1,612.4668,440.5991Zm-13,0a2.501,2.501,0,0,1,2.5-2.5h0a2.5,2.5,0,0,1,2.5,2.5h0a2.5,2.5,0,0,1-2.5,2.5h0A2.501,2.501,0,0,1,599.4668,440.5991Zm-13,0a2.501,2.501,0,0,1,2.5-2.5h0a2.5,2.5,0,0,1,2.5,2.5h0a2.5,2.5,0,0,1-2.5,2.5h0A2.501,2.501,0,0,1,586.4668,440.5991Z"/><polygon class="cls-3" points="650.659 431.139 660.117 440.597 650.659 450.054 650.659 431.139"/><path class="cls-4" d="M678.1208,412.1805l1.2772,1.8149,1.938-1.3638c1.1473-.8073,2.6282-.7625,3.2337.0979l6.4776,9.2048c.6055.86.1477,2.2695-.9995,3.0768l-1.938,1.3639,1.2772,1.8149,1.938-1.3638a4.4819,4.4819,0,0,0,1.4795-6.1284l-6.4776-9.2048a4.4818,4.4818,0,0,0-6.2681-.6762Z"/><path class="cls-4" d="M688.3892,455.2277a5.75,5.75,0,0,0,1.3932-8.0113l-31.6082-44.9157a1.8037,1.8037,0,0,0-2.513-.437l-27.5726,19.4035,36.1354,50.9662Z"/><rect class="cls-5" x="642.7443" y="415.1683" width="62.4761" height="24.0004" rx="5.207" transform="translate(712.524 1224.1877) rotate(-125.1349)"/><rect class="cls-3" x="662.9795" y="431.7387" width="4.3955" height="7.186" transform="translate(635.5911 -359.0858) rotate(54.664)"/><polygon class="cls-6" points="731.641 482.568 747.737 496.359 758.096 446.198 731.641 482.568"/><path class="cls-7" d="M686.5988,407.9695h9.8879a0,0,0,0,1,0,0v7.1175a4.4611,4.4611,0,0,1-4.4611,4.4611h-9.9161a0,0,0,0,1,0,0v-7.0893A4.4894,4.4894,0,0,1,686.5988,407.9695Z" transform="translate(1479.4145 265.2862) rotate(138.3828)"/><path class="cls-8" d="M675.2921,594.3143l-7.24-4.0592-3.36,5.9929,16.3279,9.1551S684.38,599.41,675.2921,594.3143Z"/><path class="cls-9" d="M763.42,470.8175l5.6082-.8358a7.1671,7.1671,0,0,0,6.0323-8.1453L770.793,434.23l-12.6969,1.8924Z"/><path class="cls-9" d="M668.0525,590.2551l31.4124-56.0232,5.5592,3.1171a10.1378,10.1378,0,0,1,3.0933,15.0031l-32.3221,42.2444Z"/><polygon class="cls-9" points="668.053 590.255 690.208 550.741 703.603 558.252 675.795 594.597 668.053 590.255"/><polygon class="cls-9" points="713.531 536.283 698.689 533.445 702.383 483.824 726.495 485.619 713.531 536.283"/><path class="cls-6" d="M742.306,514.8644l-16.6148,10.5648L702.9559,493.803c-6.0974-8.4819-7.3233-19.173-2.956-25.7773l1.7563-2.6558,28.63,24.7143Z"/><polygon class="cls-9" points="709.332 550.093 698.516 549.415 697.562 534.637 714.806 533.524 709.332 550.093"/><path class="cls-10" d="M768.2666,442.9672l-35.1886,52.224-13.9933-10.8033-18.8441-14.5688,40.467-60.9883a10.51,10.51,0,0,1,12.6614-4.3246,10.3742,10.3742,0,0,1,1.8252.8881l4.6864,2.8775A25.2318,25.2318,0,0,1,768.2666,442.9672Z"/><path class="cls-3" d="M768.2666,442.9672l-35.1886,52.224-13.9933-10.8033s19.6826-25.7831,30.7326-45.104c10.7046-18.68,3.9957-33.791,3.5517-34.7777a10.3742,10.3742,0,0,1,1.8252.8881l4.6864,2.8775A25.2318,25.2318,0,0,1,768.2666,442.9672Z"/><path class="cls-8" d="M707.0746,476.8121l-1.44-.8063c-.85-.4664-1.9877-1.1474-3.0861-1.8629a31.6928,31.6928,0,0,1-2.916-2.1054l-1.1965-1.0748s.6758-.092,1.59-.2636a27.8337,27.8337,0,0,0,3.2807-.9554c1.1659-.4056,2.2939-.8516,3.1515-1.2259l1.3973-.6s1.19.1419,3.3037.3232c2.1191.1681,5.1788.3311,8.8728.3416a113.4207,113.4207,0,0,0,12.562-.7067c2.2757-.2587,4.59-.6406,6.8868-1.1317a27.9981,27.9981,0,0,0,6.3156-2.1164c3.65-2.0336,6.6875-5.7542,8.6893-9.6836a40.1612,40.1612,0,0,0,3.9185-11.5615,30.6365,30.6365,0,0,0,.3685-8.5821,13.9987,13.9987,0,0,0-.3806-2.3117c-.1126-.5257-.1727-.806-.1727-.806l1.9725-.6356.2752.8809a16.0265,16.0265,0,0,1,.6485,2.5355,33.2453,33.2453,0,0,1,.402,9.3537,43.7832,43.7832,0,0,1-3.2133,12.9732,27.7924,27.7924,0,0,1-9.7078,12.5713l-1.8951,1.0848a19.9752,19.9752,0,0,1-1.8908.8546c-1.2594.578-2.5223.933-3.78,1.3836-2.5151.7655-5.0076,1.3906-7.427,1.8742a120.707,120.707,0,0,1-13.309,1.876c-3.92.3188-7.2171.42-9.5428.43C708.4219,476.8614,707.0746,476.8121,707.0746,476.8121Z"/><polygon class="cls-8" points="762.74 427.091 757.932 422.503 761.504 416.397 765.019 422.018 762.74 427.091"/><path class="cls-10" d="M705.2245,391.7159l6.1551-6.8632a7.9136,7.9136,0,0,1,11.0975-1.4473l27.3436,21.7305-10.98,13.1356Z"/><path class="cls-10" d="M688.83,403.081l25.1227-20.0242a5.93,5.93,0,0,1,7.0294-.2678h0a5.9305,5.9305,0,0,1-.3431,10.0271l-24.6325,17.8856Z"/><polygon class="cls-7" points="761.451 416.397 753.328 404.463 760.363 392.894 771.591 399.722 761.451 416.397"/><path class="cls-7" d="M771.3707,407.3706l-3.9546-1.5527a18.7371,18.7371,0,0,1-10.5931-24.2888l.33-.84a13.1138,13.1138,0,0,1,16.9994-7.4139l2.128.8355a13.1138,13.1138,0,0,1,7.4139,16.9994l-5.1573,13.1352A5.5281,5.5281,0,0,1,771.3707,407.3706Z"/><path class="cls-11" d="M777.9571,376.7013h9.9355a0,0,0,0,1,0,0v7.8925a5.5585,5.5585,0,0,1-5.5585,5.5585h-10.61a0,0,0,0,1,0,0V382.934A6.2326,6.2326,0,0,1,777.9571,376.7013Z" transform="translate(194.0788 -258.4752) rotate(21.4368)"/><path class="cls-11" d="M779.1718,370.3935H787.96a0,0,0,0,1,0,0v6.9807a4.9163,4.9163,0,0,1-4.9163,4.9163h-9.384a0,0,0,0,1,0,0v-6.3845A5.5126,5.5126,0,0,1,779.1718,370.3935Z" transform="translate(191.5562 -259.3287) rotate(21.4366)"/><path class="cls-11" d="M781.29,388.1124c-9.47-3.7183-15.0768-6.5182-18.3384,7.9979a14.1468,14.1468,0,0,1,10.3405-26.3363l6.8013,2.67C784.8981,376.1987,783.6323,382.1466,781.29,388.1124Z"/><path class="cls-7" d="M781.0483,402.5462l-1.598-.6274,2.0716-5.2764.8327,4.84A.9669.9669,0,0,1,781.0483,402.5462Z"/><path class="cls-11" d="M754.9191,398.59c-3.2433-13.6661.4606-21.7805.4606-21.7805l9.4715-.3791c5.5517,2.18,9.3692,5.4245,7.19,10.9762l-1.6839-.4C765.3423,404.4666,754.9191,398.59,754.9191,398.59Z"/><path class="cls-7" d="M766.4065,396.9486l-2.9859-1.1724a3.2078,3.2078,0,0,1-1.8136-4.1582l.9176-2.3368a3.2076,3.2076,0,0,1,4.1582-1.8135h0a3.2077,3.2077,0,0,1,1.8135,4.1582Z"/><path class="cls-7" d="M783.0811,392.6713l-9.3428-3.6683a3.8772,3.8772,0,0,1-2.1919-5.026h0a3.8771,3.8771,0,0,1,5.0259-2.1919l5.6877,2.2332a3.9267,3.9267,0,0,1,2.22,5.09Z"/><path class="cls-11" d="M770.0334,380.5837h9.092a0,0,0,0,1,0,0v4.581a4.4025,4.4025,0,0,1-4.4025,4.4025h-4.6894a0,0,0,0,1,0,0v-8.9836A0,0,0,0,1,770.0334,380.5837Z" transform="translate(194.3249 -256.4548) rotate(21.4373)"/><path class="cls-11" d="M757.6414,384.9359h16.0257a0,0,0,0,1,0,0v.4194a8.726,8.726,0,0,1-8.726,8.726h-7.3a0,0,0,0,1,0,0v-9.1455A0,0,0,0,1,757.6414,384.9359Z" transform="translate(195.3217 -252.8808) rotate(21.4367)"/><path class="cls-10" d="M767.5026,434.4984l5.8742,31.585a5.9308,5.9308,0,0,1-3.0661,6.3312h0a5.9306,5.9306,0,0,1-8.6905-5.0137l-1.2832-32.609Z"/><path class="cls-7" d="M757.4663,423.1867h9.8879a0,0,0,0,1,0,0v7.1174a4.4612,4.4612,0,0,1-4.4612,4.4612h-9.9161a0,0,0,0,1,0,0v-7.0893A4.4894,4.4894,0,0,1,757.4663,423.1867Z" transform="translate(521.8998 1268.6792) rotate(-103.5956)"/><path class="cls-10" d="M680.5811,532.6231l61.7249-17.7587,1.296,4.5047a11.6,11.6,0,0,1-9.5513,14.6968l-55.6548,7.8857Z"/><path class="cls-8" d="M678.8587,540.5117l2.256-7.9874-6.612-1.8675-5.088,18.0146S676.0267,550.5389,678.8587,540.5117Z"/><polygon class="cls-10" points="700.241 469.819 690.473 461.472 715.914 446.198 700.241 469.819"/><g class="cls-12"><path class="cls-13" d="M787.379,667.2457l2.26,1.5734-8.18.878a18.4474,18.4474,0,0,1-5.2753-.1921l-2.8917.31c-6.9409.745-14.7243-.115-17.9031-1.9231H755.38s-.04-.0254-.0952-.0632c-.1115-.0664-.2318-.131-.3307-.2a2.0749,2.0749,0,0,1-.9506-1.1935c-.5746-1.0234-.7728-2.5522.916-4.4974,0,0,.6121-.0936,1.6054-.1685l-3.1962-1.4369.0265-.0106a37.3493,37.3493,0,0,1-5.0532.1566l-25.8245,5.61a23.0687,23.0687,0,0,1-3.97.4289c-.07.0028-.1392.007-.21.0091-.1326.003-.2638.0032-.3965.0043-.3033.0035-.6049.0007-.9066-.0084a19.3314,19.3314,0,0,1-5.6149-.83l-.8023-.2446L688.83,660.71l1.7174-.4985L683.414,658.48c-1.842-.4473-2.0086-1.2182-.3723-1.7217l4.7271-1.4545,7.3921,1.7951c1.63.3957,1.9535,1.0426.89,1.5376l17.2818,3.43,22.6227-4.8853-20.0421-8.2572-25.441-4.1752,9.7618-2.28-.83-.2725c-.5818-.0272-.9679-.0416-.9679-.0416l.481-.1182-1.2433-.4079c-6.3884-2.0959-6.6346-5.12-.5937-7.2918l3.7633-1.3528-1.6951-6.2247-18.1293-1.4259-6.5161.5031-5.0881-4.9245s5.9881-.4563,9.0063,1.8661l-.025-.0292,18.1853.7044-28.5286-13.9088-3.36-1.6382L681.02,605.403s3.36,1.638-5.7264,3.031l.5015-.0769,32.3221,11.5481a6.8,6.8,0,0,1,1.1462.5176h0l7.4621,3.81,17.3245.671c6.9928.2656,11.5033,2.1628,9.5513,4.0175l-1.296,1.2315-9.4038,5.415.1758-.0371,4.8664,1.9743,9.7928-2.2934,6.7634,8.9527a21.7523,21.7523,0,0,1,2.2243.96l4.1131,1.6687.3423-.61.44-3.0557c.1715-1.1915,4.8314-1.9264,8.6905-1.37,1.88.2707,3.0346.79,3.14,1.3517,1.2653.4144,1.9234.9641,1.61,1.54l-3.9442,6.9752c2.3436,2.3921-.2413,4.9788-6.8211,6.7246l3.4989,1.573,3.5768-.3839c2.8419-.305,6.05.0775,7.1661.8543l5.1574,3.5907,0,0,.2221.1546a7.293,7.293,0,0,1,2.99.8409l2.8844,2.0083Z"/><path class="cls-14" d="M781.522,662.4705l-2.0717-1.4424,1.598-.1715c.7012-.0752,1.434.0879,1.3062.2908Z"/></g><rect class="cls-15" x="598.3698" y="525.4215" width="142.0897" height="142.0897"/><rect class="cls-1" x="-0.4118" y="3.1414" width="2041.4118" height="997.4118"/><g class="cls-16"><path class="cls-17" d="M517.3725,547.3534c-36.856-1.98-76.652,13.7911-100.47,26.0618-25.7167,13.2486-53.3119-7.77-72.703-25.5393-42.2842-38.7476-109.8113-97.8323-202.7329-97.8323-53.7008,0-98.9207,25.1843-135.6887,44.6317-26.6034,14.0711-64.6064,10.12-83.6864-9.034a374.5119,374.5119,0,0,0-48.5238-41.2832V604.7064H652.93S614.7274,552.5828,517.3725,547.3534Z"/></g></g></g></svg>