<svg id="img_man" data-name="img man" xmlns="http://www.w3.org/2000/svg" xmlns:xlink="http://www.w3.org/1999/xlink" viewBox="0 0 2040.8836 1000"><defs><style>.cls-1{fill:none;}.cls-2{fill:#fff;}.cls-3{clip-path:url(#clip-path);}.cls-4{opacity:0.82;fill:url(#linear-gradient);}</style><clipPath id="clip-path"><rect class="cls-1" x="-0.4118" y="101.612" width="867.1765" height="625.7647"/></clipPath><linearGradient id="linear-gradient" x1="263.2489" y1="436.3524" x2="263.2489" y2="573.2403" gradientUnits="userSpaceOnUse"><stop offset="0" stop-color="#fff"/><stop offset="1" stop-color="#e18538"/></linearGradient></defs><title>Artboard 5ldpi</title><path class="cls-2" d="M638.4668,440.5991a2.501,2.501,0,0,1,2.5-2.5h0a2.5,2.5,0,0,1,2.5,2.5h0a2.5,2.5,0,0,1-2.5,2.5h0A2.501,2.501,0,0,1,638.4668,440.5991Zm-13,0a2.501,2.501,0,0,1,2.5-2.5h0a2.5,2.5,0,0,1,2.5,2.5h0a2.5,2.5,0,0,1-2.5,2.5h0A2.501,2.501,0,0,1,625.4668,440.5991Zm-13,0a2.501,2.501,0,0,1,2.5-2.5h0a2.5,2.5,0,0,1,2.5,2.5h0a2.5,2.5,0,0,1-2.5,2.5h0A2.501,2.501,0,0,1,612.4668,440.5991Zm-13,0a2.501,2.501,0,0,1,2.5-2.5h0a2.5,2.5,0,0,1,2.5,2.5h0a2.5,2.5,0,0,1-2.5,2.5h0A2.501,2.501,0,0,1,599.4668,440.5991Zm-13,0a2.501,2.501,0,0,1,2.5-2.5h0a2.5,2.5,0,0,1,2.5,2.5h0a2.5,2.5,0,0,1-2.5,2.5h0A2.501,2.501,0,0,1,586.4668,440.5991Z"/><polygon class="cls-2" points="650.659 431.139 660.117 440.597 650.659 450.054 650.659 431.139"/><rect class="cls-1" x="-0.4118" y="3.1414" width="2041.4118" height="997.4118"/><g class="cls-3"><path class="cls-4" d="M517.3725,547.3534c-36.856-1.98-76.652,13.7911-100.47,26.0618-25.7167,13.2486-53.3119-7.77-72.703-25.5393-42.2842-38.7476-109.8113-97.8323-202.7329-97.8323-53.7008,0-98.9207,25.1843-135.6887,44.6317-26.6034,14.0711-64.6064,10.12-83.6864-9.034a374.5119,374.5119,0,0,0-48.5238-41.2832V604.7064H652.93S614.7274,552.5828,517.3725,547.3534Z"/></g></svg>