<svg id="img_man" data-name="img man" xmlns="http://www.w3.org/2000/svg" xmlns:xlink="http://www.w3.org/1999/xlink" viewBox="0 0 553.31 999.9919"><defs><style>.cls-1{fill:none;}.cls-2{clip-path:url(#clip-path);}.cls-3{opacity:0.82;fill:url(#linear-gradient);}.cls-4{fill:#fff;}</style><clipPath id="clip-path"><rect class="cls-1" x="0.6388" y="292.1962" width="552.7059" height="537.8824"/></clipPath><linearGradient id="linear-gradient" x1="-124.3453" y1="466.483" x2="-124.3453" y2="651.2295" gradientUnits="userSpaceOnUse"><stop offset="0" stop-color="#fff"/><stop offset="1" stop-color="#e18538"/></linearGradient></defs><title>Artboard 6ldpi</title><g class="cls-2"><path class="cls-3" d="M167.4066,616.292C125.0933,613.62,79.4047,634.9048,52.06,651.4655,22.535,669.3461-9.1463,640.9788-31.4086,616.9972-79.9539,564.7027-157.48,484.9609-264.16,484.9609c-61.6523,0-113.568,33.9892-155.78,60.2358-30.5425,18.9906-74.1727,13.6587-96.0779-12.1925a457.3041,457.3041,0,0,0-55.7087-55.7165v216.409H323.0367S279.1769,623.35,167.4066,616.292Z"/><path class="cls-4" d="M323.1132,696.7766a3.0924,3.0924,0,0,1-2.1806-.8957,3.06,3.06,0,0,1-.8958-2.1806,3.0945,3.0945,0,0,1,.8958-2.1818,3.1932,3.1932,0,0,1,4.3624,0,3.0769,3.0769,0,0,1-2.1818,5.2581Z"/></g></svg>