<svg id="bcg" xmlns="http://www.w3.org/2000/svg" xmlns:xlink="http://www.w3.org/1999/xlink" viewBox="0 0 2040.8836 1069.3525"><defs><style>.cls-1{fill:url(#linear-gradient);}.cls-2{fill:url(#linear-gradient-2);}.cls-3{fill:url(#linear-gradient-3);}.cls-4{fill:url(#linear-gradient-4);}.cls-5{fill:url(#linear-gradient-5);}.cls-6{fill:url(#linear-gradient-6);}.cls-7{fill:url(#linear-gradient-7);}.cls-8{fill:url(#linear-gradient-8);}</style><linearGradient id="linear-gradient" x1="1455.8319" y1="762.7792" x2="1763.5241" y2="762.7792" gradientUnits="userSpaceOnUse"><stop offset="0" stop-color="#101c7a"/><stop offset="1" stop-color="#3a66bd"/></linearGradient><linearGradient id="linear-gradient-2" x1="822.8994" y1="798.5267" x2="1154.3096" y2="798.5267" xlink:href="#linear-gradient"/><linearGradient id="linear-gradient-3" x1="290.0193" y1="802.4378" x2="651.3496" y2="802.4378" xlink:href="#linear-gradient"/><linearGradient id="linear-gradient-4" x1="867.9327" y1="318.6532" x2="1170.4169" y2="318.6532" xlink:href="#linear-gradient"/><linearGradient id="linear-gradient-5" x1="1511.8767" y1="319.3723" x2="1742.3135" y2="319.3723" xlink:href="#linear-gradient"/><linearGradient id="linear-gradient-6" x1="1741.5308" y1="226.2957" x2="1838.9113" y2="226.2957" xlink:href="#linear-gradient"/><linearGradient id="linear-gradient-7" x1="237.1623" y1="318.6532" x2="593.4135" y2="318.6532" xlink:href="#linear-gradient"/><linearGradient id="linear-gradient-8" x1="198.9723" y1="434.552" x2="255.891" y2="434.552" xlink:href="#linear-gradient"/></defs><title>Artboard 5 copy 2ldpi</title><path class="cls-1" d="M1725.758,863.5108c-55.933,58.7178-139.0128,53.9844-204.9042,9.7316s-89.6433-111.268-33.71-169.9859,156.0449-112.7277,221.9366-68.4747S1781.691,804.7929,1725.758,863.5108Z"/><path class="cls-2" d="M974.2725,912.2449q1.747.4693,3.5079.8545c13.1227,2.868,27.2685,3.1411,40.5945,5.1258,15.6141,2.3253,30.78,6.6,46.3264,9.1252,12.6287,2.0514,26.309.4067,37.0887-6.6805,17.2292-11.3271,19.5718-30.5374,23.67-48.8728,1.886-8.4379,4.5016-16.6451,9.1369-24.0509,5.7839-9.2415,14.1224-16.8835,17.5893-27.4308,4.6622-14.1828,1.0242-30.6976-4.9-43.9527-11.9379-26.7073-33.0592-49.4238-55.7223-67.8436-22.65-18.4095-48.7081-36.4495-78.86-39.2656a85.5261,85.5261,0,0,0-27.9316,1.9958c-23.5175,5.6583-43.5792,20.6645-67.49,25.1335-22.9052,4.281-48.47,7.9386-66.9531,22.9563-17.443,14.1723-29.4592,33.1259-27.1446,56.2053,2.3993,23.9252,19.67,40.2,40.8206,50.2251,12.75,6.043,26.82,10.3861,37.9857,19.2015,10.9354,8.6329,17.3127,21.4569,24.6372,32.8887C937.1946,894.3513,955.0508,907.0814,974.2725,912.2449Z"/><path class="cls-3" d="M453.9567,685.3066c-26.3771,6.3271-51.3256,26.339-71.97,42.9218-28.5361,22.9221-55.93,49.7376-74.8425,81.3358-14.7561,24.6535-25.6887,56.696-7.9573,82.7887,17.7789,26.1626,53.0829,31.6086,82.3177,32.6381,34.4376,1.2127,68.7189-3.9626,102.7577-8.4469,23.9123-3.15,43.581-1.7259,67.2836-.0015,29.5975,2.1533,74.4941,1.8872,92.4169-26.7327,8.4191-13.4439,11.26-32.723-.2051-45.07-11.3383-12.2106-31.544-11.1556-40.8506-24.7966-11.8655-17.3917-8.4329-43.6074-10.7276-63.3-1.82-15.6236-7.1735-30.7945-16.6544-43.4493C547.2789,675.4913,495.715,675.29,453.9567,685.3066Z"/><path class="cls-4" d="M1127.0258,444.18c-58.0836,61.944-139.1038,47.71-201.0477-10.3735S844.623,295.7845,902.7066,233.84s159.1257-113.7875,221.07-55.7039S1185.1094,382.2354,1127.0258,444.18Z"/><path class="cls-5" d="M1616.4176,475.0325c-25.1423,8.1249-52.0766,3.3217-70.368-14.7543s-23.9808-46.4029-13.9517-69.463c8.3484-19.1954,26.3674-34.59,30.12-55.0156,3.9639-21.5739-9.047-42.432-22.3324-60.4473s-27.9954-37.1446-28.009-59.0354c-.0147-23.6892,18.9729-45.47,42.957-53.0289s51.4243-1.9928,72.061,11.7193,34.8433,34.7819,42.7064,57.2986c7.6972,22.041,9.8776,45.9477,21.5569,66.3976,9.5079,16.6477,24.6885,29.8459,35.409,45.8351,11.3666,16.9526,17.4933,37.2719,15.3085,57.1821s-13.116,39.1982-30.65,50.6528C1684.2531,469.9935,1648.1267,466.8531,1616.4176,475.0325Z"/><path class="cls-6" d="M1817.7576,160.7348c-9.3444-5.082-26.53-1.0177-34.4,5.7974s-11.9535,16.867-15.7659,26.5281q-10.1315,25.6737-20.2628,51.3473c-3.8118,9.66-7.6787,20.1944-4.7922,30.1779,3.9178,13.5506,19.8406,21.1247,33.8937,19.2756s25.4325-4.9177,34.7007-15.5656c11.3094-12.9928,20.9376-25.8988,25.2929-42.5328,3.2054-12.2424,3.5557-34.2529-.3825-46.2954S1831.0191,167.9472,1817.7576,160.7348Z"/><path class="cls-7" d="M579.7252,391.179c-40.78,83.2015-135.9377,109.2681-226.6416,86.9912s-142.6069-84.462-101.8272-167.6636,132.9853-177.9407,223.69-155.6637S620.505,307.9774,579.7252,391.179Z"/><path class="cls-8" d="M202.8155,408.9616c3.4286-3.856,11.94-4.8277,16.6525-3.0119s8.2292,5.7315,11.5579,9.5134q8.8461,10.05,17.6921,20.1005c3.3282,3.7813,6.8255,7.953,7.15,12.9839.4407,6.8283-5.58,12.9036-12.2976,14.371s-12.4153,1.9385-18.3961-1.3965c-7.2981-4.0694-13.8146-8.3757-18.538-15.25-3.4762-5.06-7.2561-15.047-7.4394-21.19S197.95,414.4341,202.8155,408.9616Z"/></svg>