<svg xmlns="http://www.w3.org/2000/svg" xmlns:xlink="http://www.w3.org/1999/xlink" viewBox="0 0 553.31 999.9919"><defs><style>.cls-1{fill:none;}.cls-2{isolation:isolate;}.cls-3{clip-path:url(#clip-path);}.cls-4{fill:#fff;}.cls-12,.cls-5{fill:#e5e7fd;}.cls-6{fill:#101c7a;}.cls-12,.cls-7{opacity:0.2;}.cls-8{fill:#c0c4ee;}.cls-9{fill:url(#linear-gradient);}.cls-10{opacity:0.15;}.cls-11{clip-path:url(#clip-path-2);}.cls-13{fill:#ebac6f;}.cls-14{clip-path:url(#clip-path-3);}.cls-15{fill:#e18538;}.cls-16{fill:#212172;}.cls-17{fill:#4d4ba4;}.cls-18{fill:#b58c64;}.cls-19{fill:#d4d8fd;mix-blend-mode:multiply;}.cls-20{fill:#311708;}</style><clipPath id="clip-path"><rect class="cls-1" y="317.6079" width="553.8578" height="506.1176"/></clipPath><linearGradient id="linear-gradient" x1="-1045.4185" y1="606.527" x2="-861.8014" y2="604.3752" gradientTransform="matrix(-1, 0, 0, 1, -490.6439, 0)" gradientUnits="userSpaceOnUse"><stop offset="0" stop-color="#212172"/><stop offset="1" stop-color="#373691"/></linearGradient><clipPath id="clip-path-2"><path class="cls-1" d="M626.4891,584.29c28.1317,16.8518,45.2784,39.2408,45.2784,63.81V528.8545c0-52.4011-77.995-94.8834-174.2075-94.8834-96.2184,0-174.2133,42.4823-174.2133,94.8834V648.1c0-52.4011,77.9949-94.8834,174.2133-94.8834,51.1008,0,97.0626,11.9839,128.9291,31.073"/></clipPath><clipPath id="clip-path-3"><path class="cls-1" d="M323.3467,528.8545V648.1c0,52.4011,77.9949,94.8834,174.2133,94.8834,96.2125,0,174.2075-42.4823,174.2075-94.8834V528.8545c0,52.4011-77.995,94.8834-174.2075,94.8834C401.3416,623.7379,323.3467,581.2556,323.3467,528.8545Z"/></clipPath></defs><title>Artboard 6ldpi</title><g class="cls-2"><g id="img"><g class="cls-3"><path class="cls-4" d="M652.1552,664.2506c-13.4726-39.5156-78.05-69.4686-155.685-69.4686-78.1082,0-142.9984,30.3193-155.925,70.1921,2.78,8.5782,7.9621,16.7147,15.1671,24.2018a61.1873,61.1873,0,0,1,17.0893,42.429v.9134l-26.71,14.1947c-26.3287-17.6406-42.0741-40.0143-42.0741-64.3593v-31.118c0-56.9541,86.1639-103.1245,192.4523-103.1245s192.4525,46.17,192.4525,103.1245v31.118c0,24.9174-16.4923,47.7708-43.9467,65.5968"/><path class="cls-5" d="M328.4106,703.404a57.8424,57.8424,0,0,1,17.6815,41.813v1.496c-26.3288-17.6406-42.0742-40.0144-42.0742-64.3593V653.1194C304.0179,671.3782,312.8747,688.528,328.4106,703.404Z"/><path class="cls-5" d="M496.47,564.0061c87.41,0,158.27,37.97,158.27,84.8081v.0968a47.3156,47.3156,0,0,1-2.585,15.34c-13.4725-39.5156-78.05-69.4686-155.6849-69.4686-78.1083,0-142.9985,30.3193-155.9253,70.1919A47.19,47.19,0,0,1,338.2,650.3633v-1.5491C338.2,601.976,409.06,564.0061,496.47,564.0061Z"/><path class="cls-6" d="M496.47,426.9289c96.6527,0,175.005,41.9847,175.005,93.7754V643.3522c0-51.7907-78.3523-93.7754-175.005-93.7754s-175.0048,41.9847-175.0048,93.7754V520.7043C321.4655,468.9136,399.8178,426.9289,496.47,426.9289Z"/><g class="cls-7"><path class="cls-8" d="M326.89,612.9454c.0053-.8934-.2839-.8333-.613.1545a13.017,13.017,0,0,0-.5685,3.42c0,.8921.2349.7992.5587-.1873A13.3836,13.3836,0,0,0,326.89,612.9454Z"/><path class="cls-8" d="M336.5138,595.9476c.0236-.8942-.4632-.9834-1.0643-.181a6.3233,6.3233,0,0,0-1.1077,3.0877c-.0215.8949.4271.9547,1.0258.1518A6.3359,6.3359,0,0,0,336.5138,595.9476Z"/><path class="cls-8" d="M350.4029,582.2794c.0286-.8878-.5954-1.1008-1.38-.4608a4.3331,4.3331,0,0,0-1.4595,2.7816c-.0286.8894.5715,1.0779,1.3556.4363A4.3213,4.3213,0,0,0,350.4029,582.2794Z"/><path class="cls-8" d="M366.9237,571.4164c.0247-.8778-.68-1.1868-1.5669-.6788A3.4417,3.4417,0,0,0,363.71,573.26c-.0257.88.6676,1.17,1.5559.66A3.4242,3.4242,0,0,0,366.9237,571.4164Z"/><path class="cls-8" d="M326.9921,595.6171c.0052-.893-.3054-.8288-.6627.1648a12.2051,12.2051,0,0,0-.6212,3.4319c0,.892.2594.7933.6114-.1994A12.5054,12.5054,0,0,0,326.9921,595.6171Z"/><path class="cls-8" d="M336.9735,578.6179c.0237-.8923-.472-.9834-1.0853-.1847a6.2049,6.2049,0,0,0-1.1311,3.079c-.0215.8932.4381.9539,1.0493.1542A6.2107,6.2107,0,0,0,336.9735,578.6179Z"/><path class="cls-8" d="M350.96,565.0864c.0287-.8848-.5952-1.1032-1.38-.4723a4.2713,4.2713,0,0,0-1.4614,2.76c-.0286.8866.5729,1.08,1.3576.4471A4.2566,4.2566,0,0,0,350.96,565.0864Z"/><path class="cls-8" d="M367.4,554.4238c.0246-.8742-.6741-1.1892-1.5542-.692a3.3875,3.3875,0,0,0-1.6352,2.4966c-.0258.8762.6624,1.1724,1.5439.6731A3.369,3.369,0,0,0,367.4,554.4238Z"/><path class="cls-8" d="M327.0942,578.2947c.0053-.8928-.3267-.8259-.7122.172a11.4947,11.4947,0,0,0-.6739,3.44c0,.8921.2838.7887.6641-.2086A11.7391,11.7391,0,0,0,327.0942,578.2947Z"/><path class="cls-8" d="M337.4332,561.3193c.0238-.8911-.4807-.9854-1.1063-.1912a6.0822,6.0822,0,0,0-1.1546,3.0691c-.0214.8919.4494.9544,1.0727.1594A6.08,6.08,0,0,0,337.4332,561.3193Z"/><path class="cls-8" d="M351.5166,547.9409c.0287-.8829-.5949-1.1079-1.38-.4867a4.2078,4.2078,0,0,0-1.4633,2.74c-.0286.8848.5742,1.0839,1.3594.4608A4.1888,4.1888,0,0,0,351.5166,547.9409Z"/><path class="cls-8" d="M367.8766,537.4863c.0246-.8722-.668-1.1943-1.5414-.708a3.3354,3.3354,0,0,0-1.6234,2.4729c-.0257.8743.6574,1.1774,1.5321.6891A3.3149,3.3149,0,0,0,367.8766,537.4863Z"/><path class="cls-8" d="M327.1964,560.9762c.0053-.8927-.3481-.8237-.7618.1771a10.8719,10.8719,0,0,0-.7266,3.4472c0,.8921.3083.785.7168-.2154A11.07,11.07,0,0,0,327.1964,560.9762Z"/><path class="cls-8" d="M337.893,544.0413c.0236-.89-.49-.9889-1.1275-.2a5.961,5.961,0,0,0-1.1779,3.0588c-.0214.8914.46.9571,1.096.1672A5.9553,5.9553,0,0,0,337.893,544.0413Z"/><path class="cls-8" d="M352.0734,530.8235c.0287-.8818-.5946-1.1144-1.3806-.5031a4.1449,4.1449,0,0,0-1.4651,2.7206c-.0286.8838.5754,1.09,1.3612.4766A4.1227,4.1227,0,0,0,352.0734,530.8235Z"/><path class="cls-8" d="M368.353,520.5757c.0246-.8715-.6621-1.2017-1.5285-.7261a3.2858,3.2858,0,0,0-1.6115,2.4524c-.0258.8734.6523,1.1846,1.52.707A3.264,3.264,0,0,0,368.353,520.5757Z"/><path class="cls-8" d="M327.2986,543.66c.0053-.8924-.3694-.8223-.8115.1813a10.3266,10.3266,0,0,0-.7793,3.4525c0,.8921.3327.7823.7695-.2209A10.49,10.49,0,0,0,327.2986,543.66Z"/><path class="cls-8" d="M338.3527,526.7731c.0238-.89-.4984-.9933-1.1485-.21a5.8464,5.8464,0,0,0-1.2014,3.0491c-.0214.8911.4716.9605,1.12.1759A5.8309,5.8309,0,0,0,338.3527,526.7731Z"/><path class="cls-8" d="M352.63,513.715c.0287-.8821-.5942-1.1226-1.3808-.5208a4.0867,4.0867,0,0,0-1.467,2.7034c-.0287.8838.5768,1.0973,1.3631.4938A4.06,4.06,0,0,0,352.63,513.715Z"/><path class="cls-8" d="M368.8294,503.6638c.0246-.8723-.656-1.2112-1.5158-.7455a3.2427,3.2427,0,0,0-1.6,2.4356c-.0258.8741.6471,1.194,1.5082.7264A3.2189,3.2189,0,0,0,368.8294,503.6638Z"/><path class="cls-8" d="M368.8294,503.6638c.0246-.8723-.656-1.2112-1.5158-.7455a3.2427,3.2427,0,0,0-1.6,2.4356c-.0258.8741.6471,1.194,1.5082.7264A3.2189,3.2189,0,0,0,368.8294,503.6638Z"/><path class="cls-8" d="M384.609,562.6945c.0155-.8682-.7158-1.2425-1.6338-.829a2.9569,2.9569,0,0,0-1.6939,2.33c-.0174.87.7144,1.2324,1.6342.8173A2.9358,2.9358,0,0,0,384.609,562.6945Z"/><path class="cls-8" d="M402.1572,555.3093c.0059-.8626-.7022-1.2688-1.588-.905a2.702,2.702,0,0,0-1.6229,2.2235c-.0076.8632.7109,1.2656,1.5984.9014A2.68,2.68,0,0,0,402.1572,555.3093Z"/><path class="cls-8" d="M418.4326,548.3168a.9288.9288,0,0,0-1.4374-.9009,2.6818,2.6818,0,0,0-1.4573,2.2241.944.944,0,0,0,1.4564.9066A2.6649,2.6649,0,0,0,418.4326,548.3168Z"/><path class="cls-8" d="M384.9105,545.8915c.0155-.8645-.7077-1.2424-1.6158-.8375a2.9154,2.9154,0,0,0-1.6759,2.3069c-.0174.866.7063,1.2329,1.6162.8262A2.8948,2.8948,0,0,0,384.9105,545.8915Z"/><path class="cls-8" d="M402.2721,538.611c.0059-.8593-.6953-1.2642-1.5724-.903a2.6847,2.6847,0,0,0-1.6066,2.2118c-.0076.86.7034,1.262,1.5822.9A2.6651,2.6651,0,0,0,402.2721,538.611Z"/><path class="cls-8" d="M418.4323,531.5635A.9171.9171,0,0,0,417,530.6814a2.7065,2.7065,0,0,0-1.4505,2.2312.932.932,0,0,0,1.45.8893A2.6927,2.6927,0,0,0,418.4323,531.5635Z"/><path class="cls-8" d="M385.2119,529.1425c.0155-.8627-.6994-1.2458-1.5976-.8492a2.8771,2.8771,0,0,0-1.6579,2.2883c-.0175.8641.6982,1.2363,1.5983.8382A2.8569,2.8569,0,0,0,385.2119,529.1425Z"/><path class="cls-8" d="M402.3869,521.9564c.006-.8581-.6884-1.2632-1.5567-.9039a2.673,2.673,0,0,0-1.59,2.2057c-.0076.8584.696,1.2618,1.566.9022A2.6547,2.6547,0,0,0,402.3869,521.9564Z"/><path class="cls-8" d="M418.4321,514.8352c0-.8627-.6342-1.2479-1.4265-.8663a2.7408,2.7408,0,0,0-1.4437,2.2453.9207.9207,0,0,0,1.4428.8752A2.7309,2.7309,0,0,0,418.4321,514.8352Z"/><path class="cls-8" d="M385.5133,512.41c.0156-.8627-.6913-1.2516-1.5795-.8627a2.8446,2.8446,0,0,0-1.64,2.2742c-.0175.8639.69,1.2425,1.58.8523A2.8244,2.8244,0,0,0,385.5133,512.41Z"/><path class="cls-8" d="M402.5019,505.3c.0059-.8594-.6816-1.2655-1.5411-.9069a2.67,2.67,0,0,0-1.5741,2.2057c-.0077.86.6886,1.2652,1.55.9065A2.6533,2.6533,0,0,0,402.5019,505.3Z"/><path class="cls-8" d="M418.4317,498.0769c0-.8656-.6321-1.2442-1.4208-.8526a2.7875,2.7875,0,0,0-1.4371,2.2674.91.91,0,0,0,1.436.8632A2.7805,2.7805,0,0,0,418.4317,498.0769Z"/><path class="cls-8" d="M385.8149,495.6577c.0154-.8647-.6832-1.26-1.5615-.8775a2.8193,2.8193,0,0,0-1.622,2.2653c-.0174.8659.6822,1.2516,1.5623.8678A2.7992,2.7992,0,0,0,385.8149,495.6577Z"/><path class="cls-8" d="M402.6168,488.595c.0058-.8632-.6748-1.2708-1.5254-.9111a2.6762,2.6762,0,0,0-1.558,2.2128c-.0076.8628.6813,1.2712,1.5336.9119A2.6613,2.6613,0,0,0,402.6168,488.595Z"/><path class="cls-8" d="M418.4314,481.2338c0-.8714-.63-1.244-1.4154-.84a2.8486,2.8486,0,0,0-1.43,2.2983.8979.8979,0,0,0,1.4292.8523A2.8444,2.8444,0,0,0,418.4314,481.2338Z"/><path class="cls-8" d="M327.4007,526.3449c.0053-.8926-.3908-.8215-.8611.1847a9.8516,9.8516,0,0,0-.8319,3.4576c0,.8921.3571.7794.8222-.2262A9.9779,9.9779,0,0,0,327.4007,526.3449Z"/><path class="cls-8" d="M338.8125,509.5047c.0237-.8906-.5072-.9988-1.17-.22a5.739,5.739,0,0,0-1.2247,3.0408c-.0215.8912.4827.9643,1.1429.185A5.7183,5.7183,0,0,0,338.8125,509.5047Z"/><path class="cls-8" d="M353.187,496.5958c.0288-.883-.5938-1.1319-1.381-.5389a4.0343,4.0343,0,0,0-1.4689,2.6893c-.0286.8847.578,1.1059,1.3651.5114A4.0049,4.0049,0,0,0,353.187,496.5958Z"/><path class="cls-8" d="M369.3059,486.7223c.0246-.8745-.65-1.2223-1.503-.7651a3.2069,3.2069,0,0,0-1.5877,2.4233c-.0258.8761.6421,1.2048,1.4963.7463A3.1821,3.1821,0,0,0,369.3059,486.7223Z"/><path class="cls-8" d="M327.5028,509.0287c.0053-.8927-.4121-.82-.9107.1885a9.4407,9.4407,0,0,0-.8846,3.4634c0,.892.3816.7764.8748-.2316A9.5377,9.5377,0,0,0,327.5028,509.0287Z"/><path class="cls-8" d="M339.2722,492.225c.0237-.8912-.5161-1.0042-1.1907-.23a5.6463,5.6463,0,0,0-1.2482,3.0346c-.0214.892.4939.9689,1.1662.1942A5.6169,5.6169,0,0,0,339.2722,492.225Z"/><path class="cls-8" d="M353.7439,479.4467c.0286-.885-.5936-1.142-1.3813-.5567a3.9923,3.9923,0,0,0-1.4709,2.679c-.0285.8863.5794,1.1153,1.367.5287A3.9587,3.9587,0,0,0,353.7439,479.4467Z"/><path class="cls-8" d="M369.7823,469.723c.0246-.8783-.6442-1.2345-1.49-.7844a3.1819,3.1819,0,0,0-1.5758,2.4166c-.0258.8794.6371,1.2171,1.4844.7658A3.1544,3.1544,0,0,0,369.7823,469.723Z"/><path class="cls-8" d="M386.1163,478.8478c.0156-.8685-.675-1.2708-1.5433-.8927a2.8033,2.8033,0,0,0-1.6041,2.2629c-.0175.8694.6743,1.2624,1.5445.8838A2.7832,2.7832,0,0,0,386.1163,478.8478Z"/><path class="cls-8" d="M402.7317,471.7962c.0059-.8692-.6679-1.2786-1.51-.9159a2.695,2.695,0,0,0-1.5416,2.2282c-.0076.8683.6738,1.28,1.5173.9176A2.681,2.681,0,0,0,402.7317,471.7962Z"/><path class="cls-8" d="M418.4311,464.2512c0-.88-.6278-1.2467-1.41-.8281a2.9282,2.9282,0,0,0-1.4234,2.3389.886.886,0,0,0,1.4225.842A2.927,2.927,0,0,0,418.4311,464.2512Z"/><path class="cls-8" d="M386.4178,461.9435c.0156-.8744-.6669-1.283-1.5252-.9076a2.7992,2.7992,0,0,0-1.5862,2.2677c-.0174.8746.6663,1.2749,1.5265.8993A2.7787,2.7787,0,0,0,386.4178,461.9435Z"/><path class="cls-8" d="M402.8466,454.8574c.0058-.8775-.661-1.2884-1.4941-.92a2.7288,2.7288,0,0,0-1.5254,2.252c-.0076.8763.6663,1.29,1.5011.9234A2.7156,2.7156,0,0,0,402.8466,454.8574Z"/><path class="cls-8" d="M418.4308,447.0742c0-.8913-.6257-1.2519-1.4044-.8156a3.0286,3.0286,0,0,0-1.4167,2.39c0,.8878.6364,1.2643,1.4157.8316A3.0309,3.0309,0,0,0,418.4308,447.0742Z"/></g><path class="cls-9" d="M348.9824,586.2457v92.9476a6.2185,6.2185,0,0,1-10.8917,4.0972c-10.6622-12.1166-16.6252-25.654-16.6252-39.9383V522.4173c0,15.2834,6.8263,29.7115,18.9308,42.46A31.0515,31.0515,0,0,1,348.9824,586.2457Z"/><g class="cls-10"><g class="cls-2"><g class="cls-2"><g class="cls-11"><path class="cls-12" d="M601.2872,459.1162a250.9212,250.9212,0,0,0-51.9139-14.3784v49.7115a250.9275,250.9275,0,0,1,51.9139,14.3783Zm-12.5024,36.7282a1.9469,1.9469,0,0,1-.4765-.2406c-14.9583,7.2442-35.6684-13.4018-30.3559-30.262,3.6748-11.6629,15.0812-11.1442,18.8294-10.9738.0815.0037,8.9944,1.85,15.167,12.52C601.5372,483.461,592.1662,496.7354,588.7848,495.8444Z"/><path class="cls-12" d="M499.0981,440.4739v10.9525q-.7683-.0036-1.5381-.0036-9.8811,0-19.4869.5869V441.0572q9.5962-.5817,19.4869-.5869Q498.33,440.47,499.0981,440.4739Z"/><path class="cls-5" d="M503.6309,459.2809V462.96q-3.0226-.0565-6.0709-.0566-5.0818,0-10.0933.1565V459.381q5.01-.156,10.0933-.1566Q500.608,459.2244,503.6309,459.2809Z"/><path class="cls-12" d="M497.56,501.6361c-38.7652,0-74.5725,6.8955-103.5129,18.5574v39.16c28.94-11.6617,64.7477-18.5575,103.5129-18.5575q1.729,0,3.45.0183v-39.16Q499.2891,501.636,497.56,501.6361Zm-95.6689,49.8992a1.1424,1.1424,0,0,1-.6466,1.0141c-.0237.0087-.58.2045-.6446-.5361v-23.6a1.2064,1.2064,0,0,1,.2358-.6855c.349-.4746.99-.5476,1.0554.2128Zm10.5547-3.5621a1.0722,1.0722,0,0,1-.681.9849c-.1412.04-.6067.1156-.6672-.5634V530.7333a1.19,1.19,0,0,1,.2971-.7407c.3275-.3557.9812-.4658,1.0511.3139ZM423.48,544.81a1.0442,1.0442,0,0,1-.7063.9632.5494.5494,0,0,1-.7046-.5868v-6.3129a1.0736,1.0736,0,0,1,.2557-.6686c.4171-.4924,1.1216-.42,1.1552.2923Zm11.4684-2.7319a.9765.9765,0,0,1-.742.9328h0c-.1528.0284-.6565.0679-.7221-.6163V520.7324a.9858.9858,0,0,1,.2135-.5943c.34-.4349,1.1675-.585,1.2506.2775Zm11.8729-2.2939a.9588.9588,0,0,1-.7573.9077h0a.6234.6234,0,0,1-.7562-.6424V515.1988a.9425.9425,0,0,1,.2208-.5905c.3517-.4233,1.2065-.5425,1.2926.3256Zm12.2422-1.826a.9054.9054,0,0,1-.7892.8741h0c-.2989.03-.6749-.0625-.7685-.6731V506.5627a1.3205,1.3205,0,0,1,.1325-.4544c.2859-.464,1.2705-.76,1.4252.2484Zm12.5775-1.35a.8863.8863,0,0,1-.7995.8472.7188.7188,0,0,1-.7984-.7029V507.98a.84.84,0,0,1,.2353-.5686.7673.7673,0,0,1,1.3626.4292Z"/><path class="cls-13" d="M401.2445,527.3979c.5369-.1291.6356.2848.6466.5431v23.5943c-.07.8624-.7574,1.2356-1.1013.9543a.6134.6134,0,0,1-.19-.4763v-23.6A1.1084,1.1084,0,0,1,401.2445,527.3979Z"/><path class="cls-13" d="M411.7814,529.74c.406-.0775.6233.1079.6644.5666v17.6667c-.0842.984-.9564,1.2061-1.2349.8164a.77.77,0,0,1-.1133-.3949V530.7333A1.0362,1.0362,0,0,1,411.7814,529.74Z"/><path class="cls-13" d="M422.7734,537.9084a.5549.5549,0,0,1,.7063.5887V544.81c-.0371.8064-.8626,1.2382-1.25.8254a.6716.6716,0,0,1-.16-.449v-6.3129A1.0274,1.0274,0,0,1,422.7734,537.9084Z"/><path class="cls-13" d="M434.2244,519.7978c.4425-.0464.6792.1557.7237.6178V542.078c-.0916.9818-1.0389,1.1346-1.3415.7205a.7712.7712,0,0,1-.1226-.404V520.7324A.9626.9626,0,0,1,434.2244,519.7978Z"/><path class="cls-13" d="M446.0729,514.2878a.6275.6275,0,0,1,.7481.6461v24.85c-.0939.9705-1.0721,1.0942-1.3847.6751a.7708.7708,0,0,1-.1287-.41V515.1988A.9323.9323,0,0,1,446.0729,514.2878Z"/><path class="cls-13" d="M458.2935,505.6816a.6832.6832,0,0,1,.77.6751v31.6014c-.1558,1.0457-1.1413,1.0041-1.427.6146a1.0282,1.0282,0,0,1-.1307-.4136V506.5627A.8971.8971,0,0,1,458.2935,505.6816Z"/><path class="cls-13" d="M470.8508,507.1356a.7184.7184,0,0,1,.79.7054v28.7673a.844.844,0,0,1-1.46.5642,1.042,1.042,0,0,1-.1374-.42V507.98A.8844.8844,0,0,1,470.8508,507.1356Z"/><path class="cls-5" d="M502.9171,477.0035h0c13.1334.4765,19.8227,5.8905,21.2921,7.9364-4.0206-1.3733-7.3967-4.1065-11.4452-5.4209a34.3951,34.3951,0,0,0-9.8468-1.4914,31.38,31.38,0,0,0-10.2034,1.2541c-3.6678,1.1058-6.7135,3.5085-10.24,4.9092C482.7138,483.8869,488.5158,476.7484,502.9171,477.0035Z"/><path class="cls-5" d="M541.154,490.9072a44.2568,44.2568,0,0,1-10.86-2.8951c-3.6943-1.5092-3.6943-1.5092-5.25-3.686h0a42.4686,42.4686,0,0,0,16.11,5.5574Z"/><path class="cls-5" d="M407.3551,474.3293c.2782.1329.4587.2249.7427.379a33.6672,33.6672,0,0,1-14.0507,10.79v-1.0241A31.8729,31.8729,0,0,0,407.3551,474.3293Z"/><path class="cls-5" d="M420.8652,454.0937a17.66,17.66,0,0,1,9.4338-5.7867c8.58-1.2948,13.3524,4.5463,21.4881,17.2454,7.5149,11.73,14.6129,22.81,29.7181,17.9064-.924,2.9371-11.1418,3.1683-17.9709-1.5106-2.2251-1.5246-2.2251-1.5246-17.1973-22.5844-7.6074-10.7005-12.7837-11.4482-18.67-9.1862a18.8507,18.8507,0,0,0-7.1665,5.6987c-4.4686,5.5952-7.42,12.18-11.6865,17.9075-.2185-.12-.5121-.2751-.7338-.3888C412.6961,467.1957,415.6981,459.928,420.8652,454.0937Z"/><path class="cls-13" d="M405.4245,472.4141c5.7014,1.3054,8.8553,6.8042,14.2317,8.6447,7.4552,2.5522,15.01-2.2348,22.4652.3064,5.057,1.7237,7.96,6.512,12.5872,8.8473,2.8638,1.4453,17.7817,7.6864,30.2565-11.4436,3.9021-5.9839,9.2463-14.1791,19.6791-12.55,18.306,2.8583,18.4788,27.3765,36.51,30.5633v1.024c-18-3.2516-18.296-27.71-36.622-30.5718-9.73-1.5192-14.5976,5.9239-18.1519,11.3585-14.1616,21.654-30.18,13.8045-33.2468,12.011-4.3961-2.57-7.5814-6.9139-12.5871-8.5909-7.4315-2.49-14.9834,2.8479-22.4041-.345-4.6506-2.0011-7.5077-6.82-12.6491-8.05-.411-.0983-.96-.2253-1.3723-.3178a13.4362,13.4362,0,0,0-3.1237-.1636,22.93,22.93,0,0,0-6.95,1.7v-1.024a23.2906,23.2906,0,0,1,7.3552-1.77A13.9132,13.9132,0,0,1,405.4245,472.4141Z"/><path class="cls-12" d="M541.154,447.4453a311.8666,311.8666,0,0,0-36.4182-2.9163v-3.98a311.889,311.889,0,0,1,36.4181,2.9161Z"/><path class="cls-12" d="M541.154,454.65a311.91,311.91,0,0,0-36.4182-2.9162v-3.98A311.8887,311.8887,0,0,1,541.154,450.67Z"/><path class="cls-12" d="M541.154,461.8553q-9.4386-1.3245-19.2691-2.0776v-3.98q9.82.7473,19.2691,2.0776Z"/><path class="cls-12" d="M380.6807,477.8919q-5.0326,2.4814-9.7009,5.1691v-12.9q4.6642-2.6856,9.7009-5.169Z"/><path class="cls-12" d="M366.545,485.7123q-4.4772,2.78-8.5554,5.7473v-12.9h0q4.0743-2.9652,8.5554-5.7473Z"/><path class="cls-12" d="M354.1356,494.3778q-3.87,3.0507-7.3067,6.2695v-12.9q3.4323-3.2169,7.3067-6.2695Z"/><path class="cls-12" d="M343.6083,503.8023a89.52,89.52,0,0,0-5.957,6.7378v-12.9a89.52,89.52,0,0,1,5.957-6.7378Z"/><path class="cls-12" d="M335.1112,513.9072a71.6278,71.6278,0,0,0-4.501,7.1474v-12.9a71.6278,71.6278,0,0,1,4.501-7.1474Z"/><path class="cls-12" d="M380.6807,500.325q-5.0326,2.4813-9.7009,5.169v-12.9q4.6642-2.6855,9.7009-5.169Z"/><path class="cls-12" d="M366.545,508.1454q-4.4772,2.78-8.5554,5.7473v-12.9q4.0743-2.9652,8.5554-5.7472Z"/><path class="cls-5" d="M354.1356,516.8109q-3.87,3.0506-7.3067,6.2694v-12.9q3.4323-3.2169,7.3067-6.2695Z"/><path class="cls-12" d="M343.6083,526.2353a89.5213,89.5213,0,0,0-5.957,6.7379v-12.9h0a89.5386,89.5386,0,0,1,5.957-6.7377Z"/><path class="cls-12" d="M335.1112,536.34a71.6176,71.6176,0,0,0-4.501,7.1475v-12.9h0a71.6507,71.6507,0,0,1,4.501-7.1474Z"/><path class="cls-12" d="M380.6807,522.758q-5.0326,2.4814-9.7009,5.169v-12.9q4.6642-2.6855,9.7009-5.1689Z"/><path class="cls-5" d="M366.545,530.5784q-4.4772,2.78-8.5554,5.7473v-12.9q4.0743-2.9653,8.5554-5.7473Z"/><path class="cls-12" d="M354.1356,539.2439q-3.87,3.0505-7.3067,6.2695v-12.9h0q3.4323-3.2169,7.3067-6.2694Z"/><path class="cls-5" d="M343.6083,548.6684a89.5,89.5,0,0,0-5.957,6.7378v-12.9a89.52,89.52,0,0,1,5.957-6.7378Z"/><path class="cls-12" d="M335.1112,558.7733a71.6507,71.6507,0,0,0-4.501,7.1474v-12.9a71.6278,71.6278,0,0,1,4.501-7.1474Z"/><path class="cls-5" d="M380.6807,545.1911q-5.0326,2.4813-9.7009,5.169v-12.9q4.6642-2.6856,9.7009-5.169Z"/><path class="cls-12" d="M366.545,553.0115q-4.4772,2.78-8.5554,5.7472v-12.9q4.0743-2.9652,8.5554-5.7474Z"/><path class="cls-12" d="M354.1356,561.6771q-3.87,3.05-7.3067,6.2693v-12.9q3.4323-3.2168,7.3067-6.2695Z"/><path class="cls-12" d="M343.6083,571.1015a89.4993,89.4993,0,0,0-5.957,6.7377v-12.9a89.52,89.52,0,0,1,5.957-6.7378Z"/><path class="cls-12" d="M335.1112,581.2063a71.6507,71.6507,0,0,0-4.501,7.1474v-12.9a71.6507,71.6507,0,0,1,4.501-7.1474Z"/><path class="cls-12" d="M380.6807,567.6242q-5.0326,2.4811-9.7009,5.1689V559.8982q4.6642-2.6855,9.7009-5.169Z"/><path class="cls-12" d="M366.545,575.4445q-4.4772,2.78-8.5554,5.7473V568.2969q4.0743-2.9652,8.5554-5.7473Z"/></g></g><g class="cls-2"><g class="cls-14"><path class="cls-5" d="M342.7322,590.312c-10.156-10.6907-16.6887-22.5675-18.7133-35.1483v-3.98c2.0246,12.5808,8.5573,24.4576,18.7133,35.1484Z"/><path class="cls-5" d="M342.7322,597.5116c-10.156-10.6907-16.6887-22.5675-18.7133-35.1483v-3.9746c2.0246,12.5809,8.5573,24.4577,18.7133,35.1484Z"/><path class="cls-5" d="M342.7322,604.7167c-10.156-10.6907-16.6887-22.5675-18.7133-35.1484v-3.9745c2.0246,12.5808,8.5573,24.4577,18.7133,35.1483Z"/><path class="cls-5" d="M342.7322,620.1191c-10.156-10.6907-16.6887-22.5676-18.7133-35.1484v-3.98c2.0246,12.5809,8.5573,24.4577,18.7133,35.1485Z"/><path class="cls-5" d="M342.7322,627.3239c-10.156-10.6907-16.6887-22.5676-18.7133-35.1484v-3.98c2.0246,12.5808,8.5573,24.4577,18.7133,35.1483Z"/><path class="cls-5" d="M335.5583,621.9746v3.98a61.8645,61.8645,0,0,1-11.5394-26.574v-3.98a61.8651,61.8651,0,0,0,11.5394,26.5739Z"/><path class="cls-5" d="M342.7322,656.5238c-10.156-10.6907-16.6887-22.5675-18.7133-35.1483v-3.98c2.0246,12.5808,8.5573,24.4577,18.7133,35.1483Z"/><path class="cls-5" d="M342.7322,663.7289c-10.156-10.6907-16.6887-22.5676-18.7133-35.1484v-3.98c2.0246,12.5809,8.5573,24.4577,18.7133,35.1484Z"/><path class="cls-5" d="M335.5583,658.38v3.98a61.8636,61.8636,0,0,1-11.5394-26.5739v-3.98a61.8645,61.8645,0,0,0,11.5394,26.574Z"/></g></g></g></g><g class="cls-7"><path class="cls-8" d="M541.0779,539.94a1.3083,1.3083,0,0,1,1.5224-1.3282,1.8009,1.8009,0,0,1,1.5479,1.7118,1.3053,1.3053,0,0,1-1.5261,1.32A1.79,1.79,0,0,1,541.0779,539.94Z"/><path class="cls-8" d="M524.87,538.3833a1.3647,1.3647,0,0,1,1.4857-1.4011,1.6711,1.6711,0,0,1,1.5124,1.6277,1.36,1.36,0,0,1-1.4882,1.3922A1.6617,1.6617,0,0,1,524.87,538.3833Z"/><path class="cls-8" d="M508.9716,537.6723a1.4362,1.4362,0,0,1,1.46-1.4744,1.5536,1.5536,0,0,1,1.49,1.5425,1.4288,1.4288,0,0,1-1.4615,1.4647A1.545,1.545,0,0,1,508.9716,537.6723Z"/><path class="cls-8" d="M540.9685,523.6577a1.3142,1.3142,0,0,1,1.5236-1.3373,1.8013,1.8013,0,0,1,1.5465,1.7173,1.3117,1.3117,0,0,1-1.5273,1.3294A1.7894,1.7894,0,0,1,540.9685,523.6577Z"/><path class="cls-8" d="M524.7526,522.1279a1.3772,1.3772,0,0,1,1.4893-1.4176,1.6727,1.6727,0,0,1,1.5112,1.6386,1.3729,1.3729,0,0,1-1.4918,1.4093A1.6625,1.6625,0,0,1,524.7526,522.1279Z"/><path class="cls-8" d="M508.8383,521.4463a1.4538,1.4538,0,0,1,1.4654-1.4971,1.558,1.558,0,0,1,1.488,1.56,1.4475,1.4475,0,0,1-1.4667,1.4883A1.5491,1.5491,0,0,1,508.8383,521.4463Z"/><path class="cls-8" d="M540.8707,507.3062a1.3125,1.3125,0,0,1,1.5235-1.3382,1.808,1.808,0,0,1,1.5447,1.7254,1.3106,1.3106,0,0,1-1.5271,1.33A1.7953,1.7953,0,0,1,540.8707,507.3062Z"/><path class="cls-8" d="M524.6567,505.7465a1.38,1.38,0,0,1,1.4909-1.4235,1.6793,1.6793,0,0,1,1.51,1.6494,1.3763,1.3763,0,0,1-1.4935,1.4156A1.6687,1.6687,0,0,1,524.6567,505.7465Z"/><path class="cls-8" d="M508.736,505.0368a1.4589,1.4589,0,0,1,1.468-1.5064,1.5664,1.5664,0,0,1,1.4868,1.5753,1.4539,1.4539,0,0,1-1.47,1.4983A1.557,1.557,0,0,1,508.736,505.0368Z"/><path class="cls-8" d="M540.7789,490.9193a1.3069,1.3069,0,0,1,1.5224-1.3335,1.8169,1.8169,0,0,1,1.543,1.7331,1.3049,1.3049,0,0,1-1.5259,1.3258A1.8046,1.8046,0,0,1,540.7789,490.9193Z"/><path class="cls-8" d="M524.5715,489.3012a1.376,1.376,0,0,1,1.4911-1.4212,1.6874,1.6874,0,0,1,1.51,1.6574,1.3729,1.3729,0,0,1-1.4938,1.4135A1.6767,1.6767,0,0,1,524.5715,489.3012Z"/><path class="cls-8" d="M508.649,488.5346a1.4552,1.4552,0,0,1,1.469-1.5047,1.575,1.575,0,0,1,1.4864,1.5849,1.4511,1.4511,0,0,1-1.4707,1.4974A1.5663,1.5663,0,0,1,508.649,488.5346Z"/><path class="cls-8" d="M540.6873,474.5313a1.2992,1.2992,0,0,1,1.5208-1.3258,1.8249,1.8249,0,0,1,1.5419,1.7377,1.2972,1.2972,0,0,1-1.5242,1.3183A1.8128,1.8128,0,0,1,540.6873,474.5313Z"/><path class="cls-8" d="M524.4863,472.8547a1.3683,1.3683,0,0,1,1.49-1.4128,1.693,1.693,0,0,1,1.51,1.6593,1.3656,1.3656,0,0,1-1.4931,1.406A1.6833,1.6833,0,0,1,524.4863,472.8547Z"/><path class="cls-8" d="M508.5621,472.0314a1.4452,1.4452,0,0,1,1.4685-1.4944,1.5805,1.5805,0,0,1,1.4874,1.5858,1.442,1.442,0,0,1-1.47,1.4882A1.5727,1.5727,0,0,1,508.5621,472.0314Z"/><path class="cls-8" d="M508.5621,472.0314a1.4452,1.4452,0,0,1,1.4685-1.4944,1.5805,1.5805,0,0,1,1.4874,1.5858,1.442,1.442,0,0,1-1.47,1.4882A1.5727,1.5727,0,0,1,508.5621,472.0314Z"/><path class="cls-8" d="M493.2535,537.8178a1.5242,1.5242,0,0,1,1.4468-1.55,1.449,1.449,0,0,1,1.4795,1.4575,1.514,1.514,0,0,1-1.4468,1.5394A1.4407,1.4407,0,0,1,493.2535,537.8178Z"/><path class="cls-8" d="M477.5857,538.8292a1.63,1.63,0,0,1,1.4462-1.6292,1.358,1.358,0,0,1,1.4806,1.3742,1.6172,1.6172,0,0,1-1.4449,1.6178A1.3506,1.3506,0,0,1,477.5857,538.8292Z"/><path class="cls-8" d="M461.8388,540.7166a1.754,1.754,0,0,1,1.459-1.7137,1.2821,1.2821,0,0,1,1.4924,1.2945,1.74,1.74,0,0,1-1.4566,1.7014A1.2749,1.2749,0,0,1,461.8388,540.7166Z"/><path class="cls-8" d="M493.1039,521.6065a1.5449,1.5449,0,0,1,1.4527-1.5773,1.4575,1.4575,0,0,1,1.4763,1.4838,1.5367,1.5367,0,0,1-1.4529,1.5679A1.4491,1.4491,0,0,1,493.1039,521.6065Z"/><path class="cls-8" d="M477.4277,522.6021a1.6515,1.6515,0,0,1,1.4521-1.66,1.3713,1.3713,0,0,1,1.4753,1.4106,1.6419,1.6419,0,0,1-1.4512,1.65A1.3635,1.3635,0,0,1,477.4277,522.6021Z"/><path class="cls-8" d="M461.6882,524.426a1.7743,1.7743,0,0,1,1.4643-1.7453,1.2994,1.2994,0,0,1,1.4841,1.3423,1.7633,1.7633,0,0,1-1.4623,1.7352A1.2925,1.2925,0,0,1,461.6882,524.426Z"/><path class="cls-8" d="M492.9949,505.1542a1.55,1.55,0,0,1,1.4558-1.5883,1.4688,1.4688,0,0,1,1.4741,1.5047,1.5444,1.5444,0,0,1-1.4563,1.58A1.4606,1.4606,0,0,1,492.9949,505.1542Z"/><path class="cls-8" d="M477.32,506.0759a1.6548,1.6548,0,0,1,1.4547-1.6709,1.3863,1.3863,0,0,1,1.4714,1.4389,1.6477,1.6477,0,0,1-1.4543,1.6627A1.3787,1.3787,0,0,1,477.32,506.0759Z"/><path class="cls-8" d="M461.598,507.7789a1.7729,1.7729,0,0,1,1.4657-1.7555,1.3183,1.3183,0,0,1,1.4778,1.3794,1.7648,1.7648,0,0,1-1.4642,1.7474A1.3118,1.3118,0,0,1,461.598,507.7789Z"/><path class="cls-8" d="M492.9062,488.58a1.5444,1.5444,0,0,1,1.4566-1.5857,1.48,1.48,0,0,1,1.4732,1.5174,1.54,1.54,0,0,1-1.4573,1.5788A1.472,1.472,0,0,1,492.9062,488.58Z"/><path class="cls-8" d="M477.2377,489.3994a1.6438,1.6438,0,0,1,1.4546-1.6659,1.4,1.4,0,0,1,1.4694,1.4561,1.6387,1.6387,0,0,1-1.4545,1.6594A1.3931,1.3931,0,0,1,477.2377,489.3994Z"/><path class="cls-8" d="M461.5382,490.9523a1.7535,1.7535,0,0,1,1.464-1.7466,1.3354,1.3354,0,0,1,1.4737,1.4028,1.7481,1.7481,0,0,1-1.4628,1.7406A1.33,1.33,0,0,1,461.5382,490.9523Z"/><path class="cls-8" d="M492.8175,472.0055a1.53,1.53,0,0,1,1.4555-1.5719,1.4863,1.4863,0,0,1,1.4743,1.5188,1.5262,1.5262,0,0,1-1.4565,1.5664A1.48,1.48,0,0,1,492.8175,472.0055Z"/><path class="cls-8" d="M477.1554,472.7217a1.6213,1.6213,0,0,1,1.4523-1.647,1.4088,1.4088,0,0,1,1.4695,1.4595,1.618,1.618,0,0,1-1.4524,1.6423A1.4036,1.4036,0,0,1,477.1554,472.7217Z"/><path class="cls-8" d="M461.4788,474.1242a1.7206,1.7206,0,0,1,1.46-1.7215,1.3479,1.3479,0,0,1,1.4723,1.41,1.7179,1.7179,0,0,1-1.4589,1.7174A1.3433,1.3433,0,0,1,461.4788,474.1242Z"/><path class="cls-8" d="M540.59,458.1774a1.2931,1.2931,0,0,1,1.5192-1.3179,1.8279,1.8279,0,0,1,1.5418,1.7367,1.2907,1.2907,0,0,1-1.5226,1.31A1.8165,1.8165,0,0,1,540.59,458.1774Z"/><path class="cls-8" d="M524.39,456.4713A1.36,1.36,0,0,1,525.88,455.07a1.6931,1.6931,0,0,1,1.5114,1.6531,1.3576,1.3576,0,0,1-1.492,1.3951A1.6847,1.6847,0,0,1,524.39,456.4713Z"/><path class="cls-8" d="M508.4594,455.62a1.4331,1.4331,0,0,1,1.467-1.4785,1.58,1.58,0,0,1,1.49,1.5758,1.43,1.43,0,0,1-1.4689,1.4731A1.5733,1.5733,0,0,1,508.4594,455.62Z"/><path class="cls-8" d="M540.4807,441.8933a1.2908,1.2908,0,0,1,1.5181-1.3121,1.8218,1.8218,0,0,1,1.5429,1.7273,1.2877,1.2877,0,0,1-1.5212,1.3047A1.8124,1.8124,0,0,1,540.4807,441.8933Z"/><path class="cls-8" d="M524.2726,440.2155a1.3549,1.3549,0,0,1,1.4881-1.39,1.6839,1.6839,0,0,1,1.515,1.6356,1.3521,1.3521,0,0,1-1.4907,1.3841A1.6774,1.6774,0,0,1,524.2726,440.2155Z"/><path class="cls-8" d="M508.3252,439.3934a1.4221,1.4221,0,0,1,1.465-1.4594,1.57,1.57,0,0,1,1.4957,1.5519,1.42,1.42,0,0,1-1.4671,1.455A1.5651,1.5651,0,0,1,508.3252,439.3934Z"/><path class="cls-8" d="M492.7083,455.551a1.5108,1.5108,0,0,1,1.4529-1.55,1.4866,1.4866,0,0,1,1.4777,1.5066,1.5085,1.5085,0,0,1-1.4542,1.5456A1.4816,1.4816,0,0,1,492.7083,455.551Z"/><path class="cls-8" d="M477.048,456.1929a1.5922,1.5922,0,0,1,1.4478-1.6172,1.4111,1.4111,0,0,1,1.4726,1.4467,1.591,1.591,0,0,1-1.4485,1.6141A1.4071,1.4071,0,0,1,477.048,456.1929Z"/><path class="cls-8" d="M461.3894,457.4732a1.6785,1.6785,0,0,1,1.4526-1.6823,1.3529,1.3529,0,0,1,1.4743,1.3981,1.6781,1.6781,0,0,1-1.4525,1.68A1.35,1.35,0,0,1,461.3894,457.4732Z"/><path class="cls-8" d="M492.5577,439.339a1.4671,1.4671,0,1,1,1.4825,1.4749A1.4743,1.4743,0,0,1,492.5577,439.339Z"/><path class="cls-8" d="M476.89,439.9636a1.5611,1.5611,0,0,1,1.4421-1.5787A1.4037,1.4037,0,0,1,479.81,439.8a1.5607,1.5607,0,0,1-1.443,1.5775A1.4021,1.4021,0,0,1,476.89,439.9636Z"/><path class="cls-8" d="M461.24,441.179a1.6323,1.6323,0,0,1,1.4438-1.6319,1.3482,1.3482,0,0,1,1.48,1.3642,1.6329,1.6329,0,0,1-1.4441,1.6319A1.3472,1.3472,0,0,1,461.24,441.179Z"/><path class="cls-8" d="M445.9688,543.5039a1.8992,1.8992,0,0,1,1.486-1.8042,1.2209,1.2209,0,0,1,1.514,1.22,1.8824,1.8824,0,0,1-1.4823,1.7912A1.2144,1.2144,0,0,1,445.9688,543.5039Z"/><path class="cls-8" d="M445.85,527.0883a1.9146,1.9146,0,0,1,1.49-1.836,1.2423,1.2423,0,0,1,1.502,1.2808,1.9017,1.9017,0,0,1-1.4866,1.8252A1.2357,1.2357,0,0,1,445.85,527.0883Z"/><path class="cls-8" d="M445.8007,510.2582a1.9045,1.9045,0,0,1,1.4894-1.8435,1.2649,1.2649,0,0,1,1.4925,1.3281,1.896,1.896,0,0,1-1.4868,1.8352A1.2589,1.2589,0,0,1,445.8007,510.2582Z"/><path class="cls-8" d="M445.7875,493.219a1.8739,1.8739,0,0,1,1.4852-1.8292,1.2859,1.2859,0,0,1,1.4857,1.3594,1.8684,1.8684,0,0,1-1.4832,1.8234A1.2807,1.2807,0,0,1,445.7875,493.219Z"/><path class="cls-8" d="M445.775,476.1775a1.8267,1.8267,0,0,1,1.4779-1.7959,1.3018,1.3018,0,0,1,1.482,1.3716,1.8246,1.8246,0,0,1-1.4765,1.7926A1.2977,1.2977,0,0,1,445.775,476.1775Z"/><path class="cls-8" d="M445.728,459.3408a1.7687,1.7687,0,0,1,1.4678-1.7461,1.31,1.31,0,0,1,1.482,1.3622,1.7691,1.7691,0,0,1-1.467,1.7453A1.308,1.308,0,0,1,445.728,459.3408Z"/><path class="cls-8" d="M445.6115,442.9174a1.7041,1.7041,0,0,1,1.4552-1.6823,1.3086,1.3086,0,0,1,1.4861,1.3279,1.7064,1.7064,0,0,1-1.4548,1.684A1.3087,1.3087,0,0,1,445.6115,442.9174Z"/><path class="cls-8" d="M429.7645,547.1773a2.0672,2.0672,0,0,1,1.5279-1.9028,1.1738,1.1738,0,0,1,1.5445,1.1514,2.0477,2.0477,0,0,1-1.5228,1.8887A1.1679,1.1679,0,0,1,429.7645,547.1773Z"/><path class="cls-8" d="M429.7085,530.5578a2.0738,2.0738,0,0,1,1.5294-1.933,1.1986,1.1986,0,0,1,1.5282,1.2268,2.0594,2.0594,0,0,1-1.5251,1.9218A1.1924,1.1924,0,0,1,429.7085,530.5578Z"/><path class="cls-8" d="M429.7329,513.4656a2.0521,2.0521,0,0,1,1.5263-1.9364,1.2251,1.2251,0,0,1,1.5149,1.2862,2.0425,2.0425,0,0,1-1.5228,1.928A1.2193,1.2193,0,0,1,429.7329,513.4656Z"/><path class="cls-8" d="M429.7984,496.1347a2.0061,2.0061,0,0,1,1.5191-1.9154,1.25,1.25,0,0,1,1.5044,1.3267,2.0011,2.0011,0,0,1-1.5162,1.91A1.2448,1.2448,0,0,1,429.7984,496.1347Z"/><path class="cls-8" d="M429.865,478.8a1.9416,1.9416,0,0,1,1.5083-1.8726,1.2694,1.2694,0,0,1,1.4975,1.3457,1.94,1.94,0,0,1-1.506,1.87A1.2659,1.2659,0,0,1,429.865,478.8Z"/><path class="cls-8" d="M429.893,461.6984a1.8632,1.8632,0,0,1,1.494-1.8106,1.2816,1.2816,0,0,1,1.495,1.34,1.8652,1.8652,0,0,1-1.4925,1.8107A1.28,1.28,0,0,1,429.893,461.6984Z"/><path class="cls-8" d="M429.8421,445.0656a1.7776,1.7776,0,0,1,1.477-1.732,1.2841,1.2841,0,0,1,1.4969,1.3074,1.7819,1.7819,0,0,1-1.4761,1.7351A1.2843,1.2843,0,0,1,429.8421,445.0656Z"/></g><path class="cls-12" d="M606.0151,454.7032a262.3726,262.3726,0,0,0-54.28-15.0338v51.9773a262.3664,262.3664,0,0,1,54.28,15.0337Zm-13.0723,38.4022a2.0385,2.0385,0,0,1-.4983-.2516c-15.64,7.5745-37.294-14.0126-31.7393-31.6413,3.8422-12.1944,15.7685-11.6521,19.6876-11.4739.0851.0039,9.4043,1.9346,15.8582,13.09C606.2764,480.1576,596.4783,494.037,592.9428,493.1054Z"/><path class="cls-12" d="M499.1683,435.2113v11.4516q-.8034-.0036-1.6081-.0038-10.3317,0-20.3751.6137V435.8212q10.0335-.6082,20.3751-.6138Q498.3651,435.2074,499.1683,435.2113Z"/><path class="cls-5" d="M503.9078,454.8755v3.8466q-3.1605-.059-6.3476-.0591-5.3136,0-10.5535.1637V454.98q5.2387-.1629,10.5535-.1637Q500.747,454.8163,503.9078,454.8755Z"/><path class="cls-12" d="M497.56,499.161c-40.5322,0-77.9715,7.21-108.231,19.4033v40.945c30.26-12.1933,67.6988-19.4033,108.231-19.4033q1.8078,0,3.6073.0191V499.18Q499.368,499.1611,497.56,499.161ZM397.5308,551.3347a1.1946,1.1946,0,0,1-.6761,1.06c-.0248.0091-.6062.2138-.674-.5606V527.1591a1.2622,1.2622,0,0,1,.2465-.7166c.3649-.4963,1.0347-.5726,1.1036.2224Zm11.0357-3.7245a1.1211,1.1211,0,0,1-.712,1.03c-.1476.0413-.6343.1208-.6976-.5891V529.5845a1.2437,1.2437,0,0,1,.3107-.7744c.3424-.372,1.0259-.487,1.0989.3281Zm11.5369-3.3075a1.092,1.092,0,0,1-.7385,1.0072.5745.5745,0,0,1-.7367-.6136v-6.6008a1.1224,1.1224,0,0,1,.2673-.699c.4361-.5148,1.1727-.4389,1.2079.3057Zm11.9911-2.8564a1.0214,1.0214,0,0,1-.7759.9754h0c-.16.03-.6863.0708-.755-.6444V519.1278a1.0311,1.0311,0,0,1,.2233-.6214c.3559-.4548,1.2207-.6117,1.3076.29Zm12.414-2.3984a1.0025,1.0025,0,0,1-.7918.949h0a.6519.6519,0,0,1-.7906-.6717V513.342a.9859.9859,0,0,1,.2309-.6175c.3678-.4425,1.2615-.5672,1.3515.3405Zm12.8-1.9093a.947.947,0,0,1-.8252.914h0c-.3126.0313-.7058-.0654-.8036-.7038V504.3123a1.3787,1.3787,0,0,1,.1385-.4751c.2989-.4851,1.3285-.7944,1.49.26Zm13.1508-1.4113a.9266.9266,0,0,1-.836.8858.7516.7516,0,0,1-.8348-.735V505.7946a.8782.8782,0,0,1,.2461-.5945.8023.8023,0,0,1,1.4247.4488Z"/><path class="cls-15" d="M396.8547,526.0971c.5614-.135.6645.2978.6761.5678v24.67c-.0736.9017-.7919,1.2918-1.1516.9978a.6416.6416,0,0,1-.1985-.4981V527.1591A1.1588,1.1588,0,0,1,396.8547,526.0971Z"/><path class="cls-13" d="M407.8719,528.5458c.4244-.0809.6516.1128.6946.5924V547.61c-.088,1.0288-1,1.2611-1.2912.8536a.8058.8058,0,0,1-.1184-.4129V529.5845A1.0836,1.0836,0,0,1,407.8719,528.5458Z"/><path class="cls-13" d="M419.3649,537.0866a.58.58,0,0,1,.7385.6156v6.6005c-.0389.8432-.902,1.2947-1.3075.8631a.7013.7013,0,0,1-.1677-.47v-6.6008A1.0741,1.0741,0,0,1,419.3649,537.0866Z"/><path class="cls-15" d="M431.3377,518.1506c.4628-.0486.71.1628.7568.6459v22.65c-.0958,1.0266-1.0863,1.1863-1.4026.7534a.808.808,0,0,1-.1283-.4224V519.1278A1.0067,1.0067,0,0,1,431.3377,518.1506Z"/><path class="cls-15" d="M443.7262,512.3894a.6562.6562,0,0,1,.7823.6756v25.9829c-.0982,1.0146-1.1209,1.1441-1.4479.7058a.8073.8073,0,0,1-.1345-.4285V513.342A.9749.9749,0,0,1,443.7262,512.3894Z"/><path class="cls-15" d="M456.5039,503.3911a.7142.7142,0,0,1,.8048.7058v33.0417c-.1629,1.0934-1.1933,1.05-1.4921.6427a1.0747,1.0747,0,0,1-.1366-.4325V504.3123A.9378.9378,0,0,1,456.5039,503.3911Z"/><path class="cls-15" d="M469.6335,504.9113a.7513.7513,0,0,1,.826.7376v30.0784a.8826.8826,0,0,1-1.5272.59,1.0918,1.0918,0,0,1-.1436-.4391V505.7946A.9247.9247,0,0,1,469.6335,504.9113Z"/><path class="cls-5" d="M543.1411,487.9432a46.2672,46.2672,0,0,1-11.3548-3.0271c-3.8627-1.5779-3.8627-1.5779-5.49-3.8539h0a44.4035,44.4035,0,0,0,16.8445,5.8107Z"/><path class="cls-5" d="M503.1614,473.4058h0c13.732.4982,20.7262,6.1589,22.2626,8.2981-4.2039-1.4359-7.7339-4.2936-11.9669-5.6679a35.9664,35.9664,0,0,0-10.2956-1.56,32.8078,32.8078,0,0,0-10.6685,1.3114c-3.835,1.1562-7.0194,3.6682-10.7065,5.1329C482.0373,480.6029,488.1037,473.1391,503.1614,473.4058Z"/><polygon class="cls-5" points="403.244 470.61 403.244 470.61 403.244 470.61 403.244 470.61"/><path class="cls-5" d="M417.37,449.4519a18.4647,18.4647,0,0,1,9.8637-6.0506c8.9715-1.3538,13.961,4.7536,22.4675,18.0315,7.8574,12.2648,15.2791,23.8493,31.0726,18.7225-.966,3.071-11.65,3.3127-18.79-1.5795-2.3265-1.594-2.3265-1.594-17.981-23.6137-7.9542-11.1883-13.3665-11.97-19.521-9.6049a19.7086,19.7086,0,0,0-7.4931,5.9584c-4.6724,5.85-7.7582,12.7354-12.2192,18.7237-.2285-.125-.5355-.2876-.7672-.4064C408.8283,463.151,411.9671,455.5521,417.37,449.4519Z"/><path class="cls-5" d="M403.2438,470.61c.2908.1388.48.2351.7766.3961a35.2027,35.2027,0,0,1-14.6912,11.2823v-1.0708A33.3256,33.3256,0,0,0,403.2438,470.61Z"/><path class="cls-15" d="M401.2252,468.6072c5.9612,1.3649,9.259,7.1143,14.88,9.0387,7.7949,2.6685,15.694-2.3366,23.4891.32,5.2875,1.8023,8.3229,6.8088,13.1609,9.25,2.9944,1.5113,18.5922,8.0368,31.6356-11.9651,4.08-6.2567,9.6677-14.8254,20.576-13.1222,19.14,2.9886,19.3211,28.6243,38.1739,31.9563v1.0708c-18.8207-3.4-19.13-28.9733-38.2912-31.9652-10.1734-1.5885-15.263,6.1937-18.9793,11.8761-14.807,22.6409-31.5551,14.4337-34.7622,12.5585-4.5963-2.6875-7.9268-7.229-13.1607-8.9825-7.77-2.6033-15.6663,2.9777-23.4252-.3607-4.8626-2.0923-7.85-7.1308-13.2257-8.4166-.43-.1028-1.0037-.2355-1.4348-.3323a14.0486,14.0486,0,0,0-3.2662-.1711,23.9773,23.9773,0,0,0-7.2666,1.7773v-1.0707a24.3539,24.3539,0,0,1,7.69-1.8509A14.5482,14.5482,0,0,1,401.2252,468.6072Z"/><path class="cls-12" d="M543.1411,442.5a326.103,326.103,0,0,0-38.078-3.049V435.29a326.0813,326.0813,0,0,1,38.078,3.049Z"/><path class="cls-12" d="M543.1411,450.0337a326.1027,326.1027,0,0,0-38.078-3.0491v-4.1613a326.0593,326.0593,0,0,1,38.078,3.0491Z"/><path class="cls-12" d="M543.1411,457.5672q-9.8688-1.385-20.1474-2.1723v-4.1613q10.2675.7813,20.1474,2.1722Z"/><path class="cls-12" d="M375.3536,474.3347q-5.262,2.5945-10.1431,5.4047V466.2513q4.8769-2.8079,10.1431-5.4046Z"/><path class="cls-12" d="M360.5737,482.5116q-4.6813,2.9065-8.9454,6.0092V475.0327h0q4.26-3.1,8.9454-6.0092Z"/><path class="cls-12" d="M347.5986,491.572q-4.0469,3.19-7.64,6.5553V484.6392q3.5887-3.3636,7.64-6.5552Z"/><path class="cls-12" d="M336.5916,501.4261a93.5274,93.5274,0,0,0-6.2286,7.0449V494.9829a93.547,93.547,0,0,1,6.2286-7.0449Z"/><path class="cls-12" d="M327.7071,511.9915a74.8884,74.8884,0,0,0-4.7061,7.4732v-13.488a74.89,74.89,0,0,1,4.7061-7.4733Z"/><path class="cls-12" d="M375.3536,497.79q-5.262,2.5945-10.1431,5.4046v-13.488q4.8769-2.808,10.1431-5.4046Z"/><path class="cls-12" d="M360.5737,505.967q-4.6813,2.9069-8.9454,6.0092v-13.488q4.26-3.1,8.9454-6.0092Z"/><path class="cls-5" d="M347.5986,515.0275q-4.0469,3.19-7.64,6.5553V508.0947q3.5887-3.3634,7.64-6.5552Z"/><path class="cls-12" d="M336.5916,524.8816a93.547,93.547,0,0,0-6.2286,7.0449V518.4384h0a93.5666,93.5666,0,0,1,6.2286-7.0449Z"/><path class="cls-12" d="M327.7071,535.447a74.9,74.9,0,0,0-4.7061,7.4732v-13.488h0a74.9113,74.9113,0,0,1,4.7061-7.4732Z"/><path class="cls-12" d="M375.3536,521.2458q-5.262,2.5945-10.1431,5.4045v-13.488q4.8769-2.808,10.1431-5.4046Z"/><path class="cls-5" d="M360.5737,529.4226q-4.6813,2.9067-8.9454,6.0092V521.9437q4.26-3.1,8.9454-6.0092Z"/><path class="cls-12" d="M347.5986,538.4831q-4.0469,3.1894-7.64,6.5552V531.55h0q3.5887-3.3634,7.64-6.5552Z"/><path class="cls-5" d="M336.5916,548.337a93.5482,93.5482,0,0,0-6.2286,7.045V541.8939a93.547,93.547,0,0,1,6.2286-7.0449Z"/><path class="cls-12" d="M327.7071,558.9025a74.9,74.9,0,0,0-4.7061,7.4732V552.8876a74.91,74.91,0,0,1,4.7061-7.4731Z"/><path class="cls-5" d="M375.3536,544.7013q-5.262,2.5944-10.1431,5.4046V536.6178q4.8769-2.808,10.1431-5.4046Z"/><path class="cls-12" d="M360.5737,552.8781q-4.6813,2.9065-8.9454,6.0092v-13.488q4.26-3.1,8.9454-6.0093Z"/><path class="cls-12" d="M347.5986,561.9386q-4.0469,3.19-7.64,6.5551v-13.488q3.5887-3.3634,7.64-6.5552Z"/><path class="cls-12" d="M336.5916,571.7926a93.5274,93.5274,0,0,0-6.2286,7.0449V565.3494a93.547,93.547,0,0,1,6.2286-7.0449Z"/><path class="cls-12" d="M327.7071,582.358a74.9113,74.9113,0,0,0-4.7061,7.4732v-13.488a74.9,74.9,0,0,1,4.7061-7.4732Z"/><path class="cls-12" d="M375.3536,568.1568q-5.262,2.5944-10.1431,5.4046V560.0787q4.8769-2.808,10.1431-5.4046Z"/><path class="cls-12" d="M360.5737,576.3336q-4.6813,2.9067-8.9454,6.0092V568.86q4.26-3.1,8.9454-6.0093Z"/><path class="cls-1" d="M679.7078,527.62c0-54.7895-81.55-99.2081-182.1476-99.2081-100.604,0-182.1538,44.4186-182.1538,99.2081v124.68c0-54.7894,81.55-99.2081,182.1538-99.2081,100.5977,0,182.1476,44.4187,182.1476,99.2081Z"/><path class="cls-5" d="M335.6755,591.8787c-10.6189-11.1779-17.4493-23.596-19.5663-36.75V550.967c2.117,13.1543,8.9474,25.5724,19.5663,36.75Z"/><path class="cls-5" d="M335.6755,599.4064c-10.6189-11.1779-17.4493-23.596-19.5663-36.75v-4.1557c2.117,13.1542,8.9474,25.5724,19.5663,36.75Z"/><path class="cls-5" d="M335.6755,606.94c-10.6189-11.1779-17.4493-23.5961-19.5663-36.75V566.034c2.117,13.1542,8.9474,25.5723,19.5663,36.75Z"/><path class="cls-5" d="M335.6755,623.0444c-10.6189-11.1779-17.4493-23.5961-19.5663-36.75v-4.1614c2.117,13.1543,8.9474,25.5725,19.5663,36.75Z"/><path class="cls-5" d="M335.6755,630.5775c-10.6189-11.1779-17.4493-23.5961-19.5663-36.75v-4.161c2.117,13.1542,8.9474,25.5724,19.5663,36.75Z"/><path class="cls-5" d="M328.1746,624.9844v4.1613a64.6834,64.6834,0,0,1-12.0654-27.7851v-4.1613a64.6845,64.6845,0,0,0,12.0654,27.7851Z"/><path class="cls-5" d="M335.6755,661.1083c-10.6189-11.1779-17.4493-23.5961-19.5663-36.75v-4.1613c2.117,13.1541,8.9474,25.5723,19.5663,36.75Z"/><path class="cls-5" d="M335.6755,668.6418c-10.6189-11.1779-17.4493-23.5961-19.5663-36.75V627.73c2.117,13.1544,8.9474,25.5725,19.5663,36.75Z"/><path class="cls-5" d="M328.1746,663.0487V667.21a64.6843,64.6843,0,0,1-12.0654-27.7852v-4.161a64.6845,64.6845,0,0,0,12.0654,27.7851Z"/><path class="cls-1" d="M315.4064,527.62v124.68c0,54.7895,81.55,99.2081,182.1538,99.2081,100.5977,0,182.1476-44.4186,182.1476-99.2081V527.62c0,54.7894-81.55,99.208-182.1476,99.208C396.9562,626.8281,315.4064,582.41,315.4064,527.62Z"/><path class="cls-5" d="M418.9158,617.0792c5.2971,4.7855,6.0417,5.08,6.0417,5.08s.0854,3.8794-1.4864,4.5313c-3.2125,1.3325-7.0624-2.6355-9.6275-7.1134C410.8381,614.33,415.4759,613.9716,418.9158,617.0792Z"/><path class="cls-16" d="M418.9158,616.0368c5.2971,4.7855,6.0417,5.08,6.0417,5.08s.394,3.88-1.1779,4.5314c-3.2124,1.3324-7.3709-2.6355-9.936-7.1135C410.8381,613.2879,415.4759,612.9292,418.9158,616.0368Z"/><path class="cls-17" d="M418.9213,546.785s10.0474-5.148,10.1569-1.7871c.3374,10.3644-3.0514,30.2865-4.3149,38.9377-.9238,6.3249,1.2685,30.4482.3775,37.6266-.3534,2.8473-3.9871,1.8243-4.8726-1.3769-2.0632-7.46-12.7018-59.4394-7.6657-64.9638C417.8807,549.4313,418.9213,546.785,418.9213,546.785Z"/><path class="cls-18" d="M387.0468,507.2517c-.2263-.1219-1.3148-.6613-1.1362-1.2759.2353-.81,2.8161-.1867,2.8161-.1867s-1.54-.4066-1.3323-1.0605c.3024-.9529,3.2094-1.0284,5.7687.6526,1.4377.9444,4.2518,5.306,4.2518,5.306-3.0794-1.1961-3.9486,1.3871-3.5994,3.845a6.3406,6.3406,0,0,1-2.8912-1.77c-1.566-.8561-4.6368-2.6449-4.5476-3.4652.0621-.5719.4723-.45.6037-.3956-.2083-.0912-1.3066-.6015-1.1983-1.1758C385.95,506.8342,386.7925,507.257,387.0468,507.2517Z"/><path class="cls-4" d="M397.2729,510.1658c6.9255,3.5026,17.7857,5.1494,21.1568-1.5316,1.6383-3.2468,9.581.1316,9.9489,6.4752.6577,11.3406-29.1655,4.3146-34.0506-.7535C391.6665,511.5947,394.6434,508.8359,397.2729,510.1658Z"/><path class="cls-4" d="M393.4354,509.5686c2.9141,4.1329,5.243,13.0876,5.243,13.0876L384.9745,534.91a44.3585,44.3585,0,0,0-3.1179-12.1813c-2.8278-7.2508-12.7614-13.5952-12.7614-13.5952l13.0514-8.1058S390.5213,505.4356,393.4354,509.5686Z"/><path class="cls-18" d="M374.7077,519.5969c-.156-.1654-.9671-1.0648-.6428-1.551.5033-.7541,1.113-.0354,1.3491.0592-.1605-.2008-.9513-1.123-.5465-1.6187.5337-.6536,2.0479,1.1464,2.0479,1.1464s-.7-.8335-.2535-1.3539c.6511-.7588,3.0492,1.4032,4.7467,3.9516a31.7531,31.7531,0,0,1,2.2029,5.0928c-2.366-2.3056-4.1765-.2683-4.8169,2.13a6.34,6.34,0,0,1-1.968-2.7607c-1.1062-1.4005-3.2322-4.248-2.8293-4.9681C374.2782,519.2226,374.608,519.4955,374.7077,519.5969Z"/><path class="cls-5" d="M400.8191,627.153c6.8456,2.0247,9.1965,3.7087,9.1965,3.7087s.4007,3.0791-.4526,3.8894c-2.5681,2.439-6.74-.5494-11.9028-4.2326C392.9427,627.153,395.2708,625.512,400.8191,627.153Z"/><path class="cls-16" d="M400.8191,626.2409a45.2311,45.2311,0,0,1,8.2412,3.1478,1.9515,1.9515,0,0,1,1.04,1.6484c.0372.9689-.0167,2.3076-.5373,2.8019-2.5681,2.4388-6.74-.55-11.9028-4.2326C392.9427,626.2409,395.2708,624.6,400.8191,626.2409Z"/><path class="cls-17" d="M407.8689,542.3876c.9886-4.03,21.9392,2.6064,21.1811,6.6861-2.8987,15.5971-14.7736,34.1385-17.6314,41.5786-2.8015,7.2931-.3055,31.4618-1.8188,38.4622-.5766,2.6677-5.4049,1.408-5.809-.8558-.7667-4.2954-6.269-31.2241-3.03-44.6131C403.4589,572.4919,405.1781,553.3579,407.8689,542.3876Z"/><path class="cls-4" d="M405.54,515.59c.7721-2.329,4.0412-6.1626,6.6847-7.0627,3.0511-1.0391,9.5237-3.6983,11.7216-2.7212,3.7015,1.6454,5.7707,4.4837,6.6685,11.1416,1.5681,11.63,1.2981,19.39-.2339,33.2768-.5736,5.1994-18.1562,2.3-23.4107-4.3875-2.2563-2.872.7961-5.2463.169-12.81C406.5053,525.3867,403.5269,521.6614,405.54,515.59Z"/><path class="cls-19" d="M413.73,523.376c-.5275,4.2876,2.8,6.1064-1.0878,12.83s-.8311,6.2622-1.8041,8.0923c-1.1182,2.1032-3.5011-1.4642-3.558-8.8387-.042-5.449-2.31-13.9086-2.31-13.9086l2.11-8.6946C411.4056,514.5162,414.5756,516.5042,413.73,523.376Z"/><path class="cls-18" d="M415.6888,497.8562c2.85,4.78,3.8678,7.9372,5.3729,7.9036a11.7442,11.7442,0,0,1-8.8373,2.7674c1.961-1.0173,0-3.65,0-3.65S414.32,495.5605,415.6888,497.8562Z"/><path class="cls-18" d="M410.7741,494c2.4208-.3188,4.6889,1.7448,5.0662,4.6092s-1.87,6.6455-4.29,6.9642-3.9262-3.0779-4.476-5.81A4.7538,4.7538,0,0,1,410.7741,494Z"/><path class="cls-20" d="M412.2244,492.348c4.2046.4609,4.968,4.7769,4.968,8.16-1.7924.0212-3.2537,2.0917-3.8251,2.106a10.3014,10.3014,0,0,1-4.0263-1.8373c-1.71-1.1638-1.3357-1.5976-3.4205-2.3454C403.8327,497.6823,406.2155,491.6893,412.2244,492.348Z"/><path class="cls-18" d="M409.1126,500.4684a.8693.8693,0,1,1,1.6946.3884l-.2651,1.1564a.8693.8693,0,0,1-1.6946-.3885Z"/><path class="cls-4" d="M383.6849,524.7879c5.0029,5.933,7.1627,14.0375,12.3689,6.6587,4.1147-5.832,5.7618-14.3381,11.4781-19.1676,2.7781-2.3469,8.7659,3.87,6.6225,9.8516-3.8318,10.6939-13.7522,20.1024-18.1006,22.568-9.6655,5.48-14.4872-10.3568-17-16.9322A2.7651,2.7651,0,0,1,383.6849,524.7879Z"/><path class="cls-18" d="M383.6115,517.3994c2.1631.2175-.25,4.713-.3832,6.8573l-2.7563-5.3072C382.5817,520.481,382.5073,517.2884,383.6115,517.3994Z"/><path class="cls-18" d="M388.0509,508.0807c1.9578,0,3.6667-.1436,2.6427-1.3778,0,0,2.6283.636,2.7643.6777s1.8217,2.188.6157,3.1831-2.526-.911-5.381-1.047S386.0933,508.0807,388.0509,508.0807Z"/></g></g></g></svg>