<svg id="bcg" xmlns="http://www.w3.org/2000/svg" xmlns:xlink="http://www.w3.org/1999/xlink" viewBox="0 0 2040.8836 1000"><defs><style>.cls-1{fill:none;}.cls-2{clip-path:url(#clip-path);}.cls-3{fill:url(#linear-gradient);}.cls-4{fill:url(#linear-gradient-2);}</style><clipPath id="clip-path"><rect class="cls-1" x="-955.0506" y="457" width="553.31" height="542.6147"/></clipPath><linearGradient id="linear-gradient" x1="-1011.5266" y1="180.7485" x2="135.5447" y2="180.7485" gradientTransform="matrix(1, 0, 0, -1, 0, 787.497)" gradientUnits="userSpaceOnUse"><stop offset="0" stop-color="#101c7a"/><stop offset="1" stop-color="#3a66bd"/></linearGradient><linearGradient id="linear-gradient-2" x1="899.1401" y1="180.7485" x2="2046.2114" y2="180.7485" xlink:href="#linear-gradient"/></defs><title>Artboard 5ldpi</title><g class="cls-2"><path class="cls-3" d="M-865.94,856.3388c84.4346-105.4453,3-141.0137,99.01-213.0215,103.2187-77.415,246.1621,24.3623,316.7031-101.8164,59.8672-107.085,94.8985-141.1065,220.5039-171.2324,58.835-14.1114,194.8662-225.001,365.2676-134.9912v765.22H-1011.5266C-1006.9533,910.3446-913.98,916.3329-865.94,856.3388Z"/></g><path class="cls-4" d="M1044.727,856.3388c84.4346-105.4453,3-141.0137,99.01-213.0215,103.2187-77.415,246.1621,24.3623,316.7031-101.8164,59.8672-107.085,94.8985-141.1065,220.5039-171.2324,58.835-14.1114,194.8662-225.001,365.2676-134.9912v765.22H899.14C903.7134,910.3446,996.687,916.3329,1044.727,856.3388Z"/></svg>