<svg xmlns="http://www.w3.org/2000/svg" xmlns:xlink="http://www.w3.org/1999/xlink" viewBox="0 0 553.31 999.9919"><defs><style>.cls-1{mask:url(#mask);filter:url(#luminosity-noclip-3);}.cls-2,.cls-4{mix-blend-mode:multiply;}.cls-2{fill:url(#radial-gradient);}.cls-3{mask:url(#mask-2);filter:url(#luminosity-noclip-4);}.cls-4{fill:url(#radial-gradient-2);}.cls-5{isolation:isolate;}.cls-6{mask:url(#mask-3);}.cls-7,.cls-9{mix-blend-mode:overlay;}.cls-7{fill:url(#radial-gradient-3);}.cls-8{mask:url(#mask-4);}.cls-9{fill:url(#radial-gradient-4);}.cls-10{filter:url(#luminosity-noclip-2);}.cls-11{filter:url(#luminosity-noclip);}</style><filter id="luminosity-noclip" x="497.4546" y="-7434.8432" width="16.8437" height="32766" filterUnits="userSpaceOnUse" color-interpolation-filters="sRGB"><feFlood flood-color="#fff" result="bg"/><feBlend in="SourceGraphic" in2="bg"/></filter><mask id="mask" x="497.4546" y="-7434.8432" width="16.8437" height="32766" maskUnits="userSpaceOnUse"><g class="cls-11"/></mask><radialGradient id="radial-gradient" cx="-1918.8808" cy="679.872" r="8.4212" gradientTransform="matrix(-0.9942, -0.1079, -0.1079, 0.9942, -1328.4183, -199.1795)" gradientUnits="userSpaceOnUse"><stop offset="0" stop-color="#fff"/><stop offset="0.1657" stop-color="#bebebe"/><stop offset="0.3313" stop-color="#848484"/><stop offset="0.49" stop-color="#555"/><stop offset="0.64" stop-color="#303030"/><stop offset="0.779" stop-color="#161616"/><stop offset="0.9032" stop-color="#060606"/><stop offset="1"/></radialGradient><filter id="luminosity-noclip-2" x="156.813" y="-7434.8432" width="11.3297" height="32766" filterUnits="userSpaceOnUse" color-interpolation-filters="sRGB"><feFlood flood-color="#fff" result="bg"/><feBlend in="SourceGraphic" in2="bg"/></filter><mask id="mask-2" x="156.813" y="-7434.8432" width="11.3297" height="32766" maskUnits="userSpaceOnUse"><g class="cls-10"/></mask><radialGradient id="radial-gradient-2" cx="-1326.3556" cy="834.5762" r="5.664" gradientTransform="matrix(0.8569, 0.5155, 0.5155, -0.8569, 868.7848, 2221.013)" xlink:href="#radial-gradient"/><filter id="luminosity-noclip-3" x="497.4546" y="675.4005" width="16.8437" height="16.844" filterUnits="userSpaceOnUse" color-interpolation-filters="sRGB"><feFlood flood-color="#fff" result="bg"/><feBlend in="SourceGraphic" in2="bg"/></filter><mask id="mask-3" x="497.4546" y="675.4005" width="16.8437" height="16.844" maskUnits="userSpaceOnUse"><g class="cls-1"><path class="cls-2" d="M497.5045,682.9134a8.4211,8.4211,0,1,0,9.2807-7.463A8.4212,8.4212,0,0,0,497.5045,682.9134Z"/></g></mask><radialGradient id="radial-gradient-3" cx="-1918.8808" cy="679.872" r="8.4212" gradientTransform="matrix(-0.9942, -0.1079, -0.1079, 0.9942, -1328.4183, -199.1795)" gradientUnits="userSpaceOnUse"><stop offset="0" stop-color="#fff"/><stop offset="1" stop-color="#fff"/></radialGradient><filter id="luminosity-noclip-4" x="156.813" y="816.4674" width="11.3297" height="11.3298" filterUnits="userSpaceOnUse" color-interpolation-filters="sRGB"><feFlood flood-color="#fff" result="bg"/><feBlend in="SourceGraphic" in2="bg"/></filter><mask id="mask-4" x="156.813" y="816.4674" width="11.3297" height="11.3298" maskUnits="userSpaceOnUse"><g class="cls-3"><path class="cls-4" d="M167.3311,825.0522a5.6639,5.6639,0,1,0-7.7731,1.9336A5.664,5.664,0,0,0,167.3311,825.0522Z"/></g></mask><radialGradient id="radial-gradient-4" cx="-1326.3556" cy="834.5762" r="5.664" gradientTransform="matrix(0.8569, 0.5155, 0.5155, -0.8569, 868.7848, 2221.013)" xlink:href="#radial-gradient-3"/></defs><title>Artboard 6ldpi</title><g class="cls-5"><g id="SPARKLE"><g class="cls-6"><path class="cls-7" d="M497.5045,682.9134a8.4211,8.4211,0,1,0,9.2807-7.463A8.4212,8.4212,0,0,0,497.5045,682.9134Z"/></g><g class="cls-8"><path class="cls-9" d="M167.3311,825.0522a5.6639,5.6639,0,1,0-7.7731,1.9336A5.664,5.664,0,0,0,167.3311,825.0522Z"/></g></g></g></svg>