<svg xmlns="http://www.w3.org/2000/svg" xmlns:xlink="http://www.w3.org/1999/xlink" viewBox="0 0 553.31 999.9919"><defs><style>.cls-1{mask:url(#mask);filter:url(#luminosity-noclip-6);}.cls-10,.cls-2,.cls-4,.cls-6,.cls-8{mix-blend-mode:multiply;}.cls-2{fill:url(#radial-gradient);}.cls-3{mask:url(#mask-2);filter:url(#luminosity-noclip-7);}.cls-4{fill:url(#radial-gradient-2);}.cls-5{mask:url(#mask-3);filter:url(#luminosity-noclip-8);}.cls-6{fill:url(#radial-gradient-3);}.cls-7{mask:url(#mask-4);filter:url(#luminosity-noclip-9);}.cls-8{fill:url(#radial-gradient-4);}.cls-9{mask:url(#mask-5);filter:url(#luminosity-noclip-10);}.cls-10{fill:url(#radial-gradient-5);}.cls-11{isolation:isolate;}.cls-12{mask:url(#mask-6);}.cls-13,.cls-15,.cls-17,.cls-19,.cls-21{mix-blend-mode:overlay;}.cls-13{fill:url(#radial-gradient-6);}.cls-14{mask:url(#mask-7);}.cls-15{fill:url(#radial-gradient-7);}.cls-16{mask:url(#mask-8);}.cls-17{fill:url(#radial-gradient-8);}.cls-18{mask:url(#mask-9);}.cls-19{fill:url(#radial-gradient-9);}.cls-20{mask:url(#mask-10);}.cls-21{fill:url(#radial-gradient-10);}.cls-22{filter:url(#luminosity-noclip-5);}.cls-23{filter:url(#luminosity-noclip-4);}.cls-24{filter:url(#luminosity-noclip-3);}.cls-25{filter:url(#luminosity-noclip-2);}.cls-26{filter:url(#luminosity-noclip);}</style><filter id="luminosity-noclip" x="378.7192" y="-7434.8432" width="16.8422" height="32766" filterUnits="userSpaceOnUse" color-interpolation-filters="sRGB"><feFlood flood-color="#fff" result="bg"/><feBlend in="SourceGraphic" in2="bg"/></filter><mask id="mask" x="378.7192" y="-7434.8432" width="16.8422" height="32766" maskUnits="userSpaceOnUse"><g class="cls-26"/></mask><radialGradient id="radial-gradient" cx="387.1404" cy="682.775" r="8.4212" gradientUnits="userSpaceOnUse"><stop offset="0" stop-color="#fff"/><stop offset="0.1657" stop-color="#bebebe"/><stop offset="0.3313" stop-color="#848484"/><stop offset="0.49" stop-color="#555"/><stop offset="0.64" stop-color="#303030"/><stop offset="0.779" stop-color="#161616"/><stop offset="0.9032" stop-color="#060606"/><stop offset="1"/></radialGradient><filter id="luminosity-noclip-2" x="425.6393" y="-7434.8432" width="50.9045" height="32766" filterUnits="userSpaceOnUse" color-interpolation-filters="sRGB"><feFlood flood-color="#fff" result="bg"/><feBlend in="SourceGraphic" in2="bg"/></filter><mask id="mask-2" x="425.6393" y="-7434.8432" width="50.9045" height="32766" maskUnits="userSpaceOnUse"><g class="cls-25"/></mask><radialGradient id="radial-gradient-2" cx="-1859.8022" cy="643.2861" r="25.4501" gradientTransform="matrix(-0.9942, -0.1079, -0.1079, 0.9942, -1328.4183, -199.1795)" xlink:href="#radial-gradient"/><filter id="luminosity-noclip-3" x="497.4546" y="-7434.8432" width="16.8437" height="32766" filterUnits="userSpaceOnUse" color-interpolation-filters="sRGB"><feFlood flood-color="#fff" result="bg"/><feBlend in="SourceGraphic" in2="bg"/></filter><mask id="mask-3" x="497.4546" y="-7434.8432" width="16.8437" height="32766" maskUnits="userSpaceOnUse"><g class="cls-24"/></mask><radialGradient id="radial-gradient-3" cx="-1918.8808" cy="679.872" r="8.4212" gradientTransform="matrix(-0.9942, -0.1079, -0.1079, 0.9942, -1328.4183, -199.1795)" xlink:href="#radial-gradient"/><filter id="luminosity-noclip-4" x="438.5358" y="-7434.8432" width="25.1113" height="32766" filterUnits="userSpaceOnUse" color-interpolation-filters="sRGB"><feFlood flood-color="#fff" result="bg"/><feBlend in="SourceGraphic" in2="bg"/></filter><mask id="mask-4" x="438.5358" y="-7434.8432" width="25.1113" height="32766" maskUnits="userSpaceOnUse"><g class="cls-23"/></mask><radialGradient id="radial-gradient-4" cx="-1859.8021" cy="643.2862" r="12.5546" gradientTransform="matrix(-0.9942, -0.1079, -0.1079, 0.9942, -1328.4183, -199.1795)" xlink:href="#radial-gradient"/><filter id="luminosity-noclip-5" x="156.813" y="-7434.8432" width="11.3297" height="32766" filterUnits="userSpaceOnUse" color-interpolation-filters="sRGB"><feFlood flood-color="#fff" result="bg"/><feBlend in="SourceGraphic" in2="bg"/></filter><mask id="mask-5" x="156.813" y="-7434.8432" width="11.3297" height="32766" maskUnits="userSpaceOnUse"><g class="cls-22"/></mask><radialGradient id="radial-gradient-5" cx="-1326.3556" cy="834.5762" r="5.664" gradientTransform="matrix(0.8569, 0.5155, 0.5155, -0.8569, 868.7848, 2221.013)" xlink:href="#radial-gradient"/><filter id="luminosity-noclip-6" x="378.7192" y="674.3538" width="16.8422" height="16.8425" filterUnits="userSpaceOnUse" color-interpolation-filters="sRGB"><feFlood flood-color="#fff" result="bg"/><feBlend in="SourceGraphic" in2="bg"/></filter><mask id="mask-6" x="378.7192" y="674.3538" width="16.8422" height="16.8425" maskUnits="userSpaceOnUse"><g class="cls-1"><path class="cls-2" d="M395.5615,682.7749a8.4212,8.4212,0,1,1-8.4211-8.4211A8.4212,8.4212,0,0,1,395.5615,682.7749Z"/></g></mask><radialGradient id="radial-gradient-6" cx="387.1404" cy="682.775" r="8.4212" gradientUnits="userSpaceOnUse"><stop offset="0" stop-color="#fff"/><stop offset="1" stop-color="#fff"/></radialGradient><filter id="luminosity-noclip-7" x="425.6393" y="615.6218" width="50.9045" height="50.9045" filterUnits="userSpaceOnUse" color-interpolation-filters="sRGB"><feFlood flood-color="#fff" result="bg"/><feBlend in="SourceGraphic" in2="bg"/></filter><mask id="mask-7" x="425.6393" y="615.6218" width="50.9045" height="50.9045" maskUnits="userSpaceOnUse"><g class="cls-3"><circle class="cls-4" cx="451.0915" cy="641.074" r="25.4501"/></g></mask><radialGradient id="radial-gradient-7" cx="-1859.8022" cy="643.2861" r="25.4501" gradientTransform="matrix(-0.9942, -0.1079, -0.1079, 0.9942, -1328.4183, -199.1795)" xlink:href="#radial-gradient-6"/><filter id="luminosity-noclip-8" x="497.4546" y="675.4005" width="16.8437" height="16.844" filterUnits="userSpaceOnUse" color-interpolation-filters="sRGB"><feFlood flood-color="#fff" result="bg"/><feBlend in="SourceGraphic" in2="bg"/></filter><mask id="mask-8" x="497.4546" y="675.4005" width="16.8437" height="16.844" maskUnits="userSpaceOnUse"><g class="cls-5"><path class="cls-6" d="M497.5045,682.9134a8.4211,8.4211,0,1,0,9.2807-7.463A8.4212,8.4212,0,0,0,497.5045,682.9134Z"/></g></mask><radialGradient id="radial-gradient-8" cx="-1918.8808" cy="679.872" r="8.4212" gradientTransform="matrix(-0.9942, -0.1079, -0.1079, 0.9942, -1328.4183, -199.1795)" xlink:href="#radial-gradient-6"/><filter id="luminosity-noclip-9" x="438.5358" y="628.5185" width="25.1113" height="25.1113" filterUnits="userSpaceOnUse" color-interpolation-filters="sRGB"><feFlood flood-color="#fff" result="bg"/><feBlend in="SourceGraphic" in2="bg"/></filter><mask id="mask-9" x="438.5358" y="628.5185" width="25.1113" height="25.1113" maskUnits="userSpaceOnUse"><g class="cls-7"><path class="cls-8" d="M438.61,639.719a12.5545,12.5545,0,1,0,13.8363-11.1261A12.5545,12.5545,0,0,0,438.61,639.719Z"/></g></mask><radialGradient id="radial-gradient-9" cx="-1859.8021" cy="643.2862" r="12.5546" gradientTransform="matrix(-0.9942, -0.1079, -0.1079, 0.9942, -1328.4183, -199.1795)" xlink:href="#radial-gradient-6"/><filter id="luminosity-noclip-10" x="156.813" y="816.4674" width="11.3297" height="11.3298" filterUnits="userSpaceOnUse" color-interpolation-filters="sRGB"><feFlood flood-color="#fff" result="bg"/><feBlend in="SourceGraphic" in2="bg"/></filter><mask id="mask-10" x="156.813" y="816.4674" width="11.3297" height="11.3298" maskUnits="userSpaceOnUse"><g class="cls-9"><path class="cls-10" d="M167.3311,825.0522a5.6639,5.6639,0,1,0-7.7731,1.9336A5.664,5.664,0,0,0,167.3311,825.0522Z"/></g></mask><radialGradient id="radial-gradient-10" cx="-1326.3556" cy="834.5762" r="5.664" gradientTransform="matrix(0.8569, 0.5155, 0.5155, -0.8569, 868.7848, 2221.013)" xlink:href="#radial-gradient-6"/></defs><title>Artboard 6ldpi</title><g class="cls-11"><g id="SPARKLE"><g class="cls-12"><path class="cls-13" d="M395.5615,682.7749a8.4212,8.4212,0,1,1-8.4211-8.4211A8.4212,8.4212,0,0,1,395.5615,682.7749Z"/></g><g class="cls-14"><circle class="cls-15" cx="451.0915" cy="641.074" r="25.4501"/></g><g class="cls-16"><path class="cls-17" d="M497.5045,682.9134a8.4211,8.4211,0,1,0,9.2807-7.463A8.4212,8.4212,0,0,0,497.5045,682.9134Z"/></g><g class="cls-18"><path class="cls-19" d="M438.61,639.719a12.5545,12.5545,0,1,0,13.8363-11.1261A12.5545,12.5545,0,0,0,438.61,639.719Z"/></g><g class="cls-20"><path class="cls-21" d="M167.3311,825.0522a5.6639,5.6639,0,1,0-7.7731,1.9336A5.664,5.664,0,0,0,167.3311,825.0522Z"/></g></g></g></svg>