<svg xmlns="http://www.w3.org/2000/svg" xmlns:xlink="http://www.w3.org/1999/xlink" viewBox="0 0 2040.8836 1000"><defs><style>.cls-1{mask:url(#mask);filter:url(#luminosity-noclip-5);}.cls-2,.cls-4,.cls-6,.cls-8{mix-blend-mode:multiply;}.cls-2{fill:url(#radial-gradient);}.cls-3{mask:url(#mask-2);filter:url(#luminosity-noclip-6);}.cls-4{fill:url(#radial-gradient-2);}.cls-5{mask:url(#mask-3);filter:url(#luminosity-noclip-7);}.cls-6{fill:url(#radial-gradient-3);}.cls-7{mask:url(#mask-4);filter:url(#luminosity-noclip-8);}.cls-8{fill:url(#radial-gradient-4);}.cls-9{isolation:isolate;}.cls-10{mask:url(#mask-5);}.cls-11,.cls-13,.cls-15,.cls-17{mix-blend-mode:overlay;}.cls-11{fill:url(#radial-gradient-5);}.cls-12{mask:url(#mask-6);}.cls-13{fill:url(#radial-gradient-6);}.cls-14{mask:url(#mask-7);}.cls-15{fill:url(#radial-gradient-7);}.cls-16{mask:url(#mask-8);}.cls-17{fill:url(#radial-gradient-8);}.cls-18{filter:url(#luminosity-noclip-4);}.cls-19{filter:url(#luminosity-noclip-3);}.cls-20{filter:url(#luminosity-noclip-2);}.cls-21{filter:url(#luminosity-noclip);}</style><filter id="luminosity-noclip" x="1056.8759" y="-8991.3179" width="100.4829" height="32766" filterUnits="userSpaceOnUse" color-interpolation-filters="sRGB"><feFlood flood-color="#fff" result="bg"/><feBlend in="SourceGraphic" in2="bg"/></filter><mask id="mask" x="1056.8759" y="-8991.3179" width="100.4829" height="32766" maskUnits="userSpaceOnUse"><g class="cls-21"/></mask><radialGradient id="radial-gradient" cx="1107.1174" cy="780.1678" r="50.2414" gradientUnits="userSpaceOnUse"><stop offset="0" stop-color="#fff"/><stop offset="0.1657" stop-color="#bebebe"/><stop offset="0.3313" stop-color="#848484"/><stop offset="0.49" stop-color="#555"/><stop offset="0.64" stop-color="#303030"/><stop offset="0.779" stop-color="#161616"/><stop offset="0.9032" stop-color="#060606"/><stop offset="1"/></radialGradient><filter id="luminosity-noclip-2" x="1082.3335" y="-8991.3179" width="49.5684" height="32766" filterUnits="userSpaceOnUse" color-interpolation-filters="sRGB"><feFlood flood-color="#fff" result="bg"/><feBlend in="SourceGraphic" in2="bg"/></filter><mask id="mask-2" x="1082.3335" y="-8991.3179" width="49.5684" height="32766" maskUnits="userSpaceOnUse"><g class="cls-20"/></mask><radialGradient id="radial-gradient-2" cx="1107.1176" cy="780.1681" r="24.7842" xlink:href="#radial-gradient"/><filter id="luminosity-noclip-3" x="1819.0655" y="-8991.3179" width="26.9423" height="32766" filterUnits="userSpaceOnUse" color-interpolation-filters="sRGB"><feFlood flood-color="#fff" result="bg"/><feBlend in="SourceGraphic" in2="bg"/></filter><mask id="mask-3" x="1819.0655" y="-8991.3179" width="26.9423" height="32766" maskUnits="userSpaceOnUse"><g class="cls-19"/></mask><radialGradient id="radial-gradient-3" cx="1832.5366" cy="693.7181" r="13.4713" xlink:href="#radial-gradient"/><filter id="luminosity-noclip-4" x="782.8622" y="-8991.3179" width="26.9423" height="32766" filterUnits="userSpaceOnUse" color-interpolation-filters="sRGB"><feFlood flood-color="#fff" result="bg"/><feBlend in="SourceGraphic" in2="bg"/></filter><mask id="mask-4" x="782.8622" y="-8991.3179" width="26.9423" height="32766" maskUnits="userSpaceOnUse"><g class="cls-18"/></mask><radialGradient id="radial-gradient-4" cx="796.3333" cy="899.9229" r="13.4713" xlink:href="#radial-gradient"/><filter id="luminosity-noclip-5" x="1056.8759" y="729.9264" width="100.4829" height="100.4829" filterUnits="userSpaceOnUse" color-interpolation-filters="sRGB"><feFlood flood-color="#fff" result="bg"/><feBlend in="SourceGraphic" in2="bg"/></filter><mask id="mask-5" x="1056.8759" y="729.9264" width="100.4829" height="100.4829" maskUnits="userSpaceOnUse"><g class="cls-1"><circle class="cls-2" cx="1107.1174" cy="780.1678" r="50.2414"/></g></mask><radialGradient id="radial-gradient-5" cx="1107.1174" cy="780.1678" r="50.2414" gradientUnits="userSpaceOnUse"><stop offset="0" stop-color="#fff"/><stop offset="1" stop-color="#fff"/></radialGradient><filter id="luminosity-noclip-6" x="1082.3335" y="755.3839" width="49.5684" height="49.5684" filterUnits="userSpaceOnUse" color-interpolation-filters="sRGB"><feFlood flood-color="#fff" result="bg"/><feBlend in="SourceGraphic" in2="bg"/></filter><mask id="mask-6" x="1082.3335" y="755.3839" width="49.5684" height="49.5684" maskUnits="userSpaceOnUse"><g class="cls-3"><path class="cls-4" d="M1131.9018,780.1678a24.7842,24.7842,0,1,1-24.7844-24.7839A24.7841,24.7841,0,0,1,1131.9018,780.1678Z"/></g></mask><radialGradient id="radial-gradient-6" cx="1107.1176" cy="780.1681" r="24.7842" xlink:href="#radial-gradient-5"/><filter id="luminosity-noclip-7" x="1819.0655" y="680.2467" width="26.9423" height="26.9428" filterUnits="userSpaceOnUse" color-interpolation-filters="sRGB"><feFlood flood-color="#fff" result="bg"/><feBlend in="SourceGraphic" in2="bg"/></filter><mask id="mask-7" x="1819.0655" y="680.2467" width="26.9423" height="26.9428" maskUnits="userSpaceOnUse"><g class="cls-5"><path class="cls-6" d="M1846.0078,693.7179a13.4712,13.4712,0,1,1-13.4711-13.4712A13.4714,13.4714,0,0,1,1846.0078,693.7179Z"/></g></mask><radialGradient id="radial-gradient-7" cx="1832.5366" cy="693.7181" r="13.4713" xlink:href="#radial-gradient-5"/><filter id="luminosity-noclip-8" x="782.8622" y="886.4516" width="26.9423" height="26.9428" filterUnits="userSpaceOnUse" color-interpolation-filters="sRGB"><feFlood flood-color="#fff" result="bg"/><feBlend in="SourceGraphic" in2="bg"/></filter><mask id="mask-8" x="782.8622" y="886.4516" width="26.9423" height="26.9428" maskUnits="userSpaceOnUse"><g class="cls-7"><path class="cls-8" d="M809.8045,899.9227a13.4712,13.4712,0,1,1-13.4711-13.4711A13.4713,13.4713,0,0,1,809.8045,899.9227Z"/></g></mask><radialGradient id="radial-gradient-8" cx="796.3333" cy="899.9229" r="13.4713" xlink:href="#radial-gradient-5"/></defs><title>Artboard 5 copyldpi</title><g class="cls-9"><g id="SPARKLE"><g class="cls-10"><circle class="cls-11" cx="1107.1174" cy="780.1678" r="50.2414"/></g><g class="cls-12"><path class="cls-13" d="M1131.9018,780.1678a24.7842,24.7842,0,1,1-24.7844-24.7839A24.7841,24.7841,0,0,1,1131.9018,780.1678Z"/></g><g class="cls-14"><path class="cls-15" d="M1846.0078,693.7179a13.4712,13.4712,0,1,1-13.4711-13.4712A13.4714,13.4714,0,0,1,1846.0078,693.7179Z"/></g><g class="cls-16"><path class="cls-17" d="M809.8045,899.9227a13.4712,13.4712,0,1,1-13.4711-13.4711A13.4713,13.4713,0,0,1,809.8045,899.9227Z"/></g></g></g></svg>