<svg id="cloud" xmlns="http://www.w3.org/2000/svg" xmlns:xlink="http://www.w3.org/1999/xlink" viewBox="0 0 553.31 999.9919"><defs><style>.cls-1{fill:url(#linear-gradient);}</style><linearGradient id="linear-gradient" x1="-1574.7192" y1="577.5916" x2="-1410.4953" y2="577.5916" gradientTransform="matrix(-1, 0, 0, 1, -1409.8889, 0)" gradientUnits="userSpaceOnUse"><stop offset="0" stop-color="#101c7a"/><stop offset="1" stop-color="#5d96cf"/></linearGradient></defs><title>Artboard 6ldpi</title><path class="cls-1" d="M133.8005,631.4912H36.301S5.2231,630.9834.7544,597.1633a37.88,37.88,0,0,1,19.6014-36.3592,31.8555,31.8555,0,0,1,10.1218-3.7125A42.2412,42.2412,0,0,1,34.4658,546.03a41.7893,41.7893,0,0,1,37.1415-22.38s29.133-1.4248,40.3172,29.6365a26.718,26.718,0,0,1,19.012,7.8524,35.3343,35.3343,0,0,1,3.908,4.8144,26.6512,26.6512,0,0,1,4.3479,10.368,1.1722,1.1722,0,0,1-.1911.9021,28.1363,28.1363,0,0,1,10.8161,2.8442,26.9191,26.9191,0,0,1,15.0121,24.04s.34,15.7644-12.81,23.3763C147.6254,630.0279,143.2768,631.8831,133.8005,631.4912Z"/></svg>