<svg xmlns="http://www.w3.org/2000/svg" xmlns:xlink="http://www.w3.org/1999/xlink" viewBox="0 0 2040.8836 1000"><defs><style>.cls-1{mask:url(#mask);filter:url(#luminosity-noclip-3);}.cls-2,.cls-4{mix-blend-mode:multiply;}.cls-2{fill:url(#radial-gradient);}.cls-3{mask:url(#mask-2);filter:url(#luminosity-noclip-4);}.cls-4{fill:url(#radial-gradient-2);}.cls-5{isolation:isolate;}.cls-6{fill:#8beafe;opacity:0.3;mix-blend-mode:screen;}.cls-7{mask:url(#mask-3);}.cls-10,.cls-8{mix-blend-mode:overlay;}.cls-8{fill:url(#radial-gradient-3);}.cls-9{mask:url(#mask-4);}.cls-10{fill:url(#radial-gradient-4);}.cls-11{fill:#fff;}.cls-12{filter:url(#luminosity-noclip-2);}.cls-13{filter:url(#luminosity-noclip);}</style><filter id="luminosity-noclip" x="1536.1157" y="-8991.3179" width="100.4849" height="32766" filterUnits="userSpaceOnUse" color-interpolation-filters="sRGB"><feFlood flood-color="#fff" result="bg"/><feBlend in="SourceGraphic" in2="bg"/></filter><mask id="mask" x="1536.1157" y="-8991.3179" width="100.4849" height="32766" maskUnits="userSpaceOnUse"><g class="cls-13"/></mask><radialGradient id="radial-gradient" cx="1629.6455" cy="699.2878" r="50.2436" gradientTransform="matrix(0.9917, 0.1285, -0.1285, 0.9917, 60.1976, -227.8814)" gradientUnits="userSpaceOnUse"><stop offset="0" stop-color="#fff"/><stop offset="0.1657" stop-color="#bebebe"/><stop offset="0.3313" stop-color="#848484"/><stop offset="0.49" stop-color="#555"/><stop offset="0.64" stop-color="#303030"/><stop offset="0.779" stop-color="#161616"/><stop offset="0.9032" stop-color="#060606"/><stop offset="1"/></radialGradient><filter id="luminosity-noclip-2" x="1561.5734" y="-8991.3179" width="49.5696" height="32766" filterUnits="userSpaceOnUse" color-interpolation-filters="sRGB"><feFlood flood-color="#fff" result="bg"/><feBlend in="SourceGraphic" in2="bg"/></filter><mask id="mask-2" x="1561.5734" y="-8991.3179" width="49.5696" height="32766" maskUnits="userSpaceOnUse"><g class="cls-12"/></mask><radialGradient id="radial-gradient-2" cx="1629.6956" cy="698.2888" r="24.7853" gradientTransform="translate(-76.2031 58.327) rotate(-2.8718)" xlink:href="#radial-gradient"/><filter id="luminosity-noclip-3" x="1536.1157" y="624.8178" width="100.4849" height="100.4854" filterUnits="userSpaceOnUse" color-interpolation-filters="sRGB"><feFlood flood-color="#fff" result="bg"/><feBlend in="SourceGraphic" in2="bg"/></filter><mask id="mask-3" x="1536.1157" y="624.8178" width="100.4849" height="100.4854" maskUnits="userSpaceOnUse"><g class="cls-1"><circle class="cls-2" cx="1586.3582" cy="675.0605" r="50.2413" transform="translate(-94.8578 293.2859) rotate(-10.2578)"/></g></mask><radialGradient id="radial-gradient-3" cx="1629.6455" cy="699.2878" r="50.2436" gradientTransform="matrix(0.9917, 0.1285, -0.1285, 0.9917, 60.1976, -227.8814)" gradientUnits="userSpaceOnUse"><stop offset="0" stop-color="#fff"/><stop offset="1" stop-color="#fff"/></radialGradient><filter id="luminosity-noclip-4" x="1561.5734" y="649.2755" width="49.5696" height="49.5696" filterUnits="userSpaceOnUse" color-interpolation-filters="sRGB"><feFlood flood-color="#fff" result="bg"/><feBlend in="SourceGraphic" in2="bg"/></filter><mask id="mask-4" x="1561.5734" y="649.2755" width="49.5696" height="49.5696" maskUnits="userSpaceOnUse"><g class="cls-3"><path class="cls-4" d="M1611.1113,672.8193a24.7843,24.7843,0,1,1-25.9947-23.5122A24.7842,24.7842,0,0,1,1611.1113,672.8193Z"/></g></mask><radialGradient id="radial-gradient-4" cx="1629.6956" cy="698.2888" r="24.7853" gradientTransform="translate(-76.2031 58.327) rotate(-2.8718)" xlink:href="#radial-gradient-3"/></defs><title>Artboard 5 copyldpi</title><g class="cls-5"><g id="line"><path class="cls-6" d="M1533.14,1000.6509h-3.9944V723.612a30.5251,30.5251,0,0,1,15.4419-26.5145l302.7508-204.45a8.3857,8.3857,0,0,0-.1265-13.9491l-264.556-53.7875,2.1877-3.3431,264.5554,53.7881a12.38,12.38,0,0,1,.1869,20.5938l-302.89,204.5449-.0728.0419A26.5224,26.5224,0,0,0,1533.14,723.612Z"/><g class="cls-7"><circle class="cls-8" cx="1586.3582" cy="675.0605" r="50.2413" transform="translate(-94.8578 293.2859) rotate(-10.2578)"/></g><g class="cls-9"><path class="cls-10" d="M1611.1113,672.8193a24.7843,24.7843,0,1,1-25.9947-23.5122A24.7842,24.7842,0,0,1,1611.1113,672.8193Z"/></g><path class="cls-11" d="M1575.6044,681.81a3.9656,3.9656,0,1,1-4.1593-3.7615A3.9662,3.9662,0,0,1,1575.6044,681.81Z"/><path class="cls-11" d="M1589.4381,672.6458a3.9656,3.9656,0,1,1-4.1593-3.7615A3.9662,3.9662,0,0,1,1589.4381,672.6458Z"/><path class="cls-11" d="M1603.2713,663.4824a3.9654,3.9654,0,1,1-4.1588-3.762A3.9647,3.9647,0,0,1,1603.2713,663.4824Z"/></g></g></svg>