<svg xmlns="http://www.w3.org/2000/svg" xmlns:xlink="http://www.w3.org/1999/xlink" viewBox="0 0 553.31 999.9919"><defs><style>.cls-1{mask:url(#mask);filter:url(#luminosity-noclip-7);}.cls-10,.cls-12,.cls-2,.cls-24,.cls-4,.cls-6,.cls-8{mix-blend-mode:multiply;}.cls-2{fill:url(#radial-gradient);}.cls-3{mask:url(#mask-2);filter:url(#luminosity-noclip-12);}.cls-4{fill:url(#radial-gradient-2);}.cls-5{mask:url(#mask-3);filter:url(#luminosity-noclip-8);}.cls-6{fill:url(#radial-gradient-3);}.cls-7{mask:url(#mask-4);filter:url(#luminosity-noclip-9);}.cls-8{fill:url(#radial-gradient-4);}.cls-9{mask:url(#mask-5);filter:url(#luminosity-noclip-10);}.cls-10{fill:url(#radial-gradient-5);}.cls-11{mask:url(#mask-6);filter:url(#luminosity-noclip-11);}.cls-12{fill:url(#radial-gradient-6);}.cls-13{isolation:isolate;}.cls-14,.cls-15{fill:#8beafe;}.cls-14{opacity:0.3;mix-blend-mode:screen;}.cls-16{mask:url(#mask-7);}.cls-17,.cls-19,.cls-32,.cls-34,.cls-36,.cls-38{mix-blend-mode:overlay;}.cls-17{fill:url(#radial-gradient-7);}.cls-18{mask:url(#mask-8);}.cls-19{fill:url(#radial-gradient-8);}.cls-20,.cls-21{fill:#fff;}.cls-20{opacity:0.46;mix-blend-mode:lighten;}.cls-22{fill:#2d234d;}.cls-23{fill:#101c7a;}.cls-24{opacity:0.15;}.cls-25{fill:#ebb17f;}.cls-26{fill:#2c2a41;}.cls-27{fill:#e18538;}.cls-28{fill:#e49b6c;}.cls-29{fill:url(#linear-gradient);}.cls-30{fill:#fcc19a;}.cls-31{mask:url(#mask-9);}.cls-32{fill:url(#radial-gradient-9);}.cls-33{mask:url(#mask-10);}.cls-34{fill:url(#radial-gradient-10);}.cls-35{mask:url(#mask-11);}.cls-36{fill:url(#radial-gradient-11);}.cls-37{mask:url(#mask-12);}.cls-38{fill:url(#radial-gradient-12);}.cls-39{filter:url(#luminosity-noclip-6);}.cls-40{filter:url(#luminosity-noclip-5);}.cls-41{filter:url(#luminosity-noclip-4);}.cls-42{filter:url(#luminosity-noclip-3);}.cls-43{filter:url(#luminosity-noclip-2);}.cls-44{filter:url(#luminosity-noclip);}</style><filter id="luminosity-noclip" x="49.8042" y="-7434.8432" width="78.6045" height="32766" filterUnits="userSpaceOnUse" color-interpolation-filters="sRGB"><feFlood flood-color="#fff" result="bg"/><feBlend in="SourceGraphic" in2="bg"/></filter><mask id="mask" x="49.8042" y="-7434.8432" width="78.6045" height="32766" maskUnits="userSpaceOnUse"><g class="cls-44"/></mask><radialGradient id="radial-gradient" cx="-1498.9953" cy="581.957" r="39.3022" gradientTransform="matrix(-1, 0, 0, 1, -1409.8889, 0)" gradientUnits="userSpaceOnUse"><stop offset="0" stop-color="#fff"/><stop offset="0.1657" stop-color="#bebebe"/><stop offset="0.3313" stop-color="#848484"/><stop offset="0.49" stop-color="#555"/><stop offset="0.64" stop-color="#303030"/><stop offset="0.779" stop-color="#161616"/><stop offset="0.9032" stop-color="#060606"/><stop offset="1"/></radialGradient><filter id="luminosity-noclip-2" x="104.5411" y="-7434.8432" width="22.1223" height="32766" filterUnits="userSpaceOnUse" color-interpolation-filters="sRGB"><feFlood flood-color="#fff" result="bg"/><feBlend in="SourceGraphic" in2="bg"/></filter><mask id="mask-2" x="104.5411" y="-7434.8432" width="22.1223" height="32766" maskUnits="userSpaceOnUse"><g class="cls-43"/></mask><radialGradient id="radial-gradient-2" cx="-1490.461" cy="434.2136" r="11.0586" gradientTransform="matrix(-0.9411, -0.338, -0.338, 0.9411, -1140.2822, -295.299)" xlink:href="#radial-gradient"/><filter id="luminosity-noclip-3" x="69.7184" y="-7434.8432" width="38.7761" height="32766" filterUnits="userSpaceOnUse" color-interpolation-filters="sRGB"><feFlood flood-color="#fff" result="bg"/><feBlend in="SourceGraphic" in2="bg"/></filter><mask id="mask-3" x="69.7184" y="-7434.8432" width="38.7761" height="32766" maskUnits="userSpaceOnUse"><g class="cls-42"/></mask><radialGradient id="radial-gradient-3" cx="-1498.9953" cy="581.9568" r="19.388" xlink:href="#radial-gradient"/><filter id="luminosity-noclip-4" x="138.8709" y="-7434.8432" width="51.0584" height="32766" filterUnits="userSpaceOnUse" color-interpolation-filters="sRGB"><feFlood flood-color="#fff" result="bg"/><feBlend in="SourceGraphic" in2="bg"/></filter><mask id="mask-4" x="138.8709" y="-7434.8432" width="51.0584" height="32766" maskUnits="userSpaceOnUse"><g class="cls-41"/></mask><radialGradient id="radial-gradient-4" cx="-1574.289" cy="681.2178" r="25.5292" xlink:href="#radial-gradient"/><filter id="luminosity-noclip-5" x="151.8066" y="-7434.8432" width="25.1874" height="32766" filterUnits="userSpaceOnUse" color-interpolation-filters="sRGB"><feFlood flood-color="#fff" result="bg"/><feBlend in="SourceGraphic" in2="bg"/></filter><mask id="mask-5" x="151.8066" y="-7434.8432" width="25.1874" height="32766" maskUnits="userSpaceOnUse"><g class="cls-40"/></mask><radialGradient id="radial-gradient-5" cx="-1574.2892" cy="681.218" r="12.5937" xlink:href="#radial-gradient"/><filter id="luminosity-noclip-6" x="93.05" y="-7434.8432" width="44.8453" height="32766" filterUnits="userSpaceOnUse" color-interpolation-filters="sRGB"><feFlood flood-color="#fff" result="bg"/><feBlend in="SourceGraphic" in2="bg"/></filter><mask id="mask-6" x="93.05" y="-7434.8432" width="44.8453" height="32766" maskUnits="userSpaceOnUse"><g class="cls-39"/></mask><radialGradient id="radial-gradient-6" cx="-1490.4834" cy="434.6594" r="22.4176" gradientTransform="matrix(-0.1285, -0.9917, -0.9917, 0.1285, 354.9084, -916.3518)" xlink:href="#radial-gradient"/><filter id="luminosity-noclip-7" x="49.8042" y="542.6548" width="78.6045" height="78.6045" filterUnits="userSpaceOnUse" color-interpolation-filters="sRGB"><feFlood flood-color="#fff" result="bg"/><feBlend in="SourceGraphic" in2="bg"/></filter><mask id="mask-7" x="49.8042" y="542.6548" width="78.6045" height="78.6045" maskUnits="userSpaceOnUse"><g class="cls-1"><circle class="cls-2" cx="89.1064" cy="581.957" r="39.3022"/></g></mask><radialGradient id="radial-gradient-7" cx="-1498.9953" cy="581.957" r="39.3022" gradientTransform="matrix(-1, 0, 0, 1, -1409.8889, 0)" gradientUnits="userSpaceOnUse"><stop offset="0" stop-color="#fff"/><stop offset="1" stop-color="#fff"/></radialGradient><filter id="luminosity-noclip-8" x="69.7184" y="562.569" width="38.7761" height="38.7757" filterUnits="userSpaceOnUse" color-interpolation-filters="sRGB"><feFlood flood-color="#fff" result="bg"/><feBlend in="SourceGraphic" in2="bg"/></filter><mask id="mask-8" x="69.7184" y="562.569" width="38.7761" height="38.7757" maskUnits="userSpaceOnUse"><g class="cls-5"><path class="cls-6" d="M69.7184,581.957a19.388,19.388,0,1,0,19.388-19.388A19.388,19.388,0,0,0,69.7184,581.957Z"/></g></mask><radialGradient id="radial-gradient-8" cx="-1498.9953" cy="581.9568" r="19.388" xlink:href="#radial-gradient-7"/><linearGradient id="linear-gradient" x1="-1672.6957" y1="693.546" x2="-1615.9772" y2="693.546" gradientTransform="matrix(-1, 0, 0, 1, -1409.8889, 0)" gradientUnits="userSpaceOnUse"><stop offset="0" stop-color="#e18538"/><stop offset="1" stop-color="#e49b6c"/></linearGradient><filter id="luminosity-noclip-9" x="138.8709" y="655.6885" width="51.0584" height="51.0584" filterUnits="userSpaceOnUse" color-interpolation-filters="sRGB"><feFlood flood-color="#fff" result="bg"/><feBlend in="SourceGraphic" in2="bg"/></filter><mask id="mask-9" x="138.8709" y="655.6885" width="51.0584" height="51.0584" maskUnits="userSpaceOnUse"><g class="cls-7"><circle class="cls-8" cx="164.4001" cy="681.2178" r="25.5292"/></g></mask><radialGradient id="radial-gradient-9" cx="-1574.289" cy="681.2178" r="25.5292" xlink:href="#radial-gradient-7"/><filter id="luminosity-noclip-10" x="151.8066" y="668.6243" width="25.1874" height="25.1874" filterUnits="userSpaceOnUse" color-interpolation-filters="sRGB"><feFlood flood-color="#fff" result="bg"/><feBlend in="SourceGraphic" in2="bg"/></filter><mask id="mask-10" x="151.8066" y="668.6243" width="25.1874" height="25.1874" maskUnits="userSpaceOnUse"><g class="cls-9"><path class="cls-10" d="M151.8066,681.2178A12.5937,12.5937,0,1,0,164.4,668.6243,12.5938,12.5938,0,0,0,151.8066,681.2178Z"/></g></mask><radialGradient id="radial-gradient-10" cx="-1574.2892" cy="681.218" r="12.5937" xlink:href="#radial-gradient-7"/><filter id="luminosity-noclip-11" x="93.05" y="595.1509" width="44.8453" height="44.8454" filterUnits="userSpaceOnUse" color-interpolation-filters="sRGB"><feFlood flood-color="#fff" result="bg"/><feBlend in="SourceGraphic" in2="bg"/></filter><mask id="mask-11" x="93.05" y="595.1509" width="44.8453" height="44.8454" maskUnits="userSpaceOnUse"><g class="cls-11"><circle class="cls-12" cx="115.4726" cy="617.5736" r="22.4166" transform="translate(-486.7668 438.5798) rotate(-62.8566)"/></g></mask><radialGradient id="radial-gradient-11" cx="-1490.4834" cy="434.6594" r="22.4176" gradientTransform="matrix(-0.1285, -0.9917, -0.9917, 0.1285, 354.9084, -916.3518)" xlink:href="#radial-gradient-7"/><filter id="luminosity-noclip-12" x="104.5411" y="606.0854" width="22.1223" height="22.1224" filterUnits="userSpaceOnUse" color-interpolation-filters="sRGB"><feFlood flood-color="#fff" result="bg"/><feBlend in="SourceGraphic" in2="bg"/></filter><mask id="mask-12" x="104.5411" y="606.0854" width="22.1223" height="22.1224" maskUnits="userSpaceOnUse"><g class="cls-3"><path class="cls-4" d="M105.1949,613.4088a11.0582,11.0582,0,1,0,14.1453-6.67A11.0583,11.0583,0,0,0,105.1949,613.4088Z"/></g></mask><radialGradient id="radial-gradient-12" cx="-1490.461" cy="434.2136" r="11.0586" gradientTransform="matrix(-0.9411, -0.338, -0.338, 0.9411, -1140.2822, -295.299)" xlink:href="#radial-gradient-7"/></defs><title>Artboard 6ldpi</title><g class="cls-13"><g id="image"><polygon class="cls-14" points="163.202 682.775 164.808 680.093 90.755 581.295 89.15 583.977 163.202 682.775"/><path class="cls-15" d="M88.6845,586.3221h0A4.3654,4.3654,0,0,0,93.05,581.957h0a4.3657,4.3657,0,0,0-4.3655-4.3654h0a4.3653,4.3653,0,0,0-4.365,4.3654h0A4.365,4.365,0,0,0,88.6845,586.3221Z"/><path class="cls-15" d="M164.0049,685.7994h0a4.365,4.365,0,0,0,4.365-4.365h0a4.365,4.365,0,0,0-4.365-4.365h0a4.3653,4.3653,0,0,0-4.3655,4.365h0A4.3653,4.3653,0,0,0,164.0049,685.7994Z"/><g class="cls-16"><circle class="cls-17" cx="89.1064" cy="581.957" r="39.3022"/></g><g class="cls-18"><path class="cls-19" d="M69.7184,581.957a19.388,19.388,0,1,0,19.388-19.388A19.388,19.388,0,0,0,69.7184,581.957Z"/></g><path class="cls-14" d="M162.4778,790.2673h3.1246V682.8481a2.8668,2.8668,0,0,1,1.3857-2.4466l41.1029-24.6569-1.6072-2.68-41.1033,24.6565a6.01,6.01,0,0,0-2.9027,5.127Z"/><path class="cls-15" d="M203.2564,654.4044a4.0311,4.0311,0,1,1,4.031,4.0306A4.0311,4.0311,0,0,1,203.2564,654.4044Z"/><path class="cls-15" d="M160.0093,790.2673a4.0309,4.0309,0,1,1,4.031,4.031A4.0306,4.0306,0,0,1,160.0093,790.2673Z"/><path class="cls-20" d="M261.2915,834.4412c-23.677,7.21-47.5527,11.8629-43.65,23.9383a10.5039,10.5039,0,0,0,.693,1.5874c2.306,4.458,13.5962,23.5806,37.6163,23.5806,27.1909,0,54.7779-17.9075,54.7779-33.0533S285.399,827.1,261.2915,834.4412Z"/><path class="cls-21" d="M290.4454,856.8178a3.2221,3.2221,0,1,1-3.1325-3.3093A3.2218,3.2218,0,0,1,290.4454,856.8178Z"/><path class="cls-22" d="M298.254,847.53l1.09,7.096a5.2532,5.2532,0,0,1-5.1925,6.0509h0a27.1442,27.1442,0,0,1-13.6145-3.6615l-2.0879-1.21a8.7711,8.7711,0,0,1-3.9608-4.9382h0a4.7784,4.7784,0,0,1,1.8066-5.3518h0a4.7772,4.7772,0,0,1,2.7489-.87h4.08Z"/><path class="cls-22" d="M266.1918,862.5778l1.09,7.0968a5.2524,5.2524,0,0,1-5.1916,6.05h0a27.1512,27.1512,0,0,1-13.6154-3.6608l-2.0871-1.21a8.7645,8.7645,0,0,1-3.9616-4.9374h0a4.7793,4.7793,0,0,1,1.8068-5.3525h0a4.7782,4.7782,0,0,1,2.7487-.87h4.08Z"/><path class="cls-23" d="M255.4229,747.9324h0a168.4758,168.4758,0,0,0-3.03,35.3568c.5654,28.1857,1.6321,79.6894,1.6321,79.6894.0618,3.3435,4.08,4.7307,7.4247,4.7307,0,0,4.5615-1.1579,4.8231-4.3405l3.5391-43.0416,5.7012-40.7709,4.815-1.7819,6.1509,72.6549c.4226,3.524,2.9759,3.5368,6.5247,3.5368,0,0,5.587-.65,5.4486-4.6142l-1.2691-76.2984a35.64,35.64,0,0,0-.6248-6.08l-3.6277-19.0408Z"/><path class="cls-24" d="M293.6646,750.3812l-.7338-2.4488H255.4229s5.5268,7.88,22.0046,7.88C286.4182,755.8119,291.1843,752.9669,293.6646,750.3812Z"/><path class="cls-25" d="M286.6867,683.4171l-9.78,7.3118-10.647-6.3472a15.0918,15.0918,0,0,0,2.6292-9.529c-5.6713.812-5.248-4.31-5.8457-7.081-1.3038-6.0495-.1331-12.0606,1.5263-18.0634h17.5934l-.0933,22.3272C282.4808,675.92,284.6506,679.0435,286.6867,683.4171Z"/><path class="cls-26" d="M264.8806,657.5652a8.8272,8.8272,0,0,0,1.1338.6594v2.3338a4.0281,4.0281,0,0,1,4.5134-2.3338c3.3495.5864,1.3,6.5562-2.3293,6.5562l.5353,1.7593a8.317,8.317,0,0,0,7.9569,5.8961h3.6841a3.8084,3.8084,0,0,0,3.7321-3.0495l4.3474-11.6989a11.7236,11.7236,0,0,0-1.7894-11.5,13.4165,13.4165,0,0,0-7.8374-4.7037c-9.7553-2.0382-17.2093,2.7135-17.8769,5.3051A10.0057,10.0057,0,0,0,264.8806,657.5652Z"/><path class="cls-27" d="M298.2472,686.1907s9.8005,9.4764,15.1229,47.3346c.5127,3.6473-3.3548,27.227-3.3548,27.227.0006,2.7541-10.3689,2.7541-10.37,0l1.7013-22.3376a9.8594,9.8594,0,0,0-.4224-3.1744l-11.7741-40.4266Z"/><path class="cls-28" d="M313.37,733.5253q-.1354-.9789-.2955-1.94c0,3.433-.9887,5.1149-6.1187,5.1149-3.693,0-6.3758-9.9282-7.5892-15.4942a1.4446,1.4446,0,0,0-2.6533-.4248h0l4.2112,14.4589a9.8569,9.8569,0,0,1,.4224,3.1744l-1.7013,22.3376c.0007,1.4616,2.9209,2.1473,5.6622,2.0579l.0323-.0015a13.39,13.39,0,0,0,1.3947-.12c.1775-.0255.35-.0556.5211-.088.2353-.0451.4616-.0977.6766-.1571.2128-.0586.4121-.124.6-.1962a3.6886,3.6886,0,0,0,.8518-.4451,1.3134,1.3134,0,0,0,.6309-1.05s.7391-4.5126,1.5278-9.8959c.2255-1.5376.4548-3.1465.6721-4.742.1089-.7969.2142-1.5909.3158-2.3713C313.1347,739.0643,313.56,734.8937,313.37,733.5253Z"/><path class="cls-27" d="M265.7023,683.1622s2.7639-1.9391,14.6643-2.8c5.7118-.4128,5.1989-.1391,5.1989-.1391s8.1886,1.4736,12.6817,5.9675-5.3164,61.7417-5.3164,61.7417-15.5634,9.2276-37.5079,0l-5.5878-55.363S254.726,683.1622,265.7023,683.1622Z"/><path class="cls-25" d="M215.5369,672.155l-.6631-8.5877-4.3473-11.1666a2.0569,2.0569,0,0,0-2.4549-1.2819,1.9849,1.9849,0,0,0-1.3186,2.5195l2.0789,6.3486a1.9726,1.9726,0,0,0-3.0473,1.7662,1.9739,1.9739,0,0,0-2.2887-.1692,2.0432,2.0432,0,0,0-.827,2.3909l.1519.4631a1.9827,1.9827,0,0,0-2.6541-.5909,2.0441,2.0441,0,0,0-.8428,2.4037l.8654,2.6427h0a7.31,7.31,0,0,0,1.2735,2.34c.2707.3331.5911.7218.9414,1.1331l3.7652,5.9058c1.5475,1.5473,2.8053,1.2323,6.1511.44s4.248-4.41,4.248-4.41Z"/><path class="cls-29" d="M256.053,685.89s-20.3686,14.2485-24.1294,13.2673-15.9686-26.1316-15.9686-26.1316c1.7871,3.5909-7.684,7.9667-9.8667,5.04,0,0,7.1946,31.8833,18.4769,35.317s35.81-7.1945,35.81-7.1945S268.0827,690.6093,256.053,685.89Z"/><path class="cls-25" d="M299.6457,760.7523l-.7046,4.3262a22.8688,22.8688,0,0,0-.18,5.99l.1353,1.3375a1.68,1.68,0,0,0,1.6714,1.51h0l.3992,2.9947a1.9321,1.9321,0,0,0,1.915,1.6759h0a1.9314,1.9314,0,0,0,1.9315-1.9315v-.51l.5421-.0722a7.0525,7.0525,0,0,0,5.6953-4.58h0a7.052,7.052,0,0,0,.3-3.7292l-1.336-7.0111Z"/><path class="cls-30" d="M310.0153,760.7523H301.13l.3647,1.6233a7.6205,7.6205,0,0,1,1.3654,6.9035s2.4074-.3443,3.0954,1.16-.5858,3.4765-5.3871,3.4765l.3992,2.9947a1.9318,1.9318,0,0,0,3.8465-.2556v-.51l.5421-.0722a7.052,7.052,0,0,0,5.9953-8.3095Z"/><path class="cls-30" d="M311.0513,771.4926a7.052,7.052,0,0,0,.3-3.7292l-1.336-7.0111h-5.9466l-.7067,1.9894s-.757,5.3721,2.3481,6.3367h1.5526a1.4071,1.4071,0,0,1-1.2563,1.5015c.4669,1.2616-.4331,2.7841-3.5706,3.2141.08.8527.7376,1.7143,2.3781,2.3511l.5421-.0722A7.0525,7.0525,0,0,0,311.0513,771.4926Z"/><g class="cls-31"><circle class="cls-32" cx="164.4001" cy="681.2178" r="25.5292"/></g><g class="cls-33"><path class="cls-34" d="M151.8066,681.2178A12.5937,12.5937,0,1,0,164.4,668.6243,12.5938,12.5938,0,0,0,151.8066,681.2178Z"/></g><path class="cls-21" d="M162.3145,713.0242a1.7256,1.7256,0,1,0,1.7258-1.7253A1.7256,1.7256,0,0,0,162.3145,713.0242Z"/><path class="cls-21" d="M162.3145,719.09a1.7256,1.7256,0,1,0,1.7258-1.7258A1.7255,1.7255,0,0,0,162.3145,719.09Z"/><path class="cls-21" d="M162.3145,725.1555A1.7256,1.7256,0,1,0,164.04,723.43,1.7257,1.7257,0,0,0,162.3145,725.1555Z"/><g class="cls-35"><circle class="cls-36" cx="115.4726" cy="617.5736" r="22.4166" transform="translate(-486.7668 438.5798) rotate(-62.8566)"/></g><g class="cls-37"><path class="cls-38" d="M105.1949,613.4088a11.0582,11.0582,0,1,0,14.1453-6.67A11.0583,11.0583,0,0,0,105.1949,613.4088Z"/></g><path class="cls-21" d="M118.844,621.6236a1.747,1.747,0,1,0,2.2346-1.0534A1.7473,1.7473,0,0,0,118.844,621.6236Z"/><path class="cls-21" d="M114.1849,615.99a1.747,1.747,0,1,0,2.2347-1.0534A1.7473,1.7473,0,0,0,114.1849,615.99Z"/><path class="cls-21" d="M109.526,610.3573a1.7469,1.7469,0,1,0,2.2345-1.0537A1.7467,1.7467,0,0,0,109.526,610.3573Z"/></g></g></svg>