<svg id="bcg" xmlns="http://www.w3.org/2000/svg" xmlns:xlink="http://www.w3.org/1999/xlink" viewBox="0 0 2040.8836 1000"><defs><style>.cls-1{fill:url(#linear-gradient);}.cls-2{fill:#e18538;}.cls-3{fill:url(#linear-gradient-2);}</style><linearGradient id="linear-gradient" x1="2505.8462" y1="1240.5635" x2="2439.0431" y2="815.9927" gradientUnits="userSpaceOnUse"><stop offset="0" stop-color="#101c7a"/><stop offset="1" stop-color="#3a66bd"/></linearGradient><linearGradient id="linear-gradient-2" x1="1370.5878" y1="1023.8433" x2="1317.6466" y2="557.961" xlink:href="#linear-gradient"/></defs><title>Artboard 5 copyldpi</title><path class="cls-1" d="M1832.5366,1217.9737H3089.1189V690.9192a300.4866,300.4866,0,0,0-44.3284,8.4c-96.9113,26.2577-153.6479,64.6612-253.9639,59.0076-87.285-4.9193-178.8384,10.21-251.8361,37.69-75.6,28.4593-106.8971,62.8986-153.979,104.3253-59.4908,52.3451-101.1986,66.8717-197.6108,96.7171-177.0692,54.8136-251.96,125.469-354.8641,220.9144"/><polygon class="cls-2" points="1037.554 971.853 1035.89 970.189 1021.619 984.46 1021.619 954.446 1019.265 954.446 1019.265 984.46 1004.993 970.189 1003.329 971.853 1020.442 988.966 1037.554 971.853"/><path class="cls-3" d="M2040.8837,1000V420.3179c-77.6672,104.103-191.5171,177.615-321.1131,195.668-175.4419,24.4395-328.6775-128.0651-493.6721-20.4114-88.9087,58.01-143.4507,153.9991-235.4954,207.0015C898.6471,855.5273,665.89,879.8282,629,1000Z"/></svg>