<svg id="cloud" xmlns="http://www.w3.org/2000/svg" xmlns:xlink="http://www.w3.org/1999/xlink" viewBox="0 0 2040.8836 1000"><defs><style>.cls-1{fill:url(#linear-gradient);}</style><linearGradient id="linear-gradient" x1="1314.0538" y1="346.8387" x2="1758.615" y2="346.8387" gradientUnits="userSpaceOnUse"><stop offset="0" stop-color="#101c7a"/><stop offset="1" stop-color="#5d96cf"/></linearGradient></defs><title>Artboard 5 copyldpi</title><path class="cls-1" d="M1398.0529,492.7473h263.9352s84.1294-1.3747,96.2264-92.9272c0,0,8.5229-63.2345-53.062-98.4258,0,0-10.0787-6.5208-27.4-10.05,0,0-2.2561-13.3529-10.7961-29.9455-12.43-24.1511-44.2576-59.86-100.5437-60.583,0,0-78.8643-3.857-109.14,80.2272,0,0-27.7119-1.9538-51.4661,21.257a95.65,95.65,0,0,0-10.5793,13.0327c-5.5734,8.2589-10.5063,18.8976-11.77,28.0665a3.1729,3.1729,0,0,0,.5175,2.4421,76.1668,76.1668,0,0,0-29.28,7.6993c-18.9134,9.2652-39.8425,30.5535-40.6383,65.0786,0,0-.9194,42.6749,34.6761,63.2805C1360.6282,488.786,1372.4,493.8082,1398.0529,492.7473Z"/></svg>