<svg xmlns="http://www.w3.org/2000/svg" xmlns:xlink="http://www.w3.org/1999/xlink" viewBox="0 0 2040.8836 1000"><defs><style>.cls-1{mask:url(#mask);filter:url(#luminosity-noclip-7);}.cls-10,.cls-12,.cls-2,.cls-24,.cls-4,.cls-6,.cls-8{mix-blend-mode:multiply;}.cls-2{fill:url(#radial-gradient);}.cls-3{mask:url(#mask-2);filter:url(#luminosity-noclip-12);}.cls-4{fill:url(#radial-gradient-2);}.cls-5{mask:url(#mask-3);filter:url(#luminosity-noclip-8);}.cls-6{fill:url(#radial-gradient-3);}.cls-7{mask:url(#mask-4);filter:url(#luminosity-noclip-9);}.cls-8{fill:url(#radial-gradient-4);}.cls-9{mask:url(#mask-5);filter:url(#luminosity-noclip-10);}.cls-10{fill:url(#radial-gradient-5);}.cls-11{mask:url(#mask-6);filter:url(#luminosity-noclip-11);}.cls-12{fill:url(#radial-gradient-6);}.cls-13{isolation:isolate;}.cls-14,.cls-15{fill:#8beafe;}.cls-14{opacity:0.3;mix-blend-mode:screen;}.cls-16{mask:url(#mask-7);}.cls-17,.cls-19,.cls-32,.cls-34,.cls-36,.cls-38{mix-blend-mode:overlay;}.cls-17{fill:url(#radial-gradient-7);}.cls-18{mask:url(#mask-8);}.cls-19{fill:url(#radial-gradient-8);}.cls-20,.cls-21{fill:#fff;}.cls-21{opacity:0.46;mix-blend-mode:lighten;}.cls-22{fill:#2d234d;}.cls-23{fill:#101c7a;}.cls-24{opacity:0.15;}.cls-25{fill:#ebb17f;}.cls-26{fill:#2c2a41;}.cls-27{fill:#e18538;}.cls-28{fill:#e49b6c;}.cls-29{fill:url(#linear-gradient);}.cls-30{fill:#fcc19a;}.cls-31{mask:url(#mask-9);}.cls-32{fill:url(#radial-gradient-9);}.cls-33{mask:url(#mask-10);}.cls-34{fill:url(#radial-gradient-10);}.cls-35{mask:url(#mask-11);}.cls-36{fill:url(#radial-gradient-11);}.cls-37{mask:url(#mask-12);}.cls-38{fill:url(#radial-gradient-12);}.cls-39{filter:url(#luminosity-noclip-6);}.cls-40{filter:url(#luminosity-noclip-5);}.cls-41{filter:url(#luminosity-noclip-4);}.cls-42{filter:url(#luminosity-noclip-3);}.cls-43{filter:url(#luminosity-noclip-2);}.cls-44{filter:url(#luminosity-noclip);}</style><filter id="luminosity-noclip" x="1527.3364" y="-8991.3179" width="100.4829" height="32766" filterUnits="userSpaceOnUse" color-interpolation-filters="sRGB"><feFlood flood-color="#fff" result="bg"/><feBlend in="SourceGraphic" in2="bg"/></filter><mask id="mask" x="1527.3364" y="-8991.3179" width="100.4829" height="32766" maskUnits="userSpaceOnUse"><g class="cls-44"/></mask><radialGradient id="radial-gradient" cx="1577.5778" cy="463.8908" r="50.2414" gradientUnits="userSpaceOnUse"><stop offset="0" stop-color="#fff"/><stop offset="0.1657" stop-color="#bebebe"/><stop offset="0.3313" stop-color="#848484"/><stop offset="0.49" stop-color="#555"/><stop offset="0.64" stop-color="#303030"/><stop offset="0.779" stop-color="#161616"/><stop offset="0.9032" stop-color="#060606"/><stop offset="1"/></radialGradient><filter id="luminosity-noclip-2" x="1561.5734" y="-8991.3179" width="49.5696" height="32766" filterUnits="userSpaceOnUse" color-interpolation-filters="sRGB"><feFlood flood-color="#fff" result="bg"/><feBlend in="SourceGraphic" in2="bg"/></filter><mask id="mask-2" x="1561.5734" y="-8991.3179" width="49.5696" height="32766" maskUnits="userSpaceOnUse"><g class="cls-43"/></mask><radialGradient id="radial-gradient-2" cx="1629.6956" cy="698.2888" r="24.7853" gradientTransform="translate(-76.2031 58.327) rotate(-2.8718)" xlink:href="#radial-gradient"/><filter id="luminosity-noclip-3" x="1552.7935" y="-8991.3179" width="49.5688" height="32766" filterUnits="userSpaceOnUse" color-interpolation-filters="sRGB"><feFlood flood-color="#fff" result="bg"/><feBlend in="SourceGraphic" in2="bg"/></filter><mask id="mask-3" x="1552.7935" y="-8991.3179" width="49.5688" height="32766" maskUnits="userSpaceOnUse"><g class="cls-42"/></mask><radialGradient id="radial-gradient-3" cx="1577.5779" cy="463.8905" r="24.7843" xlink:href="#radial-gradient"/><filter id="luminosity-noclip-4" x="1359.8577" y="-8991.3179" width="65.2698" height="32766" filterUnits="userSpaceOnUse" color-interpolation-filters="sRGB"><feFlood flood-color="#fff" result="bg"/><feBlend in="SourceGraphic" in2="bg"/></filter><mask id="mask-4" x="1359.8577" y="-8991.3179" width="65.2698" height="32766" maskUnits="userSpaceOnUse"><g class="cls-41"/></mask><radialGradient id="radial-gradient-4" cx="1392.4926" cy="574.3877" r="32.6349" xlink:href="#radial-gradient"/><filter id="luminosity-noclip-5" x="1376.3933" y="-8991.3179" width="32.1979" height="32766" filterUnits="userSpaceOnUse" color-interpolation-filters="sRGB"><feFlood flood-color="#fff" result="bg"/><feBlend in="SourceGraphic" in2="bg"/></filter><mask id="mask-5" x="1376.3933" y="-8991.3179" width="32.1979" height="32766" maskUnits="userSpaceOnUse"><g class="cls-40"/></mask><radialGradient id="radial-gradient-5" cx="1392.4923" cy="574.388" r="16.099" xlink:href="#radial-gradient"/><filter id="luminosity-noclip-6" x="1536.1157" y="-8991.3179" width="100.4849" height="32766" filterUnits="userSpaceOnUse" color-interpolation-filters="sRGB"><feFlood flood-color="#fff" result="bg"/><feBlend in="SourceGraphic" in2="bg"/></filter><mask id="mask-6" x="1536.1157" y="-8991.3179" width="100.4849" height="32766" maskUnits="userSpaceOnUse"><g class="cls-39"/></mask><radialGradient id="radial-gradient-6" cx="1629.6455" cy="699.2878" r="50.2436" gradientTransform="matrix(0.9917, 0.1285, -0.1285, 0.9917, 60.1976, -227.8814)" xlink:href="#radial-gradient"/><filter id="luminosity-noclip-7" x="1527.3364" y="413.6493" width="100.4829" height="100.4829" filterUnits="userSpaceOnUse" color-interpolation-filters="sRGB"><feFlood flood-color="#fff" result="bg"/><feBlend in="SourceGraphic" in2="bg"/></filter><mask id="mask-7" x="1527.3364" y="413.6493" width="100.4829" height="100.4829" maskUnits="userSpaceOnUse"><g class="cls-1"><circle class="cls-2" cx="1577.5778" cy="463.8908" r="50.2414"/></g></mask><radialGradient id="radial-gradient-7" cx="1577.5778" cy="463.8908" r="50.2414" gradientUnits="userSpaceOnUse"><stop offset="0" stop-color="#fff"/><stop offset="1" stop-color="#fff"/></radialGradient><filter id="luminosity-noclip-8" x="1552.7935" y="439.1063" width="49.5688" height="49.5684" filterUnits="userSpaceOnUse" color-interpolation-filters="sRGB"><feFlood flood-color="#fff" result="bg"/><feBlend in="SourceGraphic" in2="bg"/></filter><mask id="mask-8" x="1552.7935" y="439.1063" width="49.5688" height="49.5684" maskUnits="userSpaceOnUse"><g class="cls-5"><path class="cls-6" d="M1602.3623,463.8908a24.7844,24.7844,0,1,1-24.7845-24.7845A24.7844,24.7844,0,0,1,1602.3623,463.8908Z"/></g></mask><radialGradient id="radial-gradient-8" cx="1577.5779" cy="463.8905" r="24.7843" xlink:href="#radial-gradient-7"/><linearGradient id="linear-gradient" x1="1266.6958" y1="590.1474" x2="1339.201" y2="590.1474" gradientUnits="userSpaceOnUse"><stop offset="0" stop-color="#e18538"/><stop offset="1" stop-color="#e49b6c"/></linearGradient><filter id="luminosity-noclip-9" x="1359.8577" y="541.7528" width="65.2698" height="65.2698" filterUnits="userSpaceOnUse" color-interpolation-filters="sRGB"><feFlood flood-color="#fff" result="bg"/><feBlend in="SourceGraphic" in2="bg"/></filter><mask id="mask-9" x="1359.8577" y="541.7528" width="65.2698" height="65.2698" maskUnits="userSpaceOnUse"><g class="cls-7"><circle class="cls-8" cx="1392.4926" cy="574.3877" r="32.6349"/></g></mask><radialGradient id="radial-gradient-9" cx="1392.4926" cy="574.3877" r="32.6349" xlink:href="#radial-gradient-7"/><filter id="luminosity-noclip-10" x="1376.3933" y="558.289" width="32.1979" height="32.1979" filterUnits="userSpaceOnUse" color-interpolation-filters="sRGB"><feFlood flood-color="#fff" result="bg"/><feBlend in="SourceGraphic" in2="bg"/></filter><mask id="mask-10" x="1376.3933" y="558.289" width="32.1979" height="32.1979" maskUnits="userSpaceOnUse"><g class="cls-9"><path class="cls-10" d="M1408.5912,574.3877a16.099,16.099,0,1,1-16.0986-16.0987A16.099,16.099,0,0,1,1408.5912,574.3877Z"/></g></mask><radialGradient id="radial-gradient-10" cx="1392.4923" cy="574.388" r="16.099" xlink:href="#radial-gradient-7"/><filter id="luminosity-noclip-11" x="1536.1157" y="624.8178" width="100.4849" height="100.4854" filterUnits="userSpaceOnUse" color-interpolation-filters="sRGB"><feFlood flood-color="#fff" result="bg"/><feBlend in="SourceGraphic" in2="bg"/></filter><mask id="mask-11" x="1536.1157" y="624.8178" width="100.4849" height="100.4854" maskUnits="userSpaceOnUse"><g class="cls-11"><circle class="cls-12" cx="1586.3582" cy="675.0605" r="50.2413" transform="translate(-94.8578 293.2859) rotate(-10.2578)"/></g></mask><radialGradient id="radial-gradient-11" cx="1629.6455" cy="699.2878" r="50.2436" gradientTransform="matrix(0.9917, 0.1285, -0.1285, 0.9917, 60.1976, -227.8814)" xlink:href="#radial-gradient-7"/><filter id="luminosity-noclip-12" x="1561.5734" y="649.2755" width="49.5696" height="49.5696" filterUnits="userSpaceOnUse" color-interpolation-filters="sRGB"><feFlood flood-color="#fff" result="bg"/><feBlend in="SourceGraphic" in2="bg"/></filter><mask id="mask-12" x="1561.5734" y="649.2755" width="49.5696" height="49.5696" maskUnits="userSpaceOnUse"><g class="cls-3"><path class="cls-4" d="M1611.1113,672.8193a24.7843,24.7843,0,1,1-25.9947-23.5122A24.7842,24.7842,0,0,1,1611.1113,672.8193Z"/></g></mask><radialGradient id="radial-gradient-12" cx="1629.6956" cy="698.2888" r="24.7853" gradientTransform="translate(-76.2031 58.327) rotate(-2.8718)" xlink:href="#radial-gradient-7"/></defs><title>Artboard 5 copyldpi</title><g class="cls-13"><g id="image"><path class="cls-14" d="M1533.14,1000.6509h-3.9944V723.612a30.5251,30.5251,0,0,1,15.4419-26.5145l302.7508-204.45a8.3857,8.3857,0,0,0-.1265-13.9491l-264.556-53.7875,2.1877-3.3431,264.5554,53.7881a12.38,12.38,0,0,1,.1869,20.5938l-302.89,204.5449-.0728.0419A26.5224,26.5224,0,0,0,1533.14,723.612Z"/><rect class="cls-14" x="1377.7998" y="517.7135" width="213.8948" height="3.9956" transform="translate(-56.0768 836.6267) rotate(-30.9142)"/><path class="cls-15" d="M1578.1172,469.4707h0a5.58,5.58,0,0,1-5.58-5.58h0a5.5809,5.5809,0,0,1,5.58-5.5806h0a5.58,5.58,0,0,1,5.58,5.5806h0A5.58,5.58,0,0,1,1578.1172,469.4707Z"/><path class="cls-15" d="M1392.9978,580.2446h0a5.58,5.58,0,0,1-5.58-5.58h0a5.58,5.58,0,0,1,5.58-5.58h0a5.58,5.58,0,0,1,5.58,5.58h0A5.58,5.58,0,0,1,1392.9978,580.2446Z"/><g class="cls-16"><circle class="cls-17" cx="1577.5778" cy="463.8908" r="50.2414"/></g><g class="cls-18"><path class="cls-19" d="M1602.3623,463.8908a24.7844,24.7844,0,1,1-24.7845-24.7845A24.7844,24.7844,0,0,1,1602.3623,463.8908Z"/></g><circle class="cls-20" cx="1483.6054" cy="520.4306" r="1.9046"/><circle class="cls-20" cx="1489.8428" cy="516.6214" r="1.9046"/><path class="cls-20" d="M1497.9847,512.8118a1.9049,1.9049,0,1,1-1.9051-1.9046A1.9052,1.9052,0,0,1,1497.9847,512.8118Z"/><path class="cls-14" d="M1394.95,713.79h-3.9943V576.4718a3.6651,3.6651,0,0,0-1.7714-3.1276l-52.5433-31.52,2.0546-3.4258,52.5438,31.5192a7.6826,7.6826,0,0,1,3.7106,6.554Z"/><path class="cls-15" d="M1342.8213,540.1112a5.1531,5.1531,0,1,0-5.1531,5.1525A5.1531,5.1531,0,0,0,1342.8213,540.1112Z"/><path class="cls-15" d="M1398.1055,713.79a5.1528,5.1528,0,1,0-5.153,5.1531A5.1526,5.1526,0,0,0,1398.1055,713.79Z"/><path class="cls-21" d="M1268.633,770.2585c30.2671,9.2168,60.7882,15.1648,55.7989,30.6013a13.4316,13.4316,0,0,1-.8859,2.0291c-2.9478,5.6989-17.38,30.144-48.0863,30.144-34.759,0-70.0245-22.8918-70.0245-42.2532S1237.8154,760.8736,1268.633,770.2585Z"/><path class="cls-20" d="M1231.3644,798.8634a4.1189,4.1189,0,1,0,4.0044-4.23A4.1187,4.1187,0,0,0,1231.3644,798.8634Z"/><path class="cls-22" d="M1221.3825,786.9907l-1.3937,9.0711a6.7154,6.7154,0,0,0,6.6377,7.7351h0a34.6988,34.6988,0,0,0,17.4039-4.6807L1246.7,797.57a11.212,11.212,0,0,0,5.0632-6.3127h0a6.1082,6.1082,0,0,0-2.31-6.8413h0a6.1062,6.1062,0,0,0-3.514-1.112h-5.216Z"/><path class="cls-22" d="M1262.3687,806.2266l-1.3936,9.0721a6.7143,6.7143,0,0,0,6.6365,7.7342h0a34.7075,34.7075,0,0,0,17.405-4.68l2.6681-1.5474a11.2039,11.2039,0,0,0,5.0642-6.3117h0a6.11,6.11,0,0,0-2.31-6.8422h0a6.1074,6.1074,0,0,0-3.5139-1.1121h-5.216Z"/><path class="cls-23" d="M1276.1349,659.6714h0a215.3668,215.3668,0,0,1,3.8733,45.1978c-.7227,36.0307-2.0864,101.87-2.0864,101.87-.079,4.2741-5.2162,6.0474-9.4913,6.0474,0,0-5.8311-1.48-6.1655-5.5486l-4.5241-55.0215-7.2881-52.1189-6.1552-2.2779-7.8629,92.8774c-.54,4.5048-3.8042,4.5211-8.3407,4.5211,0,0-7.1421-.83-6.9651-5.8984l1.6222-97.535a45.5808,45.5808,0,0,1,.7987-7.7726l4.6374-24.3405Z"/><path class="cls-24" d="M1227.2492,662.8018l.938-3.13h47.9477s-7.0651,10.0726-28.1293,10.0726C1236.5125,669.744,1230.42,666.1071,1227.2492,662.8018Z"/><path class="cls-25" d="M1236.1694,577.1991l12.5023,9.347,13.6105-8.1138a19.2926,19.2926,0,0,1-3.3611-12.1813c7.25,1.038,6.7087-5.51,7.4728-9.0519,1.6667-7.7332.17-15.4174-1.9511-23.091h-22.49l.1193,28.5415C1241.5459,567.6158,1238.7721,571.6083,1236.1694,577.1991Z"/><path class="cls-26" d="M1264.0449,544.1518a11.3063,11.3063,0,0,1-1.4494.8429v2.9834a5.1493,5.1493,0,0,0-5.77-2.9834c-4.2818.75-1.6618,8.381,2.9776,8.381l-.6844,2.2491a10.6318,10.6318,0,0,1-10.1716,7.5371h-4.7095a4.8684,4.8684,0,0,1-4.7709-3.8983l-5.5573-14.9551a14.9866,14.9866,0,0,1,2.2875-14.7014,17.15,17.15,0,0,1,10.0187-6.0128c12.4706-2.6056,21.9992,3.4687,22.8527,6.7817A12.7907,12.7907,0,0,1,1264.0449,544.1518Z"/><path class="cls-27" d="M1221.3911,580.7447s-12.5282,12.1141-19.332,60.51c-.6555,4.6624,4.2885,34.8052,4.2885,34.8052-.0008,3.5206,13.2549,3.5206,13.2558,0l-2.1749-28.555a12.6039,12.6039,0,0,1,.54-4.0579l15.0512-51.6787Z"/><path class="cls-28" d="M1202.0591,641.2543q.173-1.2514.3777-2.48c0,4.3885,1.2639,6.5385,7.8217,6.5385,4.721,0,8.15-12.6916,9.7015-19.8068a1.8467,1.8467,0,0,1,3.3918-.5431h0l-5.3832,18.4834a12.6,12.6,0,0,0-.54,4.0579l2.1749,28.555c-.0009,1.8684-3.7339,2.745-7.2382,2.6306-.0144-.0009-.0279-.0019-.0413-.0019a17.1377,17.1377,0,0,1-1.7829-.1528c-.2268-.0327-.4479-.0711-.6661-.1125-.3008-.0576-.59-.1249-.865-.2009-.272-.0749-.5267-.1585-.767-.2508a4.7121,4.7121,0,0,1-1.0888-.569,1.679,1.679,0,0,1-.8065-1.3427s-.9448-5.7687-1.953-12.65c-.2884-1.9655-.5815-4.0223-.8593-6.0618-.1392-1.0188-.2737-2.0338-.4036-3.0314C1202.36,648.3349,1201.8168,643.0035,1202.0591,641.2543Z"/><path class="cls-27" d="M1262.9944,576.8733s-3.5331-2.4787-18.7458-3.5792c-7.3017-.5277-6.646-.1778-6.646-.1778s-10.4678,1.8838-16.2115,7.6284,6.7961,78.9267,6.7961,78.9267,19.8953,11.7959,47.9477,0l7.1431-70.7725S1277.0259,576.8733,1262.9944,576.8733Z"/><path class="cls-25" d="M1327.1226,562.8024l.8477-10.9779,5.5572-14.2747a2.63,2.63,0,0,1,3.1382-1.6387,2.5375,2.5375,0,0,1,1.6857,3.2208l-2.6575,8.1157a6.3135,6.3135,0,0,0,6.8211,2.0414,2.6118,2.6118,0,0,1,1.0572,3.0564l-.1941.5921a2.5344,2.5344,0,0,1,3.3928-.7555,2.6131,2.6131,0,0,1,1.0774,3.0727l-1.1063,3.3784h0a9.3472,9.3472,0,0,1-1.628,2.991c-.346.4258-.7556.9227-1.2034,1.4484l-4.8132,7.55c-1.9782,1.978-3.5861,1.5752-7.8631.5622s-5.43-5.6379-5.43-5.6379Z"/><path class="cls-29" d="M1275.33,580.36s26.0378,18.2143,30.8454,16.96,20.4133-33.4049,20.4133-33.4049c-2.2846,4.59,9.8227,10.1841,12.6128,6.4434,0,0-9.197,40.7575-23.62,45.1469s-45.7774-9.197-45.7774-9.197S1259.9515,586.3933,1275.33,580.36Z"/><path class="cls-25" d="M1219.6034,676.06l.9007,5.53a29.2364,29.2364,0,0,1,.23,7.6573l-.173,1.71a2.1481,2.1481,0,0,1-2.1366,1.93h0l-.51,3.8282a2.47,2.47,0,0,1-2.448,2.1423h0a2.4688,2.4688,0,0,1-2.4691-2.4691v-.6517l-.693-.0922a9.0158,9.0158,0,0,1-7.28-5.8552h0a9.0159,9.0159,0,0,1-.3835-4.7672l1.7079-8.9625Z"/><path class="cls-30" d="M1206.3476,676.06h11.3586l-.4662,2.0751s-3.3937,3.9887-1.7454,8.825c0,0-3.0775-.44-3.9569,1.4831s.7488,4.4442,6.8864,4.4442l-.51,3.8282a2.4694,2.4694,0,0,1-4.9171-.3268v-.6517l-.693-.0922a9.0149,9.0149,0,0,1-7.664-10.6224Z"/><path class="cls-30" d="M1205.0232,689.7892a9.0159,9.0159,0,0,1-.3835-4.7672l1.7079-8.9625h7.6017l.9034,2.5432s.9677,6.8672-3.0017,8.1h-1.9847a1.7987,1.7987,0,0,0,1.606,1.9194c-.5968,1.6128.5536,3.559,4.5644,4.1088-.1019,1.09-.9429,2.1914-3.04,3.0054l-.693-.0922A9.0158,9.0158,0,0,1,1205.0232,689.7892Z"/><g class="cls-31"><circle class="cls-32" cx="1392.4926" cy="574.3877" r="32.6349"/></g><g class="cls-33"><path class="cls-34" d="M1408.5912,574.3877a16.099,16.099,0,1,1-16.0986-16.0987A16.099,16.099,0,0,1,1408.5912,574.3877Z"/></g><path class="cls-20" d="M1395.1586,615.047a2.2059,2.2059,0,1,1-2.2061-2.2056A2.2057,2.2057,0,0,1,1395.1586,615.047Z"/><path class="cls-20" d="M1395.1586,622.8012a2.2059,2.2059,0,1,1-2.2061-2.2061A2.2057,2.2057,0,0,1,1395.1586,622.8012Z"/><path class="cls-20" d="M1395.1586,630.5549a2.2059,2.2059,0,1,1-2.2061-2.2056A2.2058,2.2058,0,0,1,1395.1586,630.5549Z"/><polygon class="cls-15" points="1339.329 391.744 1332.515 391.707 1332.515 388.472 1339.329 388.509 1339.329 391.744"/><polygon class="cls-15" points="1351.767 391.812 1341.943 391.758 1341.943 388.523 1351.767 388.577 1351.767 391.812"/><polygon class="cls-15" points="1360.798 391.862 1354.381 391.826 1354.381 388.591 1360.798 388.627 1360.798 391.862"/><polygon class="cls-15" points="1367.612 391.899 1363.411 391.876 1363.411 388.641 1367.612 388.664 1367.612 391.899"/><polygon class="cls-15" points="1377.039 391.951 1370.225 391.914 1370.225 388.679 1377.039 388.716 1377.039 391.951"/><polygon class="cls-15" points="1339.329 402.509 1332.515 402.472 1332.515 399.236 1339.329 399.274 1339.329 402.509"/><polygon class="cls-15" points="1360.798 402.627 1341.943 402.523 1341.943 399.288 1360.798 399.392 1360.798 402.627"/><polygon class="cls-15" points="1358.185 402.612 1351.371 402.575 1351.371 399.34 1358.185 399.377 1358.185 402.612"/><polygon class="cls-15" points="1377.039 402.716 1363.411 402.641 1363.411 399.406 1377.039 399.481 1377.039 402.716"/><polygon class="cls-15" points="1339.329 413.274 1332.515 413.236 1332.515 410.001 1339.329 410.039 1339.329 413.274"/><polygon class="cls-15" points="1348.757 413.326 1341.476 413.286 1341.476 410.051 1348.757 410.091 1348.757 413.326"/><polygon class="cls-15" points="1355.215 413.361 1342.212 413.29 1342.212 410.055 1355.215 410.126 1355.215 413.361"/><polygon class="cls-15" points="1367.612 413.429 1357.828 413.376 1357.828 410.141 1367.612 410.195 1367.612 413.429"/><polygon class="cls-15" points="1377.039 413.481 1370.225 413.444 1370.225 410.209 1377.039 410.246 1377.039 413.481"/><polygon class="cls-15" points="1344.043 418.682 1332.515 418.619 1332.515 415.384 1344.043 415.447 1344.043 418.682"/><polygon class="cls-15" points="1348.757 418.708 1346.657 418.697 1346.657 415.462 1348.757 415.473 1348.757 418.708"/><polygon class="cls-15" points="1363.411 418.789 1351.371 418.723 1351.371 415.487 1363.411 415.554 1363.411 418.789"/><polygon class="cls-15" points="1370.707 418.829 1366.024 418.803 1366.024 415.568 1370.707 415.594 1370.707 418.829"/><polygon class="cls-15" points="1377.039 418.864 1373.32 418.843 1373.32 415.608 1377.039 415.629 1377.039 418.864"/><polygon class="cls-15" points="1339.329 424.039 1332.515 424.001 1332.515 420.767 1339.329 420.804 1339.329 424.039"/><polygon class="cls-15" points="1353.908 424.119 1341.943 424.053 1341.943 420.818 1353.908 420.884 1353.908 424.119"/><polygon class="cls-15" points="1364.205 424.176 1356.522 424.134 1356.522 420.898 1364.205 420.941 1364.205 424.176"/><polygon class="cls-15" points="1364.999 424.18 1360.798 424.157 1360.798 420.922 1364.999 420.945 1364.999 424.18"/><polygon class="cls-15" points="1377.039 424.246 1367.612 424.195 1367.612 420.96 1377.039 421.011 1377.039 424.246"/><polygon class="cls-15" points="1335.336 429.4 1332.515 429.384 1332.515 426.149 1335.336 426.165 1335.336 429.4"/><polygon class="cls-15" points="1345.35 429.455 1337.949 429.414 1337.949 426.179 1345.35 426.22 1345.35 429.455"/><polygon class="cls-15" points="1358.185 429.525 1347.963 429.469 1347.963 426.234 1358.185 426.29 1358.185 429.525"/><polygon class="cls-15" points="1367.612 429.577 1360.798 429.539 1360.798 426.304 1367.612 426.342 1367.612 429.577"/><polygon class="cls-15" points="1339.329 435.061 1332.515 435.023 1332.515 431.788 1339.329 431.826 1339.329 435.061"/><polygon class="cls-15" points="1351.767 435.129 1341.943 435.075 1341.943 431.84 1351.767 431.894 1351.767 435.129"/><polygon class="cls-15" points="1360.798 435.179 1354.381 435.143 1354.381 431.908 1360.798 431.944 1360.798 435.179"/><polygon class="cls-15" points="1367.612 435.216 1363.411 435.193 1363.411 431.958 1367.612 431.981 1367.612 435.216"/><polygon class="cls-15" points="1377.039 435.268 1370.225 435.23 1370.225 431.995 1377.039 432.033 1377.039 435.268"/><polygon class="cls-15" points="1341.844 440.457 1332.515 440.406 1332.515 437.171 1341.844 437.222 1341.844 440.457"/><polygon class="cls-15" points="1357.353 440.542 1344.457 440.472 1344.457 437.237 1357.353 437.307 1357.353 440.542"/><polygon class="cls-15" points="1358.185 440.546 1351.371 440.509 1351.371 437.274 1358.185 437.312 1358.185 440.546"/><polygon class="cls-15" points="1377.039 440.65 1367.612 440.599 1367.612 437.364 1377.039 437.415 1377.039 440.65"/><polygon class="cls-15" points="1339.329 445.826 1332.515 445.789 1332.515 442.553 1339.329 442.591 1339.329 445.826"/><polygon class="cls-15" points="1377.039 446.033 1363.411 445.958 1363.411 442.723 1377.039 442.798 1377.039 446.033"/><polygon class="cls-15" points="1367.612 451.364 1360.798 451.327 1360.798 448.091 1367.612 448.129 1367.612 451.364"/><polygon class="cls-15" points="1377.039 451.415 1370.225 451.378 1370.225 448.143 1377.039 448.18 1377.039 451.415"/><polygon class="cls-15" points="1339.329 456.591 1332.515 456.553 1332.515 453.318 1339.329 453.356 1339.329 456.591"/><polygon class="cls-15" points="1348.757 456.643 1341.476 456.603 1341.476 453.368 1348.757 453.408 1348.757 456.643"/><polygon class="cls-15" points="1355.215 456.678 1342.212 456.607 1342.212 453.372 1355.215 453.443 1355.215 456.678"/><polygon class="cls-15" points="1377.039 456.798 1370.225 456.761 1370.225 453.526 1377.039 453.563 1377.039 456.798"/><polygon class="cls-15" points="1344.043 461.999 1332.515 461.936 1332.515 458.701 1344.043 458.764 1344.043 461.999"/><polygon class="cls-15" points="1348.757 462.025 1346.657 462.013 1346.657 458.779 1348.757 458.79 1348.757 462.025"/><polygon class="cls-15" points="1363.411 462.106 1351.371 462.04 1351.371 458.804 1363.411 458.871 1363.411 462.106"/><polygon class="cls-15" points="1370.707 462.146 1366.024 462.12 1366.024 458.885 1370.707 458.91 1370.707 462.146"/><polygon class="cls-15" points="1377.039 462.181 1373.32 462.16 1373.32 458.925 1377.039 458.946 1377.039 462.181"/><polygon class="cls-15" points="1353.908 467.436 1341.943 467.37 1341.943 464.135 1353.908 464.201 1353.908 467.436"/><polygon class="cls-15" points="1364.205 467.493 1356.522 467.45 1356.522 464.215 1364.205 464.258 1364.205 467.493"/><polygon class="cls-15" points="1364.999 467.497 1360.798 467.474 1360.798 464.239 1364.999 464.262 1364.999 467.497"/><polygon class="cls-15" points="1377.039 467.563 1367.612 467.512 1367.612 464.277 1377.039 464.328 1377.039 467.563"/><polygon class="cls-15" points="1335.336 472.717 1332.515 472.701 1332.515 469.466 1335.336 469.482 1335.336 472.717"/><polygon class="cls-15" points="1345.35 472.771 1337.949 472.731 1337.949 469.496 1345.35 469.536 1345.35 472.771"/><polygon class="cls-15" points="1358.185 472.842 1347.963 472.786 1347.963 469.551 1358.185 469.607 1358.185 472.842"/><polygon class="cls-15" points="1367.612 472.894 1360.798 472.856 1360.798 469.621 1367.612 469.659 1367.612 472.894"/><polygon class="cls-15" points="1377.039 472.946 1370.225 472.908 1370.225 469.673 1377.039 469.711 1377.039 472.946"/><polygon class="cls-15" points="1339.329 478.378 1332.515 478.34 1332.515 475.105 1339.329 475.143 1339.329 478.378"/><polygon class="cls-15" points="1367.612 478.533 1363.411 478.51 1363.411 475.275 1367.612 475.298 1367.612 478.533"/><polygon class="cls-15" points="1377.039 478.585 1370.225 478.547 1370.225 475.312 1377.039 475.35 1377.039 478.585"/><polygon class="cls-15" points="1341.844 483.774 1332.515 483.723 1332.515 480.487 1341.844 480.539 1341.844 483.774"/><polygon class="cls-15" points="1357.353 483.859 1344.457 483.788 1344.457 480.553 1357.353 480.624 1357.353 483.859"/><polygon class="cls-15" points="1358.185 483.863 1351.371 483.826 1351.371 480.591 1358.185 480.628 1358.185 483.863"/><polygon class="cls-15" points="1364.999 483.901 1360.798 483.878 1360.798 480.643 1364.999 480.666 1364.999 483.901"/><polygon class="cls-15" points="1377.039 483.967 1367.612 483.916 1367.612 480.681 1377.039 480.732 1377.039 483.967"/><polygon class="cls-15" points="1339.329 489.143 1332.515 489.105 1332.515 485.87 1339.329 485.908 1339.329 489.143"/><polygon class="cls-15" points="1360.798 489.261 1341.943 489.157 1341.943 485.922 1360.798 486.025 1360.798 489.261"/><polygon class="cls-15" points="1358.185 489.246 1351.371 489.209 1351.371 485.974 1358.185 486.011 1358.185 489.246"/><polygon class="cls-15" points="1377.039 489.35 1363.411 489.275 1363.411 486.04 1377.039 486.115 1377.039 489.35"/><polygon class="cls-15" points="1339.329 494.525 1332.515 494.488 1332.515 491.253 1339.329 491.29 1339.329 494.525"/><polygon class="cls-15" points="1348.757 494.577 1338.348 494.52 1338.348 491.285 1348.757 491.342 1348.757 494.577"/><polygon class="cls-15" points="1367.612 494.681 1360.798 494.643 1360.798 491.408 1367.612 491.446 1367.612 494.681"/><polygon class="cls-15" points="1377.039 494.732 1370.225 494.695 1370.225 491.46 1377.039 491.497 1377.039 494.732"/><polygon class="cls-15" points="1339.329 499.908 1332.515 499.87 1332.515 496.635 1339.329 496.672 1339.329 499.908"/><polygon class="cls-15" points="1348.757 499.959 1341.476 499.92 1341.476 496.684 1348.757 496.725 1348.757 499.959"/><polygon class="cls-15" points="1367.612 500.063 1357.828 500.009 1357.828 496.774 1367.612 496.828 1367.612 500.063"/><polygon class="cls-15" points="1377.039 500.115 1370.225 500.078 1370.225 496.842 1377.039 496.88 1377.039 500.115"/><polygon class="cls-15" points="1344.043 505.316 1332.515 505.253 1332.515 502.018 1344.043 502.081 1344.043 505.316"/><polygon class="cls-15" points="1363.411 505.422 1351.371 505.356 1351.371 502.121 1363.411 502.187 1363.411 505.422"/><polygon class="cls-15" points="1370.707 505.463 1366.024 505.437 1366.024 502.202 1370.707 502.227 1370.707 505.463"/><polygon class="cls-15" points="1377.039 505.497 1373.32 505.477 1373.32 502.242 1377.039 502.262 1377.039 505.497"/><polygon class="cls-15" points="1353.908 510.752 1341.943 510.687 1341.943 507.452 1353.908 507.518 1353.908 510.752"/><polygon class="cls-15" points="1364.205 510.81 1356.522 510.767 1356.522 507.532 1364.205 507.575 1364.205 510.81"/><polygon class="cls-15" points="1364.999 510.814 1360.798 510.791 1360.798 507.556 1364.999 507.579 1364.999 510.814"/><polygon class="cls-15" points="1377.039 510.88 1367.612 510.828 1367.612 507.593 1377.039 507.645 1377.039 510.88"/><polygon class="cls-15" points="1335.336 516.034 1332.515 516.018 1332.515 512.783 1335.336 512.799 1335.336 516.034"/><polygon class="cls-15" points="1345.35 516.088 1337.949 516.048 1337.949 512.812 1345.35 512.853 1345.35 516.088"/><polygon class="cls-15" points="1358.185 516.159 1347.963 516.103 1347.963 512.868 1358.185 512.924 1358.185 516.159"/><polygon class="cls-15" points="1367.612 516.21 1360.798 516.173 1360.798 512.938 1367.612 512.976 1367.612 516.21"/><polygon class="cls-15" points="1377.039 516.263 1370.225 516.225 1370.225 512.99 1377.039 513.028 1377.039 516.263"/><g class="cls-35"><circle class="cls-36" cx="1586.3582" cy="675.0605" r="50.2413" transform="translate(-94.8578 293.2859) rotate(-10.2578)"/></g><g class="cls-37"><path class="cls-38" d="M1611.1113,672.8193a24.7843,24.7843,0,1,1-25.9947-23.5122A24.7842,24.7842,0,0,1,1611.1113,672.8193Z"/></g><path class="cls-20" d="M1576.4913,681.5516a3.9156,3.9156,0,1,1-4.1068-3.714A3.9161,3.9161,0,0,1,1576.4913,681.5516Z"/><path class="cls-20" d="M1590.1505,672.5033a3.9156,3.9156,0,1,1-4.1068-3.714A3.9162,3.9162,0,0,1,1590.1505,672.5033Z"/><path class="cls-20" d="M1603.8093,663.4555a3.9154,3.9154,0,1,1-4.1063-3.7146A3.9146,3.9146,0,0,1,1603.8093,663.4555Z"/></g></g></svg>